o tripo_part_0
v 0.008 0.17094 0.12973
v 0.00811 0.17358 0.12767
v 0.00829 0.11221 0.11011
v 0.00832 0.15657 0.12944
v 0.00837 0.09713 0.02084
v 0.00845 0.12419 0.07779
v 0.00849 0.12443 0.11004
v 0.00851 0.08239 0.11021
v 0.00864 0.13531 0.11009
v 0.0087 0.11955 0.11005
v 0.00876 0.11102 0.02095
v 0.00877 0.00742 0.08709
v 0.00892 0.15691 -0.13141
v 0.00908 0.00706 0.03831
v 0.00917 0.0828 0.07259
v 0.00922 0.09317 0.06988
v 0.00933 0.10277 -0.05269
v 0.0096 0.12254 -0.12946
v 0.00962 0.11953 0.05969
v 0.00982 0.12521 0.06645
v 0.00982 0.08299 0.04843
v 0.00984 0.11078 0.03246
v 0.00999 0.01966 0.09309
v 0.00999 0.13512 0.06209
v 0.01004 0.09915 0.02584
v 0.01028 0.01741 -0.12715
v 0.01035 0.09412 0.01816
v 0.0104 0.15524 -0.1284
v 0.01041 0.12466 0.02469
v 0.01044 0.17195 -0.13066
v 0.01071 0.08467 0.01368
v 0.01089 0.11956 0.01841
v 0.01102 0.13661 0.10857
v 0.01103 0.12201 -0.12722
v 0.0111 0.11227 -0.00628
v 0.01114 0.08414 -0.00531
v 0.01116 0.10004 -0.00654
v 0.01119 0.1356 0.01357
v 0.01134 0.10917 0.00732
v 0.01143 0.11918 -0.00557
v 0.01147 0.10912 0.00019
v 0.01149 0.11882 0.01285
v 0.01158 0.00108 0.10175
v 0.01167 0.11545 0.12659
v 0.01172 0.09048 0.00776
v 0.01176 0.08318 -0.03266
v 0.01176 0.11222 -0.05022
v 0.0118 0.12471 -0.03449
v 0.0118 0.08294 -4E-05
v 0.01189 0.10036 -0.04816
v 0.01194 0.01995 0.10895
v 0.01202 0.01951 0.08448
v 0.01203 0.10582 -0.05265
v 0.01208 0.13238 -0.01969
v 0.01215 0.13689 0.04988
v 0.01216 0.09945 -0.05915
v 0.01236 0.11354 -0.06003
v 0.01244 0.08688 0.01172
v 0.01245 0.1123 -0.08179
v 0.01245 0.05614 0.07906
v 0.01245 0.01952 -0.09267
v 0.01248 0.11918 -0.04581
v 0.01271 0.01982 0.05946
v 0.01275 0.00515 0.09062
v 0.0128 0.02144 0.11043
v 0.01283 0.08311 -0.08842
v 0.01291 0.04637 -0.12724
v 0.01292 0.01865 0.10072
v 0.01301 0.12466 -0.09369
v 0.01305 0.15711 -0.12977
v 0.01307 0.11882 -0.09539
v 0.01317 0.08705 -0.00204
v 0.01319 0.11281 -0.10964
v 0.01321 0.08279 -0.1108
v 0.01346 0.10812 0.01142
v 0.01356 0.00104 -0.10141
v 0.01356 0.13525 -0.1107
v 0.01362 0.13592 -0.03888
v 0.01366 0.00722 0.088
v 0.01371 0.13609 -0.08228
v 0.01374 0.10761 -0.00439
v 0.01383 0.0173 0.12671
v 0.01387 0.00142 0.10471
v 0.01394 0.11948 -0.1106
v 0.01411 0.01481 0.10468
v 0.01412 0.01891 0.02697
v 0.01417 0.13644 -0.00349
v 0.0142 0.0152 0.09364
v 0.01429 0.00757 0.08881
v 0.01455 0.01776 0.06435
v 0.01498 0.00717 0.0437
v 0.01506 0.01962 -0.07049
v 0.01507 0.01626 0.11023
v 0.01516 0.01922 -0.01551
v 0.0152 0.01543 0.10672
v 0.01525 0.00066 -0.10612
v 0.01547 0.00674 -0.00353
v 0.01558 0.01087 0.02808
v 0.01576 0.00199 0.10547
v 0.01577 0.14642 0.12671
v 0.01579 0.01974 -0.10985
v 0.0158 0.01308 0.10532999999999999
v 0.01601 0.01759 -0.00044
v 0.01636 0.01274 -0.01246
v 0.01649 0.09146 -0.12698
v 0.01652 0.13677 -0.11063
v 0.01654 0.01864 -0.05769
v 0.01657 0.00599 -0.09181
v 0.01685 0.05615 -0.06953
v 0.01702 0.00661 -0.05972
v 0.01748 0.02074 -0.1108
v 0.01782 0.00628 -0.09357
v 0.01787 0.00716 -0.08451
v 0.01792 0.01791 -0.09395
v 0.01798 0.00343 -0.10555
v 0.018 0.01797 -0.10738
v 0.01837 0.01404 -0.10566
v 0.01908 0.06284 0.12694
v 0.01939 0.08261 -0.00123
v 0.01966 0.13752 0.12665
v 0.02044 0.116 0.00937
v 0.02097 0.0805 0.11051
v 0.0216 0.08233 0.0644
v 0.02178 0.11719 -0.00068
v 0.02189 0.1361 -0.01611
v 0.02192 0.08056 0.07404
v 0.02193 0.11946 0.07908
v 0.02239 0.06376 -0.12695
v 0.02244 0.14338 -0.12798
v 0.02249 0.06667 0.12675
v 0.02253 0.08105 -0.08988
v 0.02259 0.01658 -0.11024
v 0.02264 0.11956 0.09963
v 0.02265 0.0562 0.10907
v 0.02275 0.13668 0.11049
v 0.02283 0.05628 0.07941
v 0.02307 0.17397 0.12239
v 0.02327 0.13532 0.10153
v 0.02329 0.05619 0.03983
v 0.02337 0.08248 -0.08023
v 0.02349 0.0572 0.11054
v 0.02351 0.13849 -0.12687
v 0.02354 0.05619 0.00334
v 0.02377 0.05742 0.07994
v 0.02384 0.15724 -0.10781
v 0.02395 0.05533 0.12695
v 0.02407 0.06317 -0.12835
v 0.02422 0.05692 0.05074
v 0.02423 0.05619 -0.02978
v 0.02428 0.1195 -0.00444
v 0.02429 0.11963 0.11059
v 0.02429 0.06006 0.06631
v 0.02438 0.0004 0.10792
v 0.02454 0.11952 -0.07208
v 0.02455 0.00042 0.12878
v 0.02466 0.11992 0.01435
v 0.02469 0.01469 0.1291
v 0.02473 0.12173 0.0857
v 0.02484 0.12124 0.07577
v 0.02485 0.13686 -0.06555
v 0.02487 0.06018 0.10947
v 0.02494 0.05983 0.03801
v 0.025 0.05697 0.02043
v 0.025 0.13607 0.03124
v 0.02508 0.13703 -0.04239
v 0.02516 0.14079 0.12839
v 0.02517 0.08072 -0.11064
v 0.02558 0.05697 -0.01019
v 0.02559 0.06001 0.01011
v 0.02571 0.06051 0.07172
v 0.02599 0.05252 -0.12704
v 0.02608 0.05999 -0.0091
v 0.0261 0.13667 -0.11076
v 0.02613 0.1498 -0.12691
v 0.02613 0.05628 -0.07208
v 0.02617 0.05613 -0.10973
v 0.02617 0.05679 -0.04303
v 0.0262 0.17406 -0.11893
v 0.02629 0.14781 0.12691
v 0.02636 0.05976 -0.02358
v 0.0264 0.05574 -0.12683
v 0.02644 0.1268 0.01229
v 0.0265 0.06048 0.0325
v 0.0266 0.12115 3E-05
v 0.02672 0.11983 -0.05248
v 0.0268 0.13167 0.00266
v 0.02683 0.05714 -0.06799
v 0.02684 0.12558 -0.00477
v 0.02721 0.05515 -0.11067
v 0.02724 0.0667 0.12689
v 0.02733 0.12139 0.00976
v 0.02733 0.13458 -0.04071
v 0.02746 0.05671 -0.1022
v 0.02748 0.11954 -0.09213
v 0.02756 0.05998 -0.05911
v 0.02771 0.06018 -0.08586
v 0.02779 0.12032 -0.11071
v 0.0278 0.06058 -0.0271
v 0.02785 0.13438 -0.067
v 0.02797 0.13596 -0.07465
v 0.02801 0.0596 -0.10923
v 0.02804 0.12576 -0.07144
v 0.02818 0.12072 -0.07841
v 0.0282 0.06246 0.12799
v 0.02823 0.14821 -0.12814
v 0.02834 0.13958 -0.12843
v 0.02848 0.06054 0.00306
v 0.02863 0.05836 -0.11068
v 0.02872 0.13471 -0.11002
v 0.02902 0.06045 -0.10928
v 0.02927 0 -0.12728
v 0.02944 0.0813 0.07314
v 0.02963 0.082 0.03535
v 0.02964 0.06122 0.12665
v 0.02987 0.17309 -0.10766
v 0.02995 0.08213 0.00239
v 0.02999 0.01497 -0.12879
v 0.03016 0.00136 -0.12897
v 0.03018 0.05853 -0.1282
v 0.03028 0.08209 -0.00095
v 0.03133 0.08203 -0.088
v 0.03153 0.08052 0.00087
v 0.03159 0.08122 -0.03376
v 0.03221 0.08055 -0.02462
v 0.03227 0.06587 -0.12681
v 0.03255 0.07904 -0.02953
v 0.03267 0.17413 0.11021
v 0.03268 0.14111 -0.12674
v 0.0328 0.08036 -0.08913
v 0.03284 0.01498 0.13367
v 0.03303 0.1572 0.13026
v 0.03313 0.1739 0.12981
v 0.03313 0.05951 -0.12672
v 0.03324 0.00172 -0.10564
v 0.03324 0.00074 0.13358
v 0.03346 0.15868 0.10747
v 0.03347 7E-05 -0.10793
v 0.03376 0.16536 0.10712
v 0.03378 0.17204 0.10835
v 0.03435 0.15749 0.10827
v 0.03457 0.06054 -0.02968
v 0.03476 0.16361 0.05043
v 0.03528 0.17275 0.01896
v 0.03539 0.17191 0.0654
v 0.03553 0.01688 0.12715
v 0.03556 0.13516 0.00353
v 0.03557 0.17284 0.10728
v 0.03562 0.13718 0.12711
v 0.03572 0.17046 -0.01787
v 0.03591 0.01579 0.10754
v 0.03591 0.16661 -0.02838
v 0.03602 0.15811 -0.01842
v 0.03615 0.12772 0.01051
v 0.0362 0.16564 -0.02392
v 0.03622 0.15572 0.12718
v 0.03651 0.17132 -0.06989
v 0.03665 0.16129 -0.07667
v 0.03685 0.07545 0.12845
v 0.03689 0.15699 -0.12952
v 0.037039999999999997 0.01694 0.11095
v 0.03705 0.08098 0.11085
v 0.03729 0.17262 -0.04078
v 0.03732 0.16675 -0.10738
v 0.03744 0.01678 0.12959
v 0.03761 0.1656 -0.09145
v 0.03765 0.15804 -0.10724
v 0.03775 0.0805 0.08214
v 0.03785 0.05927 0.11031
v 0.03805 0.17391 -0.12901
v 0.03806 0.17274 -0.0791
v 0.0381 0.10425 0.12973
v 0.0382 0.15589 0.1102
v 0.03843 0.00056 -0.13264
v 0.03874 0.06054 0.10874
v 0.03888 0.01273 -0.13319
v 0.0389 0.01617 0.10965
v 0.03892 0.01582 -0.10693
v 0.03895 0.15599 0.12975
v 0.03899 0.08074 0.10968
v 0.0392 0.15717 0.13425
v 0.03929 0.1737 0.13438
v 0.03984 0.12751 0.00051
v 0.03995 0.06047 -0.12654
v 0.04041 0.17271 -0.01243
v 0.0408 0.01674 -0.12645
v 0.04092 0.1092 -0.12658
v 0.04101 0.15517 -0.1266
v 0.04102 0.07569 -0.12701
v 0.04132 0.15587 -0.11053
v 0.04136 0.08046 -0.03165
v 0.04148 0.13104 -0.11065
v 0.04149 0.08042 -0.11064
v 0.04158 0.01664 -0.11076
v 0.0419 0.01396 -0.1052
v 0.04193 0.01613 -0.11008
v 0.04199 0.06053 -0.10831
v 0.04253 0.15467 -0.1283
v 0.04256 0.05933 -0.11002
v 0.04307 0.01704 -0.12907
v 0.04333 0.1046 -0.12914
v 0.04346 0.03476 -0.12891
v 0.04355 0.15778 -0.13321
v 0.04363 0.0807 -0.10937
v 0.04369 0.01878 -0.10916
v 0.0437 0.1563 -0.10922
v 0.04392 0.15551 -0.12902
v 0.04473 0.07448 -0.12905
v 0.04673 0.00175 0.1064
v 0.04947 0.17175 -0.13475
v 0.05001 0.01863 0.12996
v 0.05002 0.08049 0.01552
v 0.05007 0.06058 0.10892
v 0.05019 0.06051 0.0625
v 0.05024 0.01472 0.13429
v 0.05041 0.0095 0.10645
v 0.05073 0.17271 0.06554
v 0.05073 0.00043 0.13397
v 0.05079 0.01388 0.10653
v 0.05095 0.08051 0.05617
v 0.05098 0.06058 0.04076
v 0.05107 0.06056 0.08593
v 0.05124 0.1728 0.00906
v 0.05128 0.08044 0.04141
v 0.0514 0.08049 0.07923
v 0.05142 0.01669 0.1101
v 0.05144 0.08024 -0.09808
v 0.05147 0.0005 0.10683
v 0.05152 0.17302 0.13438
v 0.05154 0.13404 0.11001
v 0.05175 0.1576 0.0462
v 0.05181 0.01519 -0.10563
v 0.05184 0.07954 0.11003
v 0.05186 0.11114 0.11008
v 0.05186 0.17252 0.10756
v 0.05204 0.09224 0.13
v 0.05221 0.07085 0.10976
v 0.05221 0.06196 0.10973
v 0.05264 0.15627 0.12807
v 0.05267 0.17269 -0.07216
v 0.05269 0.05911 0.11014
v 0.05271 0.15633 0.11015
v 0.05277 0.07927 0.06534
v 0.05283 0.07093 0.07437
v 0.05286 0.06338 0.07014
v 0.05294 0.15847 0.13475
v 0.05311 0.06053 0.01045
v 0.0532 0.15842 0.10784
v 0.0532 0.07792 0.06766
v 0.0534 0.08033 -0.07768
v 0.05346 0.0806 0.1299
v 0.05363 0.10188 0.12872
v 0.05366 0.06438 0.03975
v 0.0537 0.06054 -0.02476
v 0.0538 0.04069 0.12624
v 0.05383 0.07113 0.02524
v 0.05386 0.07917 -0.02853
v 0.05389 0.06056 -0.02951
v 0.05389 0.11386 0.12444
v 0.05392 0.05636 0.11184
v 0.05393 0.08047 -0.0238
v 0.05394 0.06186 0.02076
v 0.05398 0.0707 0.00759
v 0.05398 0.01635 0.12721
v 0.05398 0.07818 0.0107
v 0.05403 0.17033 0.10748
v 0.05408 0.06108 -0.02757
v 0.05413 0.10303 0.11544
v 0.05413 0.01671 0.11327
v 0.05421 0.09686 0.11258
v 0.05422 0.14923 0.11472
v 0.05428 0.07234 0.00356
v 0.05432 0.07103 -0.02768
v 0.05443 0.06155 0.01012
v 0.05445 0.1705 0.08327
v 0.05459 0.16471 0.00062
v 0.05464 0.0107 -0.10485
v 0.05472 0.15835 -0.00176
v 0.05474 0.06056 -0.09607
v 0.05477 0.06971 -0.02466
v 0.05486 0.08029 -0.03023
v 0.05493 0.15914 0.05709
v 0.05494 0.15756 -0.0565
v 0.05495 0.06144 -0.02564
v 0.05501 0.07872 -0.02518
v 0.05501 0.16882 0.05516
v 0.05511 0.07056 -0.02919
v 0.05525 0.15952 0.0325
v 0.05528 0.06178 -0.0313
v 0.05528 0.01936 -0.10886
v 0.05543 0.07826 -0.04712
v 0.05556 0.00192 0.12721
v 0.05557 0.15666 -0.10891
v 0.05558 0.01367 0.11314
v 0.05564 0.00051 0.1122
v 0.05568 0.00972 -0.13283
v 0.05578 0.1742 0.11283
v 0.05579 0.06098 -0.06774
v 0.05579 0.16966 0.00582
v 0.0558 0.15756 -0.10537
v 0.05581 0.16995 -0.00594
v 0.05594 0.01527 -0.13275
v 0.0561 0.17214 -0.10619
v 0.05616 0.0799 -0.10881
v 0.05617 0.17079 -0.03275
v 0.05619 0.0005 -0.10532
v 0.05621 0.001 -0.13284
v 0.05622 0.06049 -0.10895
v 0.05623 0.07547 -0.08396
v 0.05623 0.17006 -0.07942
v 0.05628 0.15821 -0.05302
v 0.05641 0.17412 0.12321
v 0.05652 0.12517 -0.12867
v 0.05655 0.0737 -0.09882
v 0.0567 0.06163 -0.09032
v 0.05687 0.15716 -0.13284
v 0.05689 0.0772 -0.10857
v 0.05703 0.06178 -0.10867
v 0.05703 0.04588 -0.10924
v 0.05734 0.01712 -0.10974
v 0.05751 0.06061 -0.1285
v 0.05776 0.10692 -0.10987
v 0.05778 0.0175 -0.1284
v 0.05808 0.15958 0.12959
v 0.05817 0.08068 -0.12868
v 0.0584 0.17008 0.12888
v 0.05854 0.15827 0.10995
v 0.05887 0.16873 0.11004
v 0.05897 0.06414 -0.11117
v 0.05902 0.15536 -0.12752
v 0.05904 0.15539 -0.11147
v 0.05908 0.01917 -0.11201
v 0.05913 0.047 -0.12424
v 0.05916 0.11176 -0.11631
v 0.05921 0.01928 -0.12502
v 0.05925 0.06336 -0.12666
v 0.05926 0.17406 -0.10854
v 0.05931 0.12202 -0.12518
v 0.06039 0.01481 -0.11134
v 0.06062 2E-05 -0.12768
v 0.06069 0.0098 -0.11147
v 0.06074 0.00098 -0.11053
v 0.06078 0.01529 -0.1269
v 0.06095 0.0092 -0.12562
v 0.06105 0.17144 -0.10678
v 0.06117 0.1582 -0.10708
v 0.06181 0.17385 -0.12656
v 0.06181 0.15811 -0.12619
v 0.00695 0.05518 -0.11109
v 0.00686 0.12429 -0.0649
v 0.00652 0.01955 -0.09186
v 0.00636 0.15538 0.1264
v 0.00589 0.12179 0.12651
v 0.00528 0.1239 -0.1107
v 0.0052 0.08191 -0.11007
v 0.00505 0.07057 0.12657
v 0.005 0.11203 -0.10984
v 0.00499 0.17262 0.13058
v 0.00471 0.15739 0.131
v 0.00459 0.11345 -0.11074
v 0.00453 0.15578 0.12889
v 0.00432 0.08075 -0.11089
v 0.0042 0.12309 0.12889
v 0.00415 0.08145 -0.0749
v 0.00413 0.12372 0.01791
v 0.00411 0.12167 -0.08379
v 0.00369 0.08165 -0.03894
v 0.00364 0.12305 -0.03973
v 0.00344 0.01973 -0.0969
v 0.00332 0.0012 -0.10145
v 0.00331 0.11239 -0.03261
v 0.00281 0.17152 -0.10832
v 0.0028 0.08095 -0.03188
v 0.00249 0.08148 0.00447
v 0.00245 0.00403 -0.09451
v 0.00231 0.00722 -0.09122
v 0.00226 0.01962 -0.10956
v 0.00222 0.05616 -0.01762
v 0.00208 0.00703 -0.0743
v 0.00208 0.02099 -0.11111
v 0.00207 0.12376 0.08289
v 0.00195 0.00098 -0.10614
v 0.00188 0.01968 -0.07446
v 0.00177 0.11272 0.03739
v 0.00172 0.05596 0.10966
v 0.00154 0.08123 0.04712
v 0.00148 0.1263 -0.1297
v 0.00116 0.01904 -0.09144
v 0.00108 0.01947 -0.03277
v 0.00095 0.11222 0.08896
v 0.00084 0.00713 -0.03955
v 0.00068 0.01977 -0.00726
v 0.00056 0.01978 0.03288
v 0.0005 0.0814 0.10861
v 0.00035 0.124 0.10989
v 0.00021 0.00339 -0.10548
v 0.00018 0.01695 -0.10541
v 0.00014 0.11254 0.10934
v 0.00012 0.00564 -0.09552
v 0.0001 0.00722 -0.00644
v 7E-05 0.0154 -0.09692
v -1E-05 0.00852 -0.09195
v -6E-05 0.1213 0.10841
v -6E-05 0.01865 -0.07003
v -8E-05 0.01732 -0.08976
v -0.0003 0.08141 0.1097
v -0.00035 0.00951 -0.0713
v -0.00038 0.12645 -0.12762
v -0.00044 0.08065 0.1088
v -0.00056 0.12606 -0.11138
v -0.00058 0.12572 -0.11934
v -0.00063 0.01633 -0.11073
v -0.00079 0.00861 -0.05465
v -0.00079 0.01797 -0.06035
v -0.00128 0.17135 -0.13174
v -0.00132 0.0569 -0.12745
v -0.00134 0.17338 0.10971
v -0.00134 0.0085 -0.01723
v -0.0014 3E-05 -0.10792
v -0.00163 0.01801 -0.02285
v -0.00171 0.01517 -0.02248
v -0.00187 0.01985 0.10863
v -0.00196 0.0192 0.02028
v -0.00241 0.00118 0.09969
v -0.00244 0.00498 0.08916
v -0.00256 0.01965 0.06211
v -0.00258 0.00838 0.04124
v -0.00261 0.1733 -0.12997
v -0.00265 0.01774 0.01993
v -0.00302 0.01753 0.03926
v -0.00311 0.17319 -0.11289
v -0.00315 0.0076 0.08596
v -0.00335 0.05614 -0.11027
v -0.00336 0.14557 -0.11098
v -0.00342 0.02159 0.10999
v -0.00343 0.15566 -0.11095
v -0.00356 0.00043 0.10624
v -0.00367 0.019 0.10867
v -0.00386 0.12346 0.12863
v -0.00395 0.01762 0.08711
v -0.00399 0.00826 0.08709
v -0.004 0.10765 -0.12874
v -0.00405 0.11829 -0.12926
v -0.00426 0.11827 -0.11129
v -0.00442 0.14822 -0.12863
v -0.00452 0.15553 -0.12975
v -0.00456 0.00272 0.10377
v -0.00457 0.05796 -0.12988
v -0.00461 0.01515 0.10384
v -0.00466 0.03196 -0.11137
v -0.00481 0.12561 0.1102
v -0.00502 0.14872 -0.11295
v -0.00517 0.12627 0.12718
v -0.00551 0.15563 -0.11138
v -0.00567 0.04872 0.12628
v -0.00577 0.17113 0.13074
v -0.00581 0.12395 0.12086
v -0.0059 0.05396 0.11002
v -0.00603 0.0131 0.10496
v -0.00617 0.1573 -0.13193
v -0.00626 0.00167 0.10489
v -0.00635 0.08132 0.00354
v -0.00645 0.14408 0.12857
v -0.00668 0.01524 0.10587
v -0.00676 0.01636 0.10987
v -0.00755 0.17305 0.12688
v -0.00788 0.01698 -0.12761
v -0.00851 0.05814 0.12627
v -0.00856 0.15801 -0.10868
v -0.00871 0.01481 -0.12975
v -0.00877 0.17159 0.11026
v -0.00879 0.0006 -0.12919
v -0.00886 0.10731 0.12628
v -0.00898 0.08332 0.12628
v -0.00921 0.11652 0.10973
v -0.00924 0.15009 0.10993
v -0.00928 0.01408 -0.10659
v -0.00945 0.11796 0.12689
v -0.00961 0.15731 -0.13025
v -0.00965 0.1177 0.11798
v -0.00983 0.16682 -0.10901
v -0.00987 0.16612 -0.13065
v -0.01006 0.08126 -0.08768
v -0.01021 0.05558 0.12643
v -0.01025 0.15758 -0.11057
v -0.01037 0.15569 0.12834
v -0.01057 0.10799 0.1286
v -0.01067 0.05766 0.12859
v -0.01093 0.0799 -0.13013
v -0.01134 0.08135 -0.04255
v -0.01146 0.10868 -0.13003
v -0.01164 0.15666 0.1089
v -0.01188 0.0803 -0.09089
v -0.01206 0.08131 -0.11115
v -0.01247 0.0803 -0.06751
v -0.01279 0.10827 -0.11209
v -0.01292 0.08028 -0.04631
v -0.01297 0.08089 -0.00384
v -0.01304 0.10894 -0.12795
v -0.01308 0.08147 -0.12914
v -0.01358 0.08228 -0.1134
v -0.01361 0.08103 -0.08974
v -0.01373 0.01463 0.12807
v -0.01384 0.16652 0.10784
v -0.01406 0.15735 0.13058
v -0.0141 0.00162 -0.10678
v -0.01413 0.08108 -0.0656
v -0.0142 0.08138 -0.12813
v -0.01434 0.08082 0.04538
v -0.01441 0.16664 0.12909
v -0.01456 0.08137 -0.11088
v -0.0147 0.0812 0.09709
v -0.01482 0.00055 0.12804
v -0.01486 0.08123 -0.02925
v -0.0155 0.01664 0.12621
v -0.01576 0.08123 0.01937
v -0.01618 0.10698 0.1095
v -0.01637 0.07977 0.12849
v -0.01661 0.08067 0.10776
v -0.01671 0.08101 0.05958
v -0.01727 5E-05 -0.13231
v -0.01754 0.08177 0.10941
v -0.01766 0.10875 0.11182
v -0.01776 0.10849 0.12778
v -0.0179 0.01289 -0.13411
v -0.01796 0.00123 -0.13403
v -0.01807 0.0815 0.12657
v -0.01982 0.08118 0.10917
v -0.02078 0.08173 -0.00888
v -0.02096 0.01638 -0.12812
v -0.0214 0.01546 -0.13266
v -0.02151 0.05556 -0.12894
v -0.02228 0.05768 -0.13033
v -0.02234 0.01648 -0.11136
v -0.02265 0.01642 -0.12965
v -0.0228 0.01464 0.13171
v -0.02287 0.05564 -0.11073
v -0.0231 0.00051 0.13156
v -0.02377 0.01566 0.10628
v -0.0242 0.05574 0.10854
v -0.02493 0.07952 -0.12984
v -0.02547 0.01633 0.12598
v -0.02548 0.01729 0.10954
v -0.02621 0.07806 -0.13054
v -0.0265 0.05596 0.12692
v -0.02722 0.01623 0.10898
v -0.02749 0.01637 0.12791
v -0.02778 0.08015 -0.11346
v -0.02858 0.08281 -0.11067
v -0.02983 0.08282 -0.08623
v -0.03044 0.08244 0.0434
v -0.03064 0.08292 -0.0616
v -0.03093 0.08288 -0.01243
v -0.03161 0.08271 -0.09065
v -0.03346 0.08285 0.06243
v -0.03419 0.08275 0.05269
v -0.03446 0.08293 0.10897
v -0.03471 0.07992 0.11005
v -0.03557 0.01567 -0.1088
v -0.03777 0.05941 -0.13075
v -0.03799 0.00018 -0.10845
v -0.03874 0.04825 0.1277
v -0.03894 0.01156 -0.10735
v -0.03905 0.0787 0.12793
v -0.03988 0.00179 -0.10756
v -0.03993 0.08296 0.03425
v -0.0403 0.03292 -0.13022
v -0.04031 0.01641 -0.11164
v -0.04056 0.03267 -0.11168
v -0.04091 0.01372 0.10423
v -0.04126 0.00075 -0.13374
v -0.04141 0.01418 -0.13466
v -0.04146 0.05895 0.12802
v -0.04157 0.01626 -0.13042
v -0.0418 0.03204 -0.12838
v -0.04215 0.01636 -0.11395
v -0.04222 0.0318 -0.11418
v -0.04249 2E-05 -0.11289
v -0.04375 0.05616 0.02965
v -0.04376 0.0462 -0.13034
v -0.04392 0.00909 0.10408
v -0.04392 0.0014 0.10413
v -0.04408 0.08302 -0.01913
v -0.04409 0.01402 -0.13016
v -0.04411 0.08296 -0.10983
v -0.04423 0.08236 0.04444
v -0.04429 0.01639 0.10835
v -0.04432 0.00208 -0.13026
v -0.04469 0.05001 -0.11146
v -0.04473 0.00198 -0.1129
v -0.04482 0.01196 -0.11334
v -0.04485 0.03323 0.10865
v -0.04531 0.07893 0.11823
v -0.04539 0.05616 0.07538
v -0.04543 0.04499 -0.12891
v -0.04583 0.03428 0.12741
v -0.04595 0.04517 -0.11372
v -0.04655 0.01645 0.11059
v -0.04656 0.03317 0.11008
v -0.0467 0.00055 0.13075
v -0.04679 0.01662 0.12744
v -0.04691 0.01176 0.13097
v -0.04706 0.03238 0.12508
v -0.04738 0.08295 0.04271
v -0.04864 0.0004 0.10891
v -0.04882 0.01334 0.10992
v -0.04898 0.07841 -0.12838
v -0.04912 0.05616 -0.02069
v -0.04914 0.01419 0.12541
v -0.04918 0.0011 0.12849
v -0.04932 0.05619 -0.06027
v -0.04959 0.07564 -0.131
v -0.04966 0.04734 0.10861
v -0.04967 0.04592 0.1272
v -0.04972 0.05674 -0.11098
v -0.0502 0.05721 -0.0946
v -0.05021 0.05968 -0.11137
v -0.05044 0.04491 0.11005
v -0.05065 0.05662 -0.04922
v -0.05074 0.05715 -0.06354
v -0.05085 0.04514 0.12558
v -0.05101 0.05644 -0.01576
v -0.05135 0.08293 -0.08096
v -0.05158 0.05819 -0.02782
v -0.05159 0.05972 -0.04884
v -0.0516 0.06005 -0.07881
v -0.05167 0.05622 0.05182
v -0.05202 0.05673 0.02298
v -0.05211 0.08273 -0.08538
v -0.05223 0.05816 0.00167
v -0.05229 0.05292 -0.13052
v -0.05239 0.05757 -0.13052
v -0.05282 0.08117 -0.11278
v -0.05299 0.0602 -0.01746
v -0.05305 0.05693 0.05107
v -0.05305 0.05666 0.07127
v -0.05305 0.06042 -0.04057
v -0.05315 0.05993 0.00861
v -0.05321 0.08234 -0.1017
v -0.05331 0.06091 -0.11118
v -0.05335 0.0537 -0.11201
v -0.05351 0.05162 -0.1283
v -0.0537 0.05939 0.06364
v -0.05377 0.07803 -0.1259
v -0.05415 0.06035 0.00954
v -0.05416 0.05994 0.04131
v -0.05417 0.056 0.10762
v -0.05419 0.05951 0.07577
v -0.05419 0.0781 -0.11499
v -0.05422 0.0582 0.1039
v -0.05424 0.05687 -0.12923
v -0.05446 0.05212 -0.11346
v -0.05451 0.05972 -0.13116
v -0.05464 0.08225 -0.07429
v -0.05474 0.0829 -0.05
v -0.05475 0.05742 -0.11288
v -0.05507 0.07171 -0.13113
v -0.05529 0.06021 0.10754
v -0.0553 0.06039 -0.02923
v -0.05556 0.06027 0.078
v -0.05601 0.06085 -0.06659
v -0.0566 0.06384 -0.11188
v -0.05673 0.06068 -0.0313
v -0.05684 0.08202 0.00303
v -0.05688 0.08242 0.03107
v -0.05696 0.05983 -0.12878
v -0.05702 0.08131 -0.05388
v -0.05703 0.07447 -0.12759
v -0.05715 0.07401 -0.11254
v -0.05726 0.06045 0.00465
v -0.0573 0.05676 0.12698
v -0.05738 0.07714 -0.10763
v -0.05738 0.05982 -0.11506
v -0.0574 0.08288 0.06396
v -0.05746 0.06323 -0.07825
v -0.05752 0.06044 0.03365
v -0.05778 0.06237 -0.05035
v -0.05793 0.07734 -0.08358
v -0.05826 0.06849 -0.052
v -0.05846 0.08087 0.00525
v -0.05851 0.08263 0.1078
v -0.0586 0.06048 0.05403
v -0.05864 0.06054 0.07854
v -0.05878 0.06217 -0.00852
v -0.05879 0.06056 0.1078
v -0.05901 0.05217 0.11011
v -0.05916 0.05253 0.12654
v -0.05919 0.05734 0.10918
v -0.05925 0.05963 0.1275
v -0.05932 0.0779 0.10992
v -0.05942 0.05689 0.12465
v -0.05943 0.06216 0.03498
v -0.05968 0.07987 0.03793
v -0.0598 0.07783 0.12588
v -0.05984 0.07838 0.00811
v -0.05985 0.06382 0.0315
v -0.0599 0.06203 0.04934
v -0.06002 0.06163 0.07351
v -0.06052 0.07781 0.0452
v -0.06064 0.0642 0.06789
v -0.06065 0.072 0.05987
v -0.06067 0.07978 0.06619
v -0.06079 0.07551 0.10957
v -0.06086 0.05914 0.11056
v -0.06096 0.0731 0.12736
v -0.06109 0.06315 0.10847
v -0.06113 0.05912 0.12456
v -0.06127 0.06902 0.09741
v -0.06181 0.07914 0.10748
vt 0.732295 0.590311
vt 0.744445 0.591019
vt 0.74303 0.602343
vt 0.754944 0.583351
vt 0.746333 0.582762
vt 0.755062 0.569196
vt 0.739845 0.566011
vt 0.735244 0.584059
vt 0.726633 0.586654
vt 0.74704 0.609185
vt 0.755062 0.618858
vt 0.727576 0.603287
vt 0.728048 0.611072
vt 0.749518 0.633721
vt 0.753174 0.65
vt 0.723448 0.603641
vt 0.675083 0.582172
vt 0.703158 0.6014
vt 0.723566 0.608005
vt 0.732885 0.635491
vt 0.730644 0.639148
vt 0.744799 0.634665
vt 0.734418 0.640209
vt 0.732413 0.641153
vt 0.746568 0.638794
vt 0.740906 0.659437
vt 0.735598 0.657314
vt 0.749164 0.649174
vt 0.749753 0.659201
vt 0.865369 0.452299
vt 0.862066 0.443216
vt 0.882474 0.440975
vt 0.875042 0.459141
vt 0.894152 0.443806
vt 0.881884 0.459495
vt 0.894152 0.395677
vt 0.873037 0.396503
vt 0.875868 0.4372
vt 0.874334 0.429178
vt 0.869498 0.398036
vt 0.859825 0.411484
vt 0.846158 0.828539
vt 0.842147 0.816153
vt 0.864324 0.825236
vt 0.873053 0.816153
vt 0.871048 0.825944
vt 0.848399 0.832431
vt 0.865975 0.831606
vt 0.868689 0.831724
vt 0.8773 0.830898
vt 0.878008 0.856732
vt 0.874587 0.875134
vt 0.847691 0.872775
vt 0.845214 0.829954
vt 0.833182 0.884217
vt 0.839434 0.830426
vt 0.834244 0.829011
vt 0.833182 0.827595
vt 0.032688 0.601364
vt 0.022543 0.607026
vt 0.027616 0.600066
vt 0.034104 0.597117
vt 0.0459 0.610801
vt 0.024785 0.584141
vt 0.049085 0.580956
vt 0.035283 0.584495
vt 0.073267 0.552409
vt 0.048849 0.555004
vt 0.06383 0.554651
vt 0.051798 0.544742
vt 0.052152 0.53613
vt 0.039176 0.518436
vt 0.058994 0.529289
vt 0.056045 0.516903
vt 0.022543 0.509117
vt 0.091551 0.552645
vt 0.106769 0.546275
vt 0.064656 0.565857
vt 0.099691 0.565857
vt 0.101578 0.567626
vt 0.086833 0.604195
vt 0.070436 0.623423
vt 0.113728 0.577535
vt 0.12116 0.587798
vt 0.099809 0.613514
vt 0.09568 0.618586
vt 0.13909 0.620946
vt 0.485574 0.530442
vt 0.483923 0.546603
vt 0.478261 0.521005
vt 0.472009 0.567482
vt 0.469059 0.521949
vt 0.463043 0.513456
vt 0.440277 0.52537
vt 0.455022 0.576801
vt 0.460448 0.577037
vt 0.440277 0.613488
vt 0.946206 0.619697
vt 0.937595 0.619579
vt 0.946796 0.593273
vt 0.951279 0.611322
vt 0.951279 0.566496
vt 0.937949 0.587493
vt 0.93441 0.613563
vt 0.934882 0.585488
vt 0.929102 0.600705
vt 0.928984 0.614743
vt 0.928394 0.581241
vt 0.926978 0.608491
vt 0.917777 0.571922
vt 0.916833 0.611086
vt 0.624871 0.300007
vt 0.601868 0.301658
vt 0.601514 0.29517
vt 0.601632 0.272758
vt 0.595852 0.272876
vt 0.591252 0.263321
vt 0.57167 0.264736
vt 0.580517 0.231707
vt 0.582522 0.232886
vt 0.582287 0.231589
vt 0.599981 0.262023
vt 0.601986 0.248929
vt 0.599155 0.225101
vt 0.597268 0.223685
vt 0.588539 0.218731
vt 0.599509 0.222506
vt 0.595498 0.210002
vt 0.593965 0.210709
vt 0.607413 0.199857
vt 0.619445 0.223803
vt 0.604699 0.249637
vt 0.621804 0.204693
vt 0.61449 0.187235
vt 0.623573 0.223921
vt 0.62027 0.251878
vt 0.60871 0.262967
vt 0.62782 0.25294
vt 0.635841 0.211181
vt 0.612603 0.270044
vt 0.623455 0.269455
vt 0.618855 0.264028
vt 0.634308 0.270044
vt 0.62027 0.271696
vt 0.624871 0.288329
vt 0.635841 0.301776
vt 0.395985 0.728396
vt 0.389733 0.716009
vt 0.442109 0.711881
vt 0.42465 0.734176
vt 0.432907 0.735591
vt 0.415685 0.745618
vt 0.412146 0.74727
vt 0.417572 0.796696
vt 0.397991 0.753993
vt 0.405422 0.797286
vt 0.402119 0.760717
vt 0.389733 0.782068
vt 0.402119 0.787023
vt 0.201806 0.66195
vt 0.233538 0.654873
vt 0.23519 0.657586
vt 0.247458 0.639302
vt 0.203104 0.665017
vt 0.24793 0.642604
vt 0.241796 0.66313
vt 0.271404 0.641307
vt 0.295823 0.637296
vt 0.294171 0.640599
vt 0.297946 0.638122
vt 0.303018 0.639537
vt 0.28556 0.65558
vt 0.288863 0.673747
vt 0.293345 0.669264
vt 0.292991 0.676224
vt 0.290396 0.695452
vt 0.224337 0.691205
vt 0.220444 0.674572
vt 0.213367 0.68342
vt 0.207233 0.695452
vt 0.211715 0.673039
vt 0.216198 0.677521
vt 0.570317 0.758653
vt 0.537877 0.766792
vt 0.553448 0.733999
vt 0.526671 0.745795
vt 0.518059 0.726449
vt 0.524076 0.724208
vt 0.539293 0.718546
vt 0.537759 0.715125
vt 0.543539 0.718192
vt 0.540944 0.715243
vt 0.545191 0.712766
vt 0.572086 0.745795
vt 0.571496 0.759479
vt 0.592376 0.774932
vt 0.567722 0.724562
vt 0.592376 0.704154
vt 0.559936 0.714417
vt 0.5597 0.711822
vt 0.570081 0.707575
vt 0.569609 0.704272
vt 0.576097 0.690117
vt 0.929734 0.446994
vt 0.937991 0.441214
vt 0.938699 0.448645
vt 0.943536 0.436495
vt 0.941294 0.44841
vt 0.945069 0.43567
vt 0.940469 0.450769
vt 0.938699 0.451595
vt 0.928083 0.449589
vt 0.939289 0.459734
vt 0.927847 0.458908
vt 0.936812 0.461385
vt 0.938817 0.461739
vt 0.936694 0.463037
vt 0.939407 0.463745
vt 0.926903 0.460324
vt 0.938581 0.465986
vt 0.934806 0.465514
vt 0.924897 0.462447
vt 0.923482 0.469289
vt 0.934688 0.471766
vt 0.936694 0.471058
vt 0.945069 0.48309
vt 0.593968 0.828873
vt 0.591019 0.829109
vt 0.593024 0.810589
vt 0.590783 0.809645
vt 0.599158 0.823565
vt 0.601518 0.830879
vt 0.591373 0.797377
vt 0.588542 0.794428
vt 0.59444 0.783222
vt 0.593968 0.782042
vt 0.595856 0.783576
vt 0.593496 0.800444
vt 0.598215 0.806932
vt 0.607062 0.79431
vt 0.613078 0.756208
vt 0.603995 0.811297
vt 0.61473 0.777088
vt 0.605057 0.814836
vt 0.603051 0.830879
vt 0.607298 0.802804
vt 0.608242 0.795726
vt 0.613668 0.78334
vt 0.610719 0.795844
vt 0.613432 0.799265
vt 0.608478 0.805281
vt 0.605882 0.816723
vt 0.604467 0.830997
vt 0.608242 0.815661
vt 0.609539 0.815543
vt 0.611309 0.809999
vt 0.61473 0.804691
vt 0.611898 0.814718
vt 0.606708 0.829227
vt 0.60777 0.832058
vt 0.714709 0.682934
vt 0.720135 0.696028
vt 0.718838 0.695792
vt 0.722376 0.711835
vt 0.710344 0.684468
vt 0.71058 0.669133
vt 0.715889 0.708886
vt 0.677551 0.686827
vt 0.69265 0.670312
vt 0.683331 0.735192
vt 0.717068 0.735192
vt 0.719545 0.733186
vt 0.72273 0.722806
vt 0.725797 0.702398
vt 0.665872 0.705229
vt 0.725679 0.718323
vt 0.726623 0.726109
vt 0.726977 0.717969
vt 0.728982 0.718795
vt 0.671299 0.685294
vt 0.664811 0.724339
vt 0.66599 0.699095
vt 0.670591 0.684822
vt 0.662334 0.715492
vt 0.663867 0.732125
vt 0.665283 0.690602
vt 0.659384 0.7208
vt 0.662216 0.705111
vt 0.66021 0.706881
vt 0.663867 0.689422
vt 0.655374 0.678334
vt 0.656199 0.72198
vt 0.652661 0.725519
vt 0.649594 0.692725
vt 0.650301 0.684232
vt 0.644993 0.705583
vt 0.648532 0.68895
vt 0.64228 0.721154
vt 0.642044 0.706173
vt 0.642162 0.71561
vt 0.64169 0.721272
vt 0.642044 0.689776
vt 0.636854 0.721036
vt 0.63591 0.722452
vt 0.638033 0.712425
vt 0.632371 0.716908
vt 0.63709 0.691546
vt 0.756956 0.796971
vt 0.753771 0.798622
vt 0.768752 0.773496
vt 0.802253 0.812188
vt 0.783379 0.730204
vt 0.764033 0.779159
vt 0.755894 0.790247
vt 0.746457 0.812188
vt 0.750704 0.795909
vt 0.761674 0.776917
vt 0.767808 0.770311
vt 0.766628 0.758043
vt 0.771937 0.744124
vt 0.771937 0.728789
vt 0.774768 0.730086
vt 0.127261 0.16149
vt 0.124902 0.133532
vt 0.127851 0.154176
vt 0.128323 0.186734
vt 0.127969 0.142498
vt 0.123132 0.113833
vt 0.132805 0.174701
vt 0.129267 0.143677
vt 0.127851 0.124803
vt 0.133041 0.158894
vt 0.13835 0.159602
vt 0.140237 0.208085
vt 0.137524 0.182369
vt 0.153803 0.181661
vt 0.157696 0.201715
vt 0.138586 0.210916
vt 0.145427 0.207967
vt 0.157696 0.205843
vt 0.164065 0.206197
vt 0.147787 0.212567
vt 0.167958 0.215988
vt 0.171379 0.213511
vt 0.14413 0.213275
vt 0.156398 0.222122
vt 0.168076 0.219881
vt 0.15746 0.224599
vt 0.153803 0.224128
vt 0.142006 0.216106
vt 0.137052 0.220117
vt 0.142714 0.21823
vt 0.155454 0.226605
vt 0.150146 0.226605
vt 0.137406 0.225779
vt 0.130092 0.234626
vt 0.145663 0.234626
vt 0.151915 0.227667
vt 0.147551 0.235688
vt 0.156752 0.249843
vt 0.140709 0.246423
vt 0.135754 0.268246
vt 0.131626 0.256095
vt 0.139293 0.244771
vt 0.124312 0.248192
vt 0.131508 0.236986
vt 0.123132 0.24772
vt 0.749685 0.840086
vt 0.749685 0.813898
vt 0.763132 0.815432
vt 0.755937 0.852118
vt 0.748269 0.856129
vt 0.758296 0.856719
vt 0.744494 0.87052
vt 0.754285 0.87925
vt 0.763014 0.875239
vt 0.765963 0.852236
vt 0.771154 0.873233
vt 0.75806 0.852118
vt 0.764902 0.841266
vt 0.763604 0.847164
vt 0.778585 0.860494
vt 0.777878 0.83926
vt 0.773985 0.812601
vt 0.776462 0.814016
vt 0.779883 0.846692
vt 0.781534 0.817909
vt 0.786843 0.869223
vt 0.7951 0.87925
vt 0.791325 0.865094
vt 0.788022 0.844569
vt 0.796044 0.863914
vt 0.789202 0.811421
vt 0.78991 0.811421
vt 0.825328 0.87925
vt 0.821435 0.875475
vt 0.829574 0.835485
vt 0.816363 0.835721
vt 0.815419 0.814842
vt 0.813767 0.838906
vt 0.806808 0.862145
vt 0.806808 0.818027
vt 0.810465 0.822274
vt 0.808695 0.814488
vt 0.851037 0.733406
vt 0.868023 0.751336
vt 0.833932 0.722553
vt 0.830865 0.693888
vt 0.863069 0.723615
vt 0.847498 0.685159
vt 0.871798 0.713588
vt 0.829804 0.711583
vt 0.829686 0.691647
vt 0.829686 0.740012
vt 0.592376 0.683328
vt 0.557459 0.689462
vt 0.546252 0.667757
vt 0.537169 0.685333
vt 0.548376 0.703145
vt 0.533984 0.682974
vt 0.529384 0.697955
vt 0.542242 0.666459
vt 0.546724 0.705387
vt 0.528204 0.699488
vt 0.529738 0.702438
vt 0.511336 0.694416
vt 0.50992 0.705151
vt 0.520891 0.668818
vt 0.516644 0.68144
vt 0.511807 0.692647
vt 0.508858 0.693944
vt 0.492462 0.705387
vt 0.49895 0.690523
vt 0.499775 0.690051
vt 0.513459 0.681086
vt 0.519947 0.660797
vt 0.517706 0.658438
vt 0.523958 0.655371
vt 0.528322 0.662566
vt 0.542124 0.659735
vt 0.920562 0.079146
vt 0.926814 0.075253
vt 0.933892 0.09684
vt 0.920798 0.084218
vt 0.925163 0.11135
vt 0.921978 0.102974
vt 0.922922 0.116776
vt 0.920444 0.101913
vt 0.91726 0.083982
vt 0.913131 0.079972
vt 0.916552 0.077494
vt 0.90334 0.094363
vt 0.902868 0.081387
vt 0.900745 0.083157
vt 0.900037 0.107103
vt 0.902632 0.106631
vt 0.90334 0.119489
vt 0.933892 0.131639
vt 0.901335 0.122556
vt 0.002254 0.084448
vt 0.002844 0.083268
vt 0.00485 0.083976
vt 0.004968 0.062979
vt 0.002254 0.062625
vt 0.642473 0.663104
vt 0.631385 0.631726
vt 0.643889 0.66157
vt 0.644007 0.665345
vt 0.631385 0.675726
vt 0.653326 0.6552
vt 0.634098 0.677495
vt 0.644361 0.621935
vt 0.646602 0.666289
vt 0.649787 0.673249
vt 0.640232 0.685517
vt 0.654859 0.657677
vt 0.657573 0.669592
vt 0.690484 0.660862
vt 0.682463 0.647179
vt 0.665358 0.648358
vt 0.684704 0.639983
vt 0.654152 0.591972
vt 0.631857 0.58112
vt 0.661347 0.626181
vt 0.673144 0.618986
vt 0.684468 0.608251
vt 0.685884 0.597635
vt 0.66642 0.610964
vt 0.67338 0.602825
vt 0.67739 0.611436
vt 0.672672 0.615919
vt 0.668543 0.610492
vt 0.674559 0.61179
vt 0.248274 0.784867
vt 0.236714 0.782036
vt 0.247094 0.782979
vt 0.226333 0.764459
vt 0.272338 0.777081
vt 0.215126 0.770711
vt 0.223266 0.764105
vt 0.23577 0.759859
vt 0.233411 0.745821
vt 0.254054 0.758089
vt 0.255116 0.756674
vt 0.261722 0.761628
vt 0.271041 0.770357
vt 0.262665 0.759387
vt 0.276939 0.766229
vt 0.265614 0.752191
vt 0.27399 0.760685
vt 0.275405 0.758915
vt 0.266676 0.746883
vt 0.264199 0.745703
vt 0.259244 0.749832
vt 0.258065 0.746175
vt 0.249218 0.741693
vt 0.231995 0.740159
vt 0.226215 0.736856
vt 0.227277 0.735087
vt 0.268445 0.732609
vt 0.251577 0.713853
vt 0.27458 0.717274
vt 0.235652 0.727773
vt 0.227748 0.704063
vt 0.218665 0.726829
vt 0.215126 0.696749
vt 0.878198 0.746948
vt 0.905329 0.7486
vt 0.897425 0.777855
vt 0.899903 0.779624
vt 0.874423 0.77231
vt 0.873833 0.756621
vt 0.883034 0.796375
vt 0.87171 0.772192
vt 0.869468 0.759924
vt 0.870294 0.791538
vt 0.860975 0.78045
vt 0.854251 0.761222
vt 0.85779 0.779034
vt 0.852128 0.765822
vt 0.855313 0.783399
vt 0.859088 0.802745
vt 0.861093 0.791892
vt 0.86416 0.794369
vt 0.865694 0.802509
vt 0.881972 0.809704
vt 0.871946 0.795549
vt 0.868289 0.800267
vt 0.879377 0.806991
vt 0.879967 0.803216
vt 0.888224 0.805104
vt 0.89601 0.806637
vt 0.888342 0.801211
vt 0.886573 0.796728
vt 0.894948 0.787409
vt 0.899077 0.796021
vt 0.905329 0.79319
vt 0.900021 0.804278
vt 0.248156 0.806971
vt 0.244853 0.807797
vt 0.242022 0.798242
vt 0.229872 0.800012
vt 0.23636 0.810982
vt 0.248746 0.803433
vt 0.259834 0.803787
vt 0.243791 0.796473
vt 0.238955 0.791872
vt 0.216306 0.774532
vt 0.216896 0.783261
vt 0.231051 0.815229
vt 0.233175 0.81287
vt 0.231169 0.816762
vt 0.23518 0.816526
vt 0.216306 0.846961
vt 0.257357 0.801309
vt 0.256649 0.796473
vt 0.256767 0.79376
vt 0.259126 0.79376
vt 0.259244 0.796473
vt 0.266794 0.793288
vt 0.261957 0.802489
vt 0.272928 0.802253
vt 0.271866 0.796945
vt 0.271512 0.792108
vt 0.276939 0.796591
vt 0.815851 0.676538
vt 0.82057 0.661675
vt 0.820924 0.662737
vt 0.851122 0.680549
vt 0.854189 0.667573
vt 0.823165 0.660967
vt 0.824581 0.649879
vt 0.826232 0.652002
vt 0.857492 0.655895
vt 0.855605 0.667691
vt 0.846404 0.653064
vt 0.859379 0.651294
vt 0.827766 0.648227
vt 0.825878 0.639852
vt 0.849235 0.635487
vt 0.823637 0.637729
vt 0.852892 0.626168
vt 0.854543 0.624989
vt 0.829889 0.620978
vt 0.817031 0.624989
vt 0.857846 0.611777
vt 0.815851 0.622394
vt 0.858082 0.60812
vt 0.556446 0.657147
vt 0.551964 0.655023
vt 0.555503 0.654552
vt 0.54524 0.648182
vt 0.542645 0.647828
vt 0.523535 0.651602
vt 0.540993 0.640632
vt 0.551256 0.639452
vt 0.544296 0.63497
vt 0.557036 0.625179
vt 0.563406 0.640396
vt 0.575792 0.62683
vt 0.562698 0.646058
vt 0.567181 0.661865
vt 0.609883 0.622466
vt 0.61236 0.647238
vt 0.616961 0.620696
vt 0.620382 0.617983
vt 0.627696 0.615152
vt 0.622859 0.646294
vt 0.60835 0.655731
vt 0.62569 0.639806
vt 0.633358 0.663163
vt 0.633358 0.601704
vt 0.438432 0.811533
vt 0.42062 0.783104
vt 0.420502 0.758332
vt 0.474528 0.83194
vt 0.420502 0.832058
vt 0.479011 0.823565
vt 0.479365 0.820262
vt 0.445982 0.804573
vt 0.457778 0.799619
vt 0.432416 0.763758
vt 0.443386 0.773549
vt 0.434067 0.758922
vt 0.671243 0.230059
vt 0.669002 0.235957
vt 0.656852 0.231828
vt 0.655554 0.231002
vt 0.684927 0.209297
vt 0.685517 0.215903
vt 0.676316 0.172021
vt 0.648948 0.209769
vt 0.664047 0.168954
vt 0.646943 0.208354
vt 0.641517 0.201748
vt 0.683511 0.165769
vt 0.685517 0.166005
vt 0.667822 0.166477
vt 0.667114 0.161051
vt 0.685517 0.161051
vt 0.680562 0.131678
vt 0.664519 0.141587
vt 0.662986 0.14312
vt 0.653667 0.138756
vt 0.634793 0.16282
vt 0.633259 0.203635
vt 0.647651 0.13793
vt 0.729641 0.768722
vt 0.723271 0.76365
vt 0.731764 0.735811
vt 0.734005 0.71906
vt 0.742381 0.71906
vt 0.749458 0.751972
vt 0.735421 0.716937
vt 0.750756 0.720476
vt 0.752643 0.718942
vt 0.770338 0.724015
vt 0.752172 0.716819
vt 0.777416 0.722835
vt 0.752643 0.714224
vt 0.742027 0.716465
vt 0.751228 0.714814
vt 0.745566 0.681666
vt 0.743678 0.682138
vt 0.742617 0.713752
vt 0.733534 0.687682
vt 0.735775 0.714342
vt 0.734123 0.713398
vt 0.727635 0.681548
vt 0.723271 0.677302
vt 0.953691 0.343379
vt 0.966181 0.301312
vt 0.966181 0.345242
vt 0.997054 0.072029
vt 0.972282 0.070967
vt 0.995639 0.044072
vt 0.970513 0.041477
vt 0.99847 0.05516
vt 0.99847 0.068726
vt 0.811661 0.912318
vt 0.807414 0.911846
vt 0.809419 0.899814
vt 0.81343 0.890495
vt 0.797151 0.923407
vt 0.782406 0.881884
vt 0.79951 0.891085
vt 0.777923 0.884597
vt 0.78736 0.905712
vt 0.777451 0.897101
vt 0.794792 0.922109
vt 0.78335 0.928361
vt 0.789484 0.927889
vt 0.776862 0.909251
vt 0.768486 0.897809
vt 0.773913 0.889198
vt 0.757634 0.881884
vt 0.760229 0.901702
vt 0.770728 0.919986
vt 0.762824 0.921283
vt 0.777098 0.924704
vt 0.78677 0.932372
vt 0.766953 0.925884
vt 0.764711 0.930956
vt 0.772143 0.923053
vt 0.774031 0.924114
vt 0.766009 0.933315
vt 0.770846 0.934141
vt 0.778749 0.927653
vt 0.784175 0.932254
vt 0.778513 0.930366
vt 0.772615 0.937326
vt 0.776154 0.93886
vt 0.092341 0.87631
vt 0.103076 0.894594
vt 0.085617 0.893179
vt 0.081725 0.876546
vt 0.09128 0.874777
vt 0.069103 0.873951
vt 0.08314 0.870058
vt 0.073939 0.89424
vt 0.04728 0.902026
vt 0.041971 0.905329
vt 0.046808 0.85142
vt 0.041971 0.841511
vt 0.838605 0.51568
vt 0.85276 0.517332
vt 0.836482 0.552131
vt 0.827517 0.51745
vt 0.820439 0.550243
vt 0.851345 0.561096
vt 0.838487 0.566758
vt 0.854412 0.51804
vt 0.852171 0.584335
vt 0.854412 0.584924
vt 0.600164 0.05382
vt 0.600164 0.001799
vt 0.615618 0.078238
vt 0.615971 0.039429
vt 0.216087 0.806362
vt 0.216087 0.837026
vt 0.214694 0.811368
vt 0.2004 0.814601
vt 0.210568 0.808351
vt 0.520347 0.813365
vt 0.501022 0.817345
vt 0.495215 0.810559
vt 0.497338 0.806987
vt 0.490816 0.812253
vt 0.485365 0.859379
vt 0.487326 0.808266
vt 0.488117 0.795531
vt 0.485555 0.797732
vt 0.485365 0.787067
vt 0.927509 0.43641
vt 0.928925 0.438769
vt 0.919134 0.434287
vt 0.922201 0.439949
vt 0.926094 0.434641
vt 0.913825 0.431456
vt 0.917246 0.441483
vt 0.920431 0.430394
vt 0.920667 0.427445
vt 0.904742 0.395123
vt 0.918308 0.401139
vt 0.902383 0.398072
vt 0.913236 0.436764
vt 0.902973 0.426265
vt 0.899316 0.393354
vt 0.907691 0.434995
vt 0.902973 0.441719
vt 0.899316 0.450802
vt 0.908399 0.439949
vt 0.905214 0.444904
vt 0.909343 0.444078
vt 0.914651 0.440185
vt 0.77425 0.518112
vt 0.768352 0.517404
vt 0.784277 0.486616
vt 0.784867 0.522831
vt 0.77366 0.473522
vt 0.783805 0.450284
vt 0.784867 0.438841
vt 0.778851 0.440257
vt 0.774368 0.458187
vt 0.75632 0.469394
vt 0.769886 0.480364
vt 0.757735 0.48178
vt 0.763752 0.476589
vt 0.759977 0.476589
vt 0.151902 0.541747
vt 0.211119 0.541747
vt 0.193661 0.555313
vt 0.175259 0.553307
vt 0.181275 0.557082
vt 0.174315 0.561329
vt 0.154143 0.554015
vt 0.113564 0.549886
vt 0.109436 0.553425
vt 0.100588 0.5526
vt 0.497174 0.051025
vt 0.500477 0.069545
vt 0.491512 0.066242
vt 0.498707 0.039701
vt 0.491866 0.035336
vt 0.480187 0.032269
vt 0.476177 0.037577
vt 0.47712 0.06577
vt 0.476177 0.067894
vt 0.880491 0.205372
vt 0.880491 0.268246
vt 0.870583 0.241822
vt 0.871172 0.265415
vt 0.865982 0.243709
vt 0.575032 0.168306
vt 0.580576 0.156745
vt 0.58553 0.155212
vt 0.582463 0.168895
vt 0.596737 0.125957
vt 0.590131 0.159694
vt 0.599332 0.143298
vt 0.598978 0.123244
vt 0.614431 0.121121
vt 0.612426 0.149196
vt 0.619504 0.136102
vt 0.615375 0.16052
vt 0.631182 0.119587
vt 0.633895 0.15415
vt 0.595557 0.086911
vt 0.603343 0.07193
vt 0.627525 0.094107
vt 0.658195 0.131737
vt 0.640855 0.101421
vt 0.621273 0.084434
vt 0.654774 0.092456
vt 0.588597 0.062965
vt 0.596265 0.058954
vt 0.58553 0.063673
vt 0.588126 0.10319
vt 0.584941 0.104016
vt 0.577391 0.064617
vt 0.581402 0.09859
vt 0.575032 0.065442
vt 0.887743 0.342417
vt 0.892107 0.345131
vt 0.886917 0.36601
vt 0.898595 0.371554
vt 0.874295 0.390428
vt 0.89541 0.35209
vt 0.901898 0.375093
vt 0.907324 0.38972
vt 0.906263 0.355157
vt 0.894231 0.341356
vt 0.910392 0.376391
vt 0.912987 0.380991
vt 0.911925 0.353034
vt 0.923957 0.332744
vt 0.918767 0.381463
vt 0.923957 0.392433
vt 0.923839 0.354214
vt 0.921768 0.567807
vt 0.913629 0.566627
vt 0.936042 0.556247
vt 0.925071 0.568043
vt 0.940642 0.573233
vt 0.935452 0.577008
vt 0.943827 0.579957
vt 0.934744 0.545158
vt 0.938047 0.544804
vt 0.901243 0.543743
vt 0.940524 0.541973
vt 0.943827 0.543979
vt 0.943591 0.535013
vt 0.933329 0.526638
vt 0.913865 0.54044
vt 0.901715 0.539732
vt 0.901597 0.53171
vt 0.906079 0.524987
vt 0.298542 0.301911
vt 0.29925 0.304034
vt 0.293824 0.300849
vt 0.300783 0.314533
vt 0.297598 0.316656
vt 0.302081 0.319369
vt 0.305502 0.316302
vt 0.293824 0.32916
vt 0.298188 0.330339
vt 0.948503 0.245392
vt 0.970058 0.254186
vt 0.95574 0.261232
vt 0.967619 0.282399
vt 0.975363 0.257126
vt 0.968681 0.285632
vt 0.979842 0.245392
vt 0.965542 0.655761
vt 0.969907 0.658356
vt 0.969907 0.696693
vt 0.954571 0.675578
vt 0.667442 0.098426
vt 0.667796 0.093472
vt 0.693512 0.086512
vt 0.695045 0.100667
vt 0.691388 0.072003
vt 0.647978 0.080024
vt 0.698938 0.089107
vt 0.702123 0.105504
vt 0.712268 0.106801
vt 0.714863 0.088163
vt 0.697758 0.082855
vt 0.710498 0.074834
vt 0.696225 0.071649
vt 0.693866 0.064335
vt 0.71038 0.062094
vt 0.690445 0.070587
vt 0.690563 0.068228
vt 0.651045 0.074952
vt 0.691388 0.042512
vt 0.707431 0.037204
vt 0.687614 0.040389
vt 0.67511 0.06115
vt 0.692096 0.037558
vt 0.62934 0.04841
vt 0.707667 0.026941
vt 0.710616 0.025289
vt 0.693984 0.0247
vt 0.690091 0.02411
vt 0.703303 0.020099
vt 0.707785 0.002641
vt 0.715689 0.009364
vt 0.720289 0.002641
vt 0.697405 0.005
vt 0.695517 0.021515
vt 0.692922 0.008893
vt 0.683367 0.022812
vt 0.663195 0.027531
vt 0.685726 0.008185
vt 0.683957 0.005472
vt 0.664139 0.007477
vt 0.663549 0.014909
vt 0.657179 0.007005
vt 0.663549 0.023992
vt 0.65423 0.020807
vt 0.645029 0.004764
vt 0.643024 0.016796
vt 0.621909 0.003466
vt 0.644203 0.018448
vt 0.644911 0.023638
vt 0.62474 0.015499
vt 0.659421 0.037558
vt 0.657179 0.04086
vt 0.683603 0.054072
vt 0.669565 0.051359
vt 0.674048 0.057021
vt 0.679592 0.056078
vt 0.675228 0.0536
vt 0.967423 0.202842
vt 0.967423 0.248376
vt 0.960227 0.243421
vt 0.945128 0.219711
vt 0.651986 0.878728
vt 0.648801 0.888991
vt 0.643611 0.869291
vt 0.638774 0.899018
vt 0.650334 0.910224
vt 0.625326 0.873656
vt 0.648683 0.922374
vt 0.626742 0.89772
vt 0.630753 0.927683
vt 0.625326 0.921195
vt 0.297506 0.660456
vt 0.310246 0.654912
vt 0.310836 0.656446
vt 0.313313 0.654204
vt 0.30482 0.630612
vt 0.338321 0.638279
vt 0.335136 0.645947
vt 0.318268 0.665647
vt 0.371351 0.634269
vt 0.359555 0.655502
vt 0.357431 0.658451
vt 0.399072 0.639459
vt 0.394825 0.665647
vt 0.39341 0.631437
vt 0.404852 0.625775
vt 0.402493 0.63132
vt 0.399544 0.634976
vt 0.130702 0.647539
vt 0.119141 0.631024
vt 0.159248 0.620644
vt 0.187206 0.638928
vt 0.151817 0.651904
vt 0.223538 0.645416
vt 0.127635 0.652848
vt 0.175763 0.67066
vt 0.14061 0.654499
vt 0.172932 0.674317
vt 0.14757 0.668301
vt 0.176235 0.688
vt 0.120557 0.658392
vt 0.141908 0.674671
vt 0.134594 0.688
vt 0.33106 0.054547
vt 0.335307 0.093593
vt 0.33106 0.130397
vt 0.801857 0.931071
vt 0.808463 0.959972
vt 0.793127 0.951832
vt 0.806221 0.925527
vt 0.808463 0.915382
vt 0.013854 0.606797
vt 0.003237 0.625906
vt 0.003237 0.554185
vt 0.017511 0.581789
vt 0.018337 0.547933
vt 0.01987 0.602432
vt 0.9145 0.129715
vt 0.916506 0.150359
vt 0.9145 0.176664
vt 0.916388 0.18504
vt 0.813885 0.60641
vt 0.805628 0.603815
vt 0.81188 0.595204
vt 0.814121 0.611718
vt 0.824502 0.613488
vt 0.80433 0.607118
vt 0.801028 0.60523
vt 0.826389 0.592137
vt 0.827687 0.611718
vt 0.800084 0.596029
vt 0.760684 0.613488
vt 0.762572 0.600512
vt 0.802915 0.593198
vt 0.799258 0.593788
vt 0.812234 0.589187
vt 0.826861 0.573145
vt 0.829574 0.585649
vt 0.801735 0.586592
vt 0.812706 0.56359
vt 0.812942 0.557809
vt 0.801853 0.562646
vt 0.797607 0.57975
vt 0.803977 0.55604
vt 0.770121 0.594968
vt 0.765757 0.59426
vt 0.76906 0.593788
vt 0.76906 0.587064
vt 0.773542 0.590367
vt 0.763987 0.574796
vt 0.779912 0.566775
vt 0.799966 0.56123
vt 0.777435 0.562292
vt 0.801381 0.553445
vt 0.802561 0.552855
vt 0.804802 0.534453
vt 0.809993 0.54271
vt 0.806336 0.537284
vt 0.812116 0.543418
vt 0.810465 0.539407
vt 0.81766 0.54389
vt 0.817542 0.541885
vt 0.741401 0.848297
vt 0.733734 0.851247
vt 0.730077 0.844169
vt 0.730313 0.853016
vt 0.735267 0.84004
vt 0.728071 0.841456
vt 0.72701 0.848297
vt 0.72701 0.853724
vt 0.713562 0.861391
vt 0.725712 0.845348
vt 0.70613 0.854667
vt 0.708372 0.861037
vt 0.707428 0.861863
vt 0.704361 0.853724
vt 0.700704 0.85797
vt 0.70554 0.852426
vt 0.700468 0.848769
vt 0.699524 0.85396
vt 0.695632 0.857381
vt 0.692683 0.852072
vt 0.70554 0.849713
vt 0.716511 0.847236
vt 0.725358 0.842399
vt 0.717455 0.844759
vt 0.715803 0.844523
vt 0.700586 0.84759
vt 0.70672 0.819043
vt 0.718634 0.815622
vt 0.696929 0.822346
vt 0.707192 0.817863
vt 0.716747 0.814678
vt 0.710967 0.807129
vt 0.720758 0.815622
vt 0.68124 0.831547
vt 0.733144 0.824233
vt 0.729015 0.793563
vt 0.736683 0.837445
vt 0.741401 0.80123
vt 0.691149 0.850775
vt 0.692565 0.85455
vt 0.690205 0.854078
vt 0.679235 0.858442
vt 0.689616 0.857499
vt 0.888342 0.070155
vt 0.885393 0.07275
vt 0.883506 0.069683
vt 0.887753 0.065908
vt 0.89023 0.054348
vt 0.899549 0.075463
vt 0.887163 0.055763
vt 0.890348 0.036535
vt 0.88386 0.037715
vt 0.880911 0.044557
vt 0.887399 0.023795
vt 0.889168 0.017189
vt 0.899549 0.018959
vt 0.876428 0.020846
vt 0.882562 0.018841
vt 0.90061 0.036535
vt 0.90356 0.051988
vt 0.902262 0.028632
vt 0.90297 0.015302
vt 0.903206 0.028514
vt 0.905329 0.03913
vt 0.905329 0.065082
vt 0.900021 0.076996
vt 0.902144 0.075463
vt 0.876782 0.042315
vt 0.869232 0.043495
vt 0.869114 0.020964
vt 0.875484 0.066498
vt 0.867345 0.01601
vt 0.859795 0.03512
vt 0.863924 0.013415
vt 0.862273 0.042433
vt 0.863688 0.066852
vt 0.868879 0.06638
vt 0.868289 0.067088
vt 0.862391 0.073811
vt 0.866991 0.074991
vt 0.869468 0.068385
vt 0.868879 0.073458
vt 0.867699 0.076525
vt 0.87808 0.067088
vt 0.875838 0.074047
vt 0.87749 0.075345
vt 0.877136 0.068975
vt 0.878551 0.067677
vt 0.617423 0.951128
vt 0.621434 0.944168
vt 0.622967 0.944522
vt 0.622967 0.942516
vt 0.619428 0.951364
vt 0.637359 0.957026
vt 0.641251 0.95679
vt 0.644908 0.940393
vt 0.651986 0.956554
vt 0.651514 0.958559
vt 0.617895 0.952543
vt 0.615418 0.954666
vt 0.64656 0.965873
vt 0.650217 0.964575
vt 0.638302 0.963396
vt 0.636887 0.965401
vt 0.646442 0.968114
vt 0.635471 0.960683
vt 0.634174 0.965283
vt 0.632876 0.96198
vt 0.624147 0.959385
vt 0.624737 0.962688
vt 0.623675 0.96257
vt 0.615418 0.983567
vt 0.631107 0.98168
vt 0.63205 0.97413
vt 0.632404 0.980736
vt 0.634292 0.974012
vt 0.642667 0.976372
vt 0.641487 0.983213
vt 0.395707 0.876359
vt 0.397712 0.87518
vt 0.394409 0.889807
vt 0.424018 0.901603
vt 0.386152 0.89948
vt 0.427203 0.894526
vt 0.426495 0.883791
vt 0.40538 0.867512
vt 0.435578 0.872349
vt 0.448318 0.888156
vt 0.444071 0.864091
vt 0.446431 0.863973
vt 0.403964 0.852531
vt 0.439825 0.851941
vt 0.403138 0.841678
vt 0.443599 0.843684
vt 0.428736 0.838493
vt 0.448318 0.837078
vt 0.477124 0.589371
vt 0.479365 0.593618
vt 0.471225 0.58477
vt 0.475354 0.584652
vt 0.472759 0.583945
vt 0.474528 0.583001
vt 0.479365 0.570143
vt 0.665371 0.473155
vt 0.636942 0.465606
vt 0.643548 0.440244
vt 0.656996 0.435997
vt 0.643902 0.438121
vt 0.657586 0.432576
vt 0.684599 0.44744
vt 0.695452 0.456287
vt 0.659591 0.432223
vt 0.685779 0.446378
vt 0.691441 0.429273
vt 0.664074 0.411579
vt 0.664781 0.403558
vt 0.672921 0.386807
vt 0.636942 0.372416
vt 0.136259 0.936376
vt 0.136259 0.92281
vt 0.13909 0.923872
vt 0.136495 0.90488
vt 0.687535 0.202426
vt 0.697444 0.17152
vt 0.702398 0.172818
vt 0.698151 0.145922
vt 0.691782 0.161847
vt 0.712189 0.150641
vt 0.712071 0.176003
vt 0.717733 0.160549
vt 0.712307 0.185086
vt 0.725637 0.186855
vt 0.735192 0.149697
vt 0.72658 0.124571
vt 0.730945 0.129525
vt 0.71384 0.137311
vt 0.713015 0.125043
vt 0.709594 0.139434
vt 0.711363 0.125986
vt 0.70287 0.12693
vt 0.706173 0.11997
vt 0.698034 0.139316
vt 0.701337 0.125986
vt 0.701926 0.119263
vt 0.69591 0.136249
vt 0.687535 0.137783
vt 0.697798 0.122683
vt 0.694023 0.120796
vt 0.699567 0.110061
vt 0.691899 0.10841
vt 0.699213 0.108646
vt 0.69131 0.106876
vt 0.581228 0.909097
vt 0.58111 0.903553
vt 0.58866 0.894234
vt 0.595502 0.901076
vt 0.590075 0.928443
vt 0.58111 0.934223
vt 0.603051 0.90025
vt 0.601046 0.893644
vt 0.612842 0.947553
vt 0.61473 0.929387
vt 0.605882 0.894116
vt 0.80414 0.436479
vt 0.789749 0.42716
vt 0.792226 0.424801
vt 0.810864 0.432232
vt 0.826907 0.437187
vt 0.846961 0.376554
vt 0.846961 0.454527
vt 0.808505 0.395546
vt 0.798832 0.394602
vt 0.787862 0.425037
vt 0.775947 0.427986
vt 0.792344 0.415482
vt 0.796237 0.392479
vt 0.783851 0.378206
vt 0.787862 0.422795
vt 0.786328 0.423385
vt 0.775947 0.425273
vt 0.789985 0.406988
vt 0.792226 0.387996
vt 0.844058 0.482727
vt 0.856679 0.434598
vt 0.864347 0.471166
vt 0.864347 0.501719
vt 0.961233 0.038472
vt 0.968665 0.070912
vt 0.961233 0.073271
vt 0.904087 0.742643
vt 0.891937 0.735211
vt 0.904087 0.683072
vt 0.263815 0.110914
vt 0.288116 0.122946
vt 0.262046 0.112329
vt 0.257327 0.103128
vt 0.190443 0.122946
vt 0.826756 0.332135
vt 0.824279 0.348178
vt 0.805877 0.31562
vt 0.809298 0.331073
vt 0.817201 0.354312
vt 0.829234 0.355727
vt 0.817083 0.384982
vt 0.834542 0.366226
vt 0.805877 0.381207
vt 0.816022 0.354784
vt 0.812188 0.663943
vt 0.804049 0.690484
vt 0.804403 0.653326
vt 0.785175 0.669723
vt 0.78895 0.646366
vt 0.809003 0.626195
vt 0.785175 0.614516
vt 0.811362 0.615696
vt 0.22478 0.456605
vt 0.217348 0.481849
vt 0.215933 0.40883
vt 0.215933 0.481023
vt 0.414787 0.284341
vt 0.383999 0.288116
vt 0.385297 0.287054
vt 0.379516 0.259215
vt 0.370079 0.272545
vt 0.383999 0.227837
vt 0.414787 0.215805
vt 0.377747 0.192448
vt 0.813073 0.190676
vt 0.809062 0.154461
vt 0.834306 0.14467
vt 0.811539 0.185603
vt 0.809062 0.218633
vt 0.815432 0.219812
vt 0.820858 0.214268
vt 0.829116 0.183362
vt 0.834542 0.162954
vt 0.831711 0.180885
vt 0.813623 0.067697
vt 0.817398 0.080083
vt 0.801355 0.06581
vt 0.767972 0.084448
vt 0.819639 0.084448
vt 0.783307 0.06404
vt 0.787672 0.057434
vt 0.778942 0.064158
vt 0.811618 0.055901
vt 0.773988 0.001756
vt 0.961233 0.557623
vt 0.951088 0.548658
vt 0.951088 0.521644
vt 0.960761 0.565054
vt 0.968665 0.537215
vt 0.320404 0.606921
vt 0.320404 0.615296
vt 0.318399 0.621784
vt 0.319343 0.620605
vt 0.320404 0.62839
f 345/1 328/2 281/3
f 281/3 328/2 411/4
f 411/4 328/2 425/5
f 425/5 328/2 345/1
f 411/4 425/5 427/6
f 427/6 425/5 426/7
f 426/7 425/5 423/8
f 423/8 425/5 345/1
f 426/7 423/8 338/9
f 338/9 423/8 345/1
f 232/10 281/3 411/4
f 232/10 411/4 137/11
f 280/12 345/1 281/3
f 345/1 280/12 338/9
f 281/3 232/10 231/13
f 281/3 231/13 280/12
f 232/10 137/11 2/14
f 2/14 137/11 565/15
f 338/9 280/12 278/16
f 278/16 280/12 231/13
f 338/9 278/16 271/17
f 271/17 278/16 248/18
f 248/18 278/16 255/19
f 255/19 278/16 231/13
f 255/19 231/13 4/20
f 255/19 4/20 451/21
f 1/22 231/13 232/10
f 231/13 1/22 4/20
f 1/22 232/10 2/14
f 451/21 4/20 458/23
f 458/23 4/20 1/22
f 451/21 458/23 460/24
f 1/22 2/14 457/25
f 1/22 457/25 458/23
f 457/25 2/14 565/15
f 460/24 458/23 604/26
f 604/26 458/23 457/25
f 460/24 604/26 585/27
f 457/25 565/15 555/28
f 457/25 555/28 604/26
f 555/28 565/15 609/29
f 555/28 609/29 604/26
f 609/30 565/31 603/32
f 609/30 603/32 604/33
f 591/34 585/35 604/33
f 591/34 604/33 603/32
f 591/34 603/32 240/36
f 240/36 603/32 239/37
f 603/32 565/31 570/38
f 239/37 603/32 516/39
f 516/39 603/32 570/38
f 516/39 570/38 565/31
f 239/37 516/39 227/40
f 516/39 565/31 137/41
f 516/39 137/41 227/40
f 227/42 137/43 396/44
f 396/44 137/43 411/45
f 396/44 411/45 427/46
f 227/42 396/44 247/47
f 396/44 427/46 334/48
f 396/44 334/48 247/47
f 334/48 427/46 365/49
f 365/49 427/46 347/50
f 365/49 347/50 374/51
f 365/49 374/51 334/48
f 334/48 374/51 316/52
f 334/48 316/52 247/47
f 247/47 316/52 244/53
f 239/54 227/42 247/47
f 239/54 247/47 244/53
f 239/54 244/53 242/55
f 239/54 242/55 238/56
f 238/56 242/55 236/57
f 238/56 236/57 239/54
f 236/57 242/55 240/58
f 236/57 240/58 239/54
f 347/59 427/60 426/61
f 347/59 426/61 341/62
f 347/59 341/62 272/63
f 341/62 426/61 338/64
f 272/63 341/62 329/65
f 329/65 341/62 370/66
f 370/66 341/62 338/64
f 329/65 370/66 369/67
f 370/66 338/64 358/68
f 370/66 358/68 367/69
f 370/66 367/69 369/67
f 369/67 367/69 358/68
f 358/68 338/64 351/70
f 358/68 351/70 369/67
f 351/70 338/64 335/71
f 335/71 338/64 271/72
f 369/67 351/70 350/73
f 350/73 351/70 335/71
f 350/73 335/71 258/74
f 258/74 335/71 271/72
f 258/74 271/72 248/75
f 332/76 369/67 359/77
f 369/67 332/76 333/78
f 369/67 333/78 329/65
f 333/78 332/76 279/79
f 329/65 333/78 272/63
f 272/63 333/78 279/79
f 272/63 279/79 261/80
f 272/63 261/80 151/81
f 272/63 151/81 138/82
f 151/81 261/80 122/83
f 151/81 122/83 8/84
f 151/81 8/84 3/85
f 151/81 3/85 10/86
f 3/85 8/84 16/87
f 316/88 374/89 385/90
f 385/90 374/89 347/91
f 385/90 347/91 381/92
f 381/92 347/91 330/93
f 330/93 347/91 242/94
f 242/94 347/91 240/95
f 240/95 347/91 272/96
f 240/95 272/96 591/97
f 244/98 316/99 243/100
f 244/98 243/100 242/101
f 242/101 243/100 251/102
f 243/100 316/99 322/103
f 322/103 316/99 385/104
f 322/103 385/104 398/105
f 398/105 385/104 387/106
f 387/106 385/104 381/107
f 398/105 387/106 377/108
f 387/106 381/107 330/109
f 387/106 330/109 377/108
f 377/108 330/109 252/110
f 252/110 330/109 242/111
f 585/112 591/113 575/114
f 585/112 575/114 550/115
f 550/115 575/114 494/116
f 550/115 494/116 497/117
f 489/118 493/119 497/117
f 497/117 493/119 505/120
f 505/120 493/119 508/121
f 497/117 505/120 574/122
f 497/117 574/122 550/115
f 574/122 505/120 616/123
f 505/120 508/121 621/124
f 505/120 621/124 616/123
f 618/125 508/121 611/126
f 508/121 618/125 621/124
f 621/124 618/125 627/127
f 657/128 627/127 656/129
f 627/127 657/128 692/130
f 621/124 627/127 626/131
f 626/131 627/127 692/130
f 622/132 616/123 621/124
f 616/123 622/132 574/122
f 622/132 621/124 626/131
f 626/131 692/130 663/133
f 663/133 692/130 793/134
f 626/131 663/133 617/135
f 622/132 626/131 623/136
f 623/136 626/131 617/135
f 574/122 622/132 579/137
f 579/137 622/132 623/136
f 574/122 579/137 550/115
f 623/136 617/135 586/138
f 586/138 617/135 587/139
f 550/115 579/137 556/140
f 623/136 586/138 538/141
f 579/137 623/136 577/142
f 579/137 577/142 556/140
f 577/142 623/136 538/141
f 538/141 586/138 462/143
f 556/140 577/142 552/144
f 556/140 552/144 550/115
f 552/144 577/142 538/141
f 550/115 552/144 585/112
f 538/141 462/143 562/145
f 538/141 562/145 552/144
f 552/144 562/145 585/112
f 562/145 462/143 460/146
f 562/145 460/146 585/112
f 575/147 591/148 272/149
f 575/147 272/149 135/150
f 135/150 272/149 138/151
f 135/150 138/151 33/152
f 575/147 135/150 9/153
f 9/153 135/150 33/152
f 9/153 33/152 24/154
f 575/147 9/153 494/155
f 9/153 24/154 20/156
f 494/155 9/153 7/157
f 7/157 9/153 20/156
f 494/155 7/157 480/158
f 7/157 20/156 6/159
f 7/157 6/159 480/158
f 460/160 462/161 452/162
f 452/162 462/161 586/163
f 460/160 452/162 451/164
f 452/162 586/163 572/165
f 452/162 572/165 44/166
f 452/162 44/166 451/164
f 572/165 586/163 573/167
f 572/165 573/167 44/166
f 573/167 586/163 587/168
f 573/167 587/168 567/169
f 567/169 587/168 583/170
f 567/169 583/170 554/171
f 567/169 554/171 455/172
f 567/169 455/172 573/167
f 573/167 455/172 44/166
f 44/166 455/172 130/173
f 130/173 455/172 118/174
f 130/173 118/174 190/175
f 130/173 190/175 258/176
f 130/173 258/176 248/177
f 130/173 248/177 44/166
f 44/166 248/177 120/178
f 44/166 120/178 451/164
f 120/178 248/177 179/179
f 179/179 248/177 255/180
f 179/179 255/180 451/164
f 451/164 120/178 100/181
f 451/164 100/181 179/179
f 100/181 120/178 166/182
f 166/182 120/178 179/179
f 166/182 179/179 100/181
f 587/183 617/184 672/185
f 672/185 617/184 663/186
f 793/187 804/188 663/186
f 663/186 804/188 672/185
f 672/185 804/188 788/189
f 788/189 804/188 806/190
f 788/189 806/190 770/191
f 788/189 770/191 672/185
f 770/191 806/190 790/192
f 770/191 790/192 786/193
f 644/194 587/183 672/185
f 644/194 672/185 770/191
f 587/183 644/194 583/195
f 583/195 644/194 641/196
f 644/194 770/191 661/197
f 661/197 770/191 786/193
f 644/194 661/197 646/198
f 661/197 786/193 713/199
f 713/199 786/193 720/200
f 646/198 661/197 695/201
f 695/201 661/197 713/199
f 695/201 713/199 720/200
f 695/201 720/200 702/202
f 695/201 702/202 700/203
f 793/204 692/205 789/206
f 789/206 692/205 657/207
f 789/206 657/207 780/208
f 780/208 657/207 656/209
f 789/206 780/208 808/210
f 793/204 789/206 802/211
f 802/211 789/206 808/210
f 793/204 802/211 804/212
f 802/211 808/210 805/213
f 804/212 802/211 806/214
f 802/211 805/213 803/215
f 802/211 803/215 806/214
f 803/215 805/213 784/216
f 806/214 803/215 787/217
f 787/217 803/215 784/216
f 787/217 784/216 757/218
f 806/214 787/217 790/219
f 787/217 757/218 746/220
f 790/219 787/217 785/221
f 785/221 787/217 746/220
f 790/219 785/221 786/222
f 786/222 785/221 720/223
f 720/223 785/221 717/224
f 717/224 785/221 712/225
f 712/225 785/221 746/220
f 712/225 746/220 639/226
f 808/227 780/228 801/229
f 801/229 780/228 773/230
f 808/227 801/229 807/231
f 808/227 807/231 805/232
f 801/229 773/230 792/233
f 792/233 773/230 764/234
f 792/233 764/234 779/235
f 779/235 764/234 763/236
f 779/235 763/236 794/237
f 779/235 794/237 792/233
f 801/229 792/233 798/238
f 798/238 792/233 794/237
f 801/229 798/238 800/239
f 800/239 798/238 794/237
f 801/229 800/239 807/231
f 800/239 794/237 795/240
f 795/240 794/237 778/241
f 807/231 800/239 799/242
f 807/231 799/242 805/232
f 799/242 800/239 795/240
f 795/240 778/241 783/243
f 805/232 799/242 797/244
f 805/232 797/244 784/245
f 799/242 795/240 796/246
f 799/242 796/246 797/244
f 795/240 783/243 791/247
f 795/240 791/247 796/246
f 791/247 783/243 769/248
f 791/247 769/248 775/249
f 791/247 775/249 796/246
f 775/249 769/248 745/250
f 796/246 775/249 781/251
f 796/246 781/251 797/244
f 781/251 775/249 745/250
f 782/252 784/245 797/244
f 782/252 797/244 781/251
f 784/245 782/252 757/253
f 782/252 781/251 759/254
f 759/254 781/251 745/250
f 782/252 759/254 757/253
f 759/254 745/250 747/255
f 759/254 747/255 757/253
f 747/255 745/250 742/256
f 742/256 745/250 734/257
f 742/256 734/257 735/258
f 742/256 735/258 747/255
f 747/255 735/258 749/259
f 747/255 749/259 757/253
f 749/259 735/258 746/260
f 749/259 746/260 757/253
f 735/261 734/262 726/263
f 726/263 734/262 727/264
f 735/261 726/263 693/265
f 735/261 693/265 746/266
f 693/265 726/263 678/267
f 678/267 726/263 727/264
f 746/266 693/265 60/268
f 60/268 693/265 678/267
f 746/266 60/268 639/269
f 60/268 678/267 477/270
f 477/270 678/267 707/271
f 707/271 678/267 727/264
f 707/271 727/264 721/272
f 721/272 727/264 729/273
f 745/274 727/264 734/262
f 727/264 745/274 729/273
f 60/268 477/270 139/275
f 729/273 745/274 737/276
f 729/273 737/276 733/277
f 737/276 745/274 744/278
f 737/276 744/278 733/277
f 744/278 745/274 769/279
f 744/278 769/279 733/277
f 60/268 139/275 136/280
f 143/281 139/275 477/270
f 136/280 139/275 148/282
f 136/280 148/282 144/283
f 139/275 143/281 163/284
f 139/275 163/284 148/282
f 163/284 143/281 168/285
f 144/283 148/282 152/286
f 163/284 168/285 169/287
f 148/282 163/284 162/288
f 162/288 163/284 169/287
f 148/282 162/288 152/286
f 162/288 169/287 183/289
f 162/288 183/289 152/286
f 152/286 183/289 170/290
f 152/286 170/290 161/291
f 183/289 169/287 207/292
f 207/292 169/287 172/293
f 170/290 183/289 313/294
f 313/294 183/289 207/292
f 170/290 313/294 321/295
f 313/294 207/292 320/296
f 313/294 320/296 344/297
f 320/296 207/292 346/298
f 344/297 320/296 352/299
f 320/296 346/298 361/300
f 320/296 361/300 352/299
f 361/300 346/298 373/301
f 344/297 352/299 343/302
f 361/300 373/301 362/303
f 361/300 362/303 352/299
f 362/303 373/301 371/304
f 352/299 362/303 355/305
f 355/305 362/303 371/304
f 352/299 355/305 343/302
f 343/302 355/305 371/304
f 343/302 371/304 364/306
f 343/302 364/306 348/307
f 707/308 721/309 710/310
f 707/308 710/310 477/311
f 477/311 710/310 688/312
f 710/310 721/309 718/313
f 718/313 721/309 723/314
f 723/314 721/309 729/315
f 723/314 729/315 733/316
f 723/314 733/316 724/317
f 718/313 723/314 719/318
f 719/318 723/314 724/317
f 718/313 719/318 710/310
f 719/318 724/317 725/319
f 710/310 719/318 715/320
f 715/320 719/318 725/319
f 710/310 715/320 688/312
f 715/320 725/319 716/321
f 714/322 716/321 688/312
f 716/321 714/322 715/320
f 715/320 714/322 688/312
f 724/323 733/324 736/325
f 724/323 736/325 725/326
f 736/325 733/324 758/327
f 758/327 733/324 769/328
f 725/326 736/325 760/329
f 760/329 736/325 758/327
f 758/327 769/328 762/330
f 758/327 762/330 760/329
f 762/330 769/328 783/331
f 762/330 783/331 776/332
f 762/330 776/332 760/329
f 776/332 783/331 778/333
f 725/326 760/329 739/334
f 776/332 778/333 774/335
f 776/332 774/335 760/329
f 774/335 778/333 777/336
f 760/329 774/335 739/334
f 774/335 777/336 771/337
f 725/326 739/334 716/338
f 774/335 771/337 761/339
f 774/335 761/339 739/334
f 761/339 771/337 768/340
f 768/340 771/337 748/341
f 739/334 761/339 772/342
f 772/342 761/339 768/340
f 768/340 748/341 767/343
f 768/340 767/343 772/342
f 767/343 748/341 743/344
f 739/334 772/342 755/345
f 739/334 755/345 716/338
f 772/342 767/343 765/346
f 765/346 767/343 756/347
f 765/346 756/347 752/348
f 772/342 765/346 750/349
f 750/349 765/346 752/348
f 772/342 750/349 755/345
f 716/338 755/345 740/350
f 716/338 740/350 688/351
f 740/350 755/345 751/352
f 740/350 751/352 688/351
f 751/352 755/345 750/349
f 750/349 752/348 731/353
f 751/352 750/349 741/354
f 688/351 751/352 696/355
f 688/351 696/355 668/356
f 751/352 741/354 694/357
f 751/352 694/357 696/355
f 741/354 750/349 730/358
f 730/358 750/349 731/353
f 741/354 730/358 694/357
f 730/358 731/353 679/359
f 730/358 679/359 694/357
f 679/359 731/353 631/360
f 679/359 631/360 666/361
f 679/359 666/361 694/357
f 666/361 631/360 634/362
f 666/361 634/362 673/363
f 666/361 673/363 674/364
f 666/361 674/364 694/357
f 674/364 673/363 675/365
f 694/357 674/364 676/366
f 676/366 674/364 675/365
f 694/357 676/366 696/355
f 696/355 676/366 668/356
f 668/356 676/366 675/365
f 668/356 675/365 667/367
f 773/368 780/369 656/370
f 773/368 656/370 703/371
f 773/368 703/371 764/372
f 764/372 703/371 665/373
f 764/372 665/373 763/374
f 763/374 665/373 682/375
f 682/375 665/373 652/376
f 652/376 665/373 650/377
f 652/376 650/377 628/378
f 665/373 703/371 685/379
f 665/373 685/379 650/377
f 685/379 703/371 654/380
f 654/380 703/371 656/370
f 685/379 654/380 655/381
f 685/379 655/381 650/377
f 650/377 655/381 654/380
f 615/382 628/378 650/377
f 654/380 656/370 619/383
f 654/380 619/383 650/377
f 650/377 619/383 615/382
f 619/383 656/370 627/384
f 619/383 627/384 618/385
f 619/383 618/385 608/386
f 619/383 608/386 615/382
f 608/386 618/385 611/387
f 615/382 608/386 597/388
f 615/382 597/388 613/389
f 597/388 608/386 561/390
f 608/386 611/387 485/391
f 608/386 485/391 561/390
f 561/390 485/391 473/392
f 485/391 611/387 508/393
f 485/391 508/393 493/394
f 794/395 763/396 778/397
f 778/397 763/396 766/398
f 778/397 766/398 777/399
f 766/398 763/396 754/400
f 754/400 763/396 682/401
f 754/400 682/401 722/402
f 766/398 754/400 753/403
f 766/398 753/403 777/399
f 753/403 754/400 722/402
f 777/399 753/403 728/404
f 728/404 753/403 722/402
f 628/405 615/406 613/407
f 628/405 613/407 606/408
f 628/405 606/408 652/409
f 652/409 606/408 651/410
f 652/409 651/410 682/411
f 606/408 613/407 596/412
f 606/408 596/412 594/413
f 596/412 613/407 597/414
f 682/415 651/416 722/417
f 722/417 651/416 649/418
f 649/418 651/416 606/419
f 722/417 649/418 653/420
f 649/418 606/419 601/421
f 649/418 601/421 653/420
f 722/417 653/420 728/422
f 601/421 606/419 594/423
f 601/421 594/423 592/424
f 592/424 594/423 582/425
f 592/424 582/425 593/426
f 592/424 593/426 601/421
f 593/426 582/425 461/427
f 728/422 653/420 684/428
f 648/429 653/420 601/421
f 653/420 648/429 684/428
f 601/421 593/426 610/430
f 601/421 610/430 648/429
f 610/430 593/426 600/431
f 600/431 593/426 595/432
f 600/431 595/432 599/433
f 600/431 599/433 607/434
f 600/431 607/434 610/430
f 610/430 607/434 647/435
f 610/430 647/435 648/429
f 648/429 647/435 732/436
f 648/429 732/436 684/428
f 732/436 647/435 748/437
f 732/436 748/437 771/438
f 684/428 732/436 738/439
f 738/439 732/436 771/438
f 684/428 738/439 728/422
f 738/439 771/438 777/440
f 738/439 777/440 728/422
f 743/441 748/442 647/443
f 743/441 647/443 706/444
f 706/444 647/443 607/445
f 706/444 607/445 640/446
f 640/446 607/445 588/447
f 706/444 640/446 643/448
f 643/448 640/446 588/447
f 743/441 706/444 711/449
f 711/449 706/444 643/448
f 743/441 711/449 756/450
f 743/441 756/450 767/451
f 711/449 643/448 659/452
f 711/449 659/452 756/450
f 659/452 643/448 588/447
f 756/450 659/452 752/453
f 752/453 659/452 731/454
f 731/454 659/452 631/455
f 659/452 588/447 632/456
f 659/452 632/456 631/455
f 632/456 588/447 547/457
f 632/456 547/457 631/455
f 547/457 588/447 541/458
f 631/455 547/457 515/459
f 515/459 547/457 541/458
f 607/460 599/461 588/462
f 588/462 599/461 590/463
f 590/463 599/461 598/464
f 634/465 631/466 629/467
f 634/465 629/467 630/468
f 634/465 630/468 673/469
f 629/467 631/466 566/470
f 629/467 566/470 630/468
f 673/469 630/468 671/471
f 566/470 631/466 515/472
f 671/471 630/468 624/473
f 671/471 624/473 625/474
f 671/471 625/474 670/475
f 624/473 630/468 569/476
f 624/473 569/476 625/474
f 569/476 630/468 566/470
f 625/474 569/476 571/477
f 571/477 569/476 218/478
f 218/478 569/476 217/479
f 569/476 566/470 26/480
f 569/476 26/480 217/479
f 26/480 566/470 515/472
f 217/479 26/480 285/481
f 105/482 515/472 541/483
f 26/480 515/472 67/484
f 67/484 515/472 105/482
f 285/481 26/480 171/485
f 171/485 26/480 67/484
f 283/486 288/487 285/481
f 283/486 285/481 171/485
f 67/484 105/482 128/488
f 67/484 128/488 171/485
f 128/488 105/482 225/489
f 283/486 171/485 233/490
f 283/486 233/490 225/489
f 171/485 128/488 181/491
f 171/485 181/491 233/490
f 128/488 225/489 147/492
f 128/488 147/492 181/491
f 225/489 233/490 219/493
f 219/493 233/490 181/491
f 225/489 219/493 147/492
f 147/492 219/493 181/491
f 625/494 571/495 620/496
f 620/496 571/495 518/497
f 625/494 620/496 670/498
f 670/498 620/496 518/497
f 96/499 481/500 518/497
f 518/497 481/500 605/501
f 605/501 481/500 576/502
f 670/498 518/497 660/503
f 660/503 518/497 605/501
f 660/503 605/501 664/504
f 664/504 605/501 576/502
f 670/498 660/503 677/505
f 677/505 660/503 664/504
f 670/498 677/505 687/506
f 677/505 664/504 689/507
f 677/505 689/507 687/506
f 670/498 687/506 671/508
f 689/507 664/504 690/509
f 689/507 690/509 687/506
f 671/508 687/506 683/510
f 683/510 687/506 690/509
f 671/508 683/510 673/511
f 673/511 683/510 675/512
f 675/512 683/510 690/509
f 675/512 690/509 667/513
f 662/514 690/509 664/504
f 690/509 662/514 667/513
f 662/514 664/504 576/502
f 667/513 662/514 658/515
f 658/515 662/514 576/502
f 667/513 658/515 633/516
f 658/515 576/502 511/517
f 658/515 511/517 633/516
f 511/517 576/502 476/518
f 511/517 476/518 479/519
f 511/517 479/519 633/516
f 667/513 633/516 668/520
f 668/520 633/516 636/521
f 668/520 636/521 688/522
f 636/521 633/516 549/523
f 549/523 633/516 479/519
f 636/521 549/523 448/524
f 448/524 549/523 479/519
f 448/524 479/519 111/525
f 448/524 111/525 189/526
f 518/527 571/528 211/529
f 211/529 571/528 218/530
f 518/527 211/529 237/531
f 518/527 237/531 96/532
f 237/531 211/529 439/533
f 96/532 237/531 234/534
f 96/532 234/534 115/535
f 234/534 237/531 405/536
f 405/536 237/531 439/533
f 115/535 234/534 294/537
f 294/537 234/534 405/536
f 115/535 294/537 117/538
f 117/538 294/537 277/539
f 117/538 277/539 132/540
f 132/540 277/539 295/541
f 295/541 277/539 419/542
f 277/539 294/537 331/543
f 277/539 331/543 419/542
f 331/543 294/537 376/544
f 331/543 376/544 419/542
f 376/544 294/537 405/536
f 419/542 376/544 438/545
f 419/542 438/545 422/546
f 376/544 405/536 441/547
f 441/547 405/536 439/533
f 438/545 376/544 440/548
f 440/548 376/544 441/547
f 422/546 438/545 442/549
f 442/549 438/545 440/548
f 440/548 441/547 443/550
f 440/548 443/550 442/549
f 443/550 441/547 439/533
f 422/546 442/549 401/551
f 422/546 401/551 299/552
f 442/549 443/550 395/553
f 442/549 395/553 401/551
f 443/550 439/533 406/554
f 443/550 406/554 395/553
f 406/554 439/533 273/555
f 406/554 273/555 395/553
f 273/555 439/533 211/529
f 273/555 211/529 218/530
f 395/553 273/555 275/556
f 395/553 275/556 401/551
f 275/556 273/555 218/530
f 401/551 275/556 299/552
f 275/556 218/530 217/557
f 275/556 217/557 299/552
f 299/552 217/557 285/558
f 96/559 115/560 112/561
f 112/561 115/560 114/562
f 114/562 115/560 117/563
f 96/559 112/561 76/564
f 96/559 76/564 481/565
f 76/564 112/561 108/566
f 108/566 112/561 113/567
f 113/567 112/561 114/562
f 113/567 114/562 107/568
f 107/568 114/562 92/569
f 92/569 114/562 101/570
f 101/570 114/562 116/571
f 116/571 114/562 117/563
f 101/570 116/571 111/572
f 116/571 117/563 132/573
f 116/571 132/573 111/572
f 111/572 132/573 189/574
f 469/575 481/565 76/564
f 474/576 76/564 108/566
f 76/564 474/576 469/575
f 474/576 108/566 475/577
f 474/576 475/577 501/578
f 469/575 474/576 498/579
f 498/579 474/576 501/578
f 469/575 498/579 481/565
f 498/579 501/578 500/580
f 481/565 498/579 495/581
f 495/581 498/579 500/580
f 481/565 495/581 576/582
f 495/581 500/580 496/583
f 495/581 496/583 576/582
f 496/583 500/580 468/584
f 576/582 496/583 476/585
f 476/585 496/583 468/584
f 132/586 295/587 293/588
f 132/586 293/588 189/589
f 189/589 293/588 298/590
f 293/588 295/587 304/591
f 293/588 304/591 298/590
f 304/591 295/587 419/592
f 298/590 304/591 389/593
f 389/593 304/591 419/592
f 407/594 296/595 298/590
f 407/594 298/590 418/596
f 418/596 298/590 389/593
f 407/594 418/596 428/597
f 418/596 389/593 431/598
f 418/596 431/598 428/597
f 431/598 389/593 419/592
f 431/598 419/592 434/599
f 428/597 431/598 432/600
f 432/600 431/598 434/599
f 434/599 419/592 422/601
f 434/599 422/601 432/600
f 432/600 422/601 420/602
f 432/600 420/602 435/603
f 420/602 422/601 301/604
f 301/604 422/601 299/605
f 420/602 301/604 307/606
f 301/604 299/605 285/607
f 307/606 301/604 288/608
f 288/608 301/604 285/607
f 407/609 428/610 417/611
f 417/611 428/610 416/612
f 416/612 428/610 403/613
f 403/613 428/610 421/614
f 403/613 421/614 303/615
f 416/612 403/613 413/616
f 416/612 413/616 417/611
f 413/616 403/613 326/617
f 413/616 326/617 408/618
f 413/616 408/618 417/611
f 417/611 408/618 414/619
f 414/619 408/618 397/620
f 417/611 414/619 378/621
f 417/611 378/621 407/609
f 378/621 414/619 397/620
f 407/609 378/621 296/622
f 296/622 378/621 397/620
f 296/622 397/620 241/623
f 296/622 241/623 195/624
f 195/624 241/623 198/625
f 195/624 198/625 180/626
f 195/624 180/626 168/627
f 195/624 168/627 177/628
f 195/624 177/628 187/629
f 177/628 168/627 149/630
f 177/628 149/630 175/631
f 149/630 168/627 143/632
f 421/633 428/634 432/635
f 305/636 303/637 421/633
f 305/636 421/633 392/638
f 392/638 421/633 430/639
f 430/639 421/633 433/640
f 433/640 421/633 432/635
f 430/639 433/640 437/641
f 437/641 433/640 432/635
f 437/641 432/635 435/642
f 437/641 435/642 424/643
f 424/643 435/642 420/644
f 326/645 403/646 303/647
f 326/645 303/647 292/648
f 326/645 292/648 349/649
f 326/645 349/649 408/650
f 349/649 292/648 290/651
f 290/651 292/648 229/652
f 290/651 229/652 223/653
f 223/653 229/652 221/654
f 223/653 221/654 140/655
f 356/656 380/657 290/651
f 356/656 290/651 226/658
f 226/658 290/651 223/653
f 356/656 226/658 224/659
f 224/659 226/658 223/653
f 356/656 224/659 360/660
f 360/660 224/659 311/661
f 311/661 224/659 222/662
f 222/662 224/659 223/653
f 222/662 223/653 220/663
f 222/662 220/663 119/664
f 119/664 220/663 223/653
f 119/664 223/653 140/655
f 119/664 140/655 46/665
f 46/665 140/655 66/666
f 119/664 46/665 49/667
f 408/668 349/669 390/670
f 390/670 349/669 380/671
f 408/668 390/670 386/672
f 386/672 390/670 380/671
f 408/668 386/672 397/673
f 386/672 380/671 356/674
f 397/673 386/672 388/675
f 397/673 388/675 357/676
f 397/673 357/676 241/677
f 357/676 388/675 366/678
f 357/676 366/678 241/677
f 366/678 388/675 386/672
f 241/677 366/678 198/679
f 198/679 366/678 353/680
f 366/678 386/672 372/681
f 372/681 386/672 356/674
f 353/680 366/678 383/682
f 383/682 366/678 372/681
f 353/680 383/682 346/683
f 346/683 383/682 373/684
f 373/684 383/682 379/685
f 379/685 383/682 372/681
f 373/684 379/685 371/686
f 371/686 379/685 372/681
f 384/687 372/681 356/674
f 372/681 384/687 371/686
f 384/687 356/674 360/688
f 371/686 384/687 364/689
f 364/689 384/687 360/688
f 364/689 360/688 311/690
f 380/691 349/692 290/693
f 198/694 353/695 207/696
f 207/696 353/695 346/697
f 198/694 207/696 172/698
f 198/694 172/698 180/699
f 364/700 311/701 323/702
f 364/700 323/702 348/703
f 323/702 311/701 222/704
f 267/705 319/706 323/702
f 267/705 323/702 222/704
f 267/705 222/704 212/707
f 212/707 222/704 213/708
f 212/707 213/708 123/709
f 213/708 222/704 216/710
f 213/708 216/710 123/709
f 216/710 222/704 49/711
f 49/711 222/704 119/712
f 123/709 216/710 21/713
f 21/713 216/710 49/711
f 212/707 123/709 15/714
f 15/714 123/709 21/713
f 212/707 15/714 126/715
f 126/715 15/714 8/716
f 8/716 15/714 16/717
f 16/717 15/714 25/718
f 25/718 15/714 21/713
f 16/717 25/718 22/719
f 31/720 21/713 49/711
f 21/713 31/720 25/718
f 31/720 49/711 36/721
f 22/719 25/718 11/722
f 22/719 11/722 32/723
f 11/722 25/718 5/724
f 11/722 5/724 27/725
f 27/725 5/724 25/718
f 11/722 27/725 32/723
f 27/725 25/718 31/720
f 27/725 31/720 32/723
f 32/723 31/720 42/726
f 42/726 31/720 75/727
f 58/728 31/720 36/721
f 31/720 58/728 75/727
f 58/728 36/721 72/729
f 75/727 58/728 45/730
f 45/730 58/728 72/729
f 75/727 45/730 39/731
f 45/730 72/729 41/732
f 45/730 41/732 39/731
f 229/733 292/734 167/735
f 229/733 167/735 131/736
f 229/733 131/736 221/737
f 131/736 167/735 66/738
f 131/736 66/738 221/737
f 221/737 66/738 140/739
f 66/738 167/735 74/740
f 66/738 74/740 73/741
f 73/741 74/740 84/742
f 66/738 73/741 56/743
f 66/738 56/743 50/744
f 167/745 292/746 197/747
f 167/745 197/747 74/748
f 74/748 197/747 84/749
f 197/747 292/746 291/750
f 197/747 291/750 173/751
f 291/750 292/746 303/752
f 173/751 291/750 289/753
f 291/750 303/752 305/754
f 291/750 305/754 289/753
f 46/755 66/756 37/757
f 37/757 66/756 50/758
f 49/759 46/760 36/761
f 36/761 46/760 37/762
f 36/761 37/762 72/763
f 72/764 37/765 81/766
f 72/764 81/766 41/767
f 35/768 37/765 50/769
f 37/765 35/768 81/766
f 81/766 35/768 40/770
f 41/767 81/766 124/771
f 81/766 40/770 150/772
f 81/766 150/772 124/771
f 124/771 150/772 121/773
f 39/774 41/775 121/776
f 121/776 41/775 124/777
f 39/774 121/776 75/778
f 75/778 121/776 156/779
f 156/779 121/776 150/780
f 75/778 156/779 42/781
f 42/781 156/779 32/782
f 127/783 19/784 32/782
f 127/783 32/782 156/779
f 127/783 156/779 159/785
f 156/779 150/780 191/786
f 159/785 156/779 164/787
f 159/785 164/787 158/788
f 156/779 191/786 182/789
f 156/779 182/789 164/787
f 164/787 182/789 186/790
f 164/787 186/790 125/791
f 186/790 182/789 253/792
f 253/792 182/789 191/786
f 186/790 253/792 246/793
f 246/793 253/792 282/794
f 282/794 253/792 191/786
f 282/794 191/786 184/795
f 40/796 35/797 62/798
f 40/796 62/798 150/799
f 62/798 35/797 57/800
f 62/798 57/800 71/801
f 62/798 71/801 84/802
f 84/802 71/801 73/803
f 73/803 71/801 57/800
f 73/803 57/800 59/804
f 73/803 59/804 56/805
f 57/800 35/797 47/806
f 57/800 47/806 59/804
f 47/806 35/797 50/807
f 59/804 47/806 53/808
f 59/804 53/808 56/805
f 53/808 47/806 50/807
f 17/809 50/807 56/805
f 50/807 17/809 53/808
f 53/808 17/809 56/805
f 62/810 84/811 194/812
f 62/810 194/812 154/813
f 154/813 194/812 203/814
f 154/813 203/814 202/815
f 62/810 154/813 185/816
f 185/816 154/813 202/815
f 62/810 185/816 150/817
f 185/816 202/815 184/818
f 185/816 184/818 150/817
f 150/817 184/818 191/819
f 194/820 84/821 197/822
f 194/820 197/822 203/823
f 203/823 197/822 202/824
f 202/824 197/822 199/825
f 199/825 197/822 200/826
f 200/826 197/822 209/827
f 209/827 197/822 173/828
f 184/829 202/830 192/831
f 192/831 202/830 199/832
f 192/831 199/832 165/833
f 282/834 184/835 188/836
f 282/834 188/836 246/837
f 188/836 184/835 192/838
f 246/837 188/836 186/839
f 186/839 188/836 192/838
f 186/839 192/838 125/840
f 125/840 192/838 165/841
f 125/840 165/841 78/842
f 125/840 78/842 87/843
f 54/844 38/845 87/843
f 54/844 87/843 78/842
f 54/844 78/842 48/846
f 54/844 48/846 29/847
f 78/842 165/841 80/848
f 48/846 78/842 69/849
f 69/849 78/842 80/848
f 48/846 69/849 449/850
f 48/846 449/850 464/851
f 464/851 449/850 467/852
f 467/852 449/850 465/853
f 464/851 467/852 470/854
f 470/854 467/852 465/853
f 69/849 80/848 77/855
f 69/849 77/855 453/856
f 77/855 80/848 106/857
f 106/857 80/848 160/858
f 160/858 80/848 165/841
f 160/858 165/841 199/859
f 106/857 160/858 173/860
f 160/858 199/859 200/861
f 160/858 200/861 173/860
f 173/860 200/861 209/862
f 125/863 87/864 164/865
f 164/865 87/864 55/866
f 164/865 55/866 138/867
f 55/866 87/864 38/868
f 55/866 38/868 24/869
f 55/866 24/869 33/870
f 24/869 38/868 29/871
f 29/871 38/868 54/872
f 24/869 29/871 20/873
f 20/873 29/871 6/874
f 6/874 29/871 464/875
f 464/875 29/871 48/876
f 6/874 464/875 480/877
f 480/877 464/875 502/878
f 502/878 464/875 483/879
f 106/880 173/881 533/882
f 106/880 533/882 77/883
f 77/883 533/882 509/884
f 77/883 509/884 453/885
f 453/885 509/884 543/886
f 533/882 173/881 535/887
f 533/882 535/887 553/888
f 535/887 173/881 289/889
f 553/888 535/887 568/890
f 553/888 568/890 584/891
f 584/891 568/890 580/892
f 580/892 568/890 471/893
f 568/890 535/887 145/894
f 145/894 535/887 289/889
f 568/890 145/894 471/893
f 145/894 289/889 266/895
f 145/894 266/895 263/896
f 145/894 263/896 471/893
f 471/893 263/896 215/897
f 289/898 305/899 266/900
f 266/900 305/899 392/901
f 266/900 392/901 399/902
f 399/902 392/901 445/903
f 445/903 392/901 430/904
f 399/902 445/903 402/905
f 402/905 445/903 444/906
f 420/907 307/908 424/909
f 424/909 307/908 300/910
f 300/910 307/908 288/911
f 300/910 288/911 286/912
f 286/912 288/911 283/913
f 412/914 437/915 424/916
f 412/914 424/916 300/917
f 437/918 412/919 429/920
f 437/918 429/920 430/921
f 429/920 412/919 306/922
f 306/922 412/919 300/923
f 430/921 429/920 447/924
f 430/921 447/924 445/925
f 445/925 447/924 444/926
f 444/926 447/924 446/927
f 447/924 429/920 415/928
f 447/924 415/928 446/927
f 415/928 429/920 306/922
f 446/927 415/928 309/929
f 309/929 415/928 302/930
f 302/930 415/928 306/922
f 309/929 302/930 259/931
f 259/931 302/930 306/922
f 309/929 259/931 269/932
f 297/933 306/922 300/923
f 297/933 300/923 287/934
f 297/933 287/934 306/922
f 306/922 287/934 259/931
f 287/934 300/923 286/935
f 269/932 259/931 70/936
f 269/932 70/936 30/937
f 259/931 287/934 28/938
f 259/931 28/938 70/936
f 287/934 286/935 228/939
f 30/937 70/936 13/940
f 13/940 70/936 28/938
f 228/939 286/935 105/941
f 30/937 13/940 514/942
f 30/937 514/942 527/943
f 514/942 13/940 559/944
f 559/944 13/940 545/945
f 545/945 13/940 28/938
f 514/942 559/944 581/946
f 514/942 581/946 527/943
f 527/943 581/946 580/947
f 527/943 580/947 530/948
f 530/948 580/947 471/949
f 580/947 581/946 584/950
f 581/946 559/944 578/951
f 581/946 578/951 584/950
f 578/951 559/944 545/945
f 584/950 578/951 553/952
f 553/952 578/951 545/945
f 553/952 545/945 544/953
f 544/953 545/945 486/954
f 486/954 545/945 28/938
f 553/952 544/953 551/955
f 553/952 551/955 533/956
f 533/956 551/955 509/957
f 509/957 551/955 510/958
f 510/958 551/955 544/953
f 509/957 510/958 543/959
f 510/958 544/953 507/960
f 507/960 544/953 486/954
f 543/959 510/958 542/961
f 542/961 510/958 507/960
f 542/961 507/960 486/954
f 543/959 542/961 595/962
f 595/962 542/961 598/963
f 595/962 598/963 599/964
f 598/963 542/961 590/965
f 590/965 542/961 541/966
f 541/966 542/961 486/954
f 590/965 541/966 588/967
f 541/966 486/954 18/968
f 18/968 486/954 28/938
f 541/966 18/968 34/969
f 34/969 18/968 28/938
f 541/966 34/969 105/941
f 34/969 28/938 174/970
f 174/970 28/938 287/934
f 105/941 34/969 142/971
f 142/971 34/969 174/970
f 105/941 142/971 228/939
f 174/970 287/934 228/939
f 228/939 142/971 206/972
f 174/970 228/939 205/973
f 205/973 228/939 206/972
f 142/971 174/970 129/974
f 129/974 174/970 205/973
f 142/971 129/974 206/972
f 206/972 129/974 205/973
f 286/975 283/976 225/977
f 286/975 225/977 105/978
f 309/979 269/980 446/981
f 446/981 269/980 178/982
f 178/982 269/980 30/983
f 446/981 178/982 436/984
f 178/982 30/983 527/985
f 436/984 178/982 215/986
f 178/982 527/985 530/987
f 178/982 530/987 215/986
f 215/986 530/987 471/988
f 446/989 436/990 444/991
f 444/991 436/990 402/992
f 402/992 436/990 215/993
f 402/992 215/993 339/994
f 402/992 339/994 409/995
f 402/992 409/995 399/996
f 409/995 339/994 404/997
f 399/996 409/995 410/998
f 410/998 409/995 404/997
f 399/996 410/998 382/999
f 382/999 410/998 377/1000
f 377/1000 410/998 404/997
f 382/999 377/1000 252/1001
f 377/1000 404/997 400/1002
f 400/1002 404/997 322/1003
f 400/1002 322/1003 398/1004
f 377/1000 400/1002 375/1005
f 377/1000 375/1005 398/1004
f 398/1004 375/1005 400/1002
f 266/1006 399/1007 382/1008
f 266/1006 382/1008 252/1009
f 266/1006 252/1009 257/1010
f 257/1010 252/1009 242/1011
f 266/1006 257/1010 263/1012
f 257/1010 242/1011 254/1013
f 263/1012 257/1010 265/1014
f 265/1014 257/1010 254/1013
f 254/1013 242/1011 251/1015
f 254/1013 251/1015 265/1014
f 265/1014 251/1015 263/1012
f 263/1012 251/1015 256/1016
f 256/1016 251/1015 249/1017
f 263/1012 256/1016 215/1018
f 215/1018 256/1016 270/1019
f 215/1018 270/1019 339/1020
f 322/1021 404/1022 339/1023
f 284/1024 243/1025 322/1026
f 243/1025 284/1024 249/1027
f 243/1025 249/1027 251/1028
f 284/1029 322/1030 339/1031
f 284/1029 339/1031 262/1032
f 262/1032 339/1031 270/1033
f 284/1029 262/1032 249/1034
f 249/1035 262/1036 256/1037
f 256/1037 262/1036 270/1038
f 317/1039 314/1040 235/1041
f 314/1040 317/1039 391/1042
f 391/1042 317/1039 394/1043
f 314/1040 391/1042 363/1044
f 314/1040 363/1044 310/1045
f 394/1043 317/1039 153/1046
f 153/1046 317/1039 235/1041
f 394/1043 153/1046 327/1047
f 314/1040 310/1045 264/1048
f 264/1048 310/1045 350/1049
f 264/1048 350/1049 258/1050
f 314/1040 264/1048 230/1051
f 314/1040 230/1051 235/1041
f 264/1048 258/1050 245/1052
f 264/1048 245/1052 230/1051
f 155/1053 153/1046 235/1041
f 155/1053 235/1041 230/1051
f 153/1046 155/1053 536/1054
f 153/1046 536/1054 83/1055
f 155/1053 230/1051 157/1056
f 157/1056 230/1051 245/1052
f 536/1054 155/1053 612/1057
f 612/1057 155/1053 157/1056
f 536/1054 612/1057 637/1058
f 612/1057 157/1056 602/1059
f 612/1057 602/1059 637/1058
f 157/1056 245/1052 82/1060
f 157/1056 82/1060 602/1059
f 637/1058 602/1059 635/1061
f 214/1062 245/1052 258/1050
f 214/1062 258/1050 190/1063
f 214/1062 190/1063 204/1064
f 204/1064 190/1063 118/1065
f 245/1052 214/1062 146/1066
f 146/1066 214/1062 204/1064
f 146/1066 204/1064 118/1065
f 245/1052 146/1066 82/1060
f 82/1060 146/1066 118/1065
f 82/1060 118/1065 455/1067
f 82/1060 455/1067 554/1068
f 82/1060 554/1068 614/1069
f 82/1060 614/1069 602/1059
f 614/1069 554/1068 583/1070
f 602/1059 614/1069 635/1061
f 614/1069 583/1070 641/1071
f 614/1069 641/1071 635/1061
f 635/1061 641/1071 646/1072
f 646/1072 641/1071 644/1073
f 635/1061 646/1072 700/1074
f 700/1074 646/1072 695/1075
f 635/1061 700/1074 701/1076
f 701/1076 700/1074 708/1077
f 635/1061 701/1076 637/1058
f 637/1058 701/1076 699/1078
f 699/1078 701/1076 709/1079
f 391/1080 394/1081 393/1082
f 393/1082 394/1081 327/1083
f 391/1080 393/1082 363/1084
f 363/1084 393/1082 368/1085
f 393/1082 327/1083 315/1086
f 315/1086 327/1083 308/1087
f 308/1087 327/1083 153/1088
f 393/1082 315/1086 318/1089
f 393/1082 318/1089 368/1085
f 315/1086 308/1087 102/1090
f 315/1086 102/1090 318/1089
f 308/1087 153/1088 99/1091
f 308/1087 99/1091 102/1090
f 99/1091 153/1088 83/1092
f 99/1091 83/1092 85/1093
f 99/1091 85/1093 102/1090
f 85/1093 83/1092 88/1094
f 102/1090 85/1093 95/1095
f 85/1093 88/1094 51/1096
f 51/1096 88/1094 68/1097
f 51/1096 68/1097 23/1098
f 51/1096 23/1098 521/1099
f 85/1093 51/1096 93/1100
f 85/1093 93/1100 95/1095
f 102/1090 95/1095 250/1101
f 102/1090 250/1101 318/1089
f 250/1101 95/1095 93/1100
f 318/1089 250/1101 325/1102
f 318/1089 325/1102 368/1085
f 250/1101 93/1100 276/1103
f 250/1101 276/1103 325/1102
f 276/1103 93/1100 260/1104
f 65/1105 93/1100 51/1096
f 93/1100 65/1105 260/1104
f 65/1105 51/1096 521/1099
f 276/1103 260/1104 268/1106
f 268/1106 260/1104 65/1105
f 325/1102 276/1103 340/1107
f 340/1107 276/1103 268/1106
f 325/1102 340/1107 368/1085
f 268/1106 65/1105 141/1108
f 340/1107 268/1106 274/1109
f 340/1107 274/1109 312/1110
f 312/1110 274/1109 321/1111
f 368/1085 340/1107 359/1112
f 141/1108 65/1105 557/1113
f 368/1085 359/1112 354/1114
f 368/1085 354/1114 363/1084
f 354/1114 359/1112 369/1115
f 363/1084 354/1114 310/1116
f 354/1114 369/1115 350/1117
f 354/1114 350/1117 310/1116
f 557/1113 65/1105 534/1118
f 534/1118 65/1105 521/1099
f 534/1118 521/1099 537/1119
f 557/1113 534/1118 564/1120
f 564/1120 534/1118 537/1119
f 557/1113 564/1120 642/1121
f 564/1120 537/1119 548/1122
f 23/1123 68/1124 88/1125
f 23/1123 88/1125 52/1126
f 23/1123 52/1126 63/1127
f 23/1123 63/1127 521/1128
f 63/1127 52/1126 90/1129
f 90/1129 52/1126 88/1125
f 521/1128 63/1127 86/1130
f 86/1130 63/1127 90/1129
f 90/1129 88/1125 98/1131
f 90/1129 98/1131 86/1130
f 98/1131 88/1125 91/1132
f 86/1130 98/1131 103/1133
f 86/1130 103/1133 94/1134
f 86/1130 94/1134 491/1135
f 103/1133 98/1131 97/1136
f 103/1133 97/1136 104/1137
f 97/1136 98/1131 91/1132
f 86/1130 491/1135 492/1138
f 86/1130 492/1138 525/1139
f 86/1130 525/1139 521/1128
f 492/1138 491/1135 522/1140
f 522/1140 491/1135 519/1141
f 522/1140 519/1141 528/1142
f 522/1140 528/1142 529/1143
f 522/1140 529/1143 492/1138
f 492/1138 529/1143 525/1139
f 525/1139 529/1143 539/1144
f 525/1139 539/1144 521/1128
f 521/1128 539/1144 537/1145
f 537/1145 539/1144 548/1146
f 14/1147 97/1136 91/1132
f 97/1136 14/1147 526/1148
f 97/1136 526/1148 499/1149
f 14/1147 91/1132 12/1150
f 14/1147 12/1150 526/1148
f 499/1149 526/1148 517/1151
f 528/1152 520/1153 517/1151
f 528/1152 517/1151 526/1148
f 528/1152 526/1148 529/1154
f 529/1154 526/1148 539/1155
f 526/1148 12/1150 531/1156
f 539/1155 526/1148 540/1157
f 540/1157 526/1148 531/1156
f 539/1155 540/1157 548/1158
f 548/1158 540/1157 546/1159
f 540/1157 531/1156 524/1160
f 540/1157 524/1160 546/1159
f 524/1160 531/1156 12/1150
f 546/1159 524/1160 523/1161
f 546/1159 523/1161 536/1162
f 524/1160 12/1150 79/1163
f 79/1163 12/1150 91/1132
f 536/1162 523/1161 43/1164
f 536/1162 43/1164 83/1165
f 523/1161 524/1160 64/1166
f 523/1161 64/1166 43/1164
f 64/1166 524/1160 79/1163
f 43/1164 64/1166 83/1165
f 79/1163 91/1132 89/1167
f 79/1163 89/1167 64/1166
f 64/1166 89/1167 83/1165
f 89/1167 91/1132 88/1125
f 89/1167 88/1125 83/1165
f 548/1168 546/1169 560/1170
f 560/1170 546/1169 536/1171
f 548/1168 560/1170 558/1172
f 560/1170 536/1171 681/1173
f 560/1170 681/1173 558/1172
f 681/1173 536/1171 704/1174
f 704/1174 536/1171 637/1175
f 704/1174 637/1175 699/1176
f 704/1174 699/1176 709/1177
f 548/1168 558/1172 563/1178
f 548/1168 563/1178 564/1179
f 704/1174 709/1177 708/1180
f 708/1180 709/1177 701/1181
f 704/1174 708/1180 705/1182
f 704/1174 705/1182 681/1173
f 705/1182 708/1180 697/1183
f 697/1183 708/1180 700/1184
f 681/1173 705/1182 680/1185
f 681/1173 680/1185 558/1172
f 705/1182 697/1183 686/1186
f 705/1182 686/1186 680/1185
f 558/1172 680/1185 669/1187
f 669/1187 680/1185 686/1186
f 558/1172 669/1187 638/1188
f 558/1172 638/1188 563/1178
f 638/1188 669/1187 686/1186
f 563/1178 638/1188 564/1179
f 564/1179 638/1188 645/1189
f 645/1189 638/1188 686/1186
f 564/1179 645/1189 642/1190
f 642/1190 645/1189 639/1191
f 639/1191 645/1189 712/1192
f 712/1192 645/1189 691/1193
f 691/1193 645/1189 686/1186
f 712/1192 691/1193 717/1194
f 691/1193 686/1186 698/1195
f 691/1193 698/1195 717/1194
f 698/1195 686/1186 697/1183
f 698/1195 697/1183 700/1184
f 698/1195 700/1184 702/1196
f 698/1195 702/1196 717/1194
f 717/1194 702/1196 720/1197
f 261/1198 279/1199 122/1200
f 126/1201 8/1202 122/1200
f 126/1201 122/1200 212/1203
f 212/1203 122/1200 267/1204
f 267/1204 122/1200 279/1199
f 267/1204 279/1199 332/1205
f 267/1204 332/1205 324/1206
f 267/1204 324/1206 319/1207
f 324/1206 332/1205 348/1208
f 324/1206 348/1208 342/1209
f 348/1208 332/1205 336/1210
f 348/1208 336/1210 343/1211
f 343/1211 336/1210 337/1212
f 343/1211 337/1212 344/1213
f 344/1213 337/1212 321/1214
f 344/1213 321/1214 313/1215
f 336/1216 332/1217 359/1218
f 336/1216 359/1218 337/1219
f 337/1219 359/1218 340/1220
f 337/1219 340/1220 312/1221
f 337/1219 312/1221 321/1222
f 170/1223 321/1224 274/1225
f 170/1223 274/1225 161/1226
f 161/1226 274/1225 268/1227
f 161/1226 268/1227 141/1228
f 144/1229 152/1230 161/1226
f 144/1229 161/1226 134/1231
f 134/1231 161/1226 141/1228
f 144/1229 134/1231 136/1232
f 136/1232 134/1231 60/1233
f 134/1231 141/1228 484/1234
f 134/1231 484/1234 60/1233
f 484/1234 141/1228 557/1235
f 60/1233 484/1234 639/1236
f 639/1236 484/1234 557/1235
f 639/1236 557/1235 642/1237
f 180/1238 172/1239 168/1240
f 168/1240 172/1239 169/1241
f 528/1242 519/1243 520/1244
f 520/1244 519/1243 513/1245
f 513/1245 519/1243 488/1246
f 520/1244 513/1245 512/1247
f 520/1244 512/1247 517/1248
f 517/1248 512/1247 490/1249
f 517/1248 490/1249 499/1250
f 499/1250 490/1249 97/1251
f 97/1251 490/1249 110/1252
f 110/1252 490/1249 108/1253
f 110/1252 108/1253 113/1254
f 108/1253 490/1249 478/1255
f 478/1255 490/1249 512/1247
f 108/1253 478/1255 475/1256
f 478/1255 512/1247 506/1257
f 506/1257 512/1247 513/1245
f 475/1256 478/1255 501/1258
f 501/1258 478/1255 506/1257
f 501/1258 506/1257 513/1245
f 501/1258 513/1245 504/1259
f 501/1258 504/1259 500/1260
f 504/1259 513/1245 503/1261
f 503/1261 513/1245 488/1246
f 500/1260 504/1259 487/1262
f 487/1262 504/1259 503/1261
f 500/1260 487/1262 468/1263
f 503/1261 488/1246 482/1264
f 503/1261 482/1264 487/1262
f 487/1262 482/1264 468/1263
f 482/1264 488/1246 92/1265
f 468/1263 482/1264 450/1266
f 450/1266 482/1264 92/1265
f 468/1263 450/1266 61/1267
f 61/1267 450/1266 92/1265
f 468/1263 61/1267 476/1268
f 61/1267 92/1265 101/1269
f 61/1267 101/1269 476/1268
f 476/1268 101/1269 479/1270
f 479/1270 101/1269 111/1271
f 488/1272 519/1273 491/1274
f 488/1272 491/1274 94/1275
f 488/1272 94/1275 107/1276
f 488/1272 107/1276 92/1277
f 107/1276 94/1275 104/1278
f 104/1278 94/1275 103/1279
f 107/1276 104/1278 113/1280
f 113/1280 104/1278 110/1281
f 110/1281 104/1278 97/1282
f 448/1283 189/1284 176/1285
f 448/1283 176/1285 532/1286
f 448/1283 532/1286 636/1287
f 636/1287 532/1286 477/1288
f 636/1287 477/1288 688/1289
f 477/1288 532/1286 109/1290
f 109/1290 532/1286 176/1285
f 109/1290 176/1285 175/1291
f 208/1292 176/1285 189/1284
f 208/1292 189/1284 298/1293
f 175/1291 176/1285 193/1294
f 193/1294 176/1285 208/1292
f 175/1291 193/1294 187/1295
f 175/1291 187/1295 177/1296
f 193/1294 208/1292 201/1297
f 208/1292 298/1293 210/1298
f 208/1292 210/1298 201/1297
f 210/1298 298/1293 296/1299
f 193/1294 201/1297 196/1300
f 193/1294 196/1300 187/1295
f 196/1300 201/1297 210/1298
f 196/1300 210/1298 296/1299
f 187/1295 196/1300 195/1301
f 195/1301 196/1300 296/1299
f 477/1302 109/1303 149/1304
f 477/1302 149/1304 143/1305
f 149/1306 109/1307 175/1308
f 33/1309 138/1310 55/1311
f 494/1312 480/1313 502/1314
f 494/1312 502/1314 497/1315
f 497/1315 502/1314 483/1316
f 69/1317 453/1318 449/1319
f 449/1319 453/1318 465/1320
f 465/1320 453/1318 459/1321
f 459/1321 453/1318 543/1322
f 459/1321 543/1322 593/1323
f 593/1323 543/1322 595/1324
f 459/1321 593/1323 461/1325
f 459/1321 461/1325 456/1326
f 464/1327 470/1328 483/1329
f 483/1329 470/1328 473/1330
f 483/1329 473/1330 485/1331
f 483/1329 485/1331 489/1332
f 489/1332 485/1331 493/1333
f 483/1329 489/1332 497/1334
f 465/1335 459/1336 470/1337
f 470/1337 459/1336 456/1338
f 456/1339 461/1340 454/1341
f 454/1341 461/1340 463/1342
f 454/1341 463/1342 456/1339
f 463/1342 461/1340 582/1343
f 456/1339 463/1342 466/1344
f 456/1339 466/1344 470/1345
f 470/1345 466/1344 473/1346
f 472/1347 463/1348 582/1349
f 463/1348 472/1347 466/1350
f 466/1350 472/1347 473/1351
f 473/1351 472/1347 561/1352
f 561/1352 472/1347 597/1353
f 472/1347 582/1349 589/1354
f 472/1347 589/1354 597/1353
f 589/1354 582/1349 594/1355
f 597/1353 589/1354 596/1356
f 596/1356 589/1354 594/1355
f 151/1357 10/1358 133/1359
f 133/1359 10/1358 19/1360
f 19/1360 10/1358 3/1361
f 133/1359 19/1360 127/1362
f 151/1357 133/1359 158/1363
f 158/1363 133/1359 127/1362
f 158/1363 127/1362 159/1364
f 151/1357 158/1363 138/1365
f 138/1365 158/1363 164/1366
f 22/1367 19/1368 3/1369
f 19/1368 22/1367 32/1370
f 22/1367 3/1369 16/1371
f 323/1372 319/1373 348/1374
f 348/1374 319/1373 342/1375
f 342/1375 319/1373 324/1376
