o tripo_part_1
v 0.00422 0.11284 0.02423
v 0.00434 0.12 -0.15056
v 0.00436 0.11428 0.02559
v 0.00457 0.13904 0.15352
v 0.00463 0.05275 0.02612
v 0.00478 0.14352 -0.10928
v 0.00495 0.07658 0.02481
v 0.00513 0.12208 -0.1526
v 0.00602 0.01883 -0.04047
v 0.00705 0.15492 0.01943
v 0.00743 0.15004 0.02015
v 0.00783 0.12088 0.13884
v 0.00834 0.00545 -0.04771
v 0.0095 0.05765 -0.04855
v 0.00954 0.072 -0.03825
v 0.00963 0.15511 0.11356
v 0.00988 0.10992 -0.03871
v 0.01027 0.04166 -0.05022
v 0.01031 0.02775 0.02521
v 0.01048 0.04721 -0.05058
v 0.01078 0.10392 -0.13144
v 0.01092 0.05206 0.02418
v 0.01101 0.07555 -0.01944
v 0.01156 0.10544 -0.13641
v 0.01169 0.07725 0.0225
v 0.01235 0.14734 -0.02727
v 0.01239 0.11046 -0.02098
v 0.01296 0.0406 -0.05586
v 0.01379 0.00541 -0.06451
v 0.01411 0.15661 0.12621
v 0.01447 0.07792 0.02136
v 0.0148 0.02976 -0.06023
v 0.0154 0.15798 0.15184
v 0.01553 0.13656 0.15059
v 0.01554 0.15503 0.1045
v 0.01564 0.15168 0.0536
v 0.01582 0.15547 0.1114
v 0.01587 0.11307 0.02029
v 0.0165 0.14479 -0.0714
v 0.01679 0.04494 -0.05214
v 0.01775 0.1546 0.11988
v 0.01937 0.02832 0.02941
v 0.01967 0.14317 -0.10228
v 0.01975 0.07548 -0.01225
v 0.01997 0.0262 -0.00633
v 0.02052 0.11669 0.07648
v 0.02057 0.14939 0.01966
v 0.02087 0.05086 -0.00667
v 0.02103 0.1386 0.15172
v 0.02124 0.0248 -0.07705
v 0.02131 0.11067 -0.01356
v 0.02182 0.07538 -0.0072
v 0.02248 0.02634 0.00024
v 0.02255 0.07661 0.01206
v 0.02266 0.00906 -0.08328
v 0.02266 0.00038 -0.0843
v 0.02298 0.09253 0.01119
v 0.02303 0.01689 -0.0832
v 0.02308 0.00454 -0.06725
v 0.02326 0.0509 -0.00075
v 0.02386 0.12251 0.13867
v 0.02402 0.14524 -0.05462
v 0.02413 0.11201 0.01069
v 0.02425 0.11898 -0.13419
v 0.0244 0.15179 0.06025
v 0.02443 0.07611 -0.00084
v 0.02444 0.15408 0.11599
v 0.02448 0.15493 0.06006
v 0.02452 0.14112 -0.11935
v 0.02453 0.14739 -0.06489
v 0.02482 0.07726 0.02915
v 0.02511 0.11908 -0.1497
v 0.02513 0.02583 -0.01749
v 0.02533 0.15031 0.04063
v 0.02586 0.11046 -0.00171
v 0.02599 0.13945 -0.14653
v 0.02607 0.03043 -0.05536
v 0.02628 0.15496 0.11502
v 0.02634 0.12388 -0.14348
v 0.02638 0.14318 -0.08768
v 0.02669 0.04866 -0.01858
v 0.02712 0.1185 -0.14731
v 0.02728 0.14694 -0.02212
v 0.02735 0.1538 0.04371
v 0.02749 0.13764 -0.15089
v 0.02755 0.14792 -0.05565
v 0.02794 0.15195 -0.02216
v 0.02806 0.0306 -0.02306
v 0.02806 0.0755 -0.02083
v 0.02831 0.13557 -0.14339
v 0.02834 0.15326 0.09112
v 0.02949 0.15575 0.08349
v 0.02998 0.05166 0.03271
v 0.02998 0.12052 -0.14961
v 0.03024 0.13822 -0.15041
v 0.03027 0.01879 -0.02837
v 0.0304 0.02319 0.03461
v 0.03068 0.05014 -0.02781
v 0.0309 0.14618 -0.09214
v 0.03121 0.02662 0.00381
v 0.03142 0.00507 -0.0365
v 0.03146 0.10259 -0.13058
v 0.03153 0.07217 0.0326
v 0.03163 0.14826 0.01132
v 0.03168 0.15194 0.07465
v 0.0326 0.13474 0.13789
v 0.03267 0.06739 -0.03104
v 0.03274 0.14135 -0.10901
v 0.03294 0.15485 0.12404
v 0.03332 0.15043 0.05019
v 0.03355 0.15801 0.09602
v 0.03453 0.07582 0.00565
v 0.03494 0.10469 -0.09383
v 0.03504 0.11498 0.06684
v 0.03504 0.15325 0.09707
v 0.03509 0.14647 -0.01169
v 0.03579 0.14581 -0.0291
v 0.03608 0.11889 0.13319
v 0.03642 0.00104 -0.07806
v 0.03679 0.14685 -0.00342
v 0.03727 0.01143 0.03859
v 0.03729 0.05551 0.03519
v 0.03733 0.02995 -0.04956
v 0.03741 0.00526 -0.04347
v 0.03811 0.154 0.1477
v 0.03864 0.13543 0.14752
v 0.03892 0.14175 -0.09484
v 0.039 0.03294 0.00705
v 0.0391 0.02702 -0.04507
v 0.03931 0.13571 0.14465
v 0.03936 0.03703 -0.04464
v 0.03947 0.15585 0.14589
v 0.03965 0.13401 0.13635
v 0.03969 0.15297 0.14279
v 0.04 0.11863 0.134
v 0.04 0.0604 0.03338
v 0.04012 0.02821 0.03852
v 0.04034 0.10739 -0.04536
v 0.04056 0.13479 0.14627
v 0.04094 0.11629 0.09445
v 0.04158 0.14392 -0.05317
v 0.04197 0.00411 -0.05135
v 0.04216 0.02243 0.00848
v 0.04227 0.1383 -0.14589
v 0.04276 0.1554 0.14656
v 0.04305 0.12039 0.13559
v 0.04308 0.15242 0.09647
v 0.04312 0.14921 0.04004
v 0.04318 0.14782 -0.05466
v 0.04327 0.07124 0.0074
v 0.04408 0.15051 0.06469
v 0.04474 0.15594 0.09354
v 0.04497 0.15346 0.06505
v 0.04531 0.14612 -0.07697
v 0.04567 0.14528 -0.08858
v 0.04585 0.02239 -0.06749
v 0.04585 0.14326 -0.06164
v 0.04599 0.15164 0.0371
v 0.04608 0.14187 -0.08749
v 0.04656 0.1366 -0.14664
v 0.04688 0.04279 0.04141
v 0.04711 0.14799 0.02485
v 0.04799 0.02187 -0.06358
v 0.04869 0.1197 -0.14473
v 0.04943 0.10321 -0.12856
v 0.04967 0.06191 0.01034
v 0.04977 0.01241 0.04434
v 0.04979 0.15043 0.02172
v 0.05016 0.03575 0.04339
v 0.05038 0.00747 -0.06939
v 0.05043 0.01493 -0.06924
v 0.05058 0.00918 0.01249
v 0.05071 0.11735 -0.12836
v 0.05082 0 -0.07036
v 0.05086 0.05048 0.0111
v 0.0519 0.15098 0.04208
v 0.05271 0.10136 -0.12552
v 0.05286 0.14421 -0.03526
v 0.05392 0.10858 -0.01438
v 0.05413 0.05196 0.01278
v 0.05428 0.15065 0.02355
v 0.05612 0.15121 0.08263
v 0.05614 0.13248 0.12904
v 0.05616 0.1357 0.14372
v 0.05656 0.15033 0.07092
v 0.0568 0.03584 0.02993
v 0.0577 0.1536 0.07474
v 0.05791 0.14964 -0.00217
v 0.05821 0.13923 -0.11389
v 0.0586 0.14565 -0.00516
v 0.05863 0.15272 0.14238
v 0.05996 0.0158 0.01665
v 0.06071 0.13307 0.13998
v 0.06072 0.03891 0.0156
v 0.06154 0.11465 0.08965
v 0.06177 0.03481 0.04889
v 0.06195 0.12814 -0.14024
v 0.06213 0.03416 0.01756
v 0.06216 0.01083 0.03608
v 0.06275 0.1406 -0.07457
v 0.06314 0.03164 0.0168
v 0.06388 0.11639 0.12332
v 0.06405 0.14372 -0.03824
v 0.06418 0.14147 -0.07199
v 0.06482 0.15378 0.09936
v 0.06511 0.11784 0.12466
v 0.06548 0.15119 0.09445
v 0.06607 0.13163 0.12405
v 0.06632 0.10139 -0.11292
v 0.06649 0.11646 -0.13449
v 0.06712 0.03344 0.04891
v 0.06744 0.12436 0.1231
v 0.06763 0.15175 0.10493
v 0.06877 0.10383 -0.07328
v 0.0688 0.14829 0.04901
v 0.06923 0.13624 -0.13666
v 0.07059 0.15311 0.13414
v 0.07166 0.00887 0.0215
v 0.07213 0.0268 0.05395
v 0.07247 0.15 0.03885
v 0.07278 0.11103 0.04625
v 0.07298 0.01585 0.05532
v 0.07379 0.13316 0.13472
v 0.07381 0.13161 0.13252
v 0.07416 0.10328 -0.11426
v 0.07423 0.01102 0.05579
v 0.07476 0.15145 0.10283
v 0.07481 0.15125 0.13412
v 0.07499 0.14488 -0.00095
v 0.075 0.14993 0.08598
v 0.07536 0.14124 -0.04586
v 0.07629 0.02972 0.03845
v 0.07715 0.03148 0.02297
v 0.07787 0.14857 0.00029
v 0.07793 0.11679 -0.11282
v 0.07838 0.15216 0.08516
v 0.07954 0.14326 -0.02613
v 0.07973 0.13922 -0.09205
v 0.08012 0.02067 0.0386
v 0.08044 0.11779 -0.12994
v 0.08073 0.15031 0.05068
v 0.08137 0.13121 0.12846
v 0.08199 0.1049 -0.04461
v 0.08299 0.1416 -0.05156
v 0.08305 0.141 -0.02647
v 0.08337 0.14988 0.09369
v 0.08338 0.1497 0.08659
v 0.08402 0.02672 0.02798
v 0.0845 0.15225 0.08879
v 0.08486 0.11421 0.11282
v 0.08514 0.14213 -0.04094
v 0.08549 0.11561 0.11375
v 0.08567 0.14903 0.02566
v 0.08583 0.13002 0.11332
v 0.08613 0.01339 0.02812
v 0.08643 0.00783 0.02855
v 0.08648 0.13696 -0.09569
v 0.0865 0.14038 -0.0686
v 0.08754 0.14768 0.0549
v 0.08795 0.14021 -0.03954
v 0.08859 0.13607 -0.1266
v 0.08895 0.13832 -0.09483
v 0.08971 0.13243 -0.09886
v 0.0906 0.1072 0.00182
v 0.09151 0.14938 0.12334
v 0.09227 0.14344 -0.00956
v 0.09229 0.13274 0.12298
v 0.09255 0.10025 -0.10257
v 0.0943 0.14911 0.0344
v 0.09434 0.12929 0.10521
v 0.09446 0.11624 -0.10219
v 0.0946 0.13736 -0.05553
v 0.09557 0.14227 -0.02491
v 0.09572 0.14589 0.03135
v 0.09634 0.13977 -0.03641
v 0.09696 0.14078 -0.0542
v 0.09705 0.14134 -0.04368
v 0.09841 0.11222 0.09557
v 0.09848 0.11819 -0.10703
v 0.09865 0.13096 -0.10746
v 0.10069 0.11687 0.09826
v 0.10078 0.1292 0.11337
v 0.10089 0.14163 -0.0328
v 0.10097 0.12416 -0.10708
v 0.10215 0.14992 0.11272
v 0.10235 0.11794 -0.11454
v 0.10248 0.11549 -0.1116
v 0.1028 0.13598 -0.11263
v 0.10303 0.13466 -0.11561
v 0.10304 0.11547 -0.1107
v 0.10315 0.14811 0.1108
v 0.10338 0.13041 0.11356
v 0.10364 0.14811 0.11357
v 0.10423 0.14383 0.00836
v 0.10468 0.13799 -0.06188
v 0.10509 0.13582 -0.11147
v 0.10543 0.12914 0.11256
v 0.10582 0.13702 -0.06065
v 0.1059 0.13381 -0.11239
v 0.10594 0.13146 -0.0615
v 0.10606 0.10055 -0.08614
v 0.10619 0.11734 -0.11095
v 0.10641 0.14936 0.11109
v 0.10726 0.13926 -0.06535
v 0.10737 0.14692 0.06452
v 0.10941 0.12692 0.08949
v 0.11037 0.14133 -0.01632
v 0.11078 0.11125 0.08769
v 0.11095 0.13643 -0.10361
v 0.11097 0.12939 -0.06289
v 0.11147 0.12915 -0.0658
v 0.11509 0.10544 -0.00423
v 0.11622 0.12733 0.09998
v 0.11639 0.11009 0.0749
v 0.11653 0.14646 0.10207
v 0.11734 0.14814 0.09744
v 0.11744 0.1012 -0.06387
v 0.11781 0.13653 -0.06908
v 0.11816 0.11028 0.07681
v 0.11846 0.13703 -0.06663
v 0.11916 0.12563 0.076
v 0.11939 0.12867 0.099
v 0.11974 0.14098 -0.0215
v 0.12025 0.11189 0.07536
v 0.12043 0.14215 -0.00312
v 0.12051 0.11652 -0.06937
v 0.12059 0.11674 -0.09514
v 0.12071 0.10142 -0.0672
v 0.1209 0.12545 0.07441
v 0.1211 0.1164 -0.06688
v 0.12153 0.13284 -0.09636
v 0.12155 0.14112 -0.01815
v 0.1217 0.10109 -0.06535
v 0.12189 0.11749 -0.06881
v 0.12292 0.12595 -0.07161
v 0.12299 0.12922 -0.06914
v 0.12482 0.14414 0.03147
v 0.12696 0.10122 -0.05411
v 0.12755 0.11703 -0.05581
v 0.12761 0.10794 0.05005
v 0.12957 0.1257 0.08246
v 0.13004 0.12783 0.08437
v 0.13017 0.14632 0.08215
v 0.1305 0.14517 0.08437
v 0.13064 0.12351 0.05211
v 0.131 0.13666 -0.0789
v 0.13128 0.13934 -0.02423
v 0.13155 0.11552 -0.07555
v 0.13194 0.1273 0.08219
v 0.13216 0.11805 -0.07854
v 0.13274 0.10203 -0.03801
v 0.13291 0.11588 -0.07153
v 0.13335 0.14621 0.08002
v 0.13374 0.11767 -0.03811
v 0.13378 0.1336 -0.07812
v 0.13387 0.11716 -0.07351
v 0.13473 0.13701 -0.07195
v 0.13512 0.13455 -0.07452
v 0.13648 0.10561 0.02353
v 0.13718 0.10851 0.03441
v 0.13752 0.13975 -0.02502
v 0.13769 0.12403 0.06583
v 0.13781 0.10479 -0.02128
v 0.13784 0.10364 -0.01194
v 0.13808 0.12177 0.0302
v 0.13834 0.14303 0.02892
v 0.13836 0.118 -0.06494
v 0.13836 0.10383 -0.00817
v 0.13847 0.1184 -0.02408
v 0.13889 0.10628 0.00727
v 0.13966 0.12025 0.00497
v 0.14021 0.12601 0.06612
v 0.14126 0.14494 0.06458
v 0.14307 0.13652 -0.05762
v 0.14455 0.11682 -0.04256
v 0.14527 0.14066 0.00186
v 0.14591 0.11904 -0.04577
v 0.14776 0.12304 0.0392
v 0.1479 0.14045 0.03658
v 0.148 0.11757 -0.02808
v 0.14852 0.11982 -0.03008
v 0.14889 0.14284 0.03854
v 0.1496 0.13856 -0.03319
v 0.14962 0.11747 -0.03169
v 0.14988 0.1366 -0.03096
v 0.15002 0.12374 0.03712
v 0.15049 0.13843 -0.02979
v 0.15072 0.11902 -0.0285
v 0.15095 0.11946 0.00505
v 0.15105 0.14237 0.03599
v 0.15136 0.1368 -0.0331
v 0.1518 0.12301 0.00623
v 0.15194 0.13693 -0.02908
v 0.15199 0.12091 0.02534
v 0.15276 0.12018 0.00836
v 0.15351 0.12118 0.00467
v 0.15391 0.13822 -0.01481
v 0.15405 0.14104 0.0175
v 0.15417 0.13982 0.0053
v 0.15443 0.13818 0.00361
v 0.00371 0.02782 0.02733
v 0.00369 0.15624 0.11194
v 0.00297 0.07576 -0.03189
v 0.00251 0.07846 0.02568
v 0.00225 0.15894 0.15137
v 0.00215 0.12012 -0.13853
v 0.00188 0.10645 -0.13809
v 0.00098 0.02605 -0.02995
v 0.00083 0.11134 -0.02296
v 0.0008 0.10442 -0.13588
v 0.00027 0.14123 -0.15352
v -0.0011 0.02893 0.03707
v -0.00147 0.03847 0.03869
v -0.0018 0.07619 -0.02152
v -0.00277 0.07823 0.03596
v -0.00287 0.12091 0.12569
v -0.00313 0.05431 0.04201
v -0.00322 0.12419 0.14223
v -0.00356 0.14571 -0.07923
v -0.0041 0.05487 -0.01998
v -0.00435 0.07464 0.04388
v -0.00446 0.02667 -0.01916
v -0.00485 0.14884 -0.02038
v -0.00588 0.1179 0.06844
v -0.00618 0.02477 0.04795
v -0.00676 0.15076 0.01154
v -0.00693 0.11474 0.02245
v -0.00731 0.13716 0.14226
v -0.0078 0.06523 0.05132
v -0.00789 0.15465 0.07923
v -0.00861 0.07769 0.02371
v -0.00895 0.14521 -0.09354
v -0.00928 0.07502 -0.01853
v -0.00955 0.05493 0.05537
v -0.0098 0.05031 -0.01807
v -0.00996 0.10907 -0.13608
v -0.01034 0.02686 -0.0171
v -0.01062 0.1577 0.15305
v -0.01064 0.01581 0.05413
v -0.01074 0.1123 -0.01878
v -0.01087 0.0144 0.05835
v -0.01108 0.10722 -0.10203
v -0.01164 0.0136 0.0584
v -0.01175 0.14996 -0.00481
v -0.01175 0.14447 0.1534
v -0.01242 0.12299 0.14133
v -0.01273 0.07693 -0.01723
v -0.01313 0.05528 0.056
v -0.01324 0.04062 0.06289
v -0.0133 0.12145 -0.13571
v -0.01377 0.14673 -0.0685
v -0.01434 0.12051 0.10377
v -0.01435 0.15618 0.09665
v -0.01452 0.14173 -0.15279
v -0.01459 0.03054 0.06604
v -0.01477 0.10591 -0.127
v -0.01545 0.12118 -0.14801
v -0.01612 0.15565 0.11069
v -0.0163 0.11469 0.01501
v -0.01646 0.10986 -0.06979
v -0.01667 0.11015 -0.13478
v -0.01709 0.15857 0.12736
v -0.01734 0.03615 0.07194
v -0.01773 0.15504 0.07161
v -0.01776 0.03839 0.06543
v -0.01855 0.07799 0.01585
v -0.01883 0.15757 0.11637
v -0.01887 0.11346 -0.00887
v -0.01942 0.15221 0.12241
v -0.01957 0.07659 0.01249
v -0.0197 0.1525 0.03
v -0.02014 0.01483 0.07815
v -0.02041 0.0769 -0.02379
v -0.0205 0.05304 0.01376
v -0.02056 0.0773 -0.00774
v -0.02088 0.11442 0.0034
v -0.02091 0.0139 0.0779
v -0.02101 0.16138 0.06501
v -0.02109 0.12446 -0.15103
v -0.02119 0.12464 0.13914
v -0.02142 0.02756 -0.02202
v -0.02155 0.14607 -0.09579
v -0.02155 0.02831 0.01536
v -0.02169 0.02768 -0.0064
v -0.02202 0.15808 0.10503
v -0.02221 0.07814 0.00557
v -0.02232 0.15535 0.13918
v -0.02276 0.15866 0.11723
v -0.02301 0.15315 0.04335
v -0.02316 0.1231 0.13699
v -0.02342 0.11788 0.05302
v -0.02343 0.13867 0.1382
v -0.02348 0.05266 0.00663
v -0.02367 0.0364 0.07936
v -0.02425 0.16216 0.11765
v -0.02428 0.02816 0.0079
v -0.02441 0.15485 0.06548
v -0.02441 0.15957 0.15082
v -0.02461 0.07859 0.02285
v -0.02461 0.16138 0.07151
v -0.02462 0.12583 0.13838
v -0.02487 0.14763 0.14088
v -0.02497 0.14817 -0.07008
v -0.02506 0.14468 -0.11447
v -0.02506 0.1211 -0.13374
v -0.02547 0.02921 0.08894
v -0.02556 0.11594 0.0213
v -0.0261 0.13935 0.15074
v -0.02633 0.02056 0.08995
v -0.0265 0.1555 0.07052
v -0.02657 0.02905 0.02503
v -0.02684 0.07539 -0.02478
v -0.02713 0.01356 0.09151
v -0.02752 0.1602 0.14696
v -0.02785 0.03906 0.06084
v -0.02805 0.10784 -0.13171
v -0.02825 0.03442 0.0845
v -0.02826 0.07616 0.03001
v -0.02844 0.15702 0.15004
v -0.02876 0.14012 0.15059
v -0.02877 0.07107 0.03691
v -0.02916 0.04016 -0.02669
v -0.03047 0.15736 0.0967
v -0.03094 0.16104 0.07099
v -0.03098 0.14404 -0.13422
v -0.03106 0.16112 0.09736
v -0.03109 0.14726 -0.0865
v -0.03149 0.1545 0.05181
v -0.03169 0.05265 -0.02832
v -0.03188 0.0551 0.03664
v -0.03197 0.02195 -0.02678
v -0.03205 0.02442 0.03586
v -0.03279 0.02917 0.00364
v -0.03295 0.15577 0.06686
v -0.03309 0.1563 0.07724
v -0.03352 0.14925 -0.04928
v -0.0337 0.05529 0.04595
v -0.03402 0.16213 0.08403
v -0.03402 0.15237 0.01223
v -0.03417 0.16803 0.08136
v -0.03474 0.10819 -0.11343
v -0.03501 0.05652 0.04287
v -0.03503 0.06664 -0.02832
v -0.03509 0.05349 0.04282
v -0.03589 0.07797 -0.00101
v -0.03605 0.01376 0.04377
v -0.03695 0.16444 0.14388
v -0.03747 0.16114 0.14613
v -0.03753 0.15722 0.08589
v -0.03873 0.12368 0.13177
v -0.03909 0.12344 -0.13348
v -0.03924 0.15018 -0.03549
v -0.03945 0.0433 0.05146
v -0.03959 0.01405 -0.03011
v -0.03961 0.03854 0.05161
v -0.03965 0.03864 0.05456
v -0.03994 0.16665 0.08665
v -0.04 0.1637 0.07938
v -0.0404 0.14374 -0.14795
v -0.04047 0.11118 -0.13181
v -0.04064 0.01949 0.05323
v -0.04066 0.01353 0.08565
v -0.04077 0.15723 0.08198
v -0.04084 0.14325 -0.14531
v -0.04123 0.05251 -0.0332
v -0.04123 0.12577 -0.14716
v -0.04129 0.0257 0.08247
v -0.04147 0.12171 -0.1317
v -0.04166 0.02436 -0.00396
v -0.04214 0.03612 0.05672
v -0.04234 0.04857 -0.03335
v -0.04238 0.16465 0.07732
v -0.04276 0.12323 -0.14446
v -0.04338 0.10791 -0.12918
v -0.04359 0.14433 -0.14717
v -0.04384 0.0143 0.05883
v -0.04401 0.15739 0.07636
v -0.04417 0.12167 0.094089999999999993
v -0.04431 0.05132 -0.03041
v -0.04444 0.01072 -0.0326
v -0.04465 0.05362 -0.00331
v -0.04487 0.12675 -0.14668
v -0.04501 0.06695 -0.00654
v -0.04504 0.02495 -0.00188
v -0.04571 0.15886 0.09573
v -0.0462 0.01404 0.071
v -0.04662 0.15743 0.07989
v -0.04673 0.16778 0.08085
v -0.04713 0.16705 0.07339
v -0.04736 0.13951 0.13235
v -0.04747 0.161 0.14503
v -0.04748 0.03668 0.06984
v -0.04766 0.15144 -0.0245
v -0.04791 0.15229 -0.00526
v -0.04807 0.01826 0.06829
v -0.04891 0.15305 0.01242
v -0.04897 0.15553 0.01532
v -0.049 0.03454 0.07527
v -0.04905 0.11016 -0.12909
v -0.04915 0.1576 0.07637
v -0.04963 0.15644 0.0614
v -0.05002 0.16393 0.0787
v -0.05017 0.03779 -0.03438
v -0.05019 0.03381 0.07262
v -0.05026 0.16499 0.13963
v -0.05038 0.11317 -0.04965
v -0.0505 0.12416 -0.12891
v -0.05058 0.03543 -0.0366
v -0.05066 0.05578 -0.00598
v -0.05077 0.14337 0.14526
v -0.05117 0.14524 -0.14389
v -0.05125 0.01186 -0.01901
v -0.05134 0.11079 -0.09042
v -0.052 0.02711 0.07733
v -0.0521 0.16187 0.14015
v -0.05239 0.15692 0.06548
v -0.0529 0.14792 -0.10275
v -0.05304 0.04801 -0.01715
v -0.05314 0.15578 0.05005
v -0.05327 0.05394 -0.00768
v -0.05342 0.01363 0.07921
v -0.05548 0.01214 -0.00588
v -0.05567 0.1613 0.06128
v -0.0565 0.11643 -0.12511
v -0.05675 0.16294 0.11103
v -0.05728 0.12576 0.12967
v -0.05751 0.0376 -0.02266
v -0.05819 0.10959 -0.11542
v -0.05824 0.15936 0.09457
v -0.05863 0.15707 0.05933
v -0.05907 0.16078 0.11263
v -0.05924 0.15059 -0.05262
v -0.06042 0.12714 -0.14099
v -0.06055 0.1635 0.11515
v -0.0612 0.1552 0.02489
v -0.06149 0.12494 -0.13847
v -0.06251 0.14005 0.12639
v -0.06268 0.15586 0.03695
v -0.06273 0.14377 -0.14095
v -0.06293 0.03764 -0.0105
v -0.06323 0.03498 -0.04227
v -0.06382 0.16079 0.1101
v -0.06475 0.16403 0.12106
v -0.06513 0.11723 -0.1199
v -0.06522 0.16197 0.12225
v -0.06644 0.15234 -0.02744
v -0.06712 0.1226 0.08368
v -0.06764 0.15458 -0.00444
v -0.06776 0.15382 -0.00043
v -0.06853 0.1414 0.13496
v -0.06892 0.11539 -0.03324
v -0.07103 0.03513 -0.04051
v -0.07156 0.01109 -0.04639
v -0.0721 0.14719 -0.13432
v -0.0722 0.16154 0.13443
v -0.07234 0.15374 -0.0108
v -0.07236 0.12616 -0.1164
v -0.07259 0.14456 0.1356
v -0.07274 0.02693 -0.04644
v -0.07322 0.01275 -0.01379
v -0.07348 0.15352 -0.018519999999999998
v -0.07386 0.16393 0.10712
v -0.07451 0.12489 0.11684
v -0.07462 0.01047 -0.04728
v -0.07563 0.15157 -0.06273
v -0.07661 0.15602 0.02497
v -0.07663 0.1603 0.09089
v -0.07748 0.15215 -0.0468
v -0.07834 0.15236 -0.03839
v -0.07853 0.151 -0.06859
v -0.08008 0.14936 -0.10689
v -0.08009 0.0365 -0.0205
v -0.0813 0.16189 0.10629
v -0.08141 0.16477 0.11013
v -0.08188 0.11188 -0.10146
v -0.08206 0.16248 0.11431
v -0.08218 0.11475 -0.11078
v -0.08256 0.15068 -0.08705
v -0.08278 0.0321 -0.02612
v -0.08353 0.14659 -0.12987
v -0.08403 0.13031 -0.12886
v -0.08463 0.03298 -0.01996
v -0.08547 0.01177 -0.02633
v -0.08557 0.11772 -0.01415
v -0.08726 0.01318 -0.01959
v -0.08768 0.12252 0.06067
v -0.08906 0.16334 0.12428
v -0.08959 0.14387 0.12569
v -0.09013 0.12654 0.10884
v -0.09047 0.14016 0.10902
v -0.0905 0.12559 0.1066
v -0.09056 0.1212 0.03722
v -0.09186 0.1281 -0.10574
v -0.09254 0.11388 -0.10505
v -0.09333 0.11288 -0.1011
v -0.09369 0.15699 0.01278
v -0.09373 0.1493 -0.12164
v -0.09405 0.16152 0.11027
v -0.09573 0.14294 0.11205
v -0.09792 0.16229 0.11565
v -0.09795 0.15176 -0.08163
v -0.09801 0.1634 0.11768
v -0.09808 0.14741 -0.08305
v -0.09869 0.16063 0.07009
v -0.09885 0.15918 0.04768
v -0.09892 0.14241 0.11764
v -0.0993 0.14217 0.11508
v -0.09949 0.15553 -0.01931
v -0.0997 0.15146 -0.0866
v -0.10038 0.11636 -0.05275
v -0.10063 0.16335 0.11509
v -0.1011 0.14078 0.09777
v -0.10192 0.12848 -0.11395
v -0.10278 0.14878 -0.11564
v -0.1032 0.12577 0.09589
v -0.10365 0.15871 0.03538
v -0.10386 0.11984 -0.0008
v -0.10428 0.14449 0.1138
v -0.106 0.13021 -0.08884
v -0.10721 0.15375 -0.06075
v -0.10784 0.13432 -0.11045
v -0.10852 0.11823 -0.03167
v -0.10992 0.1164 -0.08459
v -0.11362 0.15376 -0.06046
v -0.11365 0.14224 0.10174
v -0.11379 0.147 -0.09637
v -0.11423 0.15155 -0.10036
v -0.11504 0.13106 -0.07859
v -0.11585 0.13036 -0.09857
v -0.11594 0.13189 -0.0965
v -0.11623 0.15021 -0.10002
v -0.11674 0.14119 0.08276
v -0.11687 0.12576 0.07912
v -0.11707 0.16347 0.09821
v -0.11713 0.13088 -0.09504
v -0.11773 0.12688 0.07731
v -0.11795 0.15213 -0.09789
v -0.11813 0.13882 0.07638
v -0.11833 0.15838 0.00736
v -0.1186 0.13362 -0.09671
v -0.11929 0.12576 0.07608
v -0.12151 0.11738 -0.06701
v -0.1224 0.11953 -0.06898
v -0.1231 0.1445 0.09323
v -0.12333 0.13264 -0.0673
v -0.12339 0.14042 0.06882
v -0.12359 0.15641 -0.03195
v -0.12391 0.12736 0.06915
v -0.12411 0.11736 -0.06593
v -0.12423 0.16101 0.04649
v -0.12464 0.15887 0.04428
v -0.12894 0.13368 -0.05375
v -0.1292 0.12918 -0.05377
v -0.13032 0.14193 0.07953
v -0.13099 0.16322 0.07902
v -0.13165 0.12002 -0.0474
v -0.13181 0.14043 0.04718
v -0.13198 0.1192 -0.0428
v -0.13303 0.13358 -0.07282
v -0.13348 0.12474 0.04398
v -0.13349 0.13332 -0.06985
v -0.13357 0.15427 -0.07692
v -0.13399 0.1535 -0.07416
v -0.13444 0.13724 -0.07427
v -0.1347 0.13534 -0.03668
v -0.13555 0.12009 -0.03196
v -0.13735 0.14384 0.07152
v -0.13876 0.13934 0.02779
v -0.13886 0.12332 0.01995
v -0.13891 0.12512 0.02893
v -0.13898 0.16282 0.05937
v -0.13909 0.13212 -0.02326
v -0.13963 0.12156 -0.00979
v -0.13978 0.13803 0.00902
v -0.13982 0.13661 -0.01806
v -0.13985 0.14357 0.05045
v -0.14017 0.12432 0.01027
v -0.14022 0.15716 0.0502
v -0.14034 0.12254 -0.01968
v -0.14056 0.15565 -0.06005
v -0.14202 0.13793 -0.05749
v -0.14272 0.16184 0.05209
v -0.14394 0.16132 0.05486
v -0.14416 0.14142 0.0515
v -0.14458 0.16169 0.05084
v -0.14507 0.14178 0.05404
v -0.14526 0.1571 -0.04195
v -0.14588 0.13609 -0.04071
v -0.14648 0.15711 -0.0442
v -0.14698 0.14231 0.04962
v -0.14722 0.16233 0.03854
v -0.14724 0.13821 -0.04161
v -0.14803 0.15592 -0.04105
v -0.14861 0.15825 -0.03217
v -0.14889 0.14019 0.02908
v -0.14907 0.13868 -0.03852
v -0.14964 0.16041 0.03726
v -0.15116 0.13758 -0.01913
v -0.15192 0.13882 0.00274
v -0.15263 0.15804 -0.01687
v -0.15281 0.16006 0.00781
v -0.15292 0.14244 0.02373
v -0.15333 0.14136 -0.01663
v -0.15443 0.14127 0.00495
vt 0.254657 0.534761
vt 0.252416 0.550686
vt 0.242507 0.538771
vt 0.244984 0.531694
vt 0.238142 0.52379
vt 0.235547 0.534879
vt 0.246164 0.546085
vt 0.227408 0.536176
vt 0.231654 0.518364
vt 0.250174 0.515651
vt 0.223633 0.54408
vt 0.213724 0.545967
vt 0.199568 0.562718
vt 0.261145 0.536648
vt 0.281906 0.552809
vt 0.262089 0.542074
vt 0.270818 0.555404
vt 0.27129 0.558117
vt 0.259847 0.562482
vt 0.259493 0.564723
vt 0.261263 0.567082
vt 0.241917 0.563544
vt 0.250174 0.576637
vt 0.242625 0.577935
vt 0.226582 0.563897
vt 0.240619 0.569796
vt 0.233778 0.566847
vt 0.241445 0.575458
vt 0.234957 0.571565
vt 0.2313 0.57475
vt 0.18152 0.606128
vt 0.169842 0.577935
vt 0.207944 0.59905
vt 0.168308 0.585367
vt 0.163708 0.573216
vt 0.167247 0.60778
vt 0.155804 0.611436
vt 0.176212 0.610375
vt 0.184351 0.617452
vt 0.20181 0.611554
vt 0.198389 0.631726
vt 0.209595 0.626653
vt 0.20582 0.610611
vt 0.21278 0.616509
vt 0.212662 0.607897
vt 0.215375 0.606246
vt 0.226818 0.605656
vt 0.226228 0.61875
vt 0.235783 0.6263
vt 0.232716 0.640809
vt 0.228469 0.617924
vt 0.234603 0.593742
vt 0.232952 0.601528
vt 0.254421 0.631844
vt 0.238024 0.622997
vt 0.251472 0.628305
vt 0.245338 0.607897
vt 0.243451 0.621699
vt 0.240973 0.599168
vt 0.248523 0.60601
vt 0.242979 0.597045
vt 0.277424 0.605656
vt 0.267397 0.58112
vt 0.253949 0.620048
vt 0.263858 0.615683
vt 0.281906 0.629367
vt 0.257724 0.620166
vt 0.254539 0.627715
vt 0.265156 0.621109
vt 0.262442 0.629013
vt 0.25796 0.628777
vt 0.306737 0.067998
vt 0.301075 0.070358
vt 0.301311 0.064578
vt 0.288571 0.072599
vt 0.307563 0.066583
vt 0.321482 0.071419
vt 0.28633 0.097253
vt 0.323016 0.06906
vt 0.326437 0.078733
vt 0.302962 0.051012
vt 0.279724 0.089821
vt 0.292936 0.058679
vt 0.280903 0.082154
vt 0.273826 0.094422
vt 0.269461 0.09973
vt 0.274769 0.109167
vt 0.266158 0.099258
vt 0.266866 0.084041
vt 0.24811 0.083569
vt 0.227938 0.09973
vt 0.231477 0.065403
vt 0.246694 0.051838
vt 0.288571 0.062572
vt 0.213429 0.067291
vt 0.213075 0.109285
vt 0.176978 0.099848
vt 0.193375 0.054669
vt 0.186415 0.045821
vt 0.194437 0.045939
vt 0.201986 0.04358
vt 0.208946 0.038626
vt 0.246694 0.038036
vt 0.210952 0.030958
vt 0.209654 0.021167
vt 0.249525 0.002647
vt 0.26545 0.044878
vt 0.270287 0.028953
vt 0.289515 0.008309
vt 0.291402 0.040631
vt 0.29034 0.059977
vt 0.293761 0.024116
vt 0.293289 0.040749
vt 0.295177 0.024234
vt 0.294115 0.008545
vt 0.298598 0.040159
vt 0.304024 0.002647
vt 0.306619 0.017746
vt 0.306147 0.02683
vt 0.303552 0.042872
vt 0.313933 0.019398
vt 0.312871 0.036267
vt 0.311102 0.042519
vt 0.315348 0.015859
vt 0.313697 0.004417
vt 0.315584 0.002647
vt 0.328914 0.00654
vt 0.311692 0.052545
vt 0.313461 0.042636
vt 0.313225 0.05632
vt 0.325257 0.055376
vt 0.32974 0.046883
vt 0.327263 0.04417
vt 0.327381 0.031076
vt 0.330212 0.019634
vt 0.315938 0.028363
vt 0.315702 0.0181
vt 0.328324 0.019634
vt 0.328678 0.017746
vt 0.345075 0.013382
vt 0.329032 0.015623
vt 0.332099 0.004535
vt 0.348968 0.006894
vt 0.268298 0.831337
vt 0.268062 0.82768
vt 0.283987 0.830983
vt 0.274432 0.816002
vt 0.28552 0.832517
vt 0.286346 0.817653
vt 0.287998 0.815766
vt 0.273488 0.813171
vt 0.278914 0.803852
vt 0.290711 0.806683
vt 0.292008 0.807273
vt 0.289413 0.817889
vt 0.288587 0.833225
vt 0.302507 0.816828
vt 0.312062 0.80916
vt 0.302625 0.819305
vt 0.323622 0.820956
vt 0.329284 0.811284
vt 0.302271 0.834522
vt 0.311708 0.871798
vt 0.321617 0.836645
vt 0.323504 0.836174
vt 0.327633 0.845964
vt 0.321263 0.854104
vt 0.332823 0.871798
vt 0.606233 0.354548
vt 0.619563 0.351127
vt 0.623927 0.361743
vt 0.633718 0.35785
vt 0.63478 0.362333
vt 0.614018 0.363984
vt 0.62723 0.403148
vt 0.611305 0.363631
vt 0.605643 0.356317
vt 0.614608 0.366226
vt 0.587477 0.363631
vt 0.59656 0.375309
vt 0.583584 0.379791
vt 0.573439 0.373539
vt 0.580045 0.386751
vt 0.570726 0.392885
vt 0.560228 0.385336
vt 0.548313 0.402912
vt 0.564356 0.402086
vt 0.595026 0.421668
vt 0.635841 0.445379
vt 0.57804 0.412467
vt 0.561997 0.40421
vt 0.555273 0.40881
vt 0.541354 0.411405
vt 0.551852 0.419663
vt 0.538522 0.426976
vt 0.54796 0.432285
vt 0.577922 0.451867
vt 0.607413 0.449389
vt 0.629943 0.45399
vt 0.603756 0.474397
vt 0.573793 0.473926
vt 0.543949 0.462247
vt 0.548903 0.443609
vt 0.5456 0.441722
vt 0.536517 0.437475
vt 0.545364 0.443727
vt 0.535691 0.439245
vt 0.527906 0.468971
vt 0.53522 0.474397
vt 0.618901 0.549634
vt 0.617957 0.533945
vt 0.621024 0.547039
vt 0.63459 0.556122
vt 0.646386 0.577473
vt 0.64556 0.553645
vt 0.664788 0.556594
vt 0.677056 0.570513
vt 0.682364 0.54987
vt 0.696874 0.577473
vt 0.695694 0.549162
vt 0.680359 0.549044
vt 0.690268 0.541141
vt 0.680241 0.538664
vt 0.653228 0.544444
vt 0.63919 0.541141
vt 0.654407 0.537248
vt 0.625153 0.527811
vt 0.686965 0.531468
vt 0.697935 0.539843
vt 0.690976 0.531468
vt 0.689442 0.519318
vt 0.614536 0.516958
vt 0.608756 0.512476
vt 0.685667 0.515897
vt 0.614772 0.497495
vt 0.615951 0.48617
vt 0.624209 0.514835
vt 0.622557 0.511532
vt 0.618547 0.490653
vt 0.621024 0.478975
vt 0.621968 0.468004
vt 0.636123 0.472251
vt 0.627512 0.481334
vt 0.638718 0.475672
vt 0.621614 0.491007
vt 0.625035 0.490417
vt 0.639898 0.504926
vt 0.629045 0.510353
vt 0.630815 0.507639
vt 0.637775 0.510706
vt 0.654289 0.490063
vt 0.655469 0.48039
vt 0.656531 0.49195
vt 0.667029 0.483929
vt 0.642375 0.50705
vt 0.640606 0.527811
vt 0.655941 0.514127
vt 0.656059 0.532294
vt 0.668445 0.514127
vt 0.670096 0.529698
vt 0.679769 0.529698
vt 0.680241 0.516015
vt 0.657474 0.501387
vt 0.684252 0.530406
vt 0.681657 0.51743
vt 0.683898 0.498084
vt 0.672102 0.50646
vt 0.67564 0.501741
vt 0.672573 0.503039
vt 0.658772 0.499854
vt 0.669271 0.498556
vt 0.658654 0.494428
vt 0.662783 0.492186
vt 0.674461 0.473902
vt 0.683426 0.46824
vt 0.687201 0.468712
vt 0.175566 0.226372
vt 0.194204 0.22708
vt 0.205764 0.239938
vt 0.208714 0.201364
vt 0.205882 0.199594
vt 0.192671 0.190158
vt 0.198333 0.178833
vt 0.207888 0.199594
vt 0.213668 0.192399
vt 0.211899 0.187208
vt 0.209539 0.173525
vt 0.214376 0.203369
vt 0.220038 0.194876
vt 0.222161 0.185203
vt 0.234075 0.204903
vt 0.229593 0.217761
vt 0.216853 0.172935
vt 0.2014 0.160549
vt 0.226408 0.152056
vt 0.221453 0.137546
vt 0.254955 0.126104
vt 0.229475 0.181782
vt 0.25873 0.145568
vt 0.291759 0.129879
vt 0.298955 0.131176
vt 0.236317 0.164088
vt 0.274419 0.15819
vt 0.302258 0.147337
vt 0.246462 0.174822
vt 0.247877 0.181192
vt 0.239384 0.191691
vt 0.249882 0.18131
vt 0.28244 0.168099
vt 0.317593 0.156656
vt 0.262386 0.174233
vt 0.242215 0.195348
vt 0.262504 0.176946
vt 0.251298 0.184377
vt 0.253185 0.187444
vt 0.242333 0.201482
vt 0.25118 0.215284
vt 0.244338 0.202072
vt 0.260499 0.192871
vt 0.259673 0.196174
vt 0.256606 0.214576
vt 0.278193 0.211273
vt 0.267931 0.224838
vt 0.267105 0.228377
vt 0.244928 0.221064
vt 0.237968 0.228141
vt 0.246933 0.241589
vt 0.241153 0.236399
vt 0.255663 0.232388
vt 0.270762 0.248313
vt 0.232188 0.268131
vt 0.184767 0.290426
vt 0.254837 0.255627
vt 0.263802 0.260227
vt 0.267577 0.268603
vt 0.234075 0.286769
vt 0.238912 0.307648
vt 0.193732 0.307176
vt 0.200692 0.317203
vt 0.201754 0.327348
vt 0.231716 0.323809
vt 0.257904 0.284056
vt 0.274537 0.274147
vt 0.271116 0.29656
vt 0.273829 0.336549
vt 0.294236 0.288302
vt 0.292113 0.286533
vt 0.278783 0.274973
vt 0.302494 0.28146
vt 0.308746 0.296678
vt 0.318655 0.308238
vt 0.297657 0.288184
vt 0.319362 0.291723
vt 0.311695 0.286297
vt 0.327384 0.283938
vt 0.331159 0.282994
vt 0.331159 0.284527
vt 0.345786 0.276978
vt 0.329861 0.281342
vt 0.358998 0.2653
vt 0.348499 0.278747
vt 0.356285 0.259401
vt 0.363952 0.236281
vt 0.344606 0.271552
vt 0.354279 0.254683
vt 0.340714 0.26931
vt 0.363598 0.230973
vt 0.369496 0.219176
vt 0.372563 0.201482
vt 0.356167 0.218704
vt 0.36348 0.194168
vt 0.35133 0.196645
vt 0.342601 0.240527
vt 0.350976 0.211981
vt 0.344724 0.192517
vt 0.338236 0.242769
vt 0.327148 0.262586
vt 0.332692 0.206318
vt 0.339298 0.184613
vt 0.32585 0.261053
vt 0.312756 0.272849
vt 0.3091 0.275444
vt 0.30733 0.273793
vt 0.304853 0.261643
vt 0.320306 0.250554
vt 0.293175 0.270136
vt 0.289754 0.272141
vt 0.272649 0.254329
vt 0.283856 0.25834
vt 0.293293 0.251852
vt 0.278783 0.240999
vt 0.279845 0.236871
vt 0.293175 0.248077
vt 0.295062 0.25079
vt 0.308392 0.240645
vt 0.304499 0.23805
vt 0.291287 0.225074
vt 0.320188 0.224838
vt 0.307684 0.238286
vt 0.302258 0.230973
vt 0.296949 0.192399
vt 0.309453 0.180249
vt 0.332102 0.175176
vt 0.335405 0.177182
vt 0.335759 0.15701
vt 0.309453 0.165149
vt 0.327384 0.15583
vt 0.326912 0.153707
vt 0.332338 0.148517
vt 0.351094 0.138254
vt 0.336231 0.126104
vt 0.348735 0.156656
vt 0.358054 0.152999
vt 0.275697 0.940239
vt 0.261305 0.947553
vt 0.262603 0.945076
vt 0.224973 0.944722
vt 0.229927 0.929623
vt 0.246442 0.925258
vt 0.266968 0.932926
vt 0.273692 0.926674
vt 0.26107 0.918062
vt 0.271686 0.913344
vt 0.253402 0.925022
vt 0.267675 0.913108
vt 0.267557 0.910159
vt 0.265788 0.91181
vt 0.265316 0.909805
vt 0.266496 0.903907
vt 0.275697 0.896121
vt 0.247976 0.902845
vt 0.2593 0.91818
vt 0.260598 0.924904
vt 0.25871 0.921719
vt 0.257767 0.923724
vt 0.864347 0.984586
vt 0.85432 0.989777
vt 0.858331 0.959342
vt 0.851961 0.979868
vt 0.850545 0.985058
vt 0.845591 0.984704
vt 0.844765 0.969487
vt 0.849012 0.95887
vt 0.862578 0.951793
vt 0.832025 0.951793
vt 0.840283 0.956747
vt 0.843468 0.959224
vt 0.841816 0.961348
vt 0.839575 0.964887
vt 0.82943 0.972672
vt 0.839103 0.968425
vt 0.005138 0.020063
vt 0.025781 0.002014
vt 0.022006 0.043891
vt 0.029792 0.012985
vt 0.008912 0.029735
vt 0.013041 0.045778
vt 0.038049 0.013457
vt 0.038993 0.054154
vt 0.023894 0.056985
vt 0.045009 0.031269
vt 0.063883 0.035516
vt 0.037577 0.084588
vt 0.07792 0.042004
vt 0.067422 0.041886
vt 0.062231 0.037403
vt 0.049137 0.035044
vt 0.048194 0.043773
vt 0.04843 0.067483
vt 0.063529 0.056749
vt 0.053266 0.068073
vt 0.06577 0.068663
vt 0.091958 0.073617
vt 0.063175 0.067837
vt 0.059754 0.075623
vt 0.051615 0.085886
vt 0.074735 0.090722
vt 0.107647 0.094379
vt 0.042296 0.095323
vt 0.097384 0.105703
vt 0.107765 0.096738
vt 0.081223 0.109124
vt 0.057749 0.112545
vt 0.093727 0.128116
vt 0.110242 0.114315
vt 0.076269 0.1175
vt 0.061995 0.114079
vt 0.050081 0.115376
vt 0.051025 0.126583
vt 0.067186 0.126465
vt 0.08488 0.131655
vt 0.114253 0.133542
vt 0.099625 0.143923
vt 0.048312 0.128824
vt 0.074971 0.138261
vt 0.096322 0.153478
vt 0.045481 0.114079
vt 0.041116 0.116674
vt 0.045953 0.123162
vt 0.038757 0.120684
vt 0.020001 0.120567
vt 0.025073 0.086947
vt 0.015872 0.069607
vt 0.001599 0.0978
vt 0.012923 0.115966
vt 0.029438 0.135312
vt 0.045717 0.130357
vt 0.050789 0.140266
vt 0.030264 0.138143
vt 0.020119 0.147934
vt 0.023304 0.155365
vt 0.003604 0.162797
vt 0.009502 0.167162
vt 0.032269 0.146872
vt 0.017052 0.161971
vt 0.02814 0.160556
vt 0.008912 0.169403
vt 0.004194 0.172824
vt 0.011861 0.174004
vt 0.007261 0.179902
vt 0.01021 0.178368
vt 0.023776 0.163741
vt 0.019175 0.170937
vt 0.027904 0.169285
vt 0.03569 0.155601
vt 0.043475 0.153478
vt 0.03628 0.157961
vt 0.018113 0.185918
vt 0.006671 0.205028
vt 0.044419 0.157725
vt 0.036044 0.18639
vt 0.036633 0.210454
vt 0.011507 0.233693
vt 0.001599 0.249617
vt 0.062703 0.225317
vt 0.057985 0.247494
vt 0.072376 0.179902
vt 0.05999 0.153242
vt 0.096794 0.201135
vt 0.091958 0.157489
vt 0.077684 0.151945
vt 0.074146 0.149703
vt 0.07059 0.844477
vt 0.055491 0.844477
vt 0.046526 0.837989
vt 0.08569 0.82171
vt 0.082741 0.839994
vt 0.07295 0.796584
vt 0.08569 0.799415
vt 0.080145 0.788799
vt 0.066226 0.768155
vt 0.080971 0.777946
vt 0.0608 0.781013
vt 0.049593 0.808027
vt 0.038033 0.784788
vt 0.024703 0.797528
vt 0.02718 0.824777
vt 0.034848 0.837517
vt 0.020102 0.799769
vt 0.028596 0.84141
vt 0.018215 0.801421
vt 0.018451 0.816284
vt 0.019978 0.784631
vt 0.017265 0.784867
vt 0.014906 0.772953
vt 0.010541 0.767054
vt 0.028589 0.77366
vt 0.011603 0.759033
vt 0.009008 0.751601
vt 0.002402 0.765993
vt 0.011131 0.743934
vt 0.007828 0.736266
vt 0.024815 0.755966
vt 0.007946 0.73202
vt 0.031892 0.767998
vt 0.034134 0.779676
vt 0.023399 0.740041
vt 0.026112 0.740749
vt 0.038498 0.74995
vt 0.032128 0.735559
vt 0.028825 0.728009
vt 0.019388 0.73025
vt 0.02163 0.727891
vt 0.00653 0.729542
vt 0.010187 0.727301
vt 0.002756 0.72506
vt 0.009008 0.715269
vt 0.019506 0.726357
vt 0.018681 0.715151
vt 0.020686 0.71114
vt 0.017383 0.698518
vt 0.002402 0.704181
vt 0.156477 0.161444
vt 0.145337 0.161444
vt 0.149948 0.147048
vt 0.33205 0.828329
vt 0.346087 0.834345
vt 0.349154 0.844254
vt 0.333465 0.839182
vt 0.367556 0.842603
vt 0.35057 0.854989
vt 0.332404 0.847203
vt 0.349508 0.85782
vt 0.360125 0.852511
vt 0.357765 0.860061
vt 0.33205 0.894152
vt 0.38006 0.86997
vt 0.380886 0.853101
vt 0.397401 0.847911
vt 0.393036 0.846377
vt 0.384307 0.845316
vt 0.388672 0.838946
vt 0.375814 0.846967
vt 0.411821 0.654296
vt 0.409934 0.649342
vt 0.436829 0.63672
vt 0.419843 0.655712
vt 0.445323 0.642736
vt 0.448626 0.629996
vt 0.430695 0.627283
vt 0.433055 0.623626
vt 0.468561 0.630821
vt 0.465612 0.649577
vt 0.449215 0.606875
vt 0.458888 0.624687
vt 0.468443 0.624923
vt 0.470331 0.6228
vt 0.484604 0.620913
vt 0.48602 0.645803
vt 0.484132 0.653588
vt 0.493923 0.654414
vt 0.506427 0.655712
vt 0.492626 0.636366
vt 0.506309 0.617492
vt 0.493805 0.639669
vt 0.5115 0.648162
vt 0.515628 0.642854
vt 0.504422 0.629642
vt 0.515628 0.633417
vt 0.520347 0.641202
vt 0.675555 0.282666
vt 0.668241 0.280189
vt 0.689121 0.261787
vt 0.693485 0.266977
vt 0.682515 0.288093
vt 0.692778 0.260489
vt 0.690772 0.239846
vt 0.685936 0.241498
vt 0.685582 0.221444
vt 0.690772 0.220972
vt 0.698676 0.218613
vt 0.698558 0.259664
vt 0.706579 0.239138
vt 0.703158 0.272876
vt 0.691126 0.293519
vt 0.689357 0.294935
vt 0.692896 0.301776
vt 0.714837 0.289036
vt 0.713893 0.280307
vt 0.714365 0.271932
vt 0.717668 0.281487
vt 0.716134 0.286795
vt 0.720027 0.29694
vt 0.735008 0.2842
vt 0.740434 0.298002
vt 0.724274 0.301187
vt 0.752466 0.284436
vt 0.755062 0.291396
vt 0.735244 0.278302
vt 0.752231 0.27901
vt 0.747512 0.268039
vt 0.744327 0.2448
vt 0.718729 0.265798
vt 0.734418 0.264146
vt 0.704338 0.257069
vt 0.726397 0.259074
vt 0.732885 0.252586
vt 0.709528 0.242323
vt 0.708584 0.252704
vt 0.731233 0.250109
vt 0.715308 0.240318
vt 0.713185 0.237841
vt 0.723094 0.229465
vt 0.743147 0.2402
vt 0.749753 0.24138
vt 0.747394 0.236543
vt 0.755062 0.22746
vt 0.735244 0.23383
vt 0.747984 0.230763
vt 0.750107 0.225691
vt 0.738075 0.217197
vt 0.742676 0.213894
vt 0.750815 0.212951
vt 0.740788 0.20776
vt 0.739019 0.21413
vt 0.729228 0.222741
vt 0.733711 0.206345
vt 0.725453 0.211299
vt 0.728048 0.226044
vt 0.724274 0.225926
vt 0.711062 0.215546
vt 0.724863 0.025624
vt 0.717314 0.037184
vt 0.720617 0.008991
vt 0.725925 0.013592
vt 0.745035 0.005452
vt 0.725099 0.042256
vt 0.713775 0.043554
vt 0.729346 0.017366
vt 0.739963 0.015597
vt 0.748692 0.017012
vt 0.755062 0.015597
vt 0.753882 0.026567
vt 0.747748 0.024562
vt 0.727576 0.026331
vt 0.750697 0.033527
vt 0.755062 0.039661
vt 0.725925 0.04202
vt 0.747748 0.045323
vt 0.750107 0.055232
vt 0.726515 0.045795
vt 0.724274 0.054878
vt 0.748338 0.064669
vt 0.716252 0.064197
vt 0.723448 0.063961
vt 0.720735 0.071747
vt 0.745035 0.072455
vt 0.718139 0.076112
vt 0.724627 0.09935
vt 0.755062 0.087554
vt 0.751051 0.077881
vt 0.441115 0.704338
vt 0.411743 0.709646
vt 0.4154 0.703984
vt 0.392869 0.704102
vt 0.390274 0.710354
vt 0.416933 0.695019
vt 0.410799 0.689357
vt 0.419528 0.682869
vt 0.446306 0.69785
vt 0.447485 0.683931
vt 0.419882 0.663995
vt 0.459518 0.678858
vt 0.448429 0.668713
vt 0.443121 0.647598
vt 0.456686 0.656799
vt 0.477684 0.663287
vt 0.472022 0.676263
vt 0.47155 0.700681
vt 0.477094 0.683695
vt 0.479335 0.698676
vt 0.490542 0.710354
vt 0.485587 0.700917
vt 0.426538 0.62839
vt 0.412972 0.62839
vt 0.416747 0.617774
vt 0.435503 0.608101
vt 0.41368 0.611758
vt 0.437272 0.600669
vt 0.411084 0.599843
vt 0.440339 0.588519
vt 0.387492 0.587811
vt 0.412972 0.587103
vt 0.433851 0.570825
vt 0.442109 0.556787
vt 0.41368 0.572122
vt 0.410849 0.556551
vt 0.390913 0.571414
vt 0.382538 0.59017
vt 0.383953 0.624144
vt 0.385133 0.581323
vt 0.378763 0.582739
vt 0.37369 0.596069
vt 0.359653 0.617184
vt 0.359653 0.62839
vt 0.345615 0.620369
vt 0.360714 0.607157
vt 0.336886 0.600551
vt 0.331814 0.615886
vt 0.328511 0.611875
vt 0.318366 0.576015
vt 0.345379 0.588283
vt 0.339599 0.572594
vt 0.329336 0.570943
vt 0.311878 0.55313
vt 0.359063 0.562331
vt 0.360597 0.552422
vt 0.332757 0.55372
vt 0.32568 0.550299
vt 0.336886 0.542396
vt 0.355052 0.529892
vt 0.378291 0.563393
vt 0.366849 0.556197
vt 0.373808 0.536851
vt 0.385605 0.512787
vt 0.394098 0.550181
vt 0.377583 0.53638
vt 0.38124 0.526471
vt 0.39858 0.54039
vt 0.402473 0.534492
vt 0.408371 0.517034
vt 0.408961 0.535672
vt 0.418516 0.542985
vt 0.434913 0.542514
vt 0.42323499999999997 0.519747
vt 0.425948 0.512787
vt 0.506797 0.042715
vt 0.500663 0.030801
vt 0.509274 0.014758
vt 0.49099 0.0216
vt 0.48061 0.017235
vt 0.488631 0.002136
vt 0.528502 0.031155
vt 0.509039 0.049675
vt 0.535698 0.03493
vt 0.52225 0.006383
vt 0.514111 0.002136
vt 0.5541 0.02278
vt 0.557639 0.029975
vt 0.550679 0.006501
vt 0.591848 0.027852
vt 0.557167 0.019713
vt 0.563419 0.012045
vt 0.593618 0.02042
vt 0.834555 0.09723
vt 0.83715 0.109616
vt 0.810845 0.098056
vt 0.839509 0.125541
vt 0.8204 0.116458
vt 0.823349 0.121058
vt 0.810373 0.103482
vt 0.816507 0.128962
vt 0.813204 0.145713
vt 0.811198 0.124125
vt 0.801172 0.109734
vt 0.790909 0.111857
vt 0.777461 0.088383
vt 0.797869 0.117402
vt 0.81226 0.130849
vt 0.796335 0.136511
vt 0.784185 0.12908
vt 0.784539 0.132265
vt 0.796453 0.146656
vt 0.802115 0.155385
vt 0.781236 0.144179
vt 0.778641 0.141348
vt 0.777461 0.158806
vt 0.797751 0.167654
vt 0.491784 0.545659
vt 0.48966 0.56878
vt 0.48966 0.541295
vt 0.576959 0.141574
vt 0.576959 0.11574
vt 0.583683 0.12388
vt 0.458571 0.351678
vt 0.461048 0.352031
vt 0.466946 0.360289
vt 0.458571 0.37008
vt 0.412068 0.447456
vt 0.412303 0.457011
vt 0.409001 0.456775
vt 0.407113 0.454062
vt 0.403102 0.428818
vt 0.395317 0.457011
vt 0.400035 0.432829
vt 0.110845 0.653228
vt 0.110845 0.629871
vt 0.11922 0.648155
vt 0.182694 0.151456
vt 0.1893 0.153344
vt 0.175262 0.158534
vt 0.172077 0.142609
vt 0.176678 0.106867
vt 0.187058 0.112529
vt 0.16264 0.135531
vt 0.171487 0.098963
vt 0.16783 0.094834
vt 0.162876 0.172572
vt 0.189653 0.221054
vt 0.154855 0.126566
vt 0.160399 0.08988
vt 0.180924 0.071006
vt 0.141761 0.104979
vt 0.178919 0.066288
vt 0.125836 0.089998
vt 0.112624 0.111585
vt 0.141643 0.088464
vt 0.124066 0.076904
vt 0.152849 0.079263
vt 0.154029 0.068529
vt 0.124184 0.065934
vt 0.163702 0.042223
vt 0.15627 0.053666
vt 0.128667 0.049065
vt 0.18234 0.037741
vt 0.146243 0.018159
vt 0.126426 0.025119
vt 0.127959 0.0158
vt 0.128077 0.003178
vt 0.158983 0.041279
vt 0.162286 0.024647
vt 0.178683 0.003414
vt 0.187412 0.025944
vt 0.190007 0.006009
vt 0.162168 0.017923
vt 0.163466 0.014856
vt 0.157804 0.001998
vt 0.074644 0.203668
vt 0.074644 0.191282
vt 0.07948 0.193287
vt 0.255827 0.328565
vt 0.239595 0.335307
vt 0.247893 0.323302
vt 0.239595 0.318702
vt 0.110845 0.050307
vt 0.11922 0.088173
vt 0.077344 0.031905
vt 0.099049 0.015626
vt 0.11922 0.013031
vt 0.079821 0.024474
vt 0.076046 0.01138
vt 0.092325 0.001589
vt 0.194919 0.850381
vt 0.189139 0.873384
vt 0.172978 0.857931
vt 0.174748 0.882939
vt 0.182651 0.845899
vt 0.196217 0.836226
vt 0.161418 0.824548
vt 0.172624 0.850853
vt 0.152924 0.847904
vt 0.136056 0.827379
vt 0.170029 0.871733
vt 0.151037 0.854156
vt 0.137825 0.871025
vt 0.163895 0.863121
vt 0.1613 0.874918
vt 0.148442 0.865599
vt 0.145965 0.874564
vt 0.136056 0.891668
vt 0.17941 0.693138
vt 0.197459 0.724398
vt 0.135646 0.6988
vt 0.147443 0.714843
vt 0.162896 0.728055
vt 0.190617 0.735604
vt 0.189673 0.7382
vt 0.13081 0.736194
vt 0.128804 0.731948
vt 0.114649 0.757545
vt 0.140011 0.713074
vt 0.118778 0.730768
vt 0.125619 0.714961
vt 0.124086 0.683701
vt 0.122788 0.675444
vt 0.120783 0.673674
vt 0.115829 0.667304
vt 0.115357 0.664945
vt 0.114649 0.664355
vt 0.357913 0.67334
vt 0.359447 0.676289
vt 0.355672 0.701415
vt 0.343404 0.675345
vt 0.345881 0.663195
vt 0.341044 0.691388
vt 0.352369 0.702713
vt 0.367232 0.708729
vt 0.364401 0.709083
vt 0.386224 0.720289
vt 0.338331 0.719699
vt 0.320165 0.713093
vt 0.317452 0.705662
vt 0.332197 0.689147
vt 0.315918 0.695281
vt 0.289849 0.720289
vt 0.297162 0.695163
vt 0.313677 0.684311
vt 0.320991 0.689029
vt 0.323822 0.686198
vt 0.620487 0.750094
vt 0.616594 0.741955
vt 0.618953 0.739949
vt 0.599018 0.738416
vt 0.602439 0.736882
vt 0.603382 0.728979
vt 0.592058 0.73063
vt 0.620605 0.726384
vt 0.59713 0.71211
vt 0.606331 0.716711
vt 0.621666 0.717183
vt 0.607865 0.714705
vt 0.605741 0.711874
vt 0.620723 0.715531
vt 0.601731 0.689462
vt 0.624026 0.702083
vt 0.607983 0.712346
vt 0.628154 0.691467
vt 0.60987 0.688636
vt 0.612111 0.688872
vt 0.626385 0.691703
vt 0.627447 0.689933
vt 0.611993 0.686395
vt 0.62839 0.6884
vt 0.61105 0.684271
vt 0.599018 0.678727
vt 0.607393 0.676132
vt 0.595715 0.666695
vt 0.597956 0.655606
vt 0.592058 0.658201
vt 0.281886 0.789415
vt 0.281886 0.770541
vt 0.307366 0.783163
vt 0.286487 0.796493
vt 0.294036 0.768653
vt 0.288492 0.764171
vt 0.309608 0.752021
vt 0.310433 0.763109
vt 0.313618 0.766294
vt 0.313028 0.773962
vt 0.313264 0.751667
vt 0.318101 0.779742
vt 0.326122 0.793072
vt 0.315977 0.800739
vt 0.328953 0.806991
vt 0.342047 0.809704
vt 0.345114 0.790948
vt 0.317511 0.773136
vt 0.316567 0.754498
vt 0.314916 0.750723
vt 0.334969 0.784107
vt 0.337565 0.777972
vt 0.345114 0.787999
vt 0.342991 0.77809
vt 0.352428 0.780568
vt 0.349361 0.78045
vt 0.361983 0.790005
vt 0.346766 0.773844
vt 0.354433 0.768418
vt 0.362809 0.781039
vt 0.36387 0.796728
vt 0.3575 0.768182
vt 0.356439 0.76016
vt 0.351366 0.751313
vt 0.362219 0.758155
vt 0.343581 0.741286
vt 0.361629 0.753554
vt 0.36387 0.751903
vt 0.35691 0.74282
vt 0.354079 0.744471
vt 0.344288 0.739163
vt 0.331666 0.744117
vt 0.355613 0.73527
vt 0.35809 0.735152
vt 0.356321 0.73409
vt 0.345704 0.728546
vt 0.34594 0.726541
vt 0.336149 0.729018
vt 0.317039 0.726305
vt 0.320696 0.729254
vt 0.311849 0.732793
vt 0.284737 0.906394
vt 0.282142 0.928925
vt 0.282142 0.911466
vt 0.282732 0.897547
vt 0.298421 0.904035
vt 0.289692 0.89212
vt 0.28745 0.891413
vt 0.286979 0.888346
vt 0.293113 0.890823
vt 0.296533 0.883627
vt 0.289928 0.884217
vt 0.292051 0.875842
vt 0.302432 0.871713
vt 0.304555 0.87537
vt 0.324255 0.888464
vt 0.310807 0.918662
vt 0.324844 0.904506
vt 0.31411 0.919134
vt 0.326614 0.907573
vt 0.306678 0.928571
vt 0.324491 0.912882
vt 0.66296 0.839811
vt 0.66638 0.827071
vt 0.667442 0.857387
vt 0.665201 0.859628
vt 0.66119 0.819285
vt 0.67275 0.814567
vt 0.64904 0.85491
vt 0.670155 0.81209
vt 0.644793 0.856326
vt 0.645147 0.864347
vt 0.636536 0.856326
vt 0.639603 0.819521
vt 0.649158 0.839221
vt 0.647506 0.820937
vt 0.649512 0.822942
vt 0.659893 0.820229
vt 0.651871 0.816808
vt 0.645029 0.815982
vt 0.64267 0.811028
vt 0.62993 0.811146
vt 0.656943 0.814331
vt 0.664965 0.811854
vt 0.659775 0.806663
vt 0.675582 0.810202
vt 0.659657 0.805484
vt 0.644439 0.808669
vt 0.659303 0.794631
vt 0.634767 0.794631
f 4/1 33/2 438/3
f 4/1 438/3 445/4
f 4/1 445/4 508/5
f 445/4 438/3 498/6
f 445/4 498/6 508/5
f 498/6 438/3 405/7
f 405/7 438/3 33/2
f 508/5 498/6 487/8
f 508/5 487/8 492/9
f 508/5 492/9 428/10
f 487/8 498/6 462/11
f 462/11 498/6 405/7
f 487/8 462/11 458/12
f 458/12 462/11 430/13
f 508/5 428/10 34/14
f 508/5 34/14 4/1
f 34/14 428/10 106/15
f 4/1 34/14 49/16
f 4/1 49/16 33/2
f 34/14 106/15 126/17
f 34/14 126/17 49/16
f 126/17 106/15 130/18
f 33/2 49/16 125/19
f 125/19 49/16 126/17
f 125/19 126/17 132/20
f 132/20 126/17 130/18
f 125/19 132/20 33/2
f 132/20 130/18 134/21
f 33/2 132/20 30/22
f 132/20 134/21 109/23
f 33/2 30/22 405/7
f 132/20 109/23 78/24
f 132/20 78/24 30/22
f 405/7 30/22 402/25
f 405/7 402/25 462/11
f 462/11 402/25 430/13
f 30/22 78/24 41/26
f 30/22 41/26 16/27
f 30/22 16/27 402/25
f 16/27 41/26 67/28
f 67/28 41/26 78/24
f 16/27 67/28 37/29
f 16/27 37/29 402/25
f 37/29 67/28 35/30
f 37/29 35/30 402/25
f 35/30 67/28 78/24
f 11/31 430/13 402/25
f 430/13 11/31 489/32
f 402/25 35/30 36/33
f 36/33 35/30 78/24
f 402/25 36/33 11/31
f 471/34 528/35 489/32
f 471/34 489/32 11/31
f 471/34 11/31 426/36
f 471/34 426/36 444/37
f 426/36 11/31 10/38
f 10/38 11/31 47/39
f 47/39 11/31 36/33
f 47/39 36/33 74/40
f 47/39 74/40 162/41
f 162/41 74/40 148/42
f 74/40 36/33 84/43
f 148/42 74/40 110/44
f 110/44 74/40 84/43
f 84/43 36/33 68/45
f 84/43 68/45 110/44
f 68/45 36/33 65/46
f 68/45 65/46 110/44
f 65/46 36/33 105/47
f 65/46 105/47 110/44
f 148/42 110/44 151/48
f 151/48 110/44 105/47
f 148/42 151/48 185/49
f 148/42 185/49 215/50
f 151/48 105/47 153/51
f 151/48 153/51 185/49
f 91/52 105/47 36/33
f 91/52 36/33 78/24
f 153/51 105/47 92/53
f 92/53 105/47 91/52
f 91/52 78/24 109/23
f 247/54 215/50 185/49
f 187/55 185/49 153/51
f 247/54 185/49 230/56
f 153/51 92/53 152/57
f 153/51 152/57 187/55
f 185/49 187/55 182/58
f 182/58 187/55 152/57
f 185/49 182/58 230/56
f 152/57 92/53 111/59
f 111/59 92/53 91/52
f 182/58 152/57 147/60
f 147/60 152/57 111/59
f 111/59 91/52 115/61
f 115/61 91/52 109/23
f 111/59 115/61 147/60
f 115/61 109/23 217/62
f 115/61 217/62 147/60
f 217/62 109/23 145/63
f 182/58 147/60 207/64
f 182/58 207/64 230/56
f 147/60 217/62 213/65
f 147/60 213/65 207/64
f 213/65 217/62 285/66
f 230/56 207/64 205/67
f 205/67 207/64 213/65
f 230/56 205/67 236/68
f 213/65 285/66 227/69
f 213/65 227/69 205/67
f 227/69 285/66 246/70
f 236/68 205/67 249/71
f 249/71 205/67 227/69
f 236/68 249/71 230/56
f 249/71 227/69 246/70
f 230/56 249/71 247/54
f 247/54 249/71 246/70
f 130/72 106/73 133/74
f 133/74 106/73 61/75
f 130/72 133/74 139/76
f 130/72 139/76 134/77
f 61/75 106/73 428/78
f 145/79 109/80 134/77
f 145/79 134/77 139/76
f 139/76 133/74 183/81
f 61/75 428/78 418/82
f 146/83 133/74 61/75
f 133/74 146/83 183/81
f 61/75 418/82 12/84
f 418/82 428/78 446/85
f 418/82 446/85 12/84
f 446/85 428/78 480/86
f 480/86 428/78 492/87
f 480/86 492/87 490/88
f 480/86 490/88 446/85
f 446/85 490/88 416/89
f 446/85 416/89 12/84
f 416/89 490/88 452/90
f 452/90 490/88 578/91
f 416/89 452/90 424/92
f 424/92 452/90 578/91
f 12/84 416/89 46/93
f 46/93 416/89 424/92
f 118/94 61/75 12/84
f 118/94 12/84 46/93
f 61/75 118/94 146/83
f 424/92 578/91 491/95
f 491/95 578/91 647/96
f 491/95 647/96 692/97
f 491/95 692/97 507/98
f 476/99 459/100 507/98
f 507/98 459/100 427/101
f 507/98 427/101 491/95
f 491/95 427/101 3/102
f 491/95 3/102 424/92
f 424/92 3/102 114/103
f 424/92 114/103 46/93
f 114/103 3/102 38/104
f 114/103 38/104 63/105
f 114/103 63/105 221/106
f 46/93 114/103 140/107
f 46/93 140/107 118/94
f 114/103 221/106 195/108
f 195/108 221/106 278/109
f 140/107 114/103 202/110
f 202/110 114/103 195/108
f 118/94 140/107 135/111
f 135/111 140/107 202/110
f 118/94 135/111 146/83
f 202/110 195/108 250/112
f 250/112 195/108 278/109
f 135/111 202/110 206/113
f 135/111 206/113 146/83
f 206/113 202/110 250/112
f 250/112 278/109 252/114
f 250/112 252/114 206/113
f 252/114 278/109 281/115
f 146/83 206/113 212/116
f 212/116 206/113 252/114
f 252/114 281/115 306/117
f 146/83 212/116 183/81
f 252/114 306/117 270/118
f 212/116 252/114 254/119
f 254/119 252/114 270/118
f 212/116 254/119 208/120
f 212/116 208/120 183/81
f 254/119 270/118 282/121
f 208/120 254/119 242/122
f 242/122 254/119 282/121
f 208/120 242/122 224/123
f 208/120 224/123 183/81
f 297/124 270/118 306/117
f 297/124 306/117 313/125
f 297/124 313/125 322/126
f 297/124 322/126 315/127
f 183/81 224/123 193/128
f 183/81 193/128 139/76
f 193/128 224/123 223/129
f 223/129 224/123 242/122
f 139/76 193/128 184/130
f 184/130 193/128 223/129
f 139/76 184/130 145/79
f 145/79 184/130 191/131
f 145/79 191/131 217/132
f 191/131 184/130 228/133
f 228/133 184/130 223/129
f 191/131 228/133 217/132
f 217/132 228/133 265/134
f 265/134 228/133 223/129
f 217/132 265/134 285/135
f 267/136 223/129 242/122
f 223/129 267/136 265/134
f 267/136 242/122 282/121
f 267/136 282/121 292/137
f 267/136 292/137 265/134
f 292/137 282/121 270/118
f 285/135 265/134 293/138
f 293/138 265/134 292/137
f 292/137 270/118 297/124
f 285/135 293/138 291/139
f 291/139 293/138 292/137
f 291/139 292/137 297/124
f 285/135 291/139 246/140
f 291/139 297/124 303/141
f 291/139 303/141 246/140
f 303/141 297/124 315/127
f 303/141 315/127 316/142
f 303/141 316/142 246/140
f 246/140 316/142 247/143
f 316/144 315/145 344/146
f 344/146 315/145 322/147
f 316/144 344/146 343/148
f 344/146 322/147 342/149
f 344/146 342/149 343/148
f 342/149 322/147 341/150
f 342/149 341/150 343/148
f 341/150 322/147 313/151
f 306/152 321/153 313/151
f 313/151 321/153 341/150
f 341/150 321/153 329/154
f 343/148 341/150 349/155
f 343/148 349/155 353/156
f 341/150 329/154 362/157
f 341/150 362/157 349/155
f 362/157 329/154 345/158
f 353/156 349/155 372/159
f 372/159 349/155 362/157
f 362/157 345/158 378/160
f 362/157 378/160 372/159
f 378/160 345/158 365/161
f 353/156 372/159 373/162
f 373/162 372/159 378/160
f 353/156 373/162 274/163
f 373/162 378/160 382/164
f 382/164 378/160 379/165
f 382/164 379/165 366/166
f 373/162 382/164 337/167
f 373/162 337/167 274/163
f 337/167 382/164 366/166
f 274/163 337/167 294/168
f 294/168 337/167 366/166
f 321/169 306/170 308/171
f 308/171 306/170 281/172
f 308/171 281/172 278/173
f 321/169 308/171 319/174
f 308/171 278/173 221/175
f 321/169 319/174 324/176
f 321/169 324/176 329/177
f 319/174 308/171 314/178
f 314/178 308/171 221/175
f 319/174 314/178 324/176
f 329/177 324/176 345/179
f 314/178 221/175 340/180
f 314/178 340/180 324/176
f 345/179 324/176 360/181
f 360/181 324/176 340/180
f 345/179 360/181 365/182
f 340/180 221/175 359/183
f 340/180 359/183 360/181
f 365/182 360/181 370/184
f 370/184 360/181 359/183
f 365/182 370/184 371/185
f 371/185 370/184 369/186
f 370/184 359/183 368/187
f 370/184 368/187 369/186
f 264/188 359/183 221/175
f 264/188 221/175 63/189
f 368/187 359/183 312/190
f 312/190 359/183 264/188
f 369/186 368/187 364/191
f 364/191 368/187 312/190
f 369/186 364/191 363/192
f 369/186 363/192 354/193
f 363/192 364/191 351/194
f 363/192 351/194 354/193
f 351/194 364/191 312/190
f 354/193 351/194 339/195
f 351/194 312/190 338/196
f 351/194 338/196 339/195
f 243/197 312/190 264/188
f 312/190 243/197 338/196
f 179/198 264/188 63/189
f 264/188 179/198 243/197
f 179/198 63/189 75/199
f 179/198 75/199 138/200
f 179/198 138/200 214/201
f 179/198 214/201 243/197
f 243/197 214/201 301/202
f 317/203 338/196 243/197
f 317/203 243/197 301/202
f 333/204 339/195 338/196
f 333/204 338/196 317/203
f 339/195 333/204 330/205
f 333/204 317/203 328/206
f 333/204 328/206 330/205
f 328/206 317/203 301/202
f 330/205 328/206 326/207
f 326/207 328/206 301/202
f 326/207 301/202 271/208
f 271/208 301/202 268/209
f 490/210 492/211 501/212
f 490/210 501/212 550/213
f 490/210 550/213 578/214
f 550/213 501/212 626/215
f 626/215 501/212 492/211
f 578/214 550/213 663/216
f 663/216 550/213 626/215
f 578/214 663/216 647/217
f 647/217 663/216 691/218
f 647/217 691/218 686/219
f 686/219 691/218 715/220
f 691/218 663/216 689/221
f 691/218 689/221 715/220
f 689/221 663/216 626/215
f 715/220 689/221 712/222
f 712/222 689/221 690/223
f 689/221 626/215 637/224
f 689/221 637/224 690/223
f 637/224 626/215 590/225
f 590/225 626/215 492/211
f 637/224 590/225 650/226
f 637/224 650/226 690/223
f 590/225 492/211 520/227
f 590/225 520/227 650/226
f 707/228 712/222 690/223
f 712/222 707/228 725/229
f 725/229 707/228 718/230
f 718/230 707/228 711/231
f 520/227 492/211 502/232
f 502/232 492/211 487/233
f 711/231 707/228 698/234
f 502/232 487/233 469/235
f 469/235 487/233 458/236
f 520/227 502/232 519/237
f 502/232 469/235 514/238
f 502/232 514/238 519/237
f 469/235 458/236 467/239
f 469/235 467/239 514/238
f 467/239 458/236 453/240
f 453/240 458/236 430/241
f 453/240 430/241 523/242
f 453/240 523/242 485/243
f 453/240 485/243 467/239
f 485/243 523/242 526/244
f 514/238 467/239 488/245
f 488/245 467/239 485/243
f 485/243 526/244 495/246
f 485/243 495/246 488/245
f 495/246 526/244 605/247
f 514/238 488/245 548/248
f 514/238 548/248 519/237
f 488/245 495/246 547/249
f 488/245 547/249 548/248
f 547/249 495/246 605/247
f 548/248 547/249 591/250
f 548/248 591/250 519/237
f 591/250 547/249 605/247
f 625/251 605/247 526/244
f 625/251 526/244 585/252
f 625/251 585/252 631/253
f 625/251 631/253 605/247
f 631/253 585/252 629/254
f 591/250 605/247 615/255
f 615/255 605/247 631/253
f 610/256 519/237 591/250
f 519/237 610/256 520/227
f 520/227 610/256 650/226
f 610/256 591/250 655/257
f 655/257 591/250 615/255
f 650/226 610/256 658/258
f 658/258 610/256 655/257
f 655/257 615/255 687/259
f 655/257 687/259 658/258
f 650/226 658/258 688/260
f 688/260 658/258 687/259
f 650/226 688/260 706/261
f 650/226 706/261 690/223
f 688/260 687/259 702/262
f 688/260 702/262 706/261
f 645/263 687/259 615/255
f 645/263 615/255 631/253
f 690/223 706/261 699/264
f 690/223 699/264 707/228
f 699/264 706/261 700/265
f 700/265 706/261 702/262
f 707/228 699/264 698/234
f 698/234 699/264 700/265
f 698/234 700/265 702/262
f 698/234 702/262 667/266
f 698/234 667/266 711/231
f 676/267 702/262 687/259
f 676/267 687/259 645/263
f 702/262 676/267 673/268
f 702/262 673/268 667/266
f 673/268 676/267 674/269
f 676/267 645/263 643/270
f 676/267 643/270 674/269
f 643/270 645/263 631/253
f 673/268 674/269 662/271
f 662/271 674/269 643/270
f 643/270 631/253 634/272
f 643/270 634/272 662/271
f 634/272 631/253 642/273
f 634/272 642/273 662/271
f 662/271 642/273 673/268
f 673/268 642/273 667/266
f 642/273 631/253 629/254
f 642/273 629/254 667/266
f 667/266 629/254 600/274
f 667/266 600/274 616/275
f 667/266 616/275 630/276
f 647/277 686/278 692/279
f 692/279 686/278 741/280
f 741/280 686/278 733/281
f 733/281 686/278 715/282
f 733/281 715/282 712/283
f 741/280 733/281 736/284
f 733/281 712/283 738/285
f 733/281 738/285 736/284
f 738/285 712/283 732/286
f 732/286 712/283 725/287
f 736/284 738/285 748/288
f 736/284 748/288 741/280
f 738/285 732/286 746/289
f 738/285 746/289 748/288
f 732/286 725/287 754/290
f 732/286 754/290 746/289
f 748/288 746/289 757/291
f 757/291 746/289 754/290
f 741/280 748/288 760/292
f 741/280 760/292 692/279
f 760/292 748/288 757/291
f 754/290 725/287 744/293
f 744/293 725/287 718/294
f 744/293 718/294 734/295
f 734/295 718/294 711/296
f 734/295 711/296 667/297
f 744/293 734/295 767/298
f 744/293 767/298 754/290
f 734/295 667/297 704/299
f 704/299 667/297 630/300
f 704/299 630/300 619/301
f 734/295 704/299 755/302
f 734/295 755/302 767/298
f 704/299 619/301 705/303
f 705/303 619/301 638/304
f 755/302 704/299 771/305
f 771/305 704/299 705/303
f 767/298 755/302 783/306
f 783/306 755/302 771/305
f 786/307 754/290 767/298
f 786/307 767/298 783/306
f 754/290 786/307 757/291
f 783/306 771/305 782/308
f 783/306 782/308 786/307
f 782/308 771/305 705/303
f 716/309 705/303 638/304
f 716/309 638/304 635/310
f 782/308 705/303 750/311
f 750/311 705/303 716/309
f 786/307 782/308 776/312
f 786/307 776/312 757/291
f 782/308 750/311 751/313
f 751/313 750/311 716/309
f 776/312 782/308 778/314
f 778/314 782/308 751/313
f 778/314 751/313 785/315
f 778/314 785/315 776/312
f 785/315 751/313 716/309
f 784/316 757/291 776/312
f 784/316 776/312 785/315
f 757/291 784/316 795/317
f 784/316 785/315 790/318
f 784/316 790/318 795/317
f 785/315 716/309 791/319
f 790/318 785/315 797/320
f 797/320 785/315 791/319
f 790/318 797/320 802/321
f 790/318 802/321 795/317
f 797/320 791/319 801/322
f 797/320 801/322 802/321
f 801/322 791/319 716/309
f 795/317 802/321 804/323
f 804/323 802/321 801/322
f 795/317 804/323 799/324
f 768/325 757/291 795/317
f 768/325 795/317 799/324
f 757/291 768/325 770/326
f 757/291 770/326 760/292
f 770/326 768/325 777/327
f 760/292 770/326 769/328
f 769/328 770/326 777/327
f 760/292 769/328 692/279
f 777/327 768/325 774/329
f 774/329 768/325 799/324
f 777/327 774/329 775/330
f 775/330 774/329 799/324
f 692/279 769/328 717/331
f 692/279 717/331 507/332
f 769/328 777/327 773/333
f 769/328 773/333 717/331
f 773/333 777/327 779/334
f 779/334 777/327 775/330
f 717/331 773/333 766/335
f 766/335 773/333 779/334
f 507/332 717/331 684/336
f 684/336 717/331 766/335
f 507/332 684/336 651/337
f 507/332 651/337 476/338
f 476/338 651/337 468/339
f 468/339 651/337 440/340
f 440/340 651/337 606/341
f 684/336 766/335 722/342
f 684/336 722/342 651/337
f 722/342 766/335 758/343
f 651/337 722/342 710/344
f 651/337 710/344 613/345
f 613/345 710/344 742/346
f 710/344 722/342 749/347
f 749/347 722/342 758/343
f 710/344 749/347 742/346
f 758/343 766/335 756/348
f 758/343 756/348 749/347
f 756/348 766/335 779/334
f 742/346 749/347 745/349
f 745/349 749/347 756/348
f 723/350 695/351 742/346
f 723/350 742/346 743/352
f 743/352 742/346 745/349
f 723/350 743/352 719/353
f 719/353 743/352 728/354
f 728/354 743/352 745/349
f 719/353 728/354 735/355
f 735/355 728/354 745/349
f 719/353 735/355 730/356
f 719/353 730/356 729/357
f 729/357 730/356 731/358
f 730/356 735/355 740/359
f 709/360 727/361 731/358
f 709/360 731/358 703/362
f 709/360 703/362 670/363
f 731/358 730/356 726/364
f 731/358 726/364 703/362
f 670/363 703/362 701/365
f 701/365 703/362 726/364
f 726/364 730/356 737/366
f 726/364 737/366 701/365
f 737/366 730/356 740/359
f 670/363 701/365 665/367
f 670/363 665/367 632/368
f 632/368 665/367 552/369
f 552/369 665/367 668/370
f 668/370 665/367 701/365
f 552/369 668/370 593/371
f 593/371 668/370 646/372
f 668/370 701/365 720/373
f 720/373 701/365 737/366
f 646/372 668/370 669/374
f 669/374 668/370 720/373
f 646/372 669/374 661/375
f 669/374 720/373 724/376
f 669/374 724/376 661/375
f 720/373 737/366 762/377
f 762/377 737/366 740/359
f 720/373 762/377 724/376
f 661/375 724/376 708/378
f 661/375 708/378 656/379
f 724/376 762/377 763/380
f 762/377 740/359 764/381
f 762/377 764/381 763/380
f 764/381 740/359 759/382
f 759/382 740/359 735/355
f 759/382 735/355 745/349
f 764/381 759/382 761/383
f 761/383 759/382 745/349
f 763/380 764/381 781/384
f 781/384 764/381 761/383
f 780/385 724/376 763/380
f 780/385 763/380 781/384
f 724/376 780/385 708/378
f 761/383 745/349 752/386
f 752/386 745/349 753/387
f 753/387 745/349 756/348
f 753/387 756/348 779/334
f 753/387 779/334 772/388
f 772/388 779/334 775/330
f 752/386 753/387 765/389
f 765/389 753/387 772/388
f 752/386 765/389 761/383
f 765/389 772/388 775/330
f 761/383 765/389 788/390
f 788/390 765/389 775/330
f 761/383 788/390 781/384
f 788/390 775/330 798/391
f 798/391 775/330 799/324
f 798/391 799/324 803/392
f 803/392 799/324 804/323
f 788/390 798/391 796/393
f 796/393 798/391 803/392
f 781/384 788/390 792/394
f 792/394 788/390 796/393
f 803/392 804/323 801/322
f 781/384 792/394 789/395
f 781/384 789/395 780/385
f 792/394 796/393 793/396
f 793/396 796/393 803/392
f 803/392 801/322 800/397
f 803/392 800/397 793/396
f 780/385 789/395 747/398
f 789/395 792/394 787/399
f 787/399 792/394 793/396
f 789/395 787/399 747/398
f 793/396 800/397 794/400
f 793/396 794/400 787/399
f 794/400 800/397 801/322
f 787/399 794/400 747/398
f 780/385 747/398 708/378
f 708/378 747/398 794/400
f 794/400 801/322 739/401
f 739/401 801/322 716/309
f 708/378 794/400 696/402
f 696/402 794/400 739/401
f 708/378 696/402 649/403
f 708/378 649/403 656/379
f 656/379 649/403 648/404
f 648/404 649/403 594/405
f 739/401 716/309 666/406
f 739/401 666/406 696/402
f 696/402 666/406 649/403
f 666/406 716/309 635/310
f 649/403 666/406 596/407
f 596/407 666/406 635/310
f 649/403 596/407 594/405
f 596/407 635/310 597/408
f 596/407 597/408 539/409
f 594/405 596/407 444/410
f 444/410 596/407 539/409
f 444/410 539/409 471/411
f 594/405 444/410 593/412
f 593/412 444/410 552/413
f 585/414 526/415 523/416
f 430/417 464/418 523/416
f 523/416 464/418 535/419
f 585/414 523/416 549/420
f 549/420 523/416 535/419
f 585/414 549/420 629/421
f 629/421 549/420 587/422
f 629/421 587/422 600/423
f 549/420 535/419 538/424
f 600/423 587/422 602/425
f 600/423 602/425 589/426
f 589/426 602/425 588/427
f 588/427 602/425 587/422
f 589/426 588/427 572/428
f 572/428 588/427 587/422
f 589/426 572/428 577/429
f 589/426 577/429 600/423
f 577/429 572/428 587/422
f 600/423 577/429 616/430
f 616/430 577/429 534/431
f 577/429 587/422 563/432
f 577/429 563/432 534/431
f 534/431 563/432 535/419
f 563/432 587/422 549/420
f 535/419 563/432 538/424
f 563/432 549/420 557/433
f 557/433 549/420 538/424
f 563/432 557/433 558/434
f 563/432 558/434 538/424
f 558/434 557/433 540/435
f 558/434 540/435 538/424
f 538/424 540/435 557/433
f 619/436 630/437 528/438
f 528/438 630/437 601/439
f 601/439 630/437 623/440
f 623/440 630/437 616/441
f 623/440 616/441 601/439
f 601/439 616/441 534/442
f 601/439 534/442 528/438
f 528/438 534/442 497/443
f 528/438 497/443 489/444
f 430/445 489/444 464/446
f 464/446 489/444 497/443
f 464/446 497/443 478/447
f 478/447 497/443 500/448
f 478/447 500/448 464/446
f 500/448 497/443 510/449
f 500/448 510/449 464/446
f 510/449 497/443 534/442
f 464/446 510/449 535/450
f 510/449 534/442 524/451
f 524/451 534/442 535/450
f 524/451 535/450 510/449
f 552/452 444/453 451/454
f 451/454 444/453 423/455
f 552/452 451/454 536/456
f 536/456 451/454 503/457
f 451/454 423/455 26/458
f 451/454 26/458 39/459
f 451/454 39/459 419/460
f 39/459 26/458 62/461
f 62/461 26/458 141/462
f 419/460 39/459 43/463
f 204/464 157/465 141/462
f 141/462 157/465 149/466
f 141/462 149/466 62/461
f 62/461 149/466 86/467
f 62/461 86/467 70/468
f 70/468 86/467 149/466
f 80/469 39/459 62/461
f 80/469 62/461 70/468
f 70/468 149/466 154/470
f 154/470 149/466 157/465
f 80/469 70/468 99/471
f 99/471 70/468 154/470
f 154/470 157/465 159/472
f 159/472 157/465 238/473
f 99/471 154/470 155/474
f 155/474 154/470 159/472
f 99/471 155/474 127/475
f 127/475 155/474 159/472
f 99/471 127/475 80/469
f 127/475 159/472 238/473
f 80/469 127/475 108/476
f 80/469 108/476 39/459
f 127/475 238/473 189/477
f 127/475 189/477 108/476
f 189/477 238/473 288/478
f 39/459 108/476 69/479
f 189/477 288/478 261/480
f 261/480 288/478 289/481
f 108/476 189/477 216/482
f 216/482 189/477 261/480
f 39/459 69/479 43/463
f 69/479 108/476 144/483
f 144/483 108/476 216/482
f 216/482 261/480 240/484
f 240/484 261/480 286/485
f 216/482 240/484 197/486
f 144/483 216/482 160/487
f 160/487 216/482 197/486
f 69/479 144/483 95/488
f 95/488 144/483 160/487
f 95/488 160/487 94/489
f 160/487 197/486 164/490
f 164/490 197/486 240/484
f 160/487 164/490 94/489
f 164/490 240/484 210/491
f 210/491 240/484 287/492
f 210/491 287/492 235/493
f 94/489 164/490 82/494
f 82/494 164/490 210/491
f 94/489 82/494 95/488
f 210/491 235/493 173/495
f 210/491 173/495 82/494
f 173/495 235/493 225/496
f 95/488 82/494 90/497
f 95/488 90/497 69/479
f 69/479 90/497 76/498
f 69/479 76/498 43/463
f 76/498 90/497 79/499
f 79/499 90/497 82/494
f 76/498 79/499 85/500
f 85/500 79/499 82/494
f 43/463 76/498 411/501
f 411/501 76/498 85/500
f 43/463 411/501 6/502
f 43/463 6/502 419/460
f 419/460 6/502 432/503
f 432/503 6/502 525/504
f 525/504 6/502 454/505
f 454/505 6/502 411/501
f 411/501 85/500 8/506
f 72/507 85/500 82/494
f 85/500 72/507 8/506
f 72/507 82/494 64/508
f 8/506 72/507 2/509
f 2/509 72/507 64/508
f 8/506 2/509 457/510
f 64/508 82/494 173/495
f 457/510 2/509 450/511
f 457/510 450/511 573/512
f 573/512 450/511 551/513
f 450/511 2/509 406/514
f 406/514 2/509 64/508
f 551/513 450/511 505/515
f 450/511 406/514 436/516
f 450/511 436/516 505/515
f 551/513 505/515 568/517
f 551/513 568/517 607/518
f 607/518 568/517 560/519
f 560/519 568/517 505/515
f 607/518 560/519 599/520
f 599/520 560/519 574/521
f 560/519 505/515 461/522
f 461/522 505/515 436/516
f 574/521 560/519 516/523
f 516/523 560/519 461/522
f 516/523 461/522 456/524
f 516/523 456/524 574/521
f 456/524 461/522 436/516
f 407/525 436/516 406/514
f 407/525 406/514 24/526
f 436/516 407/525 410/527
f 410/527 407/525 24/526
f 436/516 410/527 456/524
f 24/526 406/514 64/508
f 541/528 574/521 456/524
f 574/521 541/528 613/529
f 456/524 410/527 21/530
f 21/530 410/527 24/526
f 541/528 456/524 442/531
f 442/531 456/524 21/530
f 613/529 541/528 460/532
f 460/532 541/528 442/531
f 613/529 460/532 606/533
f 613/529 606/533 651/534
f 606/533 460/532 17/535
f 17/535 460/532 442/531
f 606/533 17/535 440/536
f 17/535 442/531 113/537
f 113/537 442/531 21/530
f 113/537 21/530 102/538
f 102/538 21/530 24/526
f 138/539 113/537 209/540
f 209/540 113/537 177/541
f 177/541 113/537 102/538
f 209/540 177/541 225/496
f 102/538 24/526 165/542
f 102/538 165/542 177/541
f 177/541 165/542 225/496
f 165/542 24/526 64/508
f 225/496 165/542 173/495
f 173/495 165/542 64/508
f 536/543 503/544 527/545
f 632/546 552/547 536/543
f 632/546 536/543 678/548
f 632/546 678/548 670/549
f 670/549 678/548 709/550
f 709/550 678/548 697/551
f 709/550 697/551 727/552
f 697/551 678/548 671/553
f 671/553 678/548 617/554
f 617/554 678/548 536/543
f 671/553 617/554 654/555
f 654/555 617/554 611/556
f 611/556 617/554 536/543
f 611/556 536/543 527/545
f 611/556 527/545 504/557
f 504/557 527/545 482/558
f 611/556 504/557 575/559
f 504/557 482/558 432/560
f 575/559 504/557 564/561
f 504/557 432/560 525/562
f 504/557 525/562 564/561
f 731/563 727/564 714/565
f 714/565 727/564 697/566
f 731/563 714/565 721/567
f 714/565 697/566 680/568
f 714/565 680/568 721/567
f 680/568 697/566 654/569
f 654/569 697/566 671/570
f 680/568 654/569 639/571
f 639/571 654/569 611/572
f 721/567 680/568 681/573
f 681/573 680/568 639/571
f 639/571 611/572 575/574
f 721/567 681/573 713/575
f 721/567 713/575 729/576
f 681/573 639/571 633/577
f 713/575 681/573 636/578
f 636/578 681/573 633/577
f 713/575 636/578 657/579
f 657/579 636/578 607/580
f 607/580 636/578 551/581
f 633/577 639/571 582/582
f 633/577 582/582 636/578
f 582/582 639/571 575/574
f 551/581 636/578 573/583
f 573/583 636/578 582/582
f 573/583 582/582 575/574
f 573/583 575/574 564/584
f 573/583 564/584 559/585
f 559/585 564/584 525/586
f 559/585 525/586 454/587
f 573/583 559/585 566/588
f 566/588 559/585 479/589
f 566/588 479/589 573/583
f 479/589 559/585 454/587
f 573/583 479/589 457/590
f 457/590 479/589 8/591
f 8/591 479/589 454/587
f 8/591 454/587 411/592
f 721/593 729/594 731/595
f 729/596 713/597 693/598
f 729/596 693/598 719/599
f 693/598 713/597 657/600
f 719/599 693/598 694/601
f 719/599 694/601 723/602
f 723/602 694/601 695/603
f 694/601 693/598 677/604
f 677/604 693/598 657/600
f 695/603 694/601 675/605
f 675/605 694/601 677/604
f 695/603 675/605 742/606
f 742/606 675/605 613/607
f 613/607 675/605 628/608
f 628/608 675/605 677/604
f 613/607 628/608 574/609
f 574/609 628/608 599/610
f 599/610 628/608 624/611
f 599/610 624/611 607/612
f 628/608 677/604 644/613
f 628/608 644/613 624/611
f 644/613 677/604 657/600
f 624/611 644/613 607/612
f 607/612 644/613 657/600
f 468/614 440/615 475/616
f 468/614 475/616 476/617
f 476/617 475/616 486/618
f 486/618 475/616 545/619
f 545/619 475/616 473/620
f 545/619 473/620 512/621
f 486/618 545/619 581/622
f 486/618 581/622 493/623
f 543/624 583/625 545/619
f 545/619 583/625 609/626
f 545/619 609/626 581/622
f 609/626 583/625 620/627
f 609/626 620/627 581/622
f 581/622 620/627 640/628
f 493/623 581/622 533/629
f 493/623 533/629 496/630
f 496/630 533/629 484/631
f 484/631 533/629 481/632
f 581/622 640/628 584/633
f 581/622 584/633 533/629
f 584/633 640/628 660/634
f 481/632 533/629 569/635
f 569/635 533/629 584/633
f 481/632 569/635 531/636
f 531/636 569/635 554/637
f 569/635 584/633 622/638
f 622/638 584/633 660/634
f 569/635 622/638 554/637
f 622/638 660/634 612/639
f 622/638 612/639 554/637
f 554/637 612/639 580/640
f 459/641 476/642 486/643
f 459/641 486/643 466/644
f 459/641 466/644 427/645
f 466/644 486/643 470/646
f 470/646 486/643 474/647
f 474/647 486/643 493/648
f 474/647 493/648 496/649
f 474/647 496/649 483/650
f 474/647 483/650 511/651
f 466/644 470/646 499/652
f 499/652 470/646 474/647
f 474/647 511/651 530/653
f 474/647 530/653 499/652
f 431/654 427/645 466/644
f 431/654 466/644 499/652
f 427/645 431/654 1/655
f 427/645 1/655 3/656
f 3/656 1/655 38/657
f 38/657 1/655 31/658
f 1/655 431/654 404/659
f 431/654 499/652 415/660
f 431/654 415/660 404/659
f 1/655 404/659 7/661
f 1/655 7/661 31/658
f 7/661 404/659 415/660
f 31/658 7/661 25/662
f 31/658 25/662 71/663
f 25/662 7/661 22/664
f 25/662 22/664 71/663
f 71/663 22/664 93/665
f 71/663 93/665 103/666
f 93/665 22/664 19/667
f 93/665 19/667 42/668
f 19/667 22/664 5/669
f 5/669 22/664 7/661
f 19/667 5/669 401/670
f 401/670 5/669 413/671
f 413/671 5/669 449/672
f 5/669 7/661 421/673
f 421/673 7/661 415/660
f 449/672 5/669 417/674
f 421/673 415/660 518/675
f 518/675 415/660 499/652
f 5/669 421/673 429/676
f 5/669 429/676 417/674
f 449/672 417/674 434/677
f 434/677 417/674 429/676
f 518/675 499/652 542/678
f 421/673 518/675 521/679
f 421/673 521/679 429/676
f 521/679 518/675 542/678
f 434/677 429/676 448/680
f 434/677 448/680 449/672
f 448/680 429/676 521/679
f 542/678 499/652 530/653
f 521/679 542/678 537/681
f 537/681 542/678 530/653
f 521/679 537/681 448/680
f 537/681 530/653 544/682
f 544/682 530/653 553/683
f 544/682 553/683 537/681
f 537/681 553/683 448/680
f 553/683 530/653 511/651
f 465/684 449/672 448/680
f 449/672 465/684 455/685
f 455/685 465/684 463/686
f 455/685 463/686 506/687
f 465/684 448/680 515/688
f 515/688 448/680 553/683
f 463/686 465/684 494/689
f 494/689 465/684 515/688
f 463/686 494/689 506/687
f 506/687 494/689 517/690
f 494/689 515/688 592/691
f 494/689 592/691 517/690
f 506/687 517/690 598/692
f 598/692 517/690 592/691
f 506/687 598/692 567/693
f 567/693 598/692 614/694
f 598/692 592/691 604/695
f 598/692 604/695 614/694
f 614/694 604/695 570/696
f 570/696 604/695 592/691
f 614/694 570/696 595/697
f 595/697 570/696 561/698
f 570/696 592/691 556/699
f 556/699 592/691 515/688
f 556/699 515/688 553/683
f 570/696 556/699 555/700
f 570/696 555/700 561/698
f 555/700 556/699 553/683
f 561/698 555/700 532/701
f 555/700 553/683 511/651
f 555/700 511/651 532/701
f 472/702 455/703 506/704
f 472/702 506/704 509/705
f 509/705 506/704 567/706
f 455/703 472/702 441/707
f 455/703 441/707 449/708
f 472/702 509/705 513/709
f 509/705 567/706 562/710
f 509/705 562/710 513/709
f 562/710 567/706 621/711
f 621/711 567/706 614/712
f 621/711 614/712 595/713
f 562/710 621/711 586/714
f 586/714 621/711 595/713
f 513/709 562/710 477/715
f 477/715 562/710 586/714
f 513/709 477/715 472/702
f 586/714 595/713 576/716
f 586/714 576/716 477/715
f 576/716 595/713 561/717
f 472/702 477/715 443/718
f 443/718 477/715 576/716
f 472/702 443/718 441/707
f 576/716 561/717 546/719
f 576/716 546/719 443/718
f 546/719 561/717 532/720
f 441/707 443/718 439/721
f 439/721 443/718 546/719
f 441/707 439/721 425/722
f 425/722 439/721 546/719
f 425/722 546/719 532/720
f 441/707 425/722 449/708
f 425/722 532/720 511/723
f 449/708 425/722 413/724
f 425/722 511/723 412/725
f 425/722 412/725 413/724
f 413/724 412/725 401/726
f 412/725 511/723 483/727
f 412/725 483/727 401/726
f 401/726 483/727 19/728
f 19/728 483/727 45/729
f 45/729 483/727 484/730
f 484/730 483/727 496/731
f 19/732 45/733 53/734
f 53/734 45/733 60/735
f 60/735 45/733 48/736
f 19/732 53/734 100/737
f 100/737 53/734 60/735
f 100/737 60/735 128/738
f 100/737 128/738 143/739
f 19/732 100/737 42/740
f 42/740 100/737 143/739
f 42/740 143/739 97/741
f 97/741 143/739 172/742
f 42/740 97/741 137/743
f 97/741 172/742 121/744
f 97/741 121/744 137/743
f 121/744 172/742 199/745
f 121/744 199/745 167/746
f 121/744 167/746 137/743
f 137/743 167/746 196/747
f 137/743 196/747 169/748
f 42/740 137/743 93/749
f 93/749 137/743 169/748
f 93/749 169/748 161/750
f 93/749 161/750 122/751
f 93/749 122/751 103/752
f 122/751 161/750 136/753
f 122/751 136/753 103/752
f 484/754 481/755 437/756
f 484/754 437/756 45/757
f 45/757 437/756 422/758
f 45/757 422/758 73/759
f 73/759 422/758 408/760
f 73/759 408/760 96/761
f 408/760 422/758 18/762
f 96/761 408/760 9/763
f 9/763 408/760 18/762
f 96/761 9/763 101/764
f 96/761 101/764 124/765
f 101/764 9/763 13/766
f 124/765 101/764 29/767
f 29/767 101/764 13/766
f 13/766 9/763 32/768
f 13/766 32/768 29/767
f 32/768 9/763 18/762
f 20/769 18/762 422/758
f 20/769 422/758 420/770
f 32/768 18/762 28/771
f 28/771 18/762 40/772
f 28/771 40/772 32/768
f 40/772 18/762 20/769
f 20/769 420/770 14/773
f 20/769 14/773 40/772
f 14/773 420/770 403/774
f 403/774 420/770 414/775
f 403/774 414/775 23/776
f 14/773 403/774 15/777
f 403/774 23/776 89/778
f 403/774 89/778 15/777
f 89/778 23/776 44/779
f 89/778 44/779 52/780
f 89/778 52/780 48/781
f 14/773 15/777 107/782
f 107/782 15/777 89/778
f 14/773 107/782 40/772
f 89/778 48/781 98/783
f 89/778 98/783 107/782
f 98/783 48/781 81/784
f 81/784 48/781 45/785
f 107/782 98/783 131/786
f 107/782 131/786 40/772
f 98/783 81/784 129/787
f 98/783 129/787 131/786
f 81/784 45/785 88/788
f 88/788 45/785 73/789
f 88/788 73/789 96/790
f 88/788 96/790 124/791
f 88/788 124/791 81/784
f 81/784 124/791 129/787
f 77/792 40/772 131/786
f 40/772 77/792 32/768
f 123/793 131/786 129/787
f 131/786 123/793 77/792
f 129/787 124/791 163/794
f 129/787 163/794 123/793
f 163/794 124/791 170/795
f 32/768 77/792 50/796
f 50/796 77/792 123/793
f 32/768 50/796 29/767
f 123/793 163/794 156/797
f 123/793 156/797 50/796
f 163/794 170/795 171/798
f 163/794 171/798 156/797
f 50/796 156/797 58/799
f 58/799 156/797 171/798
f 58/799 171/798 170/795
f 50/796 58/799 29/767
f 58/799 170/795 55/800
f 58/799 55/800 29/767
f 55/800 170/795 119/801
f 29/767 55/800 56/802
f 56/802 55/800 119/801
f 29/767 56/802 59/803
f 59/803 56/802 119/801
f 29/767 59/803 142/804
f 142/804 59/803 119/801
f 29/767 142/804 124/765
f 142/804 119/801 174/805
f 124/765 142/804 170/806
f 170/806 142/804 174/805
f 437/807 481/808 522/809
f 522/809 481/808 531/810
f 522/809 531/810 554/811
f 522/809 554/811 608/812
f 437/807 522/809 435/813
f 437/807 435/813 422/814
f 422/814 435/813 420/815
f 435/813 522/809 529/816
f 529/816 522/809 571/817
f 420/815 435/813 433/818
f 433/818 435/813 529/816
f 420/815 433/818 414/819
f 433/818 529/816 473/820
f 414/819 433/818 409/821
f 433/818 473/820 447/822
f 433/818 447/822 409/821
f 447/822 473/820 475/823
f 409/821 447/822 440/824
f 440/824 447/822 475/823
f 580/825 612/826 653/827
f 653/827 612/826 660/828
f 653/827 660/828 683/829
f 683/829 660/828 685/830
f 653/827 683/829 664/831
f 685/830 660/828 682/832
f 682/832 660/828 640/833
f 683/829 685/830 679/834
f 679/834 685/830 682/832
f 664/831 683/829 659/835
f 664/831 659/835 653/827
f 659/835 683/829 679/834
f 653/827 659/835 641/836
f 653/827 641/836 554/837
f 659/835 679/834 652/838
f 659/835 652/838 641/836
f 679/834 682/832 672/839
f 679/834 672/839 652/838
f 672/839 682/832 640/833
f 641/836 652/838 627/840
f 627/840 652/838 672/839
f 627/840 672/839 640/833
f 641/836 627/840 608/841
f 608/841 627/840 603/842
f 627/840 640/833 618/843
f 627/840 618/843 603/842
f 618/843 640/833 620/844
f 603/842 618/843 579/845
f 603/842 579/845 571/846
f 579/845 618/843 543/847
f 543/847 618/843 620/844
f 543/847 620/844 583/848
f 580/849 653/850 554/851
f 554/852 641/853 608/854
f 608/855 603/856 571/857
f 608/855 571/857 522/858
f 529/859 571/860 579/861
f 529/859 579/861 565/862
f 529/859 565/862 473/863
f 565/862 579/861 543/864
f 565/862 543/864 473/863
f 473/863 543/864 512/865
f 543/866 545/867 512/868
f 409/869 440/870 17/871
f 409/869 17/871 27/872
f 409/869 27/872 23/873
f 409/869 23/873 414/874
f 23/873 27/872 51/875
f 51/875 27/872 17/871
f 23/873 51/875 44/876
f 44/876 51/875 52/877
f 51/875 17/871 138/878
f 138/878 17/871 113/879
f 51/875 138/878 75/880
f 51/875 75/880 52/877
f 52/877 75/880 66/881
f 52/877 66/881 48/882
f 66/881 75/880 57/883
f 48/882 66/881 60/884
f 31/885 57/883 38/886
f 57/883 31/885 54/887
f 57/883 54/887 66/881
f 54/887 31/885 71/888
f 66/881 54/887 112/889
f 112/889 54/887 71/888
f 66/881 112/889 150/890
f 150/890 112/889 71/888
f 66/881 150/890 60/884
f 150/890 71/888 103/891
f 60/884 150/890 175/892
f 150/890 103/891 166/893
f 150/890 166/893 175/892
f 166/893 103/891 136/894
f 60/884 175/892 128/895
f 166/893 136/894 186/896
f 186/896 136/894 161/897
f 186/896 161/897 169/898
f 186/896 169/898 196/899
f 166/893 186/896 180/900
f 166/893 180/900 175/892
f 180/900 186/896 194/901
f 180/900 194/901 175/892
f 192/902 128/895 175/892
f 192/902 175/892 194/901
f 128/895 192/902 143/903
f 143/903 192/902 172/904
f 192/902 194/901 198/905
f 198/905 194/901 186/896
f 192/902 198/905 201/906
f 198/905 186/896 233/907
f 198/905 233/907 201/906
f 119/908 170/909 174/910
f 38/911 57/912 63/913
f 63/913 57/912 75/914
f 214/915 138/916 209/917
f 214/915 209/917 268/918
f 214/915 268/918 301/919
f 268/918 209/917 225/920
f 268/918 225/920 235/921
f 268/918 235/921 271/922
f 192/923 201/924 255/925
f 255/925 201/924 233/926
f 192/923 255/925 218/927
f 192/923 218/927 172/928
f 172/928 218/927 199/929
f 199/929 218/927 256/930
f 256/930 218/927 255/925
f 199/929 256/930 226/931
f 226/931 256/930 255/925
f 199/929 226/931 167/932
f 248/933 255/925 233/926
f 167/932 226/931 222/934
f 222/934 226/931 255/925
f 167/932 222/934 196/935
f 255/925 248/933 239/936
f 255/925 239/936 222/934
f 248/933 233/926 232/937
f 248/933 232/937 239/936
f 222/934 239/936 219/938
f 222/934 219/938 196/935
f 219/938 239/936 232/937
f 232/937 233/926 211/939
f 232/937 211/939 219/938
f 219/938 211/939 196/935
f 211/939 233/926 186/940
f 211/939 186/940 196/935
f 247/941 316/942 215/943
f 215/943 316/942 259/944
f 259/944 316/942 305/945
f 305/945 316/942 343/946
f 305/945 343/946 353/947
f 305/945 353/947 274/948
f 305/945 274/948 259/944
f 259/944 274/948 269/949
f 269/949 274/948 294/950
f 259/944 269/949 241/951
f 259/944 241/951 215/943
f 241/951 269/949 253/952
f 241/951 253/952 220/953
f 215/943 241/951 176/954
f 215/943 176/954 148/955
f 148/955 176/954 158/956
f 158/956 176/954 181/957
f 148/955 158/956 162/958
f 158/956 181/957 168/959
f 158/956 168/959 162/958
f 162/960 168/961 188/962
f 104/963 47/964 162/960
f 104/963 162/960 120/965
f 162/960 188/962 190/966
f 162/960 190/966 120/965
f 190/966 188/962 234/967
f 190/966 234/967 229/968
f 229/968 234/967 294/969
f 120/965 190/966 237/970
f 120/965 237/970 203/971
f 120/965 203/971 178/972
f 120/965 178/972 116/973
f 116/973 178/972 117/974
f 117/974 178/972 204/975
f 117/974 204/975 141/976
f 117/974 141/976 26/977
f 116/973 117/974 83/978
f 83/978 117/974 26/977
f 116/973 83/978 87/979
f 87/979 83/978 26/977
f 366/980 379/981 390/982
f 390/982 379/981 378/983
f 390/982 378/983 386/984
f 390/982 386/984 394/985
f 394/985 386/984 378/983
f 394/985 378/983 365/986
f 390/982 394/985 398/987
f 394/985 365/986 371/988
f 398/987 394/985 395/989
f 395/989 394/985 371/988
f 398/987 395/989 399/990
f 395/989 371/988 392/991
f 395/989 392/991 399/990
f 392/991 371/988 389/992
f 399/990 392/991 400/993
f 389/992 371/988 369/994
f 399/990 400/993 397/995
f 400/993 392/991 396/996
f 396/996 392/991 389/992
f 400/993 396/996 397/995
f 399/990 397/995 387/997
f 389/992 369/994 380/998
f 396/996 389/992 388/999
f 388/999 389/992 380/998
f 396/996 388/999 397/995
f 387/997 397/995 393/1000
f 393/1000 397/995 388/999
f 387/997 393/1000 385/1001
f 388/999 380/998 381/1002
f 388/999 381/1002 393/1000
f 381/1002 380/998 369/994
f 393/1000 381/1002 385/1001
f 385/1001 381/1002 391/1003
f 391/1003 381/1002 384/1004
f 384/1004 381/1002 369/994
f 384/1004 369/994 354/1005
f 384/1004 354/1005 375/1006
f 375/1006 354/1005 339/1007
f 375/1006 339/1007 352/1008
f 352/1008 339/1007 330/1009
f 390/1010 398/1011 325/1012
f 390/1010 325/1012 366/1013
f 325/1012 398/1011 376/1014
f 376/1014 398/1011 399/1015
f 376/1014 399/1015 387/1016
f 376/1014 387/1016 361/1017
f 361/1017 387/1016 347/1018
f 376/1014 361/1017 332/1019
f 376/1014 332/1019 325/1012
f 332/1019 361/1017 347/1018
f 347/1018 387/1016 385/1020
f 325/1012 332/1019 307/1021
f 307/1021 332/1019 347/1018
f 266/1022 366/1013 325/1012
f 266/1022 325/1012 307/1021
f 366/1013 266/1022 294/1023
f 294/1023 266/1022 229/1024
f 229/1024 266/1022 190/1025
f 190/1025 266/1022 237/1026
f 307/1021 347/1018 323/1027
f 307/1021 323/1027 266/1022
f 383/1028 347/1018 385/1020
f 347/1018 383/1028 323/1027
f 383/1028 385/1020 391/1029
f 266/1022 323/1027 273/1030
f 266/1022 273/1030 237/1026
f 273/1030 323/1027 283/1031
f 283/1031 323/1027 383/1028
f 237/1026 273/1030 245/1032
f 273/1030 283/1031 275/1033
f 273/1030 275/1033 245/1032
f 237/1026 245/1032 251/1034
f 245/1032 275/1033 260/1035
f 245/1032 260/1035 251/1034
f 251/1034 260/1035 275/1033
f 237/1026 251/1034 203/1036
f 275/1033 283/1031 277/1037
f 275/1033 277/1037 251/1034
f 277/1037 283/1031 383/1028
f 251/1034 277/1037 276/1038
f 251/1034 276/1038 203/1036
f 276/1038 277/1037 383/1028
f 231/1039 178/1040 203/1036
f 231/1039 203/1036 276/1038
f 231/1039 276/1038 272/1041
f 272/1041 276/1038 298/1042
f 298/1042 276/1038 320/1043
f 298/1042 320/1043 300/1044
f 276/1038 383/1028 357/1045
f 276/1038 357/1045 320/1043
f 300/1044 320/1043 310/1046
f 300/1044 310/1046 311/1047
f 311/1047 310/1046 335/1048
f 310/1046 320/1043 336/1049
f 310/1046 336/1049 335/1048
f 320/1043 357/1045 358/1050
f 320/1043 358/1050 336/1049
f 374/1051 357/1045 383/1028
f 357/1045 374/1051 358/1050
f 374/1051 383/1028 391/1029
f 335/1048 336/1049 334/1052
f 334/1052 336/1049 358/1050
f 335/1048 334/1052 326/1053
f 326/1053 334/1052 330/1054
f 330/1054 334/1052 356/1055
f 356/1055 334/1052 358/1050
f 330/1054 356/1055 352/1056
f 356/1055 358/1050 367/1057
f 356/1055 367/1057 352/1056
f 367/1057 358/1050 374/1051
f 352/1056 367/1057 375/1058
f 367/1057 374/1051 377/1059
f 367/1057 377/1059 375/1058
f 377/1059 374/1051 391/1029
f 375/1058 377/1059 384/1060
f 384/1060 377/1059 391/1029
f 244/1061 178/1062 231/1063
f 244/1061 231/1063 272/1064
f 178/1062 244/1061 258/1065
f 244/1061 272/1064 295/1066
f 295/1066 272/1064 298/1067
f 295/1066 298/1067 300/1068
f 244/1061 295/1066 304/1069
f 244/1061 304/1069 258/1065
f 295/1066 300/1068 318/1070
f 295/1066 318/1070 304/1069
f 318/1070 300/1068 311/1071
f 318/1070 311/1071 335/1072
f 318/1070 335/1072 355/1073
f 318/1070 355/1073 346/1074
f 318/1070 346/1074 304/1069
f 304/1069 346/1074 258/1065
f 258/1065 346/1074 309/1075
f 204/1076 178/1062 258/1065
f 204/1076 258/1065 309/1075
f 204/1076 309/1075 262/1077
f 204/1076 262/1077 200/1078
f 200/1078 262/1077 257/1079
f 204/1076 200/1078 157/1080
f 200/1078 257/1079 238/1081
f 200/1078 238/1081 157/1080
f 331/1082 309/1083 346/1084
f 331/1082 346/1084 355/1085
f 309/1083 331/1082 296/1086
f 309/1083 296/1086 262/1087
f 331/1082 355/1085 350/1088
f 262/1087 296/1086 257/1089
f 350/1088 355/1085 348/1090
f 348/1090 355/1085 335/1091
f 348/1090 335/1091 326/1092
f 348/1090 326/1092 271/1093
f 350/1088 348/1090 327/1094
f 350/1088 327/1094 331/1082
f 348/1090 271/1093 290/1095
f 348/1090 290/1095 327/1094
f 331/1082 327/1094 302/1096
f 302/1096 327/1094 290/1095
f 331/1082 302/1096 299/1097
f 299/1097 302/1096 290/1095
f 331/1082 299/1097 296/1086
f 299/1097 290/1095 284/1098
f 299/1097 284/1098 296/1086
f 279/1099 290/1095 271/1093
f 290/1095 279/1099 284/1098
f 279/1099 271/1093 287/1100
f 287/1100 271/1093 235/1101
f 284/1098 279/1099 280/1102
f 284/1098 280/1102 296/1086
f 280/1102 279/1099 287/1100
f 296/1086 280/1102 257/1089
f 257/1089 280/1102 263/1103
f 263/1103 280/1102 288/1104
f 263/1103 288/1104 257/1089
f 288/1104 280/1102 287/1100
f 257/1089 288/1104 238/1105
f 288/1104 287/1100 289/1106
f 289/1106 287/1100 286/1107
f 289/1106 286/1107 261/1108
f 286/1107 287/1100 240/1109
