o tripo_part_3
v -0.01006 0.10954 0.05527
v -0.00973 0.02484 -0.0629
v -0.00888 0.17288 -0.05359
v -0.00858 0.17315 0.05798
v -0.00746 0.17304 0.04753
v -0.00672 0.17264 -0.06641
v -0.00653 0.11115 0.03071
v -0.00628 0.16985 -0.07043
v -0.00597 0.17056 0.0636
v -0.00554 0.0243 0.04462
v -0.0034 0.02608 0.04341
v -0.00335 0.15917 0.06326
v -0.0005 0.03461 -0.05441
v 0.00037 0.11087 -0.04837
v 0.00037 0.02426 -0.05244
v 0.0052 0.08136 -0.01212
v 0.00596 0.11032 -0.0055
v 0.00654 0.16987 -0.04732
v 0.00827 0.16051 -0.04792
v 0.00917 0.08159 -0.05838
v 0.01036 0.15889 -0.06841
v 0.01092 0.09664 -0.05989
v 0.01159 0.17349 -0.05048
v 0.01563 0.10755 -0.06395
v 0.01577 0.17309 -0.06108
v 0.01746 0.03418 -0.05938
v 0.01763 0.11058 -0.02157
v 0.01819 0.17079 0.04433
v 0.01965 0.1758 0.06608
v 0.02106 0.03385 -0.04903
v 0.02296 0.08238 0.06294
v 0.02335 0.11 0.03518
v 0.02343 0.08158 0.05837
v 0.0239 0.09544 0.0591
v 0.02415 0.17622 0.06282
v 0.02431 0.09649 0.06509
v 0.02473 0.10967 0.06644
v 0.02506 0.00393 0.06661
v 0.02584 0.09404 0.06741
v 0.02619 0.04834 0.06535
v 0.02632 0.1757 0.05033
v 0.02657 0.08105 0.06641
v 0.02671 0.13956 0.06548
v 0.02671 0.11019 0.01469
v 0.02685 0.03454 0.05825
v 0.02692 0.02382 0.05829
v 0.0272 0.1083 0.07069
v 0.02732 0.16258 0.07005
v 0.02807 0.14296 0.05529
v 0.02837 0.17122 -0.06745
v 0.02845 0.00403 0.04889
v 0.02859 0.10977 -0.05936
v 0.02871 0.03483 0.04975
v 0.02874 0.10984 0.04994
v 0.02905 0.08138 0.04963
v 0.02914 0.02413 0.04855
v 0.02922 0.06399 0.04981
v 0.03054 0.08071 0.04849
v 0.03095 0.05011 0.0484
v 0.03127 0.11058 0.03305
v 0.03128 0.16167 0.04767
v 0.03277 0.11017 -0.02069
v 0.03295 0.14396 0.05256
v 0.03302 0.17361 0.04789
v 0.0333 0.15957 -0.06612
v 0.03339 0.01635 0.0674
v 0.0335 0.17633 0.05534
v 0.03354 0.16191 0.04864
v 0.03408 0.08143 0.01682
v 0.03468 0.165 0.04728
v 0.0363 0.17239 0.07316
v 0.03712 0.01639 0.05019
v 0.03789 0.14383 0.06786
v 0.03898 0.10591 0.07244
v 0.03904 0.14477 0.0537
v 0.03939 0.00314 0.06923
v 0.04227 0.1332 0.06831
v 0.04314 0.04354 0.06792
v 0.04335 0.14757 0.06683
v 0.04385 0.083 0.0704
v 0.04402 0.13735 0.05842
v 0.04431 0.08 0.06821
v 0.04561 0.04961 0.0587
v 0.04589 0.04275 0.05206
v 0.04618 0.0052 0.06643
v 0.04641 0.08136 0.05141
v 0.04658 0.01757 0.05923
v 0.04715 0.16216 0.07507
v 0.04765 0.07969 0.05613
v 0.04796 0.0939 0.07145
v 0.04797 0.09463 0.04884
v 0.0481 0.08321 0.04765
v 0.04822 0.15381 0.05663
v 0.04838 0.00323 0.05279
v 0.04959 0.08125 -0.05357
v 0.05002 0.03359 -0.04422
v 0.05048 0.0004 -0.04315
v 0.05058 0.09597 -0.05389
v 0.05076 0.02348 -0.04435
v 0.05089 0.15789 0.07162
v 0.05105 0.09625 0.0338
v 0.0512 0.09593 -0.05725
v 0.05135 0.08249 0.06091
v 0.05141 0.09544 0.06947
v 0.05154 0.03603 -0.04225
v 0.0516 0.10942 0.05409
v 0.05165 0.02407 -0.05436
v 0.05195 0.10675 0.0733
v 0.05196 0.10955 -0.04377
v 0.0523 0.08091 -0.04206
v 0.05238 0.09632 0.05368
v 0.05239 0.02286 -0.05209
v 0.05277 0.1387 -0.04866
v 0.05277 0.11011 -0.05399
v 0.05292 0.09963 -0.06044
v 0.05294 0.03445 -0.05397
v 0.0531 0.10767 -0.06055
v 0.05317 1E-05 -0.06128
v 0.05345 0.0815 -0.06089
v 0.05361 0.17462 0.05394
v 0.05365 0.13904 -0.05642
v 0.05384 0.16128 -0.04388
v 0.05392 0 -0.04179
v 0.05411 0.08134 0.01184
v 0.05416 0.11054 0.03643
v 0.05438 0.09423 -0.06051
v 0.05461 0.15846 0.05602
v 0.05466 0.04514 -0.05957
v 0.05486 0.10507 0.06375
v 0.05508 0.07983 -0.05944
v 0.05509 0.16278 0.05294
v 0.05522 0.17593 -0.04251
v 0.05539 0.14199 -0.04523
v 0.05541 0.10568 0.05757
v 0.05612 0.09782 0.03696
v 0.05614 0.10882 -0.06379
v 0.05656 0.10804 0.037039999999999997
v 0.0567 0.16096 -0.06325
v 0.05715 0.1105 0.01529
v 0.0573 0.09937 0.03152
v 0.05763 0.15523 0.07635
v 0.0584 0.13736 -0.05857
v 0.05843 0.16306 -0.04063
v 0.05849 0.0828 -0.0016
v 0.06027 0.17386 0.0743
v 0.06062 0.10763 0.01609
v 0.06087 0.1541 0.05753
v 0.06126 0.09614 0.00567
v 0.06144 0.01205 -0.04062
v 0.06158 0.16935 0.0781
v 0.06194 0.11471 -0.06245
v 0.06227 0.10986 -0.00318
v 0.06281 0.09853 -0.06123
v 0.06377 0.01414 -0.05908
v 0.06389 0.15437 0.06982
v 0.06438 0.08104 -0.03775
v 0.06486 0.17149 0.05604
v 0.06501 0.15919 0.07701
v 0.06505 0.13788 -0.04362
v 0.06565 0.15388 0.06005
v 0.06618 0.08232 -0.0365
v 0.06619 0.17268 0.06333
v 0.06648 0.09453 -0.03686
v 0.06676 0.14492 -0.05761
v 0.06682 0.10895 -0.02603
v 0.06704 0.01899 -0.03959
v 0.06715 0.09869 -0.00917
v 0.06731 0.16035 0.05534
v 0.06755 0.16713 0.0722
v 0.0678 0.16061 0.06591
v 0.06787 0.1514 -0.04277
v 0.0683 0.07992 -0.03967
v 0.06853 0.1058 -0.0153
v 0.06902 0.13782 -0.04733
v 0.06927 0.14795 -0.04555
v 0.06982 0.13788 -0.05402
v 0.07008 0.02767 -0.05774
v 0.07008 0.10968 -0.04056
v 0.07035 0.04587 -0.04355
v 0.0704 0.17117 -0.06354
v 0.0707 0.08016 -0.04062
v 0.07137 0.01614 -0.04479
v 0.07162 6E-05 -0.03892
v 0.07167 0.09529 -0.03709
v 0.07204 0.15098 -0.05418
v 0.07207 0.03429 -0.05501
v 0.07214 0.10849 -0.06126
v 0.07272 0.17706 -0.05484
v 0.07273 0.17732 -0.04427
v 0.07273 0.07965 -0.05705
v 0.0734 0.12207 -0.05876
v 0.07439 0.0821 -0.03887
v 0.07443 3E-05 -0.05787
v 0.07461 0.17629 -0.06026
v 0.07486 0.09415 -0.05807
v 0.07523 0.09325 -0.03876
v 0.07535 0.10211 -0.038
v 0.07597 0.08172 -0.0576
v 0.07783 0.09385 -0.05759
v 0.07822 0.16034 -0.03928
v 0.07864 0.1637 -0.06174
v 0.07986 0.15854 -0.05732
v 0.07993 0.09454 -0.0525
v 0.08035 0.10587 -0.04234
v 0.08213 0.10498 -0.04962
v 0.08286 0.10478 -0.05845
v 0.08794 0.15584 -0.05988
v 0.08795 0.15635 -0.03821
v 0.08919 0.16954 -0.03706
v 0.08936 0.15349 -0.04538
v 0.09323 0.17321 -0.05348
v 0.09379 0.17248 -0.04236
v 0.09462 0.16674 -0.06067
v 0.09482 0.16306 -0.03968
v 0.09721 0.16146 -0.05678
v -0.01202 0.10665 0.05861
v -0.01297 0.11009 0.03218
v -0.01412 0.15899 0.04182
v -0.01466 0.095 0.05154
v -0.01487 0.09648 0.05686
v -0.01517 0.17123 0.03981
v -0.0166 0.0341 0.04229
v -0.01838 0.11078 -0.02881
v -0.01956 0.16392 0.03804
v -0.02035 0.11065 0.0084
v -0.02084 0.08113 -0.03657
v -0.02749 0.10886 -0.06678
v -0.0276 0.09966 -0.06629
v -0.02804 0.11114 -0.06438
v -0.0283 0.17292 0.04654
v -0.02837 0.0816 0.04807
v -0.02879 0.17286 0.05552
v -0.0288 0.15906 0.05867
v -0.02891 0.111 -0.06852
v -0.02895 0.0811 -0.06416
v -0.02906 0.09648 -0.06417
v -0.0292 0.17028 0.05901
v -0.02946 0.07134 -0.06529
v -0.02996 0.1106 0.05198
v -0.02999 0.07873 -0.06824
v -0.03143 0.1382 -0.06462
v -0.03163 0.08088 -0.05231
v -0.03166 0.09577 -0.06863
v -0.03197 0.07067 -0.05278
v -0.03205 0.03475 0.04866
v -0.03227 0.02458 0.0488
v -0.03242 0.11108 -0.05306
v -0.03396 0.14439 -0.05561
v -0.03448 0.0442 -0.06834
v -0.03464 0.03479 -0.06696
v -0.03532 0.159 -0.07162
v -0.03561 0.14219 -0.07094
v -0.03567 0.02441 -0.06789
v -0.03617 0.03323 -0.05796
v -0.03627 0.00648 -0.0692
v -0.03657 0.03791 -0.07098
v -0.03714 0.03466 -0.05806
v -0.0374 0.02372 -0.05837
v -0.03807 0.15926 -0.05567
v -0.03808 0.08143 0.02921
v -0.03853 0.16757 -0.07486
v -0.03857 0.17318 -0.0698
v -0.03914 0.00485 -0.05686
v -0.03929 0.00446 -0.07381
v -0.03976 0.04073 -0.05494
v -0.04017 0.02352 -0.05547
v -0.04021 0.17215 -0.07281
v -0.04039 0.01309 -0.05528
v -0.04061 0.17328 -0.0574
v -0.04077 0.16046 -0.05448
v -0.04175 0.16986 -0.05479
v -0.04217 0.12809 -0.05407
v -0.04268 0.09097 -0.07009
v -0.04271 0.137 -0.05444
v -0.04318 0.18875 -0.07345
v -0.04499 0.14443 -0.05479
v -0.04535 0.09635 -0.07121
v -0.04642 0.08088 -0.05436
v -0.04663 0.06086 -0.07146
v -0.04666 0.14404 -0.04772
v -0.04672 0.01445 -0.07389
v -0.04738 0.23089 -0.07268
v -0.04743 0.09693 -0.05362
v -0.04763 0.01347 -0.01609
v -0.04777 0.02332 -0.01552
v -0.04817 0.23006 -0.06659
v -0.04836 0.22292 -0.05858
v -0.0485 0.14468 -0.04041
v -0.0486 0.01913 -0.00949
v -0.04866 0.23959 -0.07271
v -0.04922 0.00476 -0.00655
v -0.04941 0.12692 -0.05457
v -0.04969 0.14436 -0.07324
v -0.04977 0.07952 -0.0685
v -0.04982 0.02284 -0.05706
v -0.04985 0.12872 -0.02021
v -0.04986 0.1419 -0.02646
v -0.05 0.14406 -0.03334
v -0.05 0.0918 -0.06818
v -0.05001 0.0129 -0.05722
v -0.0504 0.23754 -0.07602
v -0.05049 0.10542 -0.05522
v -0.05053 0.20828 -0.05721
v -0.05066 0.04554 -0.05651
v -0.0507 0.02344 0.00111
v -0.05078 0.08224 -0.06235
v -0.05109 0.01376 0.00311
v -0.05111 0.2393 -0.05941
v -0.0514 0.09669 -0.03264
v -0.05144 0.07966 -0.05656
v -0.05159 0.17063999999999999 -0.04106
v -0.05209 0.1347 -0.07108
v -0.05222 0.10803 -0.05757
v -0.05231 0.12828 -0.05587
v -0.05231 0.08132 0.03194
v -0.05233 0.14419 -0.02552
v -0.05258 0.11036 0.02914
v -0.0529 0.14319 -0.05611
v -0.05343 0.04308 -0.06028
v -0.0536 0.097 0.04692
v -0.05372 0.14451 -0.02041
v -0.05402 0.0063 -0.07568
v -0.05405 0.02171 -0.07256
v -0.05416 0.17654 -0.03376
v -0.05417 0.14038 -0.05672
v -0.05427 0.0951 0.04379
v -0.0543 0.08146 0.04332
v -0.05438 0.11077 -0.03367
v -0.05441 0.13953 0.03346
v -0.05455 0.09995 -0.03336
v -0.05455 0.14303 -0.04918
v -0.05476 0.23128 -0.05817
v -0.05482 0.14125 -0.05904
v -0.05517 0.20766 -0.04798
v -0.05523 0.08123 -0.01045
v -0.05537 0.13871 0.03666
v -0.05542 0.10909 -0.0339
v -0.05551 0.07364 0.04523
v -0.05554 0.10969 0.04746
v -0.056 0.14516 -0.01046
v -0.05633 0.12621 0.04615
v -0.05643 0.05632 0.03356
v -0.05653 0.21111 -0.03362
v -0.05666 0.12806 0.0073
v -0.05671 0.20757 -0.04126
v -0.05677 0.17156 -0.04956
v -0.05681 0.09717 0.04709
v -0.05687 0.09639 -0.00677
v -0.05705 0.17666 -0.07298
v -0.05707 0.17898 -0.02103
v -0.0572 0.0135 -0.01869
v -0.0573 0.00561 -0.0688
v -0.05743 0.14126 0.04272
v -0.05754 0.14314 -0.03837
v -0.05754 0.02401 0.03619
v -0.05757 0.23277 -0.04628
v -0.0577 0.14565 -0.0353
v -0.05772 0.02225 -0.01598
v -0.0581 0.11069 -0.01514
v -0.05813 0.00585 -0.05904
v -0.05816 0.03446 0.03516
v -0.05826 0.14399 -0.0026
v -0.0584 0.19393 -0.07295
v -0.0584 0.01387 0.04003
v -0.05843 0.20904 -0.03446
v -0.05867 0.20637 -0.07607
v -0.0588 0.14404 0.00655
v -0.05887 0.02598 0.03505
v -0.05905 0.17886 -0.01392
v -0.05918 0.03641 0.03329
v -0.05924 0.16946 -0.04403
v -0.0593 0.14044 -0.03405
v -0.05939 0.02403 0.04392
v -0.0594 0.14333 -0.02776
v -0.05949 0.04858 0.03113
v -0.05969 0.12675 -0.02117
v -0.05989 0.01996 -0.00504
v -0.05989 0.00548 -0.00774
v -0.05996 0.14423 0.01064
v -0.06038 0.17724 -0.00865
v -0.06042 0.24038 -0.03742
v -0.06052 0.16668 0.03124
v -0.0606 0.19225 -0.05967
v -0.06066 0.12948 0.02887
v -0.0609 0.02361 -0.00041
v -0.06091 0.02436 0.03205
v -0.06109 0.21916 -0.0181
v -0.06127 0.0137 0.00184
v -0.06135 0.13564 0.02748
v -0.06136 0.11057 0.00115
v -0.06145 0.00563 0.03403
v -0.06149 0.14488 0.01283
v -0.0615 0.09956 0.0001
v -0.06152 0.20879 -0.0269
v -0.06154 0.207 -0.04996
v -0.06163 0.0351 0.04469
v -0.06177 0.17312 0.03432
v -0.06182 0.02555 0.04444
v -0.06193 0.14317 -0.02051
v -0.06203 0.01342 0.04328
v -0.06212 0.17894 -0.02767
v -0.06221 0.15874 0.04798
v -0.06236 0.13572 0.04718
v -0.06242 0.20907 -0.01517
v -0.06285 0.12741 0.02849
v -0.06302 0.14424 0.01991
v -0.06313 0.10894 0.00187
v -0.06335 0.14383 0.02883
v -0.0637 0.21204 -0.06607
v -0.06385 0.20684 -0.04734
v -0.06394 0.23689 -0.0781
v -0.06403 0.09401 0.04563
v -0.06407 0.17206 -0.02456
v -0.06419 0.22364 -0.00755
v -0.06421 0.04259 0.04691
v -0.06444 0.006 0.04902
v -0.06449 0.08151 0.02873
v -0.06449 0.18307 0.00567
v -0.06456 0.09651 0.02796
v -0.06463 0.17316 0.04634
v -0.06498 0.21117 0.00511
v -0.06562 0.14261 -0.00476
v -0.06581 0.17923 0.01298
v -0.06613 0.20312 0.03204
v -0.06618 0.12672 0.00573
v -0.06623 0.20779 -0.03619
v -0.06638 0.2085 -0.00308
v -0.06641 0.23965 -0.07597
v -0.06677 0.24429 -0.02067
v -0.06686 0.01358 0.03044
v -0.06706 0.17525 0.02006
v -0.06716 0.02384 0.03075
v -0.06723 0.14347 0.00416
v -0.06734 0.22978 -0.06105
v -0.06741 0.20895 0.00641
v -0.06792 0.20375 0.01104
v -0.06797 0.20779 -0.02719
v -0.06805 0.09956 0.02723
v -0.0684 0.23576 -0.07633
v -0.06848 0.16607 0.04936
v -0.06862 0.11056 0.02738
v -0.06889 0.14071 0.00661
v -0.06913 0.14402 0.01067
v -0.06915 0.14352 0.01915
v -0.06927 0.16925 0.04719
v -0.06984 0.17701 -0.00463
v -0.0699 0.20834 0.02914
v -0.06994 0.20774 0.01741
v -0.0701 0.20886 -0.0326
v -0.07011 0.23153 -0.04956
v -0.07038 0.06765 0.0283
v -0.07047 0.14269 0.01701
v -0.07051 0.23541 0.03068
v -0.07076 0.23883 -0.06373
v -0.07122 0.23335 0.01638
v -0.07124 0.20068 0.04727
v -0.0716 0.12753 0.02728
v -0.07186 0.01367 0.03044
v -0.07195 0.23084 0.04142
v -0.072 0.0801 0.02802
v -0.07247 0.23976 0.03317
v -0.07324 0.09771 0.04446
v -0.07338 0.0796 0.04428
v -0.07344 0.23019 0.02882
v -0.07358 0.1773 0.01888
v -0.07366 0.20776 -0.00538
v -0.07367 0.23741 0.04573
v -0.07386 0.12091 0.02863
v -0.07394 0.14254 0.02711
v -0.07419 0.09486 0.03569
v -0.07428 0.01688 0.04685
v -0.07482 0.20441 0.00377
v -0.07497 0.07972 0.04137
v -0.07531 0.22054 -0.01574
v -0.07541 0.20781 0.00357
v -0.07548 0.13547 0.04499
v -0.0757 0.0473 0.03158
v -0.07576 0.11272 0.0408
v -0.07646 0.24284 -0.02549
v -0.07698 0.2062 0.01078
v -0.07716 0.20972 -7E-05
v -0.07746 0.23982 0.04489
v -0.07769 0.04534 0.04471
v -0.07808 0.17271 0.02705
v -0.07813 0.23708 0.04771
v -0.07895 0.20674 0.01856
v -0.07952 0.00837 0.02927
v -0.08133 0.23682 0.0092
v -0.08146 0.17746 0.02941
v -0.08218 0.00675 0.03107
v -0.08274 0.20676 0.02664
v -0.08373 0.2305 0.01385
v -0.08385 0.18115 0.04376
v -0.0843 0.00636 0.04328
v -0.0844 0.01022 0.04503
v -0.08622 0.22924 0.0267
v -0.09293 0.21963 0.04023
v -0.09351 0.23536 0.02712
v -0.09391 0.23974 0.03201
v -0.09519 0.23715 0.04461
v -0.09721 0.23597 0.04205
vt 0.841862 0.08239
vt 0.844457 0.077553
vt 0.847229 0.081269
vt 0.838618 0.079146
vt 0.837792 0.085339
vt 0.834371 0.083039
vt 0.834607 0.075725
vt 0.82983 0.079972
vt 0.830892 0.074545
vt 0.831422 0.068411
vt 0.838323 0.061157
vt 0.841744 0.074958
vt 0.845991 0.060803
vt 0.847642 0.04358
vt 0.849058 0.070535
vt 0.851299 0.076964
vt 0.848704 0.060508
vt 0.857315 0.071891
vt 0.859379 0.082331
vt 0.854189 0.048358
vt 0.85702 0.082567
vt 0.85183 0.04647
vt 0.855664 0.036856
vt 0.85242 0.081269
vt 0.855959 0.086931
vt 0.85183 0.086931
vt 0.853776 0.086872
vt 0.852656 0.0355
vt 0.847878 0.038685
vt 0.855487 0.018867
vt 0.859379 0.020106
vt 0.219226 0.012419
vt 0.215333 0.012183
vt 0.217692 0.008644
vt 0.217751 0.003984
vt 0.221054 0.006698
vt 0.215333 0.003218
vt 0.220818 0.001743
vt 0.308989 0.618455
vt 0.305501 0.618122
vt 0.305386 0.615706
vt 0.306651 0.614261
vt 0.311672 0.617096
vt 0.303297 0.614633
vt 0.31065 0.613697
vt 0.299162 0.611837
vt 0.30197 0.605696
vt 0.297191 0.610821
vt 0.294338 0.609883
vt 0.306643 0.603642
vt 0.30247 0.604328
vt 0.308335 0.60024
vt 0.311711 0.603407
vt 0.30838 0.586788
vt 0.305563 0.58231
vt 0.304779 0.596959
vt 0.299791 0.603268
vt 0.302018 0.5795
vt 0.305113 0.560137
vt 0.307939 0.559895
vt 0.298945 0.581872
vt 0.28775 0.603014
vt 0.288154 0.612916
vt 0.282757 0.611683
vt 0.289738 0.589399
vt 0.284182 0.588937
vt 0.282409 0.606794
vt 0.284589 0.578426
vt 0.282409 0.578535
vt 0.284029 0.561742
vt 0.287408 0.559895
vt 0.289943 0.577772
vt 0.291689 0.561331
vt 0.29191 0.552948
vt 0.287445 0.551222
vt 0.296 0.535804
vt 0.304501 0.54375
vt 0.290594 0.54702
vt 0.290819 0.538873
vt 0.289964 0.527329
vt 0.294548 0.549643
vt 0.296004 0.548842
vt 0.849445 0.189784
vt 0.848442 0.195977
vt 0.846201 0.195918
vt 0.845316 0.191495
vt 0.844431 0.201404
vt 0.847734 0.199516
vt 0.839064 0.213436
vt 0.848206 0.206476
vt 0.835643 0.2109
vt 0.839831 0.216149
vt 0.832281 0.218744
vt 0.824436 0.220926
vt 0.822844 0.219216
vt 0.833873 0.220278
vt 0.843782 0.236438
vt 0.846201 0.235613
vt 0.848029 0.244755
vt 0.849445 0.258792
vt 0.842957 0.25832
vt 0.831337 0.222932
vt 0.823965 0.223286
vt 0.838592 0.239387
vt 0.835584 0.240744
vt 0.83004 0.249355
vt 0.841364 0.259559
vt 0.843134 0.259854
vt 0.833755 0.262036
vt 0.925736 0.873243
vt 0.927683 0.874836
vt 0.916122 0.885334
vt 0.925795 0.888047
vt 0.923613 0.872712
vt 0.913822 0.876428
vt 0.920487 0.869291
vt 0.923849 0.896482
vt 0.910637 0.894712
vt 0.894299 0.884273
vt 0.893651 0.895302
vt 0.886042 0.885924
vt 0.876192 0.897602
vt 0.912702 0.897249
vt 0.896069 0.896718
vt 0.888873 0.911581
vt 0.910932 0.905329
vt 0.925382 0.905683
vt 0.927211 0.913999
vt 0.902439 0.915297
vt 0.876959 0.927683
vt 0.907806 0.924321
vt 0.898959 0.927683
vt 0.777796 0.332859
vt 0.771897 0.336103
vt 0.7752 0.332859
vt 0.775849 0.330559
vt 0.778444 0.318822
vt 0.77119 0.346248
vt 0.785522 0.328554
vt 0.783045 0.346897
vt 0.784578 0.361642
vt 0.776616 0.362468
vt 0.772487 0.356806
vt 0.775672 0.362645
vt 0.780981 0.363647
vt 0.786879 0.355567
vt 0.785817 0.368838
vt 0.789356 0.362645
vt 0.794605 0.350436
vt 0.79201 0.368543
vt 0.796257 0.360993
vt 0.7972 0.35598
vt 0.797672 0.348666
vt 0.798262 0.344184
vt 0.796375 0.330382
vt 0.798085 0.332092
vt 0.805753 0.341411
vt 0.804986 0.333154
vt 0.809704 0.345599
vt 0.795608 0.301776
vt 0.790653 0.313277
vt 0.789415 0.305787
vt 0.788235 0.30679
vt 0.781688 0.305197
vt 0.787763 0.301835
vt 0.779388 0.303192
vt 0.781865 0.303369
vt 0.781511 0.297058
vt 0.780509 0.294816
vt 0.777914 0.298532
vt 0.77119 0.286559
vt 0.016993 0.259176
vt 0.022655 0.273213
vt 0.016993 0.273036
vt 0.024543 0.243782
vt 0.024838 0.260532
vt 0.172906 0.960021
vt 0.171255 0.943093
vt 0.172316 0.940675
vt 0.175855 0.964267
vt 0.17845 0.948401
vt 0.181812 0.965978
vt 0.191249 0.9786
vt 0.176386 0.969576
vt 0.173378 0.968042
vt 0.168482 0.9786
vt 0.172611 0.97282
vt 0.487786 0.523666
vt 0.493094 0.515527
vt 0.487963 0.526556
vt 0.49044 0.515114
vt 0.490971 0.508331
vt 0.496751 0.508567
vt 0.487786 0.500958
vt 0.563888 0.368602
vt 0.559936 0.367481
vt 0.562708 0.361052
vt 0.566365 0.363058
vt 0.567604 0.359814
vt 0.56436 0.346189
vt 0.570022 0.343889
vt 0.5597 0.340527
vt 0.56206 0.332682
vt 0.555984 0.334688
vt 0.553684 0.352559
vt 0.548553 0.368838
vt 0.546842 0.357159
vt 0.550971 0.348076
vt 0.546842 0.341647
vt 0.96256 0.160884
vt 0.973177 0.160766
vt 0.964625 0.17268
vt 0.97418 0.166782
vt 0.969166 0.180053
vt 0.96256 0.186717
vt 0.972469 0.194975
vt 0.979842 0.183886
vt 0.978249 0.168492
vt 0.866791 0.663569
vt 0.862722 0.659263
vt 0.870743 0.658732
vt 0.866025 0.654958
vt 0.874518 0.676309
vt 0.865789 0.651891
vt 0.86396 0.645167
vt 0.869092 0.644223
vt 0.875344 0.649296
vt 0.872748 0.642985
vt 0.877526 0.648824
vt 0.872395 0.654781
vt 0.876641 0.651124
vt 0.885901 0.65655
vt 0.896636 0.652186
vt 0.87959 0.661741
vt 0.887671 0.661328
vt 0.892802 0.665397
vt 0.887022 0.668936
vt 0.884663 0.677606
vt 0.889381 0.676014
vt 0.882775 0.678432
vt 0.877054 0.67855
vt 0.887081 0.679376
vt 0.883955 0.693236
vt 0.87959 0.694652
vt 0.875874 0.703617
vt 0.869386 0.691231
vt 0.873574 0.677724
vt 0.892625 0.680025
vt 0.889027 0.705387
vt 0.89003 0.680791
vt 0.892743 0.680909
vt 0.896636 0.692116
vt 0.891917 0.694593
vt 0.893805 0.703676
vt 0.969946 0.476709
vt 0.959484 0.470123
vt 0.965931 0.472517
vt 0.970798 0.475608
vt 0.969633 0.472812
vt 0.9786 0.464676
vt 0.971426 0.480826
vt 0.974556 0.476316
vt 0.974353 0.477968
vt 0.97774 0.476083
vt 0.974624 0.482797
vt 0.975275 0.479913
vt 0.9786 0.496751
vt 0.518092 0.983161
vt 0.506532 0.986051
vt 0.51302 0.981745
vt 0.508361 0.983692
vt 0.505175 0.970834
vt 0.507417 0.970244
vt 0.513492 0.969536
vt 0.51821 0.980212
vt 0.5188 0.982984
vt 0.517267 0.954142
vt 0.522516 0.969182
vt 0.520334 0.951842
vt 0.521513 0.980448
vt 0.520629 0.984459
vt 0.521808 0.98322
vt 0.526881 0.965879
vt 0.530184 0.982571
vt 0.537733 0.971247
vt 0.534076 0.986051
vt 0.555968 0.99847
vt 0.559448 0.994872
vt 0.574134 0.99847
vt 0.571067 0.99381
vt 0.583748 0.990094
vt 0.556499 0.99033
vt 0.581743 0.992631
vt 0.582686 0.994577
vt 0.586166 0.994754
vt 0.584928 0.991746
vt 0.581625 0.986733
vt 0.581271 0.983607
vt 0.55703 0.985671
vt 0.565346 0.977885
vt 0.581507 0.980716
vt 0.581507 0.978711
vt 0.559625 0.970395
vt 0.569829 0.971633
vt 0.558091 0.968212
vt 0.57319 0.967682
vt 0.582038 0.977237
vt 0.584987 0.974936
vt 0.936314 0.057323
vt 0.937316 0.054433
vt 0.939558 0.053076
vt 0.933424 0.062808
vt 0.937493 0.064578
vt 0.939204 0.051543
vt 0.942625 0.05921
vt 0.955541 0.044583
vt 0.957488 0.05461
vt 0.949171 0.044642
vt 0.952356 0.043285
vt 0.95218 0.031076
vt 0.955129 0.029248
vt 0.940088 0.030428
vt 0.942919 0.047178
vt 0.939558 0.047827
vt 0.933424 0.016862
vt 0.938201 0.050717
vt 0.938201 0.046706
vt 0.423611 0.93418
vt 0.426737 0.936304
vt 0.428448 0.938663
vt 0.426914 0.941317
vt 0.421016 0.932706
vt 0.427327 0.94521
vt 0.407804 0.93477
vt 0.413821 0.930996
vt 0.405799 0.943441
vt 0.417654 0.945505
vt 0.426796 0.946979
vt 0.416298 0.953762
vt 0.404737 0.946095
vt 0.427386 0.949928
vt 0.409633 0.932588
vt 0.407333 0.933532
vt 0.404737 0.921146
vt 0.406743 0.919081
vt 0.408512 0.918315
vt 0.417064 0.927869
vt 0.405858 0.905339
vt 0.056432 0.023776
vt 0.05537 0.02183
vt 0.057611 0.018232
vt 0.054957 0.017052
vt 0.062094 0.003486
vt 0.060855 0.018468
vt 0.058614 0.024838
vt 0.061563 0.020355
vt 0.062094 0.023068
vt 0.58093 0.269143
vt 0.585059 0.270559
vt 0.58441 0.279229
vt 0.586238 0.270028
vt 0.576978 0.276103
vt 0.574442 0.287663
vt 0.591134 0.295567
vt 0.571552 0.294505
vt 0.573263 0.287015
vt 0.571552 0.275336
vt 0.376056 0.834542
vt 0.372105 0.833185
vt 0.383547 0.820092
vt 0.380775 0.829175
vt 0.383075 0.82481
vt 0.385375 0.822923
vt 0.393574 0.826167
vt 0.380657 0.816317
vt 0.385257 0.810596
vt 0.394046 0.820976
vt 0.399885 0.816258
vt 0.395579 0.80747
vt 0.393338 0.80688
vt 0.368566 0.832832
vt 0.377413 0.816376
vt 0.37641 0.815373
vt 0.375407 0.802869
vt 0.379536 0.792901
vt 0.391332 0.793373
vt 0.377413 0.782579
vt 0.378651 0.792193
vt 0.374051 0.77326
vt 0.374759 0.791663
vt 0.373107 0.792075
vt 0.370276 0.774499
vt 0.368566 0.759754
vt 0.506342 0.216064
vt 0.516251 0.220841
vt 0.513007 0.233286
vt 0.519436 0.230632
vt 0.519377 0.22208
vt 0.519613 0.231458
vt 0.509704 0.242251
vt 0.508701 0.243372
vt 0.521087 0.238535
vt 0.506342 0.252101
vt 0.521205 0.230219
vt 0.521854 0.225678
vt 0.523682 0.228981
vt 0.524567 0.227211
vt 0.532766 0.218541
vt 0.529875 0.217184
vt 0.519436 0.21972
vt 0.881504 0.547671
vt 0.884217 0.548733
vt 0.869708 0.554395
vt 0.873188 0.556224
vt 0.880501 0.556872
vt 0.873305 0.559114
vt 0.86086 0.571264
vt 0.860153 0.568787
vt 0.868292 0.551505
vt 0.876432 0.548084
vt 0.87189 0.53847
vt 0.864517 0.528974
vt 0.869177 0.524846
vt 0.871359 0.52225
vt 0.860153 0.509039
vt 0.865697 0.507387
vt 0.945574 0.721531
vt 0.944807 0.703483
vt 0.947756 0.719762
vt 0.946812 0.700121
vt 0.95448 0.702244
vt 0.957488 0.71522
vt 0.955659 0.690153
vt 0.957488 0.695579
vt 0.953831 0.683252
vt 0.948877 0.675349
vt 0.037092 0.958602
vt 0.041398 0.977358
vt 0.035205 0.975824
vt 0.042224 0.972757
vt 0.035205 0.945154
vt 0.283148 0.517971
vt 0.283148 0.533778
vt 0.276306 0.515081
vt 0.28132 0.533896
vt 0.266574 0.514491
vt 0.269524 0.531183
vt 0.271824 0.533778
vt 0.278607 0.536491
vt 0.90622 0.829522
vt 0.9051 0.832235
vt 0.902799 0.831704
vt 0.904628 0.826573
vt 0.898317 0.824744
vt 0.893362 0.832294
vt 0.900381 0.836187
vt 0.906692 0.838605
vt 0.900617 0.838605
vt 0.905807 0.839903
vt 0.907813 0.840256
vt 0.903861 0.859543
vt 0.906692 0.865677
vt 0.899319 0.874525
vt 0.900617 0.876766
vt 0.893716 0.874466
vt 0.893775 0.855297
vt 0.889647 0.872342
vt 0.886756 0.871222
vt 0.899024 0.837779
vt 0.885931 0.850755
vt 0.881035 0.869334
vt 0.892596 0.834417
vt 0.887759 0.832471
vt 0.891829 0.829109
vt 0.892301 0.818315
vt 0.88711 0.826573
vt 0.881035 0.828047
vt 0.88192 0.815543
vt 0.519737 0.800798
vt 0.52015 0.793544
vt 0.534011 0.789828
vt 0.541383 0.797082
vt 0.534954 0.786053
vt 0.538611 0.786525
vt 0.530354 0.78446
vt 0.542445 0.783871
vt 0.531475 0.77927
vt 0.518794 0.778503
vt 0.50393 0.799501
vt 0.515432 0.78104
vt 0.545807 0.794841
vt 0.519088 0.775554
vt 0.515844 0.773431
vt 0.548107 0.78216
vt 0.550879 0.792069
vt 0.557603 0.809704
vt 0.552649 0.782691
vt 0.54622 0.779506
vt 0.53696 0.777265
vt 0.536488 0.7752
vt 0.529233 0.77697
vt 0.530177 0.771013
vt 0.532064 0.770187
vt 0.524456 0.771779
vt 0.512365 0.74453
vt 0.521389 0.755737
vt 0.524043 0.749485
vt 0.508472 0.7289
vt 0.50393 0.728369
vt 0.509828 0.727661
vt 0.514193 0.725538
vt 0.779456 0.7065
vt 0.775105 0.707079
vt 0.773003 0.688722
vt 0.782383 0.705543
vt 0.776771 0.683556
vt 0.773005 0.679165
vt 0.767717 0.689678
vt 0.762965 0.690797
vt 0.770615 0.709254
vt 0.76663 0.710354
vt 0.759416 0.690412
vt 0.761383 0.686411
vt 0.756152 0.687247
vt 0.766179 0.684701
vt 0.768895 0.682392
vt 0.761238 0.678096
vt 0.757948 0.681067
vt 0.754612 0.684571
vt 0.746695 0.669661
vt 0.747766 0.667629
vt 0.755359 0.664493
vt 0.746805 0.664526
vt 0.762606 0.66408
vt 0.759404 0.661031
vt 0.766867 0.67666
vt 0.771985 0.676063
vt 0.763202 0.659522
vt 0.768105 0.659756
vt 0.771597 0.660201
vt 0.759208 0.655431
vt 0.75674 0.655845
vt 0.7666 0.639261
vt 0.774491 0.638655
vt 0.777301 0.632922
vt 0.779139 0.63329
vt 0.7808 0.624046
vt 0.781911 0.626024
vt 0.77656 0.646038
vt 0.782383 0.63327
vt 0.775495 0.653144
vt 0.778759 0.644273
vt 0.116992 0.053109
vt 0.116992 0.038659
vt 0.123421 0.054643
vt 0.124188 0.051281
vt 0.219055 0.394216
vt 0.216165 0.394688
vt 0.217168 0.379766
vt 0.223538 0.373101
vt 0.223243 0.356527
vt 0.215576 0.393744
vt 0.216106 0.397401
vt 0.211624 0.394275
vt 0.210444 0.396929
vt 0.207613 0.377819
vt 0.215458 0.370152
vt 0.207613 0.358178
vt 0.213157 0.357058
vt 0.213334 0.356173
vt 0.220235 0.351808
vt 0.218643 0.336827
vt 0.21298 0.336355
vt 0.218643 0.335058
vt 0.216342 0.333701
vt 0.221238 0.329042
vt 0.221651 0.330221
vt 0.219586 0.328452
vt 0.095104 0.248081
vt 0.07794 0.248376
vt 0.089382 0.244542
vt 0.089736 0.243244
vt 0.080653 0.242006
vt 0.095104 0.226494
vt 0.077586 0.240295
vt 0.075935 0.240767
vt 0.076112 0.235341
vt 0.077409 0.234574
vt 0.076996 0.230858
vt 0.085313 0.238172
vt 0.079238 0.226847
vt 0.088026 0.225137
vt 0.072337 0.228971
vt 0.073399 0.230327
vt 0.069742 0.221185
vt 0.076583 0.213636
vt 0.069742 0.210156
vt 0.074637 0.210392
vt 0.080889 0.203373
vt 0.07853 0.203904
vt 0.085726 0.20467
vt 0.09068 0.211453
vt 0.088439 0.203786
vt 0.093629 0.211335
vt 0.09935 0.211394
vt 0.098819 0.206853
vt 0.19387 0.869845
vt 0.19676 0.859111
vt 0.203189 0.865775
vt 0.201066 0.859641
vt 0.192986 0.894204
vt 0.20083 0.854215
vt 0.221356 0.853448
vt 0.225897 0.880993
vt 0.197055 0.896741
vt 0.191157 0.895089
vt 0.190096 0.896505
vt 0.212803 0.896505
vt 0.198471 0.904762
vt 0.216283 0.907593
vt 0.200063 0.906355
vt 0.237811 0.906885
vt 0.245892 0.897979
vt 0.241232 0.899867
vt 0.23964 0.908006
vt 0.240937 0.910129
vt 0.237222 0.908301
vt 0.239994 0.914022
vt 0.237929 0.914022
vt 0.22224 0.909893
vt 0.204782 0.914022
vt 0.199061 0.910896
vt 0.901593 0.193349
vt 0.909143 0.207328
vt 0.910205 0.213816
vt 0.920231 0.225199
vt 0.908199 0.229387
vt 0.893867 0.203966
vt 0.888146 0.189693
vt 0.884961 0.191403
vt 0.887969 0.216175
vt 0.896639 0.226438
vt 0.901829 0.232749
vt 0.890859 0.227205
vt 0.887969 0.239237
vt 0.884961 0.239119
vt 0.885256 0.248143
vt 0.888676 0.241065
vt 0.893159 0.242245
vt 0.904778 0.232631
vt 0.890328 0.247376
vt 0.88555 0.249617
vt 0.017386 0.125236
vt 0.017268 0.138035
vt 0.015263 0.125236
vt 0.015263 0.141574
vt 0.720289 0.951279
vt 0.7 0.945852
vt 0.708434 0.934469
vt 0.70053 0.938833
vt 0.720289 0.922732
vt 0.699469 0.920136
vt 0.701356 0.90085
vt 0.31876 0.149854
vt 0.313097 0.150267
vt 0.317934 0.147141
vt 0.313097 0.148852
vt 0.309441 0.127206
vt 0.319408 0.145962
vt 0.313333 0.121131
vt 0.308261 0.105029
vt 0.305017 0.105441
vt 0.314867 0.121779
vt 0.321296 0.133045
vt 0.322888 0.1472
vt 0.315869 0.103554
vt 0.314572 0.09571
vt 0.322888 0.092348
vt 0.308556 0.097066
vt 0.298529 0.094825
vt 0.310974 0.089399
vt 0.307553 0.085978
vt 0.313274 0.085506
vt 0.310738 0.07312
vt 0.317698 0.086273
vt 0.322475 0.082616
vt 0.91899 0.2977
vt 0.91433 0.299293
vt 0.915628 0.278413
vt 0.912384 0.285196
vt 0.909612 0.298821
vt 0.90737 0.285491
vt 0.908078 0.257711
vt 0.91144 0.257121
vt 0.902062 0.257947
vt 0.91899 0.244912
vt 0.890738 0.255882
vt 0.910791 0.250397
vt 0.894984 0.247212
vt 0.906309 0.243201
vt 0.906577 0.141174
vt 0.906165 0.130381
vt 0.907757 0.134627
vt 0.909055 0.145421
vt 0.899795 0.140289
vt 0.908583 0.150847
vt 0.908996 0.151378
vt 0.903274 0.156214
vt 0.900207 0.156037
vt 0.904572 0.157807
vt 0.896315 0.144241
vt 0.891183 0.132268
vt 0.889827 0.143533
vt 0.893897 0.159635
vt 0.881157 0.14778
vt 0.898851 0.159989
vt 0.904218 0.16689
vt 0.906106 0.164826
vt 0.872899 0.152145
vt 0.876084 0.160992
vt 0.884577 0.162584
vt 0.89313 0.161995
vt 0.885816 0.168895
vt 0.895076 0.167421
vt 0.892717 0.174263
vt 0.897317 0.168659
vt 0.897612 0.173732
vt 0.899028 0.186767
vt 0.901977 0.172729
vt 0.906224 0.187474
vt 0.904631 0.172021
vt 0.907108 0.172965
vt 0.909055 0.191249
vt 0.963671 0.857433
vt 0.962963 0.850827
vt 0.966502 0.859026
vt 0.966856 0.851417
vt 0.971398 0.852184
vt 0.971987 0.859379
vt 0.972754 0.852302
vt 0.973403 0.843572
vt 0.975998 0.844044
vt 0.976116 0.836436
vt 0.968095 0.84953
vt 0.965794 0.839149
vt 0.962963 0.82228
vt 0.966856 0.821985
vt 0.968625 0.832779
vt 0.970277 0.821278
vt 0.972931 0.831009
vt 0.975408 0.827235
vt 0.974229 0.82057
vt 0.698686 0.473
vt 0.696679 0.470572
vt 0.702176 0.459166
vt 0.700682 0.472596
vt 0.698604 0.476778
vt 0.704796 0.460104
vt 0.704675 0.450549
vt 0.699789 0.479345
vt 0.697987 0.478092
vt 0.703881 0.470747
vt 0.710683 0.457243
vt 0.710309 0.446986
vt 0.708017 0.473357
vt 0.70364 0.477656
vt 0.709024 0.480589
vt 0.699651 0.485661
vt 0.710565 0.480905
vt 0.709939 0.486525
vt 0.709212 0.488136
vt 0.699791 0.486542
vt 0.696571 0.501727
vt 0.719881 0.487752
vt 0.706447 0.50974
vt 0.701788 0.516936
vt 0.698848 0.531524
vt 0.707224 0.521993
vt 0.70987 0.507413
vt 0.716409 0.523593
vt 0.717152 0.52971
vt 0.725257 0.52113
vt 0.715985 0.516051
vt 0.720808 0.515459
vt 0.71869 0.48967
vt 0.716861 0.503876
vt 0.717562 0.489403
vt 0.719923 0.482323
vt 0.721843 0.481272
vt 0.720917 0.477225
vt 0.718871 0.475624
vt 0.722866 0.460774
vt 0.713615 0.48018
vt 0.712091 0.475852
vt 0.710941 0.467562
vt 0.715741 0.475525
vt 0.713777 0.460647
vt 0.718736 0.460759
vt 0.719274 0.456321
vt 0.720651 0.454752
vt 0.714037 0.454504
vt 0.71362 0.449618
vt 0.722214 0.448813
vt 0.714344 0.445529
vt 0.713868 0.440644
vt 0.718931 0.444942
vt 0.72135 0.444941
vt 0.725257 0.443074
vt 0.722088 0.441383
vt 0.724059 0.437617
vt 0.716284 0.440524
vt 0.715354 0.436359
vt 0.223538 0.12686
vt 0.215819 0.134123
vt 0.215819 0.122418
vt 0.861883 0.34264
vt 0.862178 0.349423
vt 0.860408 0.349777
vt 0.863652 0.369653
vt 0.869314 0.349777
vt 0.86843 0.370007
vt 0.868489 0.390651
vt 0.86318 0.390474
vt 0.852918 0.360511
vt 0.851384 0.350603
vt 0.853508 0.370479
vt 0.861765 0.389707
vt 0.861411 0.396136
vt 0.853272 0.390002
vt 0.85628 0.39879
vt 0.851384 0.397021
vt 0.852859 0.40982
vt 0.905034 0.626388
vt 0.903972 0.620372
vt 0.907806 0.620254
vt 0.908219 0.631106
vt 0.91512 0.61819
vt 0.915002 0.625798
vt 0.919013 0.618072
vt 0.918718 0.628452
vt 0.9232 0.621139
vt 0.908809 0.649096
vt 0.921549 0.629337
vt 0.927093 0.622672
vt 0.923672 0.632227
vt 0.927683 0.629927
vt 0.927329 0.639069
vt 0.923082 0.648152
vt 0.915651 0.646854
vt 0.909222 0.659064
vt 0.90409 0.657058
vt 0.903972 0.670919
vt 0.912112 0.66030199999999994
vt 0.921254 0.65753
vt 0.90698 0.672629
vt 0.913173 0.67375
vt 0.905978 0.67434
vt 0.722793 0.529161
vt 0.730224 0.548035
vt 0.725034 0.549569
vt 0.722793 0.551987
vt 0.725093 0.559065
vt 0.723618 0.574989
vt 0.725211 0.574341
vt 0.882684 0.701625
vt 0.882801 0.703807
vt 0.881976 0.704456
vt 0.884217 0.711003
vt 0.87767 0.727813
vt 0.873718 0.727341
vt 0.877316 0.731646
vt 0.879027 0.731233
vt 0.884217 0.732708
vt 0.9786 0.810255
vt 0.978364 0.815032
vt 0.972643 0.809606
vt 0.973645 0.81403
vt 0.963972 0.79085
vt 0.969517 0.786603
vt 0.960197 0.777697
vt 0.966567 0.806421
vt 0.963029 0.789965
vt 0.96934 0.817156
vt 0.960197 0.816271
vt 0.533054 0.959408
vt 0.530577 0.953038
vt 0.543965 0.949381
vt 0.546797 0.926555
vt 0.552636 0.928679
vt 0.536652 0.960352
vt 0.539365 0.966722
vt 0.542609 0.954159
vt 0.544614 0.950266
vt 0.544142 0.960588
vt 0.552636 0.969907
vt 0.548743 0.964303
f 158/1 150/2 141/3
f 150/2 158/1 169/4
f 169/4 158/1 155/5
f 169/4 155/5 170/6
f 169/4 170/6 162/7
f 162/7 170/6 168/8
f 162/7 168/8 157/9
f 162/7 157/9 120/10
f 162/7 120/10 67/11
f 169/4 162/7 145/12
f 145/12 162/7 67/11
f 169/4 145/12 150/2
f 145/12 67/11 35/13
f 35/13 67/11 5/14
f 150/2 145/12 71/15
f 150/2 71/15 88/16
f 150/2 88/16 141/3
f 71/15 145/12 29/17
f 29/17 145/12 35/13
f 88/16 71/15 48/18
f 88/16 48/18 73/19
f 71/15 29/17 9/20
f 88/16 73/19 79/21
f 29/17 35/13 4/22
f 29/17 4/22 9/20
f 4/22 35/13 5/14
f 9/20 4/22 232/23
f 88/16 79/21 100/24
f 88/16 100/24 141/3
f 100/24 79/21 93/25
f 141/3 100/24 147/26
f 100/24 93/25 127/27
f 100/24 127/27 147/26
f 4/22 5/14 230/28
f 4/22 230/28 232/23
f 230/28 5/14 221/29
f 230/28 221/29 397/30
f 230/28 397/30 232/23
f 232/23 397/30 420/31
f 158/32 141/33 155/34
f 155/34 141/33 160/35
f 155/34 160/35 170/36
f 160/35 141/33 147/37
f 170/36 160/35 168/38
f 168/38 160/35 147/37
f 168/39 147/40 127/41
f 168/39 127/41 131/42
f 168/39 131/42 157/43
f 131/42 127/41 93/44
f 157/43 131/42 120/45
f 131/42 93/44 75/46
f 131/42 75/46 68/47
f 68/47 75/46 63/48
f 68/47 63/48 49/49
f 131/42 68/47 64/50
f 131/42 64/50 120/45
f 64/50 68/47 70/51
f 120/45 64/50 41/52
f 120/45 41/52 67/53
f 67/53 41/52 5/54
f 5/54 41/52 221/55
f 41/52 64/50 28/56
f 28/56 64/50 70/51
f 41/52 28/56 221/55
f 61/57 70/51 68/47
f 70/51 61/57 28/56
f 28/56 61/57 221/55
f 61/57 68/47 49/49
f 221/55 61/57 224/58
f 221/55 224/58 382/59
f 221/55 382/59 397/60
f 224/58 61/57 218/61
f 224/58 218/61 382/59
f 61/57 49/49 48/62
f 48/62 49/49 43/63
f 48/62 43/63 73/64
f 61/57 48/62 12/65
f 61/57 12/65 218/61
f 12/65 48/62 9/66
f 9/66 48/62 71/67
f 12/65 9/66 237/68
f 237/68 9/66 232/69
f 237/68 232/69 420/70
f 237/68 420/70 440/71
f 12/65 237/68 233/72
f 233/72 237/68 440/71
f 12/65 233/72 218/61
f 233/72 440/71 402/73
f 233/72 402/73 218/61
f 218/61 402/73 382/59
f 382/59 402/73 353/74
f 353/74 402/73 403/75
f 317/76 384/77 382/59
f 353/74 403/75 341/78
f 341/78 403/75 339/79
f 239/80 317/76 339/79
f 353/74 341/78 336/81
f 341/78 339/79 329/82
f 341/78 329/82 336/81
f 329/82 339/79 317/76
f 336/81 329/82 353/74
f 329/82 317/76 382/59
f 329/82 382/59 353/74
f 93/83 79/84 81/85
f 93/83 81/85 75/86
f 81/85 79/84 77/87
f 77/87 79/84 73/88
f 77/87 73/88 47/89
f 47/89 73/88 43/90
f 77/87 47/89 74/91
f 47/89 43/90 37/92
f 74/91 47/89 39/93
f 39/93 47/89 37/92
f 31/94 42/95 39/93
f 39/93 37/92 36/96
f 39/93 36/96 31/94
f 36/96 37/92 216/97
f 216/97 37/92 1/98
f 216/97 1/98 239/99
f 216/97 239/99 339/100
f 216/97 339/100 320/101
f 31/94 36/96 34/102
f 31/94 34/102 33/103
f 36/96 216/97 220/104
f 36/96 220/104 34/102
f 220/104 216/97 320/101
f 33/103 34/102 219/105
f 219/105 34/102 220/104
f 219/105 220/104 320/101
f 33/103 219/105 231/106
f 219/105 320/101 326/107
f 219/105 326/107 231/106
f 326/107 320/101 347/108
f 231/106 326/107 327/109
f 63/110 75/111 54/112
f 54/112 75/111 106/113
f 63/110 54/112 49/114
f 49/114 54/112 37/115
f 49/114 37/115 43/116
f 54/112 106/113 125/117
f 37/115 54/112 32/118
f 32/118 54/112 125/117
f 37/115 32/118 1/119
f 1/119 32/118 217/120
f 1/119 217/120 239/121
f 239/121 217/120 317/122
f 217/120 32/118 60/123
f 60/123 32/118 125/117
f 317/122 217/120 7/124
f 7/124 217/120 60/123
f 317/122 7/124 225/125
f 60/123 125/117 44/126
f 60/123 44/126 7/124
f 7/124 44/126 225/125
f 44/126 125/117 139/127
f 44/126 139/127 152/128
f 225/125 44/126 17/129
f 17/129 44/126 152/128
f 225/125 17/129 359/130
f 17/129 152/128 27/131
f 359/130 17/129 223/132
f 223/132 17/129 27/131
f 445/133 402/134 440/135
f 445/133 440/135 420/136
f 445/133 420/136 456/137
f 402/134 445/133 403/138
f 445/133 456/137 493/139
f 403/138 445/133 476/140
f 476/140 445/133 493/139
f 403/138 476/140 462/141
f 403/138 462/141 347/142
f 403/138 347/142 339/143
f 339/143 347/142 320/144
f 347/142 462/141 412/145
f 462/141 476/140 478/146
f 478/146 476/140 493/139
f 462/141 478/146 473/147
f 473/147 478/146 470/148
f 470/148 478/146 468/149
f 468/149 478/146 493/139
f 470/148 468/149 460/150
f 460/150 468/149 438/151
f 438/151 468/149 441/152
f 441/152 468/149 457/153
f 457/153 468/149 469/154
f 469/154 468/149 489/155
f 489/155 468/149 493/139
f 469/154 489/155 484/156
f 469/154 484/156 408/157
f 408/157 484/156 382/158
f 408/157 382/158 384/159
f 484/156 489/155 498/160
f 489/155 493/139 497/161
f 489/155 497/161 498/160
f 498/160 497/161 501/162
f 497/161 493/139 500/163
f 497/161 500/163 501/162
f 500/163 493/139 485/164
f 485/164 493/139 456/137
f 501/162 500/163 499/165
f 501/162 499/165 498/160
f 485/164 456/137 467/166
f 500/163 485/164 482/167
f 500/163 482/167 499/165
f 482/167 485/164 467/166
f 498/160 499/165 461/168
f 461/168 499/165 482/167
f 461/168 482/167 467/166
f 498/160 461/168 453/169
f 453/169 461/168 467/166
f 453/169 467/166 459/170
f 453/169 459/170 424/171
f 424/171 459/170 467/166
f 424/172 420/173 397/174
f 420/173 424/172 467/175
f 420/173 467/175 456/176
f 424/177 397/178 382/179
f 424/177 382/179 447/180
f 447/180 382/179 484/181
f 447/180 484/181 491/182
f 491/182 484/181 498/183
f 447/180 491/182 486/184
f 447/180 486/184 448/185
f 486/184 491/182 481/186
f 486/184 481/186 480/187
f 447/188 453/189 424/190
f 453/189 447/188 464/191
f 453/189 464/191 496/192
f 453/189 496/192 498/193
f 498/193 496/192 491/194
f 496/195 464/196 455/197
f 496/195 455/197 492/198
f 492/198 455/197 488/199
f 488/199 455/197 429/200
f 488/199 429/200 479/201
f 479/201 429/200 381/202
f 381/202 429/200 455/197
f 479/201 381/202 450/203
f 450/203 381/202 356/204
f 414/205 455/197 464/196
f 455/197 414/205 381/202
f 414/205 464/196 447/206
f 414/205 447/206 421/207
f 381/202 414/205 387/208
f 387/208 414/205 421/207
f 381/202 387/208 356/204
f 387/208 421/207 343/209
f 387/208 343/209 356/204
f 491/210 496/211 481/212
f 481/212 496/211 492/213
f 481/212 492/213 474/214
f 481/212 474/214 449/215
f 449/215 474/214 450/216
f 450/216 474/214 479/217
f 479/217 474/214 492/213
f 479/217 492/213 488/218
f 450/219 356/220 434/221
f 434/221 356/220 332/222
f 450/219 434/221 449/223
f 434/221 332/222 308/224
f 286/225 290/226 308/224
f 308/224 290/226 428/227
f 428/227 290/226 301/228
f 428/227 301/228 411/229
f 308/224 428/227 454/230
f 308/224 454/230 434/221
f 428/227 411/229 439/231
f 428/227 439/231 454/230
f 439/231 411/229 366/232
f 366/232 411/229 275/233
f 434/221 454/230 409/234
f 409/234 454/230 439/231
f 434/221 409/234 449/223
f 439/231 366/232 363/235
f 439/231 363/235 409/234
f 363/235 366/232 349/236
f 363/235 349/236 383/237
f 363/235 383/237 409/234
f 409/234 383/237 449/223
f 449/223 383/237 395/238
f 395/238 383/237 303/239
f 449/223 395/238 410/240
f 449/223 410/240 426/241
f 395/238 303/239 334/242
f 410/240 395/238 346/243
f 346/243 395/238 334/242
f 410/240 346/243 371/244
f 410/240 371/244 426/241
f 426/241 371/244 357/245
f 426/241 357/245 324/246
f 426/241 324/246 365/247
f 343/248 334/242 303/239
f 346/243 334/242 280/249
f 334/242 343/248 345/250
f 345/250 343/248 365/251
f 345/250 365/251 324/252
f 334/242 345/250 311/253
f 334/242 311/253 280/249
f 311/253 345/250 324/252
f 280/249 311/253 288/254
f 288/254 311/253 324/252
f 421/255 447/256 448/257
f 421/255 448/257 435/258
f 435/258 448/257 436/259
f 435/258 436/259 418/260
f 421/255 435/258 427/261
f 435/258 418/260 472/262
f 427/261 435/258 475/263
f 475/263 435/258 472/262
f 475/263 472/262 480/264
f 427/261 475/263 466/265
f 475/263 480/264 481/266
f 475/263 481/266 466/265
f 466/265 481/266 449/267
f 343/268 421/269 404/270
f 404/270 421/269 427/271
f 404/270 427/271 380/272
f 404/270 380/272 369/273
f 404/270 369/273 350/274
f 343/268 404/270 394/275
f 394/275 404/270 350/274
f 343/268 394/275 365/276
f 394/275 350/274 316/277
f 394/275 316/277 401/278
f 401/278 316/277 374/279
f 365/276 394/275 437/280
f 437/280 394/275 401/278
f 365/276 437/280 426/281
f 426/281 437/280 449/282
f 437/280 401/278 413/283
f 449/282 437/280 466/284
f 466/284 437/280 413/283
f 466/284 413/283 446/285
f 466/284 446/285 427/286
f 448/287 486/288 431/289
f 431/289 486/288 465/290
f 465/290 486/288 452/291
f 452/291 486/288 480/292
f 431/289 465/290 444/293
f 444/293 465/290 452/291
f 431/289 444/293 406/294
f 406/294 444/293 408/295
f 408/295 444/293 469/296
f 469/296 444/293 452/291
f 452/291 480/292 443/297
f 443/297 480/292 433/298
f 433/298 480/292 472/299
f 433/298 472/299 418/300
f 433/298 418/300 367/301
f 367/301 418/300 379/302
f 379/302 418/300 436/303
f 379/302 436/303 423/304
f 423/304 436/303 448/305
f 423/304 448/305 431/306
f 379/302 423/304 392/307
f 392/307 423/304 431/306
f 379/302 392/307 406/308
f 406/308 392/307 431/306
f 452/309 443/310 442/311
f 452/309 442/311 469/312
f 469/312 442/311 457/313
f 442/311 443/310 433/314
f 457/313 442/311 425/315
f 425/315 442/311 372/316
f 425/315 372/316 376/317
f 372/316 442/311 399/318
f 372/316 399/318 374/319
f 374/319 399/318 413/320
f 374/319 413/320 401/321
f 413/320 399/318 446/322
f 399/318 442/311 422/323
f 399/318 422/323 446/322
f 422/323 442/311 433/314
f 446/322 422/323 362/324
f 362/324 422/323 433/314
f 446/322 362/324 427/325
f 362/324 433/314 367/326
f 362/324 367/326 340/327
f 379/328 406/329 408/330
f 379/328 408/330 389/331
f 379/328 389/331 367/332
f 389/331 408/330 384/333
f 367/332 389/331 297/334
f 297/334 389/331 384/333
f 367/332 297/334 340/335
f 297/334 384/333 296/336
f 296/336 384/333 344/337
f 344/337 384/333 405/338
f 296/336 344/337 425/339
f 425/339 344/337 405/338
f 296/336 425/339 376/340
f 425/339 405/338 457/341
f 321/342 340/335 297/334
f 321/342 297/334 316/343
f 321/342 316/343 350/344
f 321/342 350/344 340/335
f 340/335 350/344 369/345
f 340/335 369/345 380/346
f 340/335 380/346 362/347
f 362/347 380/346 427/348
f 316/349 297/350 298/351
f 298/351 297/350 288/352
f 298/351 288/352 324/353
f 298/351 324/353 357/354
f 316/349 298/351 374/355
f 298/351 357/354 354/356
f 298/351 354/356 374/355
f 374/355 354/356 372/357
f 457/358 405/359 317/360
f 317/360 405/359 384/361
f 457/358 317/360 441/362
f 441/362 317/360 390/363
f 390/363 317/360 225/364
f 390/363 225/364 359/365
f 390/363 359/365 407/366
f 390/363 407/366 441/362
f 441/362 407/366 438/367
f 297/368 296/369 274/370
f 288/371 297/368 280/372
f 280/372 297/368 274/370
f 280/372 274/370 276/373
f 276/373 274/370 270/374
f 274/370 296/369 272/375
f 270/374 274/370 247/376
f 247/376 274/370 272/375
f 270/374 247/376 248/377
f 248/377 247/376 241/378
f 241/378 247/376 234/379
f 234/379 247/376 229/380
f 272/375 296/369 376/381
f 272/375 376/381 292/382
f 292/382 376/381 314/383
f 292/382 314/383 272/375
f 272/375 314/383 302/384
f 272/375 302/384 247/376
f 247/376 302/384 328/385
f 247/376 328/385 223/386
f 223/386 328/385 359/387
f 359/387 328/385 337/388
f 337/388 328/385 302/384
f 359/387 337/388 407/389
f 337/388 302/384 330/390
f 337/388 330/390 407/389
f 330/390 302/384 309/391
f 330/390 309/391 393/392
f 330/390 393/392 407/389
f 407/389 393/392 438/393
f 376/394 372/395 314/396
f 314/396 372/395 325/397
f 325/397 372/395 354/398
f 314/396 325/397 333/399
f 314/396 333/399 313/400
f 314/396 313/400 302/401
f 313/400 333/399 312/402
f 313/400 312/402 299/403
f 333/399 325/397 318/404
f 318/404 325/397 331/405
f 331/405 325/397 354/398
f 318/404 331/405 276/406
f 276/406 331/405 280/407
f 280/407 331/405 346/408
f 346/408 331/405 371/409
f 371/409 331/405 354/398
f 371/409 354/398 357/410
f 302/411 313/412 310/413
f 310/413 313/412 306/414
f 306/414 313/412 299/415
f 306/414 299/415 294/416
f 306/414 294/416 310/413
f 310/413 294/416 319/417
f 310/413 319/417 304/418
f 310/413 304/418 278/419
f 310/413 278/419 302/411
f 302/411 278/419 283/420
f 302/411 283/420 309/421
f 309/421 283/420 278/419
f 309/421 278/419 335/422
f 309/421 335/422 348/423
f 309/421 348/423 393/424
f 348/423 335/422 417/425
f 348/423 417/425 419/426
f 299/427 312/428 277/429
f 277/429 312/428 293/430
f 277/429 293/430 252/431
f 277/429 252/431 234/432
f 252/431 293/430 267/433
f 252/431 267/433 251/434
f 267/433 293/430 275/435
f 275/435 293/430 366/436
f 349/437 312/438 333/439
f 312/438 349/437 293/440
f 293/440 349/437 366/441
f 349/442 333/443 383/444
f 383/444 333/443 318/445
f 383/444 318/445 303/446
f 303/446 318/445 271/447
f 271/447 318/445 270/448
f 270/448 318/445 276/449
f 299/450 277/451 273/452
f 299/450 273/452 294/453
f 294/453 273/452 279/454
f 279/454 273/452 240/455
f 273/452 277/451 243/456
f 273/452 243/456 240/455
f 243/456 277/451 234/457
f 243/456 234/457 228/458
f 228/458 234/457 227/459
f 227/459 234/457 229/460
f 227/459 229/460 24/461
f 227/459 24/461 228/458
f 24/461 229/460 52/462
f 24/461 52/462 117/463
f 117/463 52/462 114/464
f 24/461 117/463 115/465
f 24/461 115/465 228/458
f 228/458 115/465 22/466
f 22/466 115/465 102/467
f 22/466 102/467 98/468
f 228/458 22/466 236/469
f 228/458 236/469 243/456
f 22/466 98/468 20/470
f 22/466 20/470 236/469
f 20/470 98/468 95/471
f 243/456 236/469 235/472
f 235/472 236/469 20/470
f 243/456 235/472 240/455
f 235/472 20/470 242/473
f 240/455 235/472 238/474
f 238/474 235/472 242/473
f 240/455 238/474 249/475
f 249/475 238/474 244/476
f 244/476 238/474 242/473
f 244/476 242/473 278/477
f 244/476 278/477 265/478
f 294/479 279/480 323/481
f 294/479 323/481 319/482
f 323/481 279/480 322/483
f 319/482 323/481 352/484
f 352/484 323/481 322/483
f 322/483 279/480 281/485
f 319/482 352/484 360/486
f 352/484 322/483 264/487
f 264/487 322/483 281/485
f 352/484 264/487 360/486
f 281/485 279/480 256/488
f 281/485 256/488 264/487
f 256/488 279/480 240/489
f 256/488 240/489 249/490
f 319/482 360/486 304/491
f 256/488 249/490 250/492
f 250/492 249/490 257/493
f 304/491 360/486 295/494
f 304/491 295/494 265/495
f 304/491 265/495 278/496
f 265/495 295/494 266/497
f 295/494 360/486 300/498
f 300/498 360/486 263/499
f 263/499 360/486 264/487
f 300/498 263/499 268/500
f 263/499 264/487 255/501
f 255/501 264/487 256/488
f 268/500 263/499 258/502
f 258/502 263/499 255/501
f 268/500 258/502 266/503
f 255/501 256/488 253/504
f 255/501 253/504 258/502
f 253/504 256/488 250/492
f 253/504 250/492 26/505
f 258/502 253/504 2/506
f 2/506 253/504 26/505
f 258/502 2/506 15/507
f 2/506 26/505 107/508
f 107/508 26/505 116/509
f 15/507 2/506 112/510
f 107/508 116/509 112/510
f 107/508 112/510 2/506
f 15/507 112/510 99/511
f 300/512 268/513 351/514
f 300/512 351/514 295/515
f 295/515 351/514 358/516
f 358/516 351/514 377/517
f 351/514 268/513 284/518
f 284/518 268/513 285/519
f 285/519 268/513 266/520
f 285/519 266/520 295/521
f 285/519 295/521 358/522
f 285/519 358/522 289/523
f 285/519 289/523 284/518
f 289/523 358/522 377/524
f 351/514 284/518 291/525
f 291/525 284/518 289/523
f 351/514 291/525 378/526
f 351/514 378/526 377/517
f 291/525 289/523 307/527
f 291/525 307/527 378/526
f 289/523 377/524 305/528
f 289/523 305/528 307/527
f 305/528 377/524 385/529
f 305/528 385/529 386/530
f 305/528 386/530 355/531
f 305/528 355/531 307/527
f 307/527 355/531 364/532
f 364/532 355/531 373/533
f 307/527 364/532 430/534
f 430/534 364/532 391/535
f 388/536 378/526 307/527
f 378/526 388/536 377/517
f 388/536 307/527 430/534
f 377/517 388/536 385/537
f 385/537 388/536 430/534
f 430/534 391/535 458/538
f 385/537 430/534 432/539
f 432/539 430/534 458/538
f 385/537 432/539 386/540
f 458/538 391/535 487/541
f 458/538 487/541 432/539
f 487/541 391/535 490/542
f 487/541 490/542 477/543
f 432/539 487/541 451/544
f 451/544 487/541 477/543
f 432/539 451/544 386/540
f 451/544 477/543 460/545
f 451/544 460/545 417/546
f 417/546 460/545 438/547
f 417/546 438/547 419/548
f 451/544 417/546 375/549
f 451/544 375/549 386/540
f 375/549 417/546 315/550
f 386/540 375/549 370/551
f 375/549 315/550 342/552
f 375/549 342/552 370/551
f 249/553 244/554 257/555
f 257/555 244/554 265/556
f 250/557 257/558 13/559
f 250/557 13/559 26/560
f 26/560 13/559 116/561
f 13/559 257/558 254/562
f 254/562 257/558 265/563
f 254/562 265/563 258/564
f 258/564 265/563 266/565
f 254/562 258/564 15/566
f 13/559 254/562 30/567
f 30/567 254/562 15/566
f 13/559 30/567 116/561
f 30/567 15/566 99/568
f 30/567 99/568 96/569
f 30/567 96/569 116/561
f 116/561 96/569 105/570
f 116/561 105/570 128/571
f 128/571 105/570 130/572
f 130/572 105/570 110/573
f 130/572 110/573 119/574
f 119/574 110/573 95/575
f 119/574 95/575 102/576
f 119/574 102/576 126/577
f 102/576 95/575 98/578
f 490/579 391/580 494/581
f 490/579 494/581 495/582
f 494/581 391/580 416/583
f 494/581 416/583 495/582
f 490/579 495/582 477/584
f 416/583 391/580 400/585
f 400/585 391/580 364/586
f 400/585 364/586 373/587
f 400/585 373/587 398/588
f 400/585 398/588 416/583
f 398/588 373/587 396/589
f 471/590 495/582 416/583
f 416/583 398/588 415/591
f 416/583 415/591 471/590
f 415/591 398/588 396/589
f 495/582 471/590 483/592
f 483/592 471/590 415/591
f 495/582 483/592 477/584
f 370/593 396/589 361/594
f 396/589 370/593 342/595
f 396/589 342/595 338/596
f 396/589 338/596 415/591
f 338/596 342/595 315/597
f 338/596 315/597 327/598
f 338/596 327/598 347/599
f 347/599 327/598 326/600
f 338/596 347/599 412/601
f 338/596 412/601 415/591
f 415/591 412/601 483/592
f 483/592 412/601 463/602
f 463/602 412/601 462/603
f 463/602 462/603 473/604
f 463/602 473/604 483/592
f 483/592 473/604 477/584
f 477/584 473/604 460/605
f 460/605 473/604 470/606
f 231/607 327/608 260/609
f 260/609 327/608 315/610
f 231/607 260/609 33/611
f 417/612 335/613 315/610
f 315/610 335/613 260/609
f 260/609 335/613 16/614
f 33/611 260/609 55/615
f 33/611 55/615 31/616
f 31/616 55/615 42/617
f 55/615 260/609 69/618
f 69/618 260/609 16/614
f 55/615 69/618 86/619
f 86/619 69/618 124/620
f 86/619 124/620 92/621
f 69/618 16/614 156/622
f 69/618 156/622 124/620
f 95/623 110/624 16/614
f 16/614 110/624 156/622
f 156/622 110/624 172/625
f 156/622 172/625 192/626
f 156/622 192/626 161/627
f 156/622 161/627 124/620
f 161/627 192/626 184/628
f 161/627 184/628 163/629
f 124/620 161/627 144/630
f 144/630 161/627 163/629
f 124/620 144/630 92/621
f 144/630 163/629 101/631
f 144/630 101/631 92/621
f 92/621 101/631 91/632
f 223/633 27/634 62/635
f 62/635 27/634 152/636
f 62/635 152/636 165/637
f 223/633 62/635 14/638
f 14/638 62/635 165/637
f 223/633 14/638 247/639
f 247/639 14/638 229/640
f 229/640 14/638 52/641
f 14/638 165/637 109/642
f 14/638 109/642 52/641
f 109/642 165/637 178/643
f 52/641 109/642 114/644
f 114/644 109/642 113/645
f 114/644 113/645 121/646
f 121/646 113/645 122/647
f 122/647 113/645 133/648
f 133/648 113/645 109/642
f 133/648 109/642 178/643
f 133/648 178/643 159/649
f 159/649 178/643 197/650
f 133/648 159/649 171/651
f 133/648 171/651 143/652
f 438/653 393/654 419/655
f 419/655 393/654 348/656
f 335/657 278/658 226/659
f 226/659 278/658 242/660
f 335/657 226/659 16/661
f 226/659 242/660 20/662
f 226/659 20/662 16/661
f 16/661 20/662 95/663
f 386/664 370/665 368/666
f 368/666 370/665 361/667
f 368/666 361/667 222/668
f 386/664 368/666 355/669
f 368/666 222/668 11/670
f 368/666 11/670 355/669
f 11/670 222/668 56/671
f 56/671 222/668 53/672
f 355/669 11/670 10/673
f 10/673 11/670 56/671
f 355/669 10/673 246/674
f 355/669 246/674 373/675
f 246/674 10/673 46/676
f 46/676 10/673 56/671
f 46/676 56/671 51/677
f 46/676 51/677 38/678
f 51/677 56/671 72/679
f 72/679 56/671 84/680
f 51/677 72/679 94/681
f 94/681 72/679 84/680
f 51/677 94/681 38/678
f 94/681 84/680 87/682
f 94/681 87/682 85/683
f 85/683 87/682 78/684
f 38/678 94/681 76/685
f 76/685 94/681 85/683
f 76/685 85/683 78/684
f 38/678 76/685 66/686
f 66/686 76/685 78/684
f 361/687 396/688 222/689
f 222/689 396/688 245/690
f 245/690 396/688 373/691
f 245/690 373/691 246/692
f 222/689 245/690 45/693
f 45/693 245/690 246/692
f 222/689 45/693 53/694
f 45/693 246/692 46/695
f 53/694 45/693 57/696
f 45/693 46/695 38/697
f 57/696 45/693 40/698
f 40/698 45/693 38/697
f 40/698 38/697 66/699
f 40/698 66/699 78/700
f 59/701 56/702 53/703
f 59/701 53/703 57/704
f 56/702 59/701 84/705
f 59/701 57/704 58/706
f 58/706 57/704 55/707
f 58/706 55/707 86/708
f 58/706 86/708 59/701
f 59/701 86/708 84/705
f 84/705 86/708 89/709
f 89/709 86/708 92/710
f 84/705 89/709 83/711
f 84/705 83/711 87/712
f 87/712 83/711 78/713
f 78/713 83/711 89/709
f 78/713 89/709 82/714
f 78/713 82/714 40/715
f 89/709 92/710 103/716
f 89/709 103/716 82/714
f 103/716 92/710 111/717
f 111/717 92/710 91/718
f 57/719 40/715 55/720
f 55/720 40/715 42/721
f 42/721 40/715 82/714
f 42/721 82/714 80/722
f 80/722 82/714 103/716
f 42/721 80/722 39/723
f 80/722 103/716 90/724
f 80/722 90/724 39/723
f 90/724 103/716 111/717
f 39/723 90/724 74/725
f 90/724 111/717 104/726
f 74/725 90/724 108/727
f 108/727 90/724 104/726
f 74/725 108/727 77/728
f 108/727 104/726 129/729
f 108/727 129/729 77/728
f 129/729 104/726 111/717
f 77/728 129/729 81/730
f 129/729 111/717 134/731
f 129/729 134/731 81/730
f 134/731 111/717 106/732
f 134/731 106/732 81/730
f 81/730 106/732 75/733
f 91/734 101/735 111/736
f 111/736 101/735 135/737
f 111/736 135/737 137/738
f 111/736 137/738 106/739
f 106/739 137/738 125/740
f 125/740 137/738 146/741
f 125/740 146/741 139/742
f 139/742 146/741 152/743
f 137/738 135/737 140/744
f 137/738 140/744 146/741
f 148/745 135/737 101/735
f 135/737 148/745 140/744
f 148/745 101/735 163/746
f 148/745 163/746 184/747
f 140/744 148/745 167/748
f 167/748 148/745 184/747
f 140/744 167/748 146/741
f 167/748 184/747 197/749
f 173/750 152/743 146/741
f 173/750 146/741 167/748
f 173/750 167/748 197/749
f 152/743 173/750 165/751
f 173/750 197/749 178/752
f 173/750 178/752 165/751
f 117/753 114/754 121/755
f 117/753 121/755 136/756
f 117/753 136/756 115/757
f 136/756 121/755 142/758
f 142/758 121/755 138/759
f 115/757 136/756 126/760
f 115/757 126/760 102/761
f 136/756 142/758 151/762
f 142/758 138/759 164/763
f 164/763 138/759 201/764
f 151/762 142/758 187/765
f 187/765 142/758 164/763
f 136/756 151/762 153/766
f 136/756 153/766 126/760
f 153/766 151/762 187/765
f 126/760 153/766 195/767
f 195/767 153/766 187/765
f 126/760 195/767 119/768
f 195/767 187/765 199/769
f 119/768 195/767 198/770
f 198/770 195/767 199/769
f 119/768 198/770 190/771
f 119/768 190/771 130/772
f 130/772 190/771 128/773
f 190/771 198/770 192/774
f 192/774 198/770 199/769
f 128/773 190/771 177/775
f 128/773 177/775 154/776
f 128/773 154/776 118/777
f 154/776 177/775 193/778
f 154/776 193/778 118/777
f 193/778 177/775 186/779
f 186/779 177/775 190/771
f 118/777 193/778 183/780
f 118/777 183/780 123/781
f 123/781 183/780 149/782
f 183/780 193/778 182/783
f 182/783 193/778 186/779
f 149/782 183/780 166/784
f 166/784 183/780 182/783
f 149/782 166/784 172/785
f 166/784 182/783 179/786
f 179/786 182/783 186/779
f 166/784 179/786 172/785
f 179/786 186/779 181/787
f 179/786 181/787 172/785
f 181/787 186/779 190/771
f 172/785 181/787 192/774
f 192/774 181/787 190/771
f 196/788 184/789 192/774
f 184/789 196/788 197/790
f 196/788 192/774 199/769
f 197/790 196/788 204/791
f 197/790 204/791 159/792
f 196/788 199/769 203/793
f 196/788 203/793 204/791
f 203/793 199/769 206/794
f 206/794 199/769 187/765
f 206/794 187/765 191/795
f 191/795 187/765 164/763
f 203/793 206/794 205/796
f 203/793 205/796 204/791
f 206/794 191/795 176/797
f 176/797 191/795 164/763
f 206/794 176/797 205/796
f 204/791 205/796 174/798
f 174/798 205/796 176/797
f 204/791 174/798 159/792
f 159/792 174/798 175/799
f 159/792 175/799 171/800
f 174/798 176/797 185/801
f 174/798 185/801 175/799
f 185/801 176/797 164/763
f 175/799 185/801 171/800
f 185/801 164/763 202/802
f 185/801 202/802 171/800
f 202/802 164/763 201/764
f 171/800 202/802 200/803
f 202/802 201/764 207/804
f 207/804 201/764 213/805
f 200/803 202/802 210/806
f 210/806 202/802 207/804
f 200/803 210/806 208/807
f 200/803 208/807 209/808
f 209/808 208/807 214/809
f 214/809 208/807 210/806
f 209/808 214/809 212/810
f 210/806 207/804 215/811
f 210/806 215/811 214/809
f 215/811 207/804 213/805
f 214/809 215/811 212/810
f 215/811 213/805 211/812
f 215/811 211/812 212/810
f 138/813 121/814 122/815
f 133/816 143/817 122/818
f 122/818 143/817 19/819
f 19/819 143/817 132/820
f 19/819 132/820 18/821
f 19/819 18/821 271/822
f 19/819 271/822 270/823
f 122/818 19/819 65/824
f 122/818 65/824 138/825
f 65/824 19/819 21/826
f 19/819 270/823 259/827
f 19/819 259/827 21/826
f 259/827 270/823 248/828
f 21/826 259/827 251/829
f 259/827 248/828 241/830
f 259/827 241/830 251/829
f 251/829 241/830 252/831
f 252/831 241/830 234/832
f 143/833 171/834 200/835
f 143/833 200/835 132/836
f 132/836 200/835 209/837
f 132/836 209/837 189/838
f 189/838 209/837 212/839
f 132/836 189/838 188/840
f 188/840 189/838 212/839
f 188/840 212/839 211/841
f 132/836 188/840 25/842
f 188/840 211/841 194/843
f 188/840 194/843 25/842
f 194/843 211/841 213/844
f 194/843 213/844 180/845
f 180/845 213/844 201/846
f 180/845 201/846 138/847
f 180/845 138/847 65/848
f 194/843 180/845 50/849
f 194/843 50/849 25/842
f 50/849 180/845 65/848
f 25/842 50/849 6/850
f 25/842 6/850 3/851
f 3/851 6/850 262/852
f 6/850 50/849 8/853
f 8/853 50/849 65/848
f 6/850 8/853 262/852
f 8/853 65/848 21/854
f 262/852 8/853 261/855
f 261/855 8/853 21/854
f 261/855 21/854 251/856
f 261/855 251/856 267/857
f 132/858 25/859 23/860
f 132/858 23/860 18/861
f 23/860 25/859 3/862
f 23/860 3/862 18/861
f 18/861 3/862 271/863
f 271/863 3/862 269/864
f 261/865 267/866 262/867
f 262/867 267/866 275/868
f 262/867 275/868 282/869
f 262/867 282/869 286/870
f 286/870 282/869 290/871
f 290/871 282/869 301/872
f 301/872 282/869 275/868
f 301/872 275/868 411/873
f 286/874 308/875 287/876
f 287/876 308/875 332/877
f 286/874 287/876 269/878
f 286/874 269/878 262/879
f 262/879 269/878 3/880
f 269/878 287/876 303/881
f 303/881 287/876 332/877
f 269/878 303/881 271/882
f 303/881 332/877 356/883
f 303/881 356/883 343/884
f 123/885 149/886 105/887
f 105/887 149/886 172/888
f 105/887 172/888 110/889
f 123/885 105/887 97/890
f 123/885 97/890 118/891
f 97/890 105/887 99/892
f 99/892 105/887 96/893
f 97/890 99/892 112/894
f 97/890 112/894 118/891
f 118/891 112/894 128/895
f 128/895 112/894 116/896
