o tripo_part_2
v -0.00173 0.00215 0.13359
v -0.00163 0.01656 0.12975
v -0.00162 0.10291 -0.13196
v -0.0016 0.08633 -0.01746
v -0.00123 0.10311 -0.1179
v -0.00112 0.086 -0.1186
v -0.00059 0.01582 0.13272
v -6E-05 0.08662 -0.12869
v 0.00021 0.10193 -0.1292
v 0.00032 0.08232 -0.13107
v 0.00092 0.08562 -0.08963
v 0.00253 0.05957 0.13039
v 0.00326 0.08395 -0.11768
v 0.00346 0.06043 0.13257
v 0.00365 0.08648 0.0045
v 0.004 0.08385 -0.12839
v 0.00546 0.01439 -0.13008
v 0.00709 0.05977 0.13086
v 0.00711 0.00115 -0.06692
v 0.00796 0.06285 0.13486
v 0.00819 0.08859 0.11568
v 0.01063 0.01387 0.13548
v 0.01078 0.00137 0.05183
v 0.0114 0.08876 0.01086
v 0.01159 0.09084 0.08134
v 0.01168 0.08865 0.12292
v 0.01447 0.00126 -0.00686
v 0.01469 0.08602 0.00412
v 0.01521 0.08644 -0.10954
v 0.0166 0.01673 0.13188
v 0.01662 0.01655 -0.12584
v 0.01668 0.05927 0.13193
v 0.01671 0.0584 -0.12573
v 0.01677 0.00137 0.01242
v 0.01774 0.06163 -0.12895
v 0.01828 0.09124 0.04079
v 0.01857 0.00066 -0.12657
v 0.01864 0.05825 -0.1248
v 0.01872 0.05969 0.13324
v 0.01875 0.01462 -0.12788
v 0.01879 0.01665 0.13336
v 0.01906 0.01641 -0.12462
v 0.01925 0.08522 -0.11159
v 0.01984 0.08842 0.00131
v 0.0199 0.08336 -0.11322
v 0.02023 0.00185 -0.12811
v 0.02075 0.08676 0.13666
v 0.02132 0.07125 0.13666
v 0.02195 0.01687 0.13365
v 0.0223 0.00098 -0.1102
v 0.02242 0.07987 0.13672
v 0.02346 0.09011 -0.05665
v 0.02378 0.08318 -0.12816
v 0.02407 0.02226 0.11907
v 0.02457 0.04396 0.11939
v 0.02465 0.017 0.11885
v 0.02512 0.07871 0.13876
v 0.02518 0.08679 -0.11604
v 0.02531 0.00172 0.11715
v 0.02556 0.08818 -0.10735
v 0.02559 0.07176 0.13872
v 0.0259 0.02191 0.10366
v 0.02621 0.0438 0.10246
v 0.02677 0.0102 0.13712
v 0.02687 0.01412 0.11764
v 0.02694 0.00233 0.11682
v 0.02706 0.02013 0.09954
v 0.0274 0.00188 0.13727
v 0.02756 0.01504 0.13728
v 0.02791 0.01694 0.09069
v 0.02797 0.08899 0.12184
v 0.028 0.09235 0.06934
v 0.02816 0.01719 0.13461
v 0.02866 0.09074 0.11654
v 0.0288 0.09051 0.13423
v 0.02881 0.02201 0.08214
v 0.02913 0.01417 0.0988
v 0.0292 0.04405 0.08547
v 0.02972 0.04328 0.0762
v 0.0299 0.00194 0.08929
v 0.03093 0.07411 0.13748
v 0.03125 0.01683 0.13243
v 0.0313 0.0907 -0.07796
v 0.03153 0.02264 0.06039
v 0.03156 0.03043 0.13321
v 0.03168 0.0006 -0.11735
v 0.0317 0.00888 0.07919
v 0.03171 0.02756 0.06184
v 0.03174 0.0443 0.1351
v 0.03208 0.00252 0.11866
v 0.03223 0.0202 0.06141
v 0.03236 0.01352 0.07304
v 0.03256 0.01672 0.12087
v 0.03256 0.0166 0.05518
v 0.03277 0.00236 0.06638
v 0.03298 0.00143 0.04699
v 0.03323 0.0436 0.05292
v 0.03359 0.0446 0.11944
v 0.03378 0.01464 0.1189
v 0.03381 0.04385 0.12079
v 0.03399 0.00153 0.12228
v 0.03432 0.01501 0.13104
v 0.03453 0.01045 0.13058
v 0.03462 0.00165 0.13107
v 0.03465 0.05895 -0.12276
v 0.03496 0.02144 0.03875
v 0.03518 0.01513 0.1214
v 0.03519 0.04663 0.13561
v 0.03522 0.00071 -0.12529
v 0.03533 0.03194 0.03453
v 0.0354 0.00433 0.12153
v 0.03581 0.05962 0.13561
v 0.03584 0.01639 -0.12265
v 0.03601 0.04398 0.0298
v 0.03621 0.00285 0.04444
v 0.03655 0.03333 0.01805
v 0.03667 0.02228 0.01808
v 0.03695 0.00211 0.03949
v 0.03705 0.04686 0.11993
v 0.0372 0.08952 0.00674
v 0.03743 0.05993 -0.12505
v 0.03749 0.01633 0.01443
v 0.03757 0.02031 0.01657
v 0.0378 0.04409 0.01678
v 0.03809 0.009 0.01644
v 0.0381 0.06323 0.1384
v 0.03821 0.04951 0.133
v 0.03828 0.04334 0.01402
v 0.03838 0.01416 0.02684
v 0.03843 0.09111 0.1255
v 0.03856 0.04461 0.08244
v 0.03868 0.05954 0.1347
v 0.0389 0.08893 -0.05624
v 0.0389 0.01391 0.01569
v 0.03899 0.00906 0.02222
v 0.03903 0.09124 0.00855
v 0.03908 0.09078 0.13553
v 0.03915 0.0015 0.01721
v 0.03923 0.00174 0.01586
v 0.03962 0.0878 0.12283
v 0.03985 0.02238 -0.0018
v 0.0399 0.0923 0.0002
v 0.03995 0.08509 0.13864
v 0.04017 0.09175 -0.05266
v 0.04018 0.05512 0.12215
v 0.04021 0.03314 -0.00537
v 0.04025 0.04346 -0.00194
v 0.0406 0.06131 0.12259
v 0.04062 0.09313 0.04828
v 0.04063 0.01638 -0.00258
v 0.04076 0.02012 -0.00155
v 0.04088 0.09191 -0.06377
v 0.0412 0.09257 0.0743
v 0.04131 0.02183 -0.01493
v 0.04166 0.0165 0.01283
v 0.04205 0.04409 0.01324
v 0.0422 0.04408 -0.01559
v 0.04242 0.06008 0.1007
v 0.04263 0.08983 0.11985
v 0.04268 0.00188 -0.12572
v 0.04272 0.04296 -0.02465
v 0.04285 0.06545 0.13628
v 0.04302 0.04996 0.09348
v 0.04316 0.08578 0.1364
v 0.0432 0.01634 -0.02286
v 0.04345 0.09255 -0.02516
v 0.04347 0.01611 -0.00045
v 0.04354 0.00153 -0.00189
v 0.04357 0.06359 0.12465
v 0.0436 0.02024 -0.02414
v 0.04361 0.09226 0.01286
v 0.04366 0.08829 0.12592
v 0.04368 0.00153 0.01323
v 0.04371 0.01318 -0.00233
v 0.04384 0.0441 -0.0005
v 0.04389 0.09124 0.10072
v 0.04397 0.0148 0.01236
v 0.04421 0.00256 -0.00895
v 0.04424 0.00138 -0.02933
v 0.04444 0.04464 0.03247
v 0.04453 0.04717 0.06421
v 0.04464 0.08159 0.12488
v 0.04493 0.04372 -0.03991
v 0.04527 0.01476 0.0011
v 0.04548 0.00193 0.00112
v 0.04551 0.06235 0.10389
v 0.0456 0.0139 -0.01954
v 0.0457 0.08731 -0.11025
v 0.04604 0.00703 -0.02028
v 0.04641 0.01402 -0.12534
v 0.04642 0.05415 0.07212
v 0.04653 0.05973 0.06675
v 0.04677 0.0026 -0.03344
v 0.0468 0.01615 -0.05154
v 0.04693 0.06113 0.07574
v 0.04695 0.02185 -0.0591
v 0.04708 0.06194 -0.12547
v 0.04725 0.02956 -0.06125
v 0.04733 0.01383 -0.03574
v 0.04747 0.01624 -0.1211
v 0.04763 0.06318 0.12228
v 0.04766 0.06183 0.09988
v 0.04808 0.06273 0.11005
v 0.04812 0.01576 -0.12404
v 0.04814 0.08468 0.12097
v 0.0482 0.04371 -0.06483
v 0.04877 0.09047 -0.10693
v 0.04909 0.09157 0.07277
v 0.0491 0.0589 -0.12172
v 0.04916 0.00146 -0.05193
v 0.04921 0.02041 -0.06891
v 0.04929 0.09129 0.05468
v 0.04989 0.01669 -0.1221
v 0.0504 0.03872 -0.08754
v 0.05051 0.05977 0.03547
v 0.05054 0.00134 -0.0688
v 0.05067 0.05075 0.03334
v 0.05073 0.00185 -0.06492
v 0.05085 0.01414 -0.06583
v 0.05112 0.0447 -0.0188
v 0.05115 0.04408 -0.08649
v 0.05146 0.01618 -0.09
v 0.05172 0.07424 0.10298
v 0.05176 0.0612 0.03809
v 0.05178 0.05496 0.02929
v 0.05187 0.08776 0.09848
v 0.05215 0.09016 -0.12148
v 0.05237 0.04752 -0.00017
v 0.05244 0.00136 -0.07598
v 0.05249 0.09205 -0.09195
v 0.05268 0.02185 -0.10428
v 0.05284 0.03401 -0.10554
v 0.05288 0.01344 -0.07973
v 0.05306 0.0441 -0.10548
v 0.05329 0.00141 -0.08974
v 0.05337 0.01662 -0.10596
v 0.05347 0.06036 0.01251
v 0.0538 0.02051 -0.10622
v 0.05412 0.06354 0.06908
v 0.05413 0.01329 -0.09216
v 0.05415 0.04468 -0.04395
v 0.05428 0.08767 0.07723
v 0.05438 0.04293 -0.10645
v 0.05439 0.09207 -0.05979
v 0.05448 0.0676 0.08088
v 0.05449 0.08575 0.05729
v 0.05462 0.00134 -0.10485
v 0.05462 0.06165 0.04219
v 0.05507 0.09125 0.03193
v 0.05516 0.06194 0.00858
v 0.05518 0.07057 -0.1245
v 0.05525 0.00228 -0.10341
v 0.05532 0.00077 -0.10702
v 0.05568 0.0565 -0.00326
v 0.05571 0.01334 -0.10392
v 0.05577 0.08596 0.06407
v 0.05644 0.06176 0.01107
v 0.05667 0.04994 -0.01731
v 0.05675 0.09209 -0.01954
v 0.05676 0.00217 -0.10425
v 0.05692 0.09102 0.01143
v 0.05713 0.09144 0.00576
v 0.05714 0.08014 -0.1241
v 0.05726 0.06993 0.05995
v 0.05814 0.08864 0.04638
v 0.05841 0.08777 0.00868
v 0.05842 0.0597 -0.0254
v 0.0585 0.04769 -0.04797
v 0.05902 0.04469 -0.08344
v 0.05904 0.07819 0.05122
v 0.05926 0.06557 0.00899
v 0.05948 0.08621 0.03474
v 0.05948 0.06084 -0.01952
v 0.05963 0.06563 0.03128
v 0.06003 0.01707 -0.10603
v 0.06054 0.01668 -0.12131
v 0.06077 0.04458 -0.10589
v 0.06104 0.06194 0.00737
v 0.06124 0.01643 -0.10741
v 0.0614 0.06463 0.0126
v 0.0615 0.03059 -0.1079
v 0.06155 0.06031 -0.05339
v 0.06163 0.00965 -0.12373
v 0.0618 0.05434 -0.05248
v 0.06182 0.00068 -0.12221
v 0.06203 0.0824 0.00788
v 0.0621 0.04424 -0.12106
v 0.06219 0.0148 -0.12353
v 0.06237 0.09089 -0.01682
v 0.0624 0.00197 -0.12344
v 0.06244 0.08411 0.01217
v 0.06247 0.01654 -0.11874
v 0.06249 0.04401 -0.10691
v 0.06266 0.03051 -0.11856
v 0.06286 0.06511 0.00483
v 0.06315 0.08663 0.00348
v 0.06321 0.05047 -0.06936
v 0.06337 0.00363 -0.10344
v 0.0634 0.09162 -0.05619
v 0.06358 0.0614 -0.02473
v 0.06376 0.07358 -0.12322
v 0.06385 0.04392 -0.11906
v 0.06391 0.08897 -0.10798
v 0.06394 0.00069 -0.10589
v 0.06395 0.01483 -0.10353
v 0.06405 0.07992 0.00462
v 0.0641 0.06051 -0.07294
v 0.06417 0.06267 -0.01685
v 0.06485 0.06105 -0.05628
v 0.06509 0.04747 -0.10472
v 0.06604 0.01574 -0.10628
v 0.06608 0.0927 -0.08131
v 0.06609 0.06326 -0.02493
v 0.06611 0.01583 -0.11725
v 0.06612 0.00974 -0.10506
v 0.06618 0.08831 -0.12282
v 0.06622 0.09066 -0.04325
v 0.06632 0.09132 -0.11026
v 0.06651 0.09098 -0.10423
v 0.06652 0.00276 -0.10607
v 0.06662 0.06853 -0.02076
v 0.06684 0.07676 -0.0162
v 0.06713 0.04907 -0.12042
v 0.06714 0.05938 -0.10162
v 0.06748 0.06167 -0.06937
v 0.06752 0.08742 -0.02074
v 0.06764 0.0098 -0.11544
v 0.06768 0.09122 -0.11905
v 0.06772 0.0495 -0.10597
v 0.06791 0.00118 -0.116
v 0.06797 0.05501 -0.10448
v 0.06811 0.01321 -0.11621
v 0.06886 0.06133 -0.10567
v 0.06903 0.05899 -0.10816
v 0.06946 0.04936 -0.11804
v 0.06968 0.06884 -0.03812
v 0.06978 0.08789 -0.05576
v 0.06997 0.05889 -0.11966
v 0.07003 0.087 -0.04088
v 0.07067 0.06365 -0.06289
v 0.07077 0.06168 -0.09078
v 0.0709 0.08997 -0.06709
v 0.07164 0.08269 -0.05384
v 0.07193 0.08551 -0.10795
v 0.07228 0.06321 -0.10737
v 0.07262 0.06212 -0.12206
v 0.07278 0.06491 -0.07841
v 0.07331 0.08136 -0.12195
v 0.07353 0.08885 -0.10365
v 0.07362 0.08386 -0.10824
v 0.0738 0.07536 -0.072
v 0.07392 0.06319 -0.10978
v 0.07413 0.06239 -0.1065
v 0.07433 0.08871 -0.08332
v 0.07486 0.08408 -0.11864
v 0.07486 0.06279 -0.11861
v 0.07531 0.08418 -0.08228
v 0.0762 0.06728 -0.10339
v 0.07668 0.08299 -0.10449
v -0.00195 0.06136 -0.13126
v -0.00227 0.08544 -0.13202
v -0.00243 0.09752 -0.09492
v -0.00245 0.13345 -0.1297
v -0.00261 0.00127 0.01044
v -0.00261 0.09215 -0.1076
v -0.00315 0.0586 -0.12807
v -0.00326 0.00061 -0.13103
v -0.00333 0.01656 -0.12828
v -0.00356 0.01296 -0.13136
v -0.00363 0.08508 -0.11609
v -0.00384 0.08669 0.12958
v -0.00392 0.03381 -0.13226
v -0.004 0.13314 -0.11848
v -0.00405 0.05995 -0.13196
v -0.00407 0.09161 -0.06657
v -0.00432 0.07007 0.13367
v -0.00435 0.08892 -0.08989
v -0.00447 0.13295 -0.13217
v -0.00482 0.01629 -0.13246
v -0.00597 0.08419 0.11777
v -0.00603 0.11514 -0.08752
v -0.00606 0.14518 -0.12993
v -0.00649 0.13348 -0.10457
v -0.00651 0.00084 -0.11402
v -0.00658 0.11717 -0.10868
v -0.00675 0.13282 -0.11622
v -0.00679 0.01352 -0.1355
v -0.00692 0.09449 -0.08493
v -0.00697 0.11667 -0.05129
v -0.00709 0.11465 -0.0669
v -0.00709 0.11554 -0.09329
v -0.00714 0.07946 -0.11585
v -0.00717 0.14466 -0.11877
v -0.00744 0.08137 -0.1125
v -0.00759 0.11631 -0.07755
v -0.00761 0.09693 -0.043
v -0.00762 0.12166 -0.10995
v -0.00766 0.00113 -0.13562
v -0.00771 0.1252 -0.07833
v -0.00809 0.085319999999999993 -0.11607
v -0.00814 0.10413 -0.08376
v -0.0083 0.00018 -0.13454
v -0.00832 0.0853 -0.00223
v -0.00833 0.12485 -0.05852
v -0.00837 0.09106 -0.03174
v -0.00858 0.08358 -0.08566
v -0.00859 0.11254 -0.05962
v -0.00876 0.10471 -0.08853
v -0.00912 0.10033 -0.02799
v -0.00932 0.13871 -0.07254
v -0.00956 0.0002 -0.11289
v -0.00967 0.13514 -0.09468
v -0.0097 0.09234 -0.00538
v -0.00982 0.14566 -0.09288
v -0.00986 0.12017 -0.04254
v -0.01023 0.14066 -0.06042
v -0.01028 0.08406 -0.05959
v -0.01049 0.09367 -0.05157
v -0.0105 0.0952 -0.13304
v -0.01054 0.15753 -0.133
v -0.01058 0.11885 -0.0636
v -0.01066 0.11401 -0.04276
v -0.01075 0.12455 -0.10257
v -0.01083 0.17189 -0.1304
v -0.01104 0.13738 -0.049
v -0.01115 0.00082 -0.1108
v -0.01118 0.10432 -0.05546
v -0.01143 0.12316 -0.11658
v -0.01156 0.1586 -0.10847
v -0.01158 0.11399 -0.11655
v -0.01159 0.08353 -0.05218
v -0.01164 0.15887 -0.09808
v -0.01166 0.01684 0.12863
v -0.01168 0.13664 -0.07881
v -0.0117 0.10657 -0.00295
v -0.01174 0.13946 -0.11604
v -0.01198 0.13741 -0.0587
v -0.01212 0.08672 0.08017
v -0.01225 0.17204 -0.11865
v -0.01248 0.11806 -0.03194
v -0.01266 0.12828 -0.06657
v -0.01266 0.15241 -0.08778
v -0.01279 0.10337 -0.05235
v -0.01296 0.12354 -0.00919
v -0.01312 0.11304 -0.02372
v -0.0133 0.05962 0.12941
v -0.01355 0.15124 -0.0778
v -0.01372 0.12923 -0.02186
v -0.01378 0.10325 -0.01419
v -0.014 0.15601 -0.0809
v -0.01406 0.09778 -0.01655
v -0.01411 0.11313 -0.00881
v -0.01419 0.11832 0.00806
v -0.01424 0.09079 0.01462
v -0.01434 0.12362 -0.06782
v -0.01441 0.01636 0.12997
v -0.01449 0.13995 -0.03934
v -0.01453 0.15868 -0.06935
v -0.01489 0.17208 -0.11633
v -0.01546 0.0939 0.0235
v -0.01548 0.16767 -0.11023
v -0.0156 0.10721 -0.01875
v -0.01561 0.1395 -0.04418
v -0.01572 0.08389 -0.01674
v -0.01585 0.10662 0.02062
v -0.01599 0.00098 -0.06244
v -0.01616 0.17596 -0.13069
v -0.01632 0.17401 -0.13359
v -0.01657 0.12757 -0.03262
v -0.01658 0.1302 0.0068
v -0.01678 0.13966 -0.02472
v -0.01697 0.13003 -0.03656
v -0.01701 0.08266 0.0001
v -0.01705 0.16704 -0.08688
v -0.01713 0.14672 -0.0847
v -0.01727 0.11083 0.00343
v -0.01774 0.176 -0.11932
v -0.01775 0.06705 -0.13371
v -0.01777 0.10354 0.04581
v -0.01777 0.09934 0.00886
v -0.01782 0.13612 -0.02397
v -0.01786 0.1228 0.01699
v -0.01801 0.12377 -0.03291
v -0.0183 0.08443 0.00704
v -0.0183 0.01429 0.13197
v -0.01836 0.11065 0.0155
v -0.01843 0.1625 -0.05591
v -0.01862 0.09181 0.04439
v -0.01867 0.14327 -0.08611
v -0.01869 0.1573 -0.03961
v -0.01876 0.07032 -0.1351
v -0.0188 0.11566 0.02982
v -0.01882 0.13478 -0.00616
v -0.01888 0.05987 0.12939
v -0.01891 0.16699 -0.07954
v -0.01897 0.08406 0.11208
v -0.01905 0.1205 -0.00274
v -0.01931 0.07507 -0.13365
v -0.01933 0.14333 0.00184
v -0.01943 0.14639 -0.05032
v -0.01947 0.15789 -0.1339
v -0.01951 0.16429 -0.13397
v -0.01952 0.16102 -0.13571
v -0.01957 0.13697 0.01235
v -0.01971 0.15848 -0.05212
v -0.02011 0.12953 -0.00091
v -0.02017 0.1643 -0.08329
v -0.02024 0.01669 0.12921
v -0.02049 0.14153 -0.01149
v -0.02056 0.15705 -0.05023
v -0.02074 0.1205 0.03856
v -0.02081 0.13705 0.00427
v -0.02119 0.11242 0.02608
v -0.02121 0.09231 0.03045
v -0.02147 0.0165 -0.13422
v -0.02154 0.13114 0.03457
v -0.02156 0.11662 0.05697
v -0.02212 0.11025 0.03741
v -0.02229 0.13538 0.01789
v -0.02249 0.10317 0.06458
v -0.02255 0.10323 0.03118
v -0.02271 0.146 0.02268
v -0.02272 0.08388 0.03025
v -0.02282 0.09214 0.0722
v -0.02293 0.06285 -0.13426
v -0.02313 0.15394 -0.00899
v -0.02335 0.14872 -0.0186
v -0.02344 0.07159 -0.13573
v -0.02349 0.07437 -0.13437
v -0.02356 0.12439 0.02216
v -0.02357 0.16595 -0.04704
v -0.02367 0.11182 0.05049
v -0.02383 0.15713 -0.13701
v -0.02396 0.16683 -0.05417
v -0.02411 0.17139 -0.117
v -0.02412 0.09578 0.05584
v -0.02419 0.12976 0.05571
v -0.02423 0.10667 0.07513
v -0.02456 0.13489 0.02856
v -0.02466 0.14456 -0.01679
v -0.02473 0.00103 0.00513
v -0.02476 0.16383 -0.02053
v -0.0248 0.06379 0.13115
v -0.02493 0.12959 0.06217
v -0.02535 0.141 0.04345
v -0.0256 0.11374 0.06428
v -0.02585 0.12237 0.04422
v -0.02592 0.08349 0.0544
v -0.02595 0.08023 0.13098
v -0.02597 0.15444 0.01755
v -0.026 0.06953 -0.13451
v -0.02601 0.15138 -0.01655
v -0.02605 0.16114 0.00052
v -0.02652 0.1182 0.04464
v -0.02656 0.10475 0.05582
v -0.02676 0.14442 0.05043
v -0.02683 0.1451 0.01106
v -0.02689 0.13383 0.04092
v -0.02717 0.11894 0.08286
v -0.02718 0.17002 -0.08427
v -0.02732 0.16605 -0.13483
v -0.02756 0.1105 0.07856
v -0.02757 0.08405 0.11794
v -0.02785 0.08105 0.11452
v -0.02792 0.16471 -0.01252
v -0.028 0.1719 -0.08846
v -0.02802 0.08982 0.0957
v -0.02818 0.13287 0.05103
v -0.02849 0.14745 0.03177
v -0.02852 0.1513 0.011
v -0.02856 0.16974 -0.06639
v -0.02864 0.16309 -0.13759
v -0.02877 0.10457 0.09353
v -0.02882 0.08767 0.08354
v -0.02917 0.13669 0.06466
v -0.02921 0.13153 0.08707
v -0.02935 0.08393 0.12802
v -0.02957 0.13976 0.07585
v -0.02968 0.10114 0.08339
v -0.02982 0.10027 0.10268
v -0.02987 0.1213 0.09306
v -0.03003 0.1413 0.03491
v -0.03004 0.17304 -0.11707
v -0.03016 0.00123 0.05681
v -0.03037 0.11094 0.09261
v -0.03045 0.16849 -0.05181
v -0.03046 0.11719 -0.13518
v -0.03057 0.15703 -0.13528
v -0.03068 0.09078 0.10485
v -0.03094 0.12428 0.07089
v -0.03128 0.13528 0.07752
v -0.03129 0.00777 -0.13826
v -0.03131 0.0827 0.08308
v -0.03133 0.16192 0.00886
v -0.03137 0.12074 0.07036
v -0.0314 0.15436 0.06669
v -0.03145 0.11076 0.10038
v -0.03145 0.15314 0.07472
v -0.032 0.1701 -0.04913
v -0.03201 0.08607 0.11658
v -0.03205 0.16306 0.02856
v -0.03209 0.15154 0.03345
v -0.03212 0.00093 0.04992
v -0.03213 0.172 -0.08247
v -0.03226 0.12884 0.06974
v -0.03257 0.10344 0.11737
v -0.03258 0.13571 0.09078
v -0.03292 0.11798 0.09978
v -0.03319 0.08493 0.11431
v -0.03329 0.08597 0.12782
v -0.03349 0.10221 0.12824
v -0.03352 0.01644 -0.1164
v -0.03352 0.07143 -0.11649
v -0.03365 0.14292 0.05894
v -0.03379 0.00076 -0.11342
v -0.03399 0.16466 0.0111
v -0.03407 0.16746 -0.01753
v -0.03413 0.10334 0.10864
v -0.03447 0.16186 0.05487
v -0.03448 0.1363 0.11617
v -0.0345 0.11132 0.1143
v -0.03467 0.1247 0.12834
v -0.03485 0.16231 0.03484
v -0.0349 0.01431 -0.13837
v -0.03493 0.0887 -0.11665
v -0.03496 0.01321 -0.11352
v -0.035 0.04968 -0.10311
v -0.03506 0.00185 -0.11358
v -0.03518 0.14382 0.08379
v -0.03518 0.08108 0.10188
v -0.03525 0.00076 -0.13876
v -0.03554 0.08343 0.13001
v -0.03559 0.07135 -0.09782
v -0.0356 0.00734 -0.13686
v -0.03596 0.16875 -0.01519
v -0.03597 0.13549 0.10027
v -0.0361 0.01654 0.12746
v -0.03611 0.15473 0.05912
v -0.0363 0.05974 0.12752
v -0.03642 0.10927 0.10998
v -0.03645 0.16116 0.07233
v -0.03648 0.12438 0.1047
v -0.03655 0.13928 0.12875
v -0.03669 0.00075 -0.09004
v -0.03669 0.10214 0.13058
v -0.03675 0.06318 0.1295
v -0.03683 0.17588 -0.13364
v -0.0369 0.01586 -0.08826
v -0.03693 0.16725 0.00692
v -0.03698 0.00208 -0.09711
v -0.03703 0.08419 0.11123
v -0.03703 0.0013 0.11209
v -0.037039999999999997 0.15198 0.0821
v -0.03707 0.04654 -0.13617
v -0.03735 0.13855 0.11384
v -0.03755 0.0378 -0.0837
v -0.03769 0.03879 0.12964
v -0.0377 0.01557 -0.13628
v -0.03791 0.09804 -0.13596
v -0.03804 0.0631 0.13004
v -0.03805 0.01563 0.13014
v -0.0381 0.1156 -0.11684
v -0.03828 5E-05 -0.13785
v -0.03835 0.07939 0.11338
v -0.0386 0.00172 0.12878
v -0.03873 0.00073 -0.06524
v -0.03875 0.14584 0.10132
v -0.03885 0.09709 0.11332
v -0.03894 0.07109 -0.13631
v -0.03902 0.17306 -0.13638
v -0.03907 0.17169 -0.08921
v -0.03917 3E-05 0.11118
v -0.03918 0.16918 -0.02202
v -0.0392 0.07134 -0.07015
v -0.03935 0.00114 0.10883
v -0.03938 0.13945 0.13046
v -0.03938 0.17346 -0.11775
v -0.03939 0.00999 -0.07975
v -0.03944 0.04091 0.1304
v -0.03964 0.16943 -0.11692
v -0.03969 0.10678 0.1132
v -0.03979 0.176 -0.12158
v -0.03994 0.0119 0.12936
v -0.04008 0.00151 -0.0732
v -0.04012 0.0138 -0.07195
v -0.04021 0.15941 0.08323
v -0.04023 0.14574 -0.13513
v -0.04025 0.16758 0.03126
v -0.04025 0.0159 -0.06228
v -0.04032 0.16866 -0.00323
v -0.04033 0.15115 0.12845
v -0.04037 0.10638 -0.08936
v -0.04067 0.12977 0.11021
v -0.04071 0.0145 0.13074
v -0.04083 0.05297 -0.13445
v -0.04083 0.01554 -0.13441
v -0.04092 0.01619 -0.11736
v -0.04095 0.04015 -0.05669
v -0.04096 0.14355 -0.11714
v -0.04112 0.01401 -0.11471
v -0.04114 0.07738 -0.13428
v -0.04118 0.10092 -0.13451
v -0.04123 0.15634 0.10087
v -0.04145 0.11773 0.11314
v -0.04156 0.14929 0.10896
v -0.0416 0.07057 -0.12971
v -0.04161 0.00027 0.1308
v -0.04185 0.17425 -0.12938
v -0.0419 0.07512 -0.11835
v -0.04209 0.00121 -0.11481
v -0.04218 0.12937 -0.11872
v -0.04219 0.1346 -0.12747
v -0.04232 0.00076 -0.13379
v -0.04236 0.01393 -0.13208
v -0.04237 0.00075 -0.04353
v -0.04239 0.01678 0.13007
v -0.0424 0.15835 -0.11821
v -0.04244 0.16204 0.11543
v -0.04265 0.00861 -0.13013
v -0.04272 0.01576 -0.11898
v -0.04294 0.17061 -0.11974
v -0.04295 0.08288 -0.11945
v -0.04309 0.16545 0.05729
v -0.04329 0.16307 0.12692
v -0.04357 0.16774 0.02602
v -0.04363 0.16668 0.05446
v -0.04377 0.07089 -0.03491
v -0.04382 0.00224 -0.04448
v -0.04387 0.07195 -0.03249
v -0.04404 0.01312 -0.11896
v -0.04406 0.00679 -0.04189
v -0.0441 5E-05 -0.11732
v -0.04446 0.09388 0.12978
v -0.04452 0.01556 0.13235
v -0.04462 0.01379 -0.03656
v -0.04473 0.01584 -0.02649
v -0.04481 0.04668 0.12975
v -0.04487 0.15927 0.10703
v -0.04489 0.16285 0.11304
v -0.04493 0.01104 0.13274
v -0.04526 0.16769 -0.07953
v -0.0454 0.14677 0.11291
v -0.04542 0.16208 0.09722
v -0.04551 0.00074 -0.01859
v -0.0456 0.00266 0.1328
v -0.04579 0.16877 -0.03373
v -0.04583 0.12608 -0.06513
v -0.04589 0.09883 -0.03942
v -0.04614 0.03857 -0.01489
v -0.04662 0.15773 -0.08594
v -0.04667 0.16763 0.05755
v -0.04668 0.07304 0.12914
v -0.04671 0.00197 -0.02076
v -0.04676 0.16544 0.08127
v -0.04824 0.07143 0.0009
v -0.04835 0.01602 0.00239
v -0.04838 0.01364 -0.00767
v -0.04838 0.16441 0.1293
v -0.0486 0.1672 0.07183
v -0.04872 0.16754 0.05536
v -0.04894 0.16328 -0.06282
v -0.0497 0.16778 0.11472
v -0.04993 0.03437 0.01345
v -0.04996 0.16791 0.12592
v -0.05002 0.00216 0.00335
v -0.0504 0.16794 0.01969
v -0.05074 0.0015 0.01516
v -0.05091 0.09698 0.00092
v -0.05108 0.00037 0.13217
v -0.0514 0.07195 0.02683
v -0.05164 0.16492 -0.02677
v -0.05166 0.01625 0.02816
v -0.05233 0.16507 0.11152
v -0.0526 0.06787 0.12828
v -0.05267 0.05856 0.03488
v -0.0528 0.0131 0.02614
v -0.0531 0.15512 -0.03304
v -0.05325 0.15968 -0.03146
v -0.0539 0.16665 0.10283
v -0.05413 0.16649 0.01171
v -0.05418 0.12199 0.00397
v -0.05421 0.00109 0.04403
v -0.05426 0.0714 0.04721
v -0.05473 0.0391 0.0512
v -0.05515 0.01649 0.12866
v -0.05529 0.00251 0.0442
v -0.05555 0.06247 0.1282
v -0.05561 0.01583 0.05722
v -0.05566 0.01358 0.04834
v -0.05599 0.15729 0.12833
v -0.05623 7E-05 0.10869
v -0.05636 0.06686 0.1297
v -0.05638 0.07191 0.065
v -0.05661 0.12361 0.1286
v -0.0568 0.09822 0.04587
v -0.05704 0.15383 0.12996
v -0.05733 0.0121 0.13165
v -0.05777 0.15666 0.00183
v -0.05782 0.00156 0.0702
v -0.05803 0.03773 0.12849
v -0.0583 0.16206 0.01333
v -0.05861 0.06329 0.1279
v -0.05871 0.0701 0.12778
v -0.05877 0.03758 0.08168
v -0.05914 0.14928 0.12804
v -0.05939 0.01382 0.07624
v -0.05942 0.07143 0.08721
v -0.06002 0.01531 0.13002
v -0.06026 0.01604 0.0928
v -0.06032 0.00102 0.09218
v -0.06047 0.10068 0.07079
v -0.06057 0.16677 0.103
v -0.06063 0.16561 0.05978
v -0.06076 0.00214 0.08571
v -0.06085 0.15494 0.02568
v -0.06223 0.00952 0.09745
v -0.06226 0.01646 0.10818
v -0.06235 0.04795 0.10821
v -0.06239 0.00099 0.10641
v -0.06281 0.15799 0.12939
v -0.06309 0.08142 0.10768
v -0.06318 0.01401 0.10516
v -0.06335 0.00199 0.10568
v -0.06429 0.01434 0.1063
v -0.06447 0.15153 0.12898
v -0.06559 0.15057 0.12717
v -0.06581 0.15916 0.06507
v -0.06585 0.16555 0.10955
v -0.06634 0.15787 0.127
v -0.06807 0.11433 0.10799
v -0.06901 0.13518 0.10748
v -0.0695 0.00745 0.12991
v -0.06963 0.16269 0.10764
v -0.07048 0.01388 0.12997
v -0.07086 0.02803 0.1074
v -0.07101 0.16776 0.11205
v -0.07168 0.00033 0.1297
v -0.07171 0.11609 0.10899
v -0.07186 0.05585 0.10777
v -0.0719 0.16766 0.12386
v -0.07193 0.01638 0.12685
v -0.07203 1E-05 0.10719
v -0.07212 0.09872 0.10797
v -0.07215 0.15975 0.1086
v -0.07225 0.02686 0.1081
v -0.07227 0.01643 0.10746
v -0.07251 0.05073 0.12656
v -0.07251 0.01424 0.1056
v -0.07254 0.13497 0.10874
v -0.07264 0.16554 0.10986
v -0.07273 0.11628 0.11068
v -0.07273 0.00192 0.10546
v -0.07276 0.07475 0.12618
v -0.07331 0.0737 0.11555
v -0.07348 0.10624 0.12523
v -0.07356 0.16376 0.12585
v -0.07386 0.14006 0.12518
v -0.07392 0.16614 0.1198
v -0.07417 0.0355 0.1237
v -0.07418 0.01614 0.12488
v -0.07437 0.06789 0.12407
v -0.07466 0 0.11282
v -0.07487 0.0068 0.12394
v -0.0753 0.01434 0.10921
v -0.07562 0.00119 0.10857
v -0.07565 0.01513 0.1217
v -0.07664 0.00746 0.11976
v -0.07667 0.00014 0.12482
v -0.07668 0.01224 0.12253
vt 0.3884 0.950934
vt 0.392764 0.966151
vt 0.381204 0.949165
vt 0.385097 0.946688
vt 0.396893 0.943621
vt 0.405622 0.958602
vt 0.382266 0.946452
vt 0.384035 0.938194
vt 0.381086 0.935245
vt 0.379788 0.934302
vt 0.37625 0.934656
vt 0.372357 0.93383
vt 0.396775 0.965916
vt 0.406094 0.966505
vt 0.396657 0.971342
vt 0.381204 0.976532
vt 0.389461 0.977358
vt 0.38085 0.963674
vt 0.372357 0.96509
vt 0.376721 0.971932
vt 0.376603 0.967921
vt 0.376368 0.965208
vt 0.4964 0.241592
vt 0.494749 0.249024
vt 0.490856 0.245131
vt 0.492626 0.235694
vt 0.490384 0.249378
vt 0.496636 0.253507
vt 0.483307 0.241356
vt 0.489087 0.252917
vt 0.476937 0.228734
vt 0.475285 0.215759
vt 0.493098 0.228027
vt 0.465612 0.20007
vt 0.484958 0.203137
vt 0.496636 0.224016
vt 0.46054 0.201957
vt 0.498406 0.217882
vt 0.492036 0.203962
vt 0.507371 0.208091
vt 0.455585 0.209625
vt 0.45299 0.205968
vt 0.458181 0.199008
vt 0.450395 0.205732
vt 0.464079 0.223072
vt 0.451929 0.212692
vt 0.444261 0.208091
vt 0.453462 0.219769
vt 0.437065 0.216938
vt 0.439189 0.206911
vt 0.432701 0.209271
vt 0.43447 0.243008
vt 0.426095 0.230268
vt 0.468561 0.234043
vt 0.448862 0.255984
vt 0.426331 0.281818
vt 0.480358 0.247255
vt 0.450985 0.272499
vt 0.446502 0.291608
vt 0.426095 0.311544
vt 0.462427 0.277571
vt 0.47976799999999997 0.265421
vt 0.445559 0.308831
vt 0.434234 0.320745
vt 0.466438 0.283233
vt 0.44084 0.325464
vt 0.483661 0.272263
vt 0.451221 0.311426
vt 0.464669 0.307179
vt 0.456175 0.303523
vt 0.463017 0.333485
vt 0.456293 0.293496
vt 0.463607 0.297624
vt 0.467618 0.293496
vt 0.47328 0.284885
vt 0.478942 0.305056
vt 0.490266 0.29385
vt 0.474341 0.322633
vt 0.489913 0.304112
vt 0.486374 0.323458
vt 0.463489 0.34304
vt 0.502063 0.284413
vt 0.494041 0.275801
vt 0.486492 0.326879
vt 0.467146 0.34422
vt 0.501827 0.302225
vt 0.50454 0.282171
vt 0.488143 0.328059
vt 0.483543 0.340563
vt 0.502652 0.308359
vt 0.508669 0.287244
vt 0.503478 0.27533
vt 0.508079 0.308595
vt 0.489205 0.340681
vt 0.484368 0.360145
vt 0.520229 0.295973
vt 0.515982 0.278043
vt 0.520347 0.267898
vt 0.515157 0.265421
vt 0.51091 0.271673
vt 0.508669 0.263769
vt 0.506073 0.265775
vt 0.49298 0.257163
vt 0.393099 0.466438
vt 0.39357 0.468679
vt 0.378117 0.485666
vt 0.398643 0.471039
vt 0.3872 0.479178
vt 0.384605 0.486374
vt 0.381066 0.498642
vt 0.381892 0.477173
vt 0.387908 0.460304
vt 0.377763 0.464433
vt 0.375876 0.459478
vt 0.367619 0.482009
vt 0.361956 0.50513
vt 0.363136 0.507725
vt 0.357356 0.520347
vt 0.359243 0.490266
vt 0.36868 0.453108
vt 0.359361 0.498524
vt 0.348981 0.513623
vt 0.348863 0.514685
vt 0.336123 0.516336
vt 0.339544 0.512915
vt 0.324208 0.512915
vt 0.354407 0.500883
vt 0.348155 0.505719
vt 0.345914 0.502535
vt 0.3432 0.50513
vt 0.323383 0.502535
vt 0.33164 0.500175
vt 0.321377 0.504894
vt 0.32645 0.498524
vt 0.320198 0.500529
vt 0.316777 0.500765
vt 0.278675 0.505837
vt 0.315715 0.509848
vt 0.316069 0.496518
vt 0.244348 0.51032
vt 0.238922 0.505837
vt 0.215801 0.520347
vt 0.28304 0.499467
vt 0.239747 0.501473
vt 0.220402 0.512089
vt 0.251544 0.495339
vt 0.214503 0.506191
vt 0.234321 0.495457
vt 0.232788 0.464433
vt 0.311233 0.475757
vt 0.26452 0.443435
vt 0.230074 0.440014
vt 0.283276 0.449687
vt 0.316305 0.474931
vt 0.315951 0.45877
vt 0.319254 0.460068
vt 0.281034 0.423854
vt 0.314654 0.433762
vt 0.2946 0.433408
vt 0.2703 0.415006
vt 0.250954 0.416422
vt 0.226064 0.417012
vt 0.258032 0.405805
vt 0.321731 0.446974
vt 0.327747 0.419253
vt 0.336123 0.430224
vt 0.320788 0.460658
vt 0.337538 0.45358
vt 0.347211 0.426213
vt 0.347447 0.431403
vt 0.357474 0.434116
vt 0.350868 0.471039
vt 0.332702 0.47906
vt 0.332466 0.497462
vt 0.338836 0.488025
vt 0.34438 0.488733
vt 0.337656 0.494513
vt 0.340015 0.489795
vt 0.34379 0.495221
vt 0.343318 0.49239
vt 0.340133 0.493805
vt 0.471841 0.07562
vt 0.474908 0.077153
vt 0.472549 0.085883
vt 0.482812 0.081164
vt 0.477621 0.091191
vt 0.475734 0.096617
vt 0.472313 0.094494
vt 0.483283 0.089186
vt 0.471015 0.103341
vt 0.474436 0.114429
vt 0.472195 0.129057
vt 0.47998 0.109475
vt 0.476442 0.130826
vt 0.484581 0.098033
vt 0.473021 0.146987
vt 0.483637 0.119502
vt 0.484581 0.104285
vt 0.490479 0.093196
vt 0.478093 0.140499
vt 0.484935 0.14451
vt 0.48234 0.137196
vt 0.479509 0.151824
vt 0.482458 0.128231
vt 0.494254 0.140735
vt 0.496967 0.14911
vt 0.497085 0.133893
vt 0.471959 0.158901
vt 0.476796 0.156306
vt 0.516667 0.155952
vt 0.544978 0.164328
vt 0.504281 0.152885
vt 0.505932 0.141915
vt 0.516903 0.153121
vt 0.542383 0.157604
vt 0.564442 0.162086
vt 0.578715 0.181314
vt 0.540731 0.153593
vt 0.517846 0.149818
vt 0.520796 0.151352
vt 0.511358 0.135545
vt 0.522211 0.143566
vt 0.51761 0.138376
vt 0.538372 0.146161
vt 0.527637 0.129293
vt 0.519026 0.127877
vt 0.504871 0.134129
vt 0.514072 0.121625
vt 0.504517 0.123631
vt 0.496731 0.127051
vt 0.491541 0.119738
vt 0.490597 0.10747
vt 0.49508 0.116081
vt 0.502629 0.119974
vt 0.498854 0.106172
vt 0.491069 0.09874
vt 0.509235 0.115609
vt 0.508527 0.111716
vt 0.503101 0.099684
vt 0.49909 0.091545
vt 0.51761 0.115963
vt 0.523155 0.116907
vt 0.527401 0.120328
vt 0.523391 0.106644
vt 0.515841 0.103695
vt 0.509117 0.108767
vt 0.533418 0.108885
vt 0.506994 0.096499
vt 0.516195 0.095084
vt 0.523627 0.097443
vt 0.510769 0.085647
vt 0.52398 0.089421
vt 0.528817 0.103105
vt 0.50086 0.080692
vt 0.490715 0.081518
vt 0.485879 0.072789
vt 0.501804 0.075974
vt 0.52575 0.078451
vt 0.509471 0.062644
vt 0.54486 0.079749
vt 0.548517 0.047899
vt 0.534833 0.086826
vt 0.533889 0.095438
vt 0.545568 0.087652
vt 0.539787 0.102397
vt 0.545568 0.097207
vt 0.552173 0.088714
vt 0.568806 0.056746
vt 0.575412 0.033743
vt 0.578715 0.0374
vt 0.571166 0.063824
vt 0.563616 0.078569
vt 0.569396 0.076681
vt 0.573643 0.083641
vt 0.564913 0.093314
vt 0.558897 0.085765
vt 0.555594 0.098623
vt 0.568688 0.102043
vt 0.573997 0.097915
vt 0.559251 0.102633
vt 0.550404 0.104167
vt 0.565739 0.108885
vt 0.574468 0.110773
vt 0.552999 0.114194
vt 0.546983 0.106526
vt 0.566329 0.118794
vt 0.558779 0.11266
vt 0.572581 0.119266
vt 0.539905 0.110301
vt 0.542619 0.118558
vt 0.533771 0.112424
vt 0.56798 0.125282
vt 0.570222 0.130236
vt 0.561375 0.123984
vt 0.536013 0.121389
vt 0.55642 0.123277
vt 0.561846 0.132832
vt 0.547455 0.122451
vt 0.55583 0.13932
vt 0.561257 0.138376
vt 0.561493 0.147931
vt 0.568688 0.147813
vt 0.558661 0.150998
vt 0.552292 0.131534
vt 0.561021 0.154773
vt 0.574704 0.155716
vt 0.546039 0.146161
vt 0.571166 0.168574
vt 0.541321 0.13696
vt 0.544034 0.132832
vt 0.540731 0.127877
vt 0.533653 0.127051
vt 0.206103 0.392492
vt 0.205159 0.396857
vt 0.199969 0.397447
vt 0.209877 0.406058
vt 0.203979 0.388835
vt 0.186049 0.395441
vt 0.2028 0.414433
vt 0.191475 0.38164
vt 0.203389 0.368192
vt 0.186875 0.393318
vt 0.200322 0.34979
vt 0.184515 0.391077
vt 0.186757 0.407709
vt 0.189588 0.374562
vt 0.190885 0.366776
vt 0.180741 0.418916
vt 0.169416 0.38742
vt 0.156204 0.375741
vt 0.169888 0.390251
vt 0.153255 0.376095
vt 0.161749 0.361586
vt 0.164698 0.357339
vt 0.172719 0.398744
vt 0.159271 0.358401
vt 0.166821 0.355216
vt 0.170596 0.346841
vt 0.154081 0.381286
vt 0.152076 0.377629
vt 0.149363 0.37291
vt 0.152312 0.382111
vt 0.148065 0.378455
vt 0.154789 0.393908
vt 0.148419 0.342358
vt 0.15243 0.394851
vt 0.15007 0.391077
vt 0.148773 0.407709
vt 0.148065 0.403345
vt 0.163282 0.406766
vt 0.14547 0.41172
vt 0.159507 0.428707
vt 0.174607 0.418562
vt 0.14547 0.399098
vt 0.141105 0.382937
vt 0.141931 0.378808
vt 0.138864 0.37527
vt 0.139926 0.397565
vt 0.142403 0.408889
vt 0.138864 0.370787
vt 0.128483 0.399334
vt 0.138274 0.401457
vt 0.140987 0.404878
vt 0.138274 0.407001
vt 0.128483 0.402401
vt 0.133674 0.411956
vt 0.142049 0.411012
vt 0.132494 0.414787
vt 0.130017 0.412192
vt 0.126832 0.404052
vt 0.124591 0.399098
vt 0.121995 0.411602
vt 0.118456 0.395913
vt 0.12058 0.387774
vt 0.12058 0.373264
vt 0.118692 0.371731
vt 0.122349 0.368428
vt 0.13391 0.316288
vt 0.142875 0.313575
vt 0.150542 0.318412
vt 0.163518 0.33587
vt 0.159036 0.322186
vt 0.161513 0.322069
vt 0.168237 0.328085
vt 0.166467 0.345425
vt 0.167529 0.325725
vt 0.190532 0.329028
vt 0.172011 0.321243
vt 0.200676 0.338819
vt 0.173309 0.332449
vt 0.194188 0.351677
vt 0.197845 0.341886
vt 0.193127 0.354744
vt 0.196076 0.353329
vt 0.209052 0.329854
vt 0.480488 0.600407
vt 0.497239 0.578938
vt 0.503963 0.584246
vt 0.486033 0.601233
vt 0.511276 0.583892
vt 0.508327 0.558294
vt 0.503609 0.542605
vt 0.495234 0.533522
vt 0.515759 0.583538
vt 0.511394 0.611731
vt 0.541121 0.618455
vt 0.511984 0.512997
vt 0.503963 0.510755
vt 0.509271 0.509222
vt 0.524252 0.512997
vt 0.548199 0.562541
vt 0.519298 0.543785
vt 0.568842 0.618455
vt 0.563298 0.540128
vt 0.572145 0.583656
vt 0.591137 0.618337
vt 0.597743 0.588493
vt 0.599394 0.586959
vt 0.613668 0.615034
vt 0.595974 0.55452
vt 0.61473 0.568675
vt 0.609067 0.534584
vt 0.594912 0.53482
vt 0.580285 0.517361
vt 0.594912 0.518659
vt 0.590901 0.511345
vt 0.559051 0.51394
vt 0.538054 0.512997
vt 0.548435 0.509812
vt 0.583941 0.509104
vt 0.593024 0.498487
vt 0.515523 0.507217
vt 0.509743 0.505211
vt 0.513754 0.495184
vt 0.549024 0.498487
vt 0.53947 0.49023
vt 0.513282 0.489404
vt 0.57651 0.486927
vt 0.591137 0.491292
vt 0.596563 0.488696
vt 0.605764 0.496718
vt 0.06962 0.457607
vt 0.059121 0.44876
vt 0.073159 0.434723
vt 0.107486 0.456074
vt 0.044848 0.430594
vt 0.033524 0.459495
vt 0.023733 0.438615
vt 0.033759 0.420095
vt 0.102296 0.432835
vt 0.131432 0.459495
vt 0.053695 0.414197
vt 0.080237 0.419506
vt 0.129191 0.435666
vt 0.140987 0.440975
vt 0.121406 0.412782
vt 0.108312 0.415141
vt 0.072805 0.414197
vt 0.050864 0.41113
vt 0.026682 0.419034
vt 0.035175 0.403463
vt 0.043904 0.400042
vt 0.013352 0.399334
vt 0.031754 0.375741
vt 0.093566 0.415023
vt 0.11999 0.411248
vt 0.110081 0.408417
vt 0.117631 0.398154
vt 0.132966 0.421983
vt 0.134381 0.421275
vt 0.148419 0.424696
vt 0.159271 0.446283
vt 0.167765 0.438733
vt 0.176376 0.438262
vt 0.178499 0.416085
vt 0.180859 0.4129
vt 0.176612 0.413254
vt 0.510861 0.485876
vt 0.503075 0.504632
vt 0.481488 0.491184
vt 0.4993 0.466648
vt 0.521123 0.4729
vt 0.514871 0.467945
vt 0.493048 0.463345
vt 0.524072 0.455913
vt 0.474292 0.468535
vt 0.458485 0.487763
vt 0.466979 0.510412
vt 0.437488 0.493189
vt 0.455772 0.471012
vt 0.466743 0.46712
vt 0.437606 0.467709
vt 0.462614 0.462637
vt 0.435011 0.471484
vt 0.427107 0.507345
vt 0.439139 0.508289
vt 0.429349 0.472192
vt 0.421799 0.510412
vt 0.430174 0.469597
vt 0.427579 0.472546
vt 0.405874 0.509822
vt 0.41826 0.473961
vt 0.405874 0.498969
vt 0.419204 0.472782
vt 0.425574 0.469125
vt 0.431236 0.461457
vt 0.429113 0.460396
vt 0.436426 0.456503
vt 0.435955 0.455087
vt 0.450346 0.454969
vt 0.469456 0.452846
vt 0.430292 0.440106
vt 0.414839 0.438337
vt 0.432887 0.441286
vt 0.430764 0.438455
vt 0.416609 0.43527
vt 0.471461 0.432203
vt 0.456008 0.45261
vt 0.475118 0.450015
vt 0.489156 0.450251
vt 0.489274 0.456739
vt 0.48833 0.452374
vt 0.505434 0.452138
vt 0.506496 0.449661
vt 0.516877 0.426305
vt 0.499654 0.395752
vt 0.517585 0.407549
vt 0.513928 0.392213
vt 0.509799 0.374519
vt 0.462496 0.415452
vt 0.497531 0.370744
vt 0.50166 0.370037
vt 0.510507 0.361779
vt 0.477949 0.368149
vt 0.492105 0.369093
vt 0.500126 0.362841
vt 0.458013 0.379238
vt 0.503429 0.361543
vt 0.504137 0.35883
vt 0.499182 0.362015
vt 0.502367 0.35824
vt 0.501896 0.357179
vt 0.506968 0.342669
vt 0.510743 0.359892
vt 0.508973 0.343613
vt 0.515225 0.342905
vt 0.449992 0.386669
vt 0.452587 0.383248
vt 0.446453 0.384782
vt 0.434539 0.387495
vt 0.425102 0.41498
vt 0.419558 0.39068
vt 0.417788 0.39068
vt 0.417788 0.410262
vt 0.406936 0.39009
vt 0.414721 0.421114
vt 0.41248 0.420289
vt 0.411182 0.4092
vt 0.408351 0.404246
vt 0.103003 0.40016
vt 0.10843 0.396857
vt 0.090971 0.400396
vt 0.067615 0.401221
vt 0.066789 0.399098
vt 0.069738 0.379752
vt 0.075046 0.376567
vt 0.034231 0.352975
vt 0.06962 0.338583
vt 0.034939 0.336106
vt 0.10088 0.315227
vt 0.040011 0.315817
vt 0.127304 0.321125
vt 0.065609 0.318648
vt 0.082006 0.315345
vt 0.038714 0.316052
vt 0.035529 0.314047
vt 0.059711 0.314755
vt 0.040129 0.307913
vt 0.03258 0.304256
vt 0.044966 0.307677
vt 0.039186 0.303077
vt 0.053105 0.302369
vt 0.065727 0.313339
vt 0.038242 0.300363
vt 0.032816 0.302959
vt 0.09333 0.306969
vt 0.089792 0.298594
vt 0.077288 0.294583
vt 0.035411 0.281961
vt 0.033052 0.276299
vt 0.06266 0.288095
vt 0.040011 0.295763
vt 0.037416 0.27854
vt 0.041663 0.293404
vt 0.040483 0.28491
vt 0.04992 0.265329
vt 0.021609 0.277951
vt 0.050864 0.272642
vt 0.062306 0.279248
vt 0.072333 0.269693
vt 0.083775 0.285854
vt 0.087196 0.280664
vt 0.086017 0.289393
vt 0.099464 0.289393
vt 0.104891 0.294819
vt 0.110435 0.29246
vt 0.112558 0.289865
vt 0.09569 0.269575
vt 0.109137 0.301189
vt 0.101588 0.267806
vt 0.114328 0.275473
vt 0.123057 0.316642
vt 0.124001 0.30343
vt 0.128365 0.315463
vt 0.123529 0.299066
vt 0.130843 0.305436
vt 0.133202 0.313811
vt 0.141577 0.307323
vt 0.13391 0.305318
vt 0.141105 0.304256
vt 0.141577 0.300245
vt 0.131432 0.302605
vt 0.139336 0.29128
vt 0.123647 0.294819
vt 0.125416 0.282315
vt 0.131314 0.279484
vt 0.14028 0.280428
vt 0.141459 0.276063
vt 0.140162 0.273704
vt 0.128837 0.277479
vt 0.129427 0.273232
vt 0.10666 0.257661
vt 0.0997 0.26179
vt 0.077641 0.259077
vt 0.054167 0.250583
vt 0.040247 0.256953
vt 0.36157 0.158003
vt 0.367468 0.151987
vt 0.362159 0.160363
vt 0.373956 0.160599
vt 0.378556 0.155762
vt 0.376669 0.170389
vt 0.36558 0.175934
vt 0.361098 0.171451
vt 0.365816 0.182068
vt 0.379736 0.173456
vt 0.382331 0.1698
vt 0.379618 0.158947
vt 0.401677 0.153285
vt 0.399435 0.171569
vt 0.385398 0.179237
vt 0.3795 0.181596
vt 0.390234 0.188202
vt 0.39743 0.1987
vt 0.385162 0.183719
vt 0.389881 0.179944
vt 0.390352 0.183365
vt 0.394245 0.178883
vt 0.430813 0.189617
vt 0.449923 0.195162
vt 0.448744 0.1987
vt 0.472808 0.188792
vt 0.468326 0.174872
vt 0.472336 0.178057
vt 0.473044 0.176641
vt 0.468208 0.169564
vt 0.451103 0.166025
vt 0.470921 0.167087
vt 0.457945 0.150336
vt 0.444261 0.157885
vt 0.417956 0.162604
vt 0.406749 0.164255
vt 0.444497 0.154465
vt 0.41654 0.159655
vt 0.412765 0.149156
vt 0.412411 0.145499
vt 0.438953 0.144674
vt 0.457119 0.147269
vt 0.460894 0.150572
vt 0.461484 0.145381
vt 0.452872 0.140309
vt 0.456529 0.13736
vt 0.451575 0.137478
vt 0.456293 0.129574
vt 0.450513 0.132759
vt 0.426331 0.13618
vt 0.453226 0.126154
vt 0.466202 0.11943
vt 0.45476 0.10433
vt 0.443671 0.124148
vt 0.446385 0.102797
vt 0.441548 0.080148
vt 0.46691 0.072481
vt 0.44202 0.108459
vt 0.439779 0.07307
vt 0.435178 0.088052
vt 0.43565 0.105038
vt 0.436476 0.115065
vt 0.4281 0.110583
vt 0.421966 0.128631
vt 0.419607 0.116245
vt 0.412883 0.127215
vt 0.427275 0.105982
vt 0.41654 0.102325
vt 0.418899 0.111054
vt 0.403328 0.120727
vt 0.408401 0.105156
vt 0.416068 0.092298
vt 0.406867 0.094422
vt 0.416776 0.133113
vt 0.414653 0.138068
vt 0.405334 0.130754
vt 0.403682 0.143376
vt 0.372186 0.150218
vt 0.357795 0.115537
vt 0.351071 0.120609
vt 0.377848 0.14255
vt 0.386813 0.139129
vt 0.394363 0.123794
vt 0.384218 0.130282
vt 0.363457 0.122379
vt 0.37372 0.121435
vt 0.392476 0.115301
vt 0.385516 0.119902
vt 0.397902 0.10669
vt 0.389055 0.113885
vt 0.394599 0.100792
vt 0.373366 0.116717
vt 0.365226 0.118722
vt 0.380797 0.110818
vt 0.360272 0.103033
vt 0.370889 0.112824
vt 0.384572 0.107633
vt 0.377259 0.101735
vt 0.390706 0.090883
vt 0.370417 0.091591
vt 0.364283 0.091355
vt 0.37195 0.086518
vt 0.402385 0.093714
vt 0.382095 0.0818
vt 0.393183 0.08817
vt 0.404862 0.085692
vt 0.392594 0.07944
vt 0.410996 0.089821
vt 0.416068 0.085221
vt 0.410288 0.078379
vt 0.405805 0.071183
vt 0.430224 0.074486
vt 0.395071 0.066347
vt 0.410878 0.069178
vt 0.421259 0.076255
vt 0.421494 0.079204
vt 0.425977 0.067408
vt 0.406867 0.06033
vt 0.399435 0.061628
vt 0.421023 0.054904
vt 0.388229 0.075194
vt 0.386931 0.070947
vt 0.395779 0.062454
vt 0.429398 0.057381
vt 0.42173 0.043934
vt 0.434352 0.041692
vt 0.408519 0.052781
vt 0.386342 0.057028
vt 0.383275 0.058915
vt 0.392948 0.053371
vt 0.413119 0.047001
vt 0.379618 0.047001
vt 0.397194 0.0424
vt 0.406041 0.040041
vt 0.416776 0.042872
vt 0.424444 0.034379
vt 0.411468 0.034025
vt 0.416422 0.023762
vt 0.40557 0.029306
vt 0.397548 0.035205
vt 0.432701 0.026239
vt 0.385398 0.041339
vt 0.389173 0.035558
vt 0.375725 0.037564
vt 0.365934 0.047355
vt 0.356615 0.0424
vt 0.354492 0.052309
vt 0.368529 0.052899
vt 0.376079 0.051955
vt 0.371832 0.05455
vt 0.360036 0.061156
vt 0.350245 0.059151
vt 0.370771 0.07543
vt 0.363221 0.082625
vt 0.371596 0.084277
vt 0.35862 0.088877
vt 0.354964 0.087462
vt 0.346588 0.058443
vt 0.337741 0.044052
vt 0.343049 0.066229
vt 0.338685 0.052191
vt 0.337859 0.075784
vt 0.227135 0.364686
vt 0.228669 0.352654
vt 0.230674 0.36964
vt 0.238106 0.353833
vt 0.231618 0.392879
vt 0.228787 0.392171
vt 0.241763 0.357726
vt 0.240229 0.353597
vt 0.242352 0.390166
vt 0.243178 0.352536
vt 0.240819 0.351002
vt 0.245891 0.352182
vt 0.234921 0.395474
vt 0.231854 0.399131
vt 0.255328 0.37778
vt 0.254502 0.359849
vt 0.257098 0.341093
vt 0.25462 0.390873
vt 0.256744 0.357726
vt 0.258513 0.342509
vt 0.258513 0.390166
vt 0.258159 0.360439
vt 0.273966 0.353243
vt 0.275972 0.342155
vt 0.250138 0.394412
vt 0.256744 0.392643
vt 0.236454 0.399485
vt 0.252497 0.401254
vt 0.258395 0.398423
vt 0.233269 0.403613
vt 0.253441 0.401962
vt 0.265709 0.391227
vt 0.274792 0.398305
vt 0.231028 0.404793
vt 0.222889 0.413758
vt 0.227961 0.404675
vt 0.223478 0.400546
vt 0.217698 0.401962
vt 0.225484 0.395238
vt 0.275854 0.39052
vt 0.29402 0.402552
vt 0.273848 0.388396
vt 0.274556 0.3569
vt 0.275736 0.388042
vt 0.276326 0.35749
vt 0.288476 0.356428
vt 0.288594 0.387217
vt 0.289419 0.354187
vt 0.295789 0.35171
vt 0.300508 0.357726
vt 0.299918 0.344986
vt 0.300744 0.338498
vt 0.306288 0.332128
vt 0.306406 0.342273
vt 0.31254 0.334841
vt 0.313838 0.349705
vt 0.316551 0.348525
vt 0.315253 0.332482
vt 0.314309 0.35289
vt 0.323275 0.332718
vt 0.322449 0.348761
vt 0.323628 0.353715
vt 0.324454 0.347935
vt 0.32587 0.347345
vt 0.326695 0.332364
vt 0.326106 0.351356
vt 0.328111 0.343453
vt 0.328937 0.353479
vt 0.34321 0.329415
vt 0.342738 0.326466
vt 0.344744 0.341565
vt 0.350406 0.333662
vt 0.354417 0.321512
vt 0.340025 0.320096
vt 0.336604 0.347227
vt 0.351704 0.346166
vt 0.349226 0.349941
vt 0.365977 0.314316
vt 0.361494 0.307828
vt 0.363382 0.325404
vt 0.363736 0.320922
vt 0.373998 0.335195
vt 0.373763 0.321983
vt 0.374234 0.316793
vt 0.38898 0.317973
vt 0.390041 0.307238
vt 0.369044 0.300632
vt 0.366803 0.299689
vt 0.36869 0.290016
vt 0.384851 0.300514
vt 0.403961 0.295324
vt 0.391339 0.312546
vt 0.407146 0.311485
vt 0.411982 0.300278
vt 0.41788 0.290959
vt 0.421419 0.290016
vt 0.413398 0.30252
vt 0.40573 0.318798
vt 0.411157 0.318091
vt 0.416465 0.305469
vt 0.413634 0.317265
vt 0.415049 0.324461
vt 0.410803 0.340032
vt 0.41387 0.342509
vt 0.409033 0.323753
vt 0.41151 0.34593
vt 0.406556 0.324697
vt 0.407854 0.341683
vt 0.408797 0.346638
vt 0.412218 0.347463
vt 0.400658 0.351592
vt 0.423307 0.348761
vt 0.391221 0.326938
vt 0.405966 0.338026
vt 0.386856 0.333662
vt 0.391103 0.339206
vt 0.389452 0.343806
vt 0.383435 0.337554
vt 0.383317 0.346402
vt 0.383199 0.340621
vt 0.356776 0.342509
vt 0.361612 0.347463
vt 0.363736 0.350058
vt 0.36409 0.355721
vt 0.327049 0.35808
vt 0.390985 0.360675
vt 0.424486 0.362445
vt 0.403017 0.367871
vt 0.351586 0.361619
vt 0.391339 0.369876
vt 0.424722 0.383914
vt 0.402545 0.379667
vt 0.325398 0.362091
vt 0.36751 0.365394
vt 0.32587 0.365394
vt 0.316551 0.359967
vt 0.322685 0.36905
vt 0.341913 0.37082
vt 0.370813 0.371056
vt 0.314191 0.361029
vt 0.314074 0.365983
vt 0.311714 0.366337
vt 0.312068 0.377898
vt 0.307939 0.387453
vt 0.299564 0.387217
vt 0.297559 0.387217
vt 0.297441 0.38934
vt 0.309827 0.38875
vt 0.295789 0.390991
vt 0.306406 0.390756
vt 0.310417 0.392053
vt 0.316905 0.391817
vt 0.304637 0.395238
vt 0.310653 0.394648
vt 0.304283 0.402434
vt 0.304165 0.404203
vt 0.308765 0.402316
vt 0.310535 0.397126
vt 0.315489 0.406563
vt 0.317494 0.411753
vt 0.314899 0.404203
vt 0.320208 0.40786
vt 0.319618 0.409983
vt 0.317141 0.404675
vt 0.316551 0.399839
vt 0.321269 0.40845
vt 0.329291 0.411399
vt 0.318674 0.397243
vt 0.323275 0.400193
vt 0.316551 0.395592
vt 0.318674 0.392643
vt 0.331532 0.404911
vt 0.324336 0.397833
vt 0.340143 0.409629
vt 0.33802 0.42001
vt 0.347693 0.420482
vt 0.334717 0.404203
vt 0.351586 0.411753
vt 0.372583 0.417297
vt 0.35654 0.425908
vt 0.36232 0.411753
vt 0.324336 0.395238
vt 0.35135 0.405029
vt 0.382492 0.408214
vt 0.374116 0.425201
vt 0.377301 0.427206
vt 0.392165 0.426852
vt 0.385677 0.42119
vt 0.400068 0.41305
vt 0.386267 0.41541
vt 0.400304 0.408686
vt 0.3832 0.412697
vt 0.400776 0.404911
vt 0.388626 0.404557
vt 0.400776 0.402552
vt 0.359017 0.403967
vt 0.398299 0.391935
vt 0.401838 0.382144
vt 0.359253 0.396182
vt 0.326224 0.395002
vt 0.386149 0.380729
vt 0.392283 0.380021
vt 0.376004 0.379077
vt 0.356304 0.381672
vt 0.340497 0.379667
vt 0.339318 0.385565
vt 0.327757 0.376718
vt 0.326578 0.384504
vt 0.326578 0.376954
vt 0.323864 0.37082
vt 0.318792 0.380375
vt 0.553357 0.8439
vt 0.557603 0.846613
vt 0.556895 0.85605
vt 0.552649 0.852511
vt 0.553357 0.864661
vt 0.545571 0.850978
vt 0.557603 0.884715
vt 0.548402 0.842013
vt 0.540499 0.891203
vt 0.538021 0.894152
vt 0.539673 0.87457
vt 0.528466 0.888254
vt 0.547105 0.843782
vt 0.548284 0.838946
vt 0.531651 0.875514
vt 0.518794 0.889905
vt 0.539319 0.861594
vt 0.521978 0.873863
vt 0.542622 0.849916
vt 0.536252 0.858173
vt 0.528113 0.873391
vt 0.525871 0.868318
vt 0.502987 0.870678
vt 0.528113 0.847557
vt 0.540617 0.845905
vt 0.511126 0.849562
vt 0.496617 0.842131
vt 0.508885 0.837058
vt 0.504284 0.833873
vt 0.513603 0.827621
vt 0.52941 0.835879
vt 0.54392 0.841541
vt 0.534954 0.831514
vt 0.456293 0.019751
vt 0.475639 0.021048999999999998
vt 0.445795 0.040867
vt 0.439071 0.027065
vt 0.45358 0.014561
vt 0.444733 0.015269
vt 0.465966 0.002529
vt 0.328341 0.305076
vt 0.325038 0.307789
vt 0.326571 0.303424
vt 0.332823 0.322888
vt 0.332116 0.313451
vt 0.330818 0.304368
vt 0.332823 0.302835
vt 0.332823 0.299768
vt 0.325981 0.300122
vt 0.325746 0.294577
vt 0.332116 0.293869
f 162/1 143/2 126/3
f 162/1 126/3 132/4
f 162/1 132/4 169/5
f 162/1 169/5 182/6
f 132/4 126/3 112/7
f 132/4 112/7 127/8
f 127/8 112/7 108/9
f 108/9 112/7 89/10
f 89/10 112/7 39/11
f 112/7 126/3 20/12
f 162/1 182/6 164/13
f 164/13 182/6 172/14
f 162/1 164/13 143/2
f 164/13 172/14 137/15
f 164/13 137/15 143/2
f 143/2 137/15 47/16
f 47/16 137/15 75/17
f 81/18 126/3 143/2
f 81/18 143/2 47/16
f 126/3 81/18 48/19
f 81/18 47/16 51/20
f 57/21 51/20 48/19
f 51/20 57/21 81/18
f 48/19 81/18 61/22
f 48/19 61/22 57/21
f 57/21 61/22 81/18
f 137/23 172/24 130/25
f 137/23 130/25 75/26
f 130/25 172/24 140/27
f 140/27 172/24 182/28
f 130/25 140/27 71/29
f 140/27 182/28 159/30
f 140/27 159/30 71/29
f 75/26 130/25 26/31
f 26/31 130/25 71/29
f 75/26 26/31 371/32
f 75/26 371/32 47/33
f 47/33 371/32 549/34
f 47/33 549/34 376/35
f 47/33 376/35 51/36
f 549/34 371/32 577/37
f 51/36 376/35 48/38
f 48/38 376/35 20/39
f 48/38 20/39 126/40
f 577/37 371/32 563/41
f 563/41 371/32 26/31
f 600/42 610/43 577/37
f 600/42 577/37 563/41
f 600/42 563/41 609/44
f 563/41 26/31 380/45
f 609/44 563/41 564/46
f 564/46 563/41 380/45
f 609/44 564/46 664/47
f 380/45 26/31 71/29
f 664/47 564/46 496/48
f 496/48 564/46 380/45
f 664/47 496/48 630/49
f 664/47 630/49 651/50
f 651/50 630/49 589/51
f 630/49 496/48 438/52
f 630/49 438/52 593/53
f 496/48 380/45 21/54
f 496/48 21/54 438/52
f 21/54 380/45 71/29
f 438/52 21/54 25/55
f 438/52 25/55 36/56
f 21/54 71/29 74/57
f 21/54 74/57 25/55
f 74/57 71/29 159/30
f 36/56 25/55 72/58
f 72/58 25/55 74/57
f 36/56 72/58 149/59
f 36/56 149/59 171/60
f 72/58 74/57 153/61
f 72/58 153/61 149/59
f 74/57 159/30 176/62
f 74/57 176/62 153/61
f 171/60 149/59 249/63
f 171/60 249/63 261/64
f 149/59 153/61 208/65
f 208/65 153/61 176/62
f 261/64 249/63 291/66
f 176/62 159/30 226/67
f 176/62 226/67 208/65
f 291/66 249/63 272/68
f 291/66 272/68 270/69
f 272/68 249/63 265/70
f 272/68 265/70 270/69
f 291/66 270/69 280/71
f 265/70 249/63 212/72
f 212/72 249/63 149/59
f 212/72 149/59 208/65
f 265/70 212/72 246/73
f 265/70 246/73 270/69
f 212/72 208/65 256/74
f 212/72 256/74 246/73
f 256/74 208/65 242/75
f 242/75 208/65 226/67
f 246/73 256/74 264/76
f 246/73 264/76 270/69
f 256/74 242/75 245/77
f 245/77 242/75 226/67
f 256/74 245/77 264/76
f 270/69 264/76 274/78
f 270/69 274/78 280/71
f 264/76 245/77 239/79
f 264/76 239/79 274/78
f 280/71 274/78 248/80
f 248/80 274/78 239/79
f 280/71 248/80 257/81
f 239/79 245/77 202/82
f 239/79 202/82 248/80
f 202/82 245/77 223/83
f 223/83 245/77 226/67
f 257/81 248/80 224/84
f 257/81 224/84 237/85
f 248/80 202/82 195/86
f 248/80 195/86 224/84
f 195/86 202/82 186/87
f 186/87 202/82 223/83
f 237/85 224/84 215/88
f 237/85 215/88 225/89
f 224/84 195/86 192/90
f 224/84 192/90 215/88
f 195/86 186/87 158/91
f 195/86 158/91 192/90
f 186/87 223/83 203/92
f 215/88 192/90 191/93
f 191/93 192/90 158/91
f 215/88 191/93 225/89
f 225/89 191/93 217/94
f 225/89 217/94 254/95
f 217/94 191/93 163/96
f 163/96 191/93 145/97
f 145/97 191/93 158/91
f 163/96 145/97 127/98
f 127/98 145/97 132/99
f 145/97 158/91 148/100
f 145/97 148/100 132/99
f 148/100 158/91 186/87
f 148/100 186/87 203/92
f 132/99 148/100 169/101
f 148/100 203/92 201/102
f 148/100 201/102 169/101
f 201/102 203/92 223/83
f 169/101 201/102 182/28
f 201/102 223/83 205/103
f 201/102 205/103 182/28
f 205/103 223/83 226/67
f 182/28 205/103 159/30
f 159/30 205/103 226/67
f 600/104 609/105 621/106
f 664/107 668/108 609/105
f 609/105 668/108 621/106
f 621/106 668/108 681/109
f 621/106 681/109 704/110
f 600/104 621/106 606/111
f 600/104 606/111 610/112
f 610/112 606/111 611/113
f 610/112 611/113 645/114
f 611/113 606/111 622/115
f 611/113 622/115 645/114
f 606/111 621/106 620/116
f 606/111 620/116 622/115
f 655/117 621/106 704/110
f 621/106 655/117 620/116
f 655/117 704/110 742/118
f 645/114 622/115 676/119
f 645/114 676/119 733/120
f 622/115 620/116 643/121
f 622/115 643/121 676/119
f 620/116 655/117 718/122
f 620/116 718/122 643/121
f 655/117 742/118 739/123
f 655/117 739/123 718/122
f 739/123 742/118 773/124
f 739/123 773/124 762/125
f 739/123 762/125 718/122
f 762/125 773/124 779/126
f 643/121 718/122 691/127
f 643/121 691/127 676/119
f 691/127 718/122 724/128
f 724/128 718/122 762/125
f 676/119 691/127 758/129
f 758/129 691/127 724/128
f 724/128 762/125 764/130
f 724/128 764/130 758/129
f 836/131 762/125 779/126
f 764/130 762/125 840/132
f 840/132 762/125 836/131
f 764/130 840/132 758/129
f 836/131 779/126 828/133
f 840/132 836/131 858/134
f 836/131 828/133 850/135
f 836/131 850/135 858/134
f 850/135 828/133 833/136
f 833/136 828/133 813/137
f 813/137 828/133 812/138
f 850/135 833/136 844/139
f 850/135 844/139 858/134
f 813/137 812/138 766/140
f 813/137 766/140 780/141
f 780/141 766/140 746/142
f 833/136 813/137 827/143
f 833/136 827/143 844/139
f 813/137 780/141 801/144
f 813/137 801/144 827/143
f 801/144 780/141 771/145
f 827/143 801/144 815/146
f 778/147 798/148 801/144
f 801/144 798/148 815/146
f 815/146 798/148 781/149
f 827/143 815/146 831/150
f 827/143 831/150 844/139
f 815/146 781/149 795/151
f 795/151 781/149 768/152
f 831/150 815/146 811/153
f 811/153 815/146 795/151
f 844/139 831/150 849/154
f 844/139 849/154 858/134
f 849/154 831/150 830/155
f 830/155 831/150 811/153
f 849/154 830/155 838/156
f 811/153 795/151 793/157
f 830/155 811/153 821/158
f 811/153 793/157 807/159
f 811/153 807/159 821/158
f 807/159 793/157 783/160
f 783/160 793/157 795/151
f 783/160 795/151 768/152
f 783/160 768/152 770/161
f 770/161 768/152 755/162
f 770/161 755/162 783/160
f 783/160 755/162 775/163
f 843/164 830/155 821/158
f 830/155 843/164 838/156
f 843/164 821/158 839/165
f 843/164 839/165 854/166
f 838/156 843/164 851/167
f 838/156 851/167 849/154
f 849/154 851/167 858/134
f 843/164 854/166 855/168
f 843/164 855/168 851/167
f 855/168 854/166 861/169
f 855/168 861/169 853/170
f 855/168 853/170 803/171
f 855/168 803/171 794/172
f 794/172 803/171 733/120
f 851/167 855/168 857/173
f 851/167 857/173 858/134
f 857/173 855/168 794/172
f 794/172 733/120 676/119
f 858/134 857/173 856/174
f 858/134 856/174 840/132
f 840/132 856/174 758/129
f 856/174 857/173 826/175
f 826/175 857/173 794/172
f 794/172 676/119 805/176
f 794/172 805/176 826/175
f 805/176 676/119 758/129
f 856/174 826/175 829/177
f 856/174 829/177 758/129
f 826/175 805/176 825/178
f 826/175 825/178 829/177
f 805/176 758/129 790/179
f 790/179 758/129 829/177
f 825/178 805/176 796/180
f 796/180 805/176 790/179
f 829/177 825/178 820/181
f 820/181 825/178 796/180
f 829/177 820/181 790/179
f 790/179 820/181 796/180
f 664/182 651/183 668/184
f 668/184 651/183 589/185
f 668/184 589/185 618/186
f 668/184 618/186 640/187
f 668/184 640/187 681/188
f 618/186 589/185 580/189
f 618/186 580/189 640/187
f 681/188 640/187 704/190
f 704/190 640/187 693/191
f 704/190 693/191 742/192
f 693/191 640/187 642/193
f 642/193 640/187 580/189
f 742/192 693/191 705/194
f 642/193 580/189 597/195
f 742/192 705/194 773/196
f 693/191 642/193 636/197
f 693/191 636/197 705/194
f 642/193 597/195 608/198
f 642/193 608/198 636/197
f 597/195 580/189 573/199
f 597/195 573/199 608/198
f 773/196 705/194 738/200
f 773/196 738/200 743/201
f 738/200 705/194 703/202
f 738/200 703/202 743/201
f 773/196 743/201 779/203
f 703/202 705/194 667/204
f 667/204 705/194 636/197
f 743/201 703/202 686/205
f 743/201 686/205 754/206
f 743/201 754/206 779/203
f 686/205 703/202 653/207
f 653/207 703/202 667/204
f 686/205 653/207 754/206
f 828/208 779/203 812/209
f 812/209 779/203 760/210
f 812/209 760/210 766/211
f 779/203 754/206 759/212
f 779/203 759/212 760/210
f 759/212 754/206 641/213
f 641/213 754/206 653/207
f 760/210 759/212 751/214
f 751/214 759/212 641/213
f 766/211 760/210 725/215
f 725/215 760/210 751/214
f 766/211 725/215 690/216
f 766/211 690/216 746/217
f 725/215 751/214 688/218
f 725/215 688/218 690/216
f 751/214 641/213 723/219
f 688/218 751/214 726/220
f 726/220 751/214 723/219
f 723/219 641/213 596/221
f 726/220 723/219 619/222
f 619/222 723/219 638/223
f 638/223 723/219 596/221
f 726/220 619/222 623/224
f 726/220 623/224 688/218
f 619/222 638/223 556/225
f 619/222 556/225 623/224
f 638/223 596/221 614/226
f 638/223 614/226 556/225
f 598/227 596/221 641/213
f 598/227 641/213 653/207
f 614/226 596/221 575/228
f 575/228 596/221 598/227
f 598/227 653/207 578/229
f 598/227 578/229 575/228
f 578/229 653/207 629/230
f 629/230 653/207 667/204
f 629/230 667/204 607/231
f 607/231 667/204 636/197
f 607/231 636/197 581/232
f 581/232 636/197 608/198
f 629/230 607/231 576/233
f 576/233 607/231 581/232
f 578/229 629/230 591/234
f 591/234 629/230 576/233
f 576/233 581/232 559/235
f 576/233 559/235 591/234
f 581/232 608/198 585/236
f 581/232 585/236 559/235
f 585/236 608/198 573/199
f 578/229 591/234 605/237
f 578/229 605/237 575/228
f 591/234 559/235 590/238
f 591/234 590/238 605/237
f 559/235 585/236 562/239
f 559/235 562/239 590/238
f 585/236 573/199 579/240
f 585/236 579/240 562/239
f 575/228 605/237 544/241
f 544/241 605/237 590/238
f 575/228 544/241 537/242
f 575/228 537/242 614/226
f 614/226 537/242 568/243
f 614/226 568/243 556/225
f 537/242 544/241 517/244
f 544/241 590/238 546/245
f 544/241 546/245 517/244
f 546/245 590/238 595/246
f 595/246 590/238 562/239
f 537/242 517/244 554/247
f 537/242 554/247 568/243
f 595/246 562/239 538/248
f 538/248 562/239 579/240
f 546/245 595/246 520/249
f 520/249 595/246 538/248
f 555/250 517/244 546/245
f 555/250 546/245 520/249
f 520/249 538/248 524/251
f 524/251 538/248 579/240
f 555/250 520/249 536/252
f 536/252 520/249 524/251
f 517/244 555/250 532/253
f 532/253 555/250 536/252
f 517/244 532/253 554/247
f 524/251 579/240 574/254
f 574/254 579/240 573/199
f 574/254 573/199 567/255
f 567/255 573/199 580/189
f 567/255 580/189 589/185
f 567/255 589/185 630/256
f 567/255 630/256 593/257
f 567/255 593/257 574/254
f 574/254 593/257 524/251
f 524/251 593/257 548/258
f 524/251 548/258 536/252
f 548/258 593/257 438/259
f 548/258 438/259 523/260
f 523/260 438/259 36/261
f 536/252 548/258 488/262
f 488/262 548/258 523/260
f 536/252 488/262 479/263
f 536/252 479/263 532/253
f 479/263 488/262 514/264
f 514/264 488/262 523/260
f 532/253 479/263 518/265
f 532/253 518/265 554/247
f 479/263 514/264 521/266
f 479/263 521/266 518/265
f 514/264 523/260 460/267
f 514/264 460/267 521/266
f 24/268 523/260 36/261
f 24/268 36/261 171/269
f 24/268 171/269 136/270
f 24/268 136/270 15/271
f 24/268 15/271 484/272
f 24/268 484/272 523/260
f 484/272 15/271 473/273
f 484/272 473/273 413/274
f 484/272 413/274 480/275
f 523/260 484/272 454/276
f 523/260 454/276 460/267
f 454/276 484/272 480/275
f 460/267 454/276 465/277
f 465/277 454/276 480/275
f 460/267 465/277 521/266
f 476/278 480/275 435/279
f 465/277 480/275 486/280
f 486/280 480/275 476/278
f 521/266 465/277 513/281
f 513/281 465/277 486/280
f 486/280 476/278 453/282
f 453/282 476/278 497/283
f 513/281 486/280 530/284
f 521/266 513/281 492/285
f 492/285 513/281 530/284
f 521/266 492/285 518/265
f 453/282 497/283 470/286
f 486/280 453/282 482/287
f 482/287 453/282 470/286
f 486/280 482/287 530/284
f 470/286 497/283 506/288
f 518/265 492/285 511/289
f 518/265 511/289 554/247
f 516/290 492/285 530/284
f 492/285 516/290 511/289
f 554/247 511/289 547/291
f 547/291 511/289 516/290
f 554/247 547/291 568/243
f 512/292 470/286 506/288
f 512/292 506/288 499/293
f 470/286 512/292 504/294
f 470/286 504/294 482/287
f 568/243 547/291 558/295
f 558/295 547/291 516/290
f 482/287 504/294 519/296
f 482/287 519/296 530/284
f 504/294 512/292 557/297
f 504/294 557/297 519/296
f 557/297 512/292 499/293
f 530/284 519/296 539/298
f 530/284 539/298 516/290
f 519/296 557/297 550/299
f 557/297 499/293 570/300
f 557/297 570/300 550/299
f 570/300 499/293 594/301
f 594/301 499/293 553/302
f 550/299 570/300 616/303
f 616/303 570/300 594/301
f 519/296 550/299 522/304
f 519/296 522/304 539/298
f 594/301 553/302 649/305
f 594/301 649/305 616/303
f 649/305 553/302 565/306
f 550/299 616/303 601/307
f 550/299 601/307 522/304
f 616/303 649/305 688/218
f 616/303 688/218 601/307
f 688/218 649/305 690/216
f 690/216 649/305 635/308
f 601/307 688/218 602/309
f 522/304 601/307 569/310
f 522/304 569/310 539/298
f 569/310 601/307 602/309
f 602/309 688/218 623/224
f 539/298 569/310 582/311
f 582/311 569/310 602/309
f 539/298 582/311 516/290
f 516/290 582/311 558/295
f 582/311 602/309 545/312
f 582/311 545/312 558/295
f 545/312 602/309 623/224
f 558/295 545/312 568/243
f 545/312 623/224 556/225
f 545/312 556/225 568/243
f 577/313 610/314 632/315
f 632/315 610/314 645/316
f 577/313 632/315 549/317
f 632/315 645/316 660/318
f 660/318 645/316 733/319
f 549/317 632/315 543/320
f 549/317 543/320 376/321
f 632/315 660/318 646/322
f 632/315 646/322 543/320
f 376/321 543/320 20/323
f 543/320 646/322 639/324
f 639/324 646/322 660/318
f 660/318 733/319 752/325
f 543/320 639/324 494/326
f 20/323 543/320 446/327
f 446/327 543/320 494/326
f 752/325 733/319 803/328
f 639/324 660/318 657/329
f 494/326 639/324 637/330
f 637/330 639/324 657/329
f 657/329 660/318 679/331
f 679/331 660/318 752/325
f 637/330 657/329 661/332
f 661/332 657/329 679/331
f 494/326 637/330 508/333
f 508/333 637/330 661/332
f 494/326 508/333 456/334
f 494/326 456/334 446/327
f 679/331 752/325 737/335
f 456/334 508/333 485/336
f 485/336 508/333 661/332
f 446/327 456/334 433/337
f 433/337 456/334 2/338
f 433/337 2/338 446/327
f 716/339 661/332 679/331
f 716/339 679/331 737/335
f 661/332 716/339 694/340
f 661/332 694/340 683/341
f 661/332 683/341 485/336
f 694/340 716/339 734/342
f 683/341 694/340 740/343
f 740/343 694/340 734/342
f 734/342 716/339 785/344
f 785/344 716/339 737/335
f 485/336 683/341 1/345
f 734/342 785/344 808/346
f 734/342 808/346 797/347
f 734/342 797/347 740/343
f 808/346 785/344 841/348
f 797/347 808/346 834/349
f 834/349 808/346 841/348
f 841/348 785/344 800/350
f 800/350 785/344 737/335
f 834/349 841/348 860/351
f 841/348 800/350 847/352
f 841/348 847/352 860/351
f 800/350 737/335 802/353
f 800/350 802/353 847/352
f 832/354 797/347 834/349
f 769/355 740/343 797/347
f 769/355 797/347 832/354
f 740/343 769/355 745/356
f 740/343 745/356 707/357
f 707/357 745/356 769/355
f 740/343 707/357 683/341
f 769/355 832/354 837/358
f 869/359 832/354 834/349
f 869/359 834/349 860/351
f 683/341 707/357 665/360
f 769/355 837/358 862/361
f 769/355 862/361 707/357
f 837/358 832/354 868/362
f 837/358 868/362 862/361
f 868/362 832/354 863/363
f 863/363 832/354 869/359
f 868/362 863/363 867/364
f 867/364 863/363 869/359
f 868/362 867/364 865/365
f 868/362 865/365 862/361
f 867/364 869/359 864/366
f 867/364 864/366 865/365
f 864/366 869/359 866/367
f 866/367 869/359 860/351
f 864/366 866/367 846/368
f 846/368 866/367 860/351
f 864/366 846/368 848/369
f 865/365 864/366 852/370
f 852/370 864/366 848/369
f 865/365 852/370 842/371
f 865/365 842/371 862/361
f 852/370 848/369 824/372
f 824/372 848/369 846/368
f 842/371 852/370 819/373
f 819/373 852/370 824/372
f 862/361 842/371 791/374
f 791/374 842/371 819/373
f 862/361 791/374 672/375
f 862/361 672/375 707/357
f 791/374 819/373 675/376
f 791/374 675/376 672/375
f 707/357 672/375 665/360
f 665/360 672/375 652/377
f 652/377 672/375 675/376
f 665/360 1/345 683/341
f 1/345 665/360 101/378
f 101/378 665/360 652/377
f 1/345 101/378 104/379
f 1/345 104/379 68/380
f 1/345 68/380 22/381
f 22/381 68/380 64/382
f 1/345 22/381 485/336
f 22/381 64/382 69/383
f 22/381 69/383 41/384
f 485/336 22/381 7/385
f 7/385 22/381 41/384
f 485/336 7/385 456/334
f 41/384 69/383 49/386
f 456/334 7/385 2/338
f 2/338 7/385 41/384
f 89/387 49/386 73/388
f 49/386 89/387 39/389
f 49/386 39/389 41/384
f 2/338 41/384 30/390
f 30/390 41/384 39/389
f 2/338 30/390 18/391
f 30/390 39/389 32/392
f 30/390 32/392 18/391
f 18/391 32/392 39/389
f 2/338 18/391 12/393
f 2/338 12/393 446/327
f 12/393 18/391 14/394
f 12/393 14/394 446/327
f 14/394 18/391 39/389
f 446/327 14/394 20/323
f 20/323 14/394 39/389
f 20/323 39/389 112/395
f 780/396 746/397 771/398
f 801/399 771/398 778/400
f 771/398 746/397 761/401
f 771/398 761/401 778/400
f 761/401 746/397 741/402
f 741/402 746/397 671/403
f 778/400 761/401 777/404
f 778/400 777/404 798/405
f 798/405 777/404 781/406
f 741/402 671/403 680/407
f 680/407 671/403 583/408
f 680/407 583/408 677/409
f 741/402 680/407 717/410
f 717/410 680/407 677/409
f 741/402 717/410 761/401
f 781/406 777/404 747/411
f 750/412 777/404 761/401
f 777/404 750/412 747/411
f 750/412 761/401 717/410
f 781/406 747/411 768/413
f 747/411 750/412 692/414
f 692/414 750/412 717/410
f 768/413 747/411 748/415
f 748/415 747/411 692/414
f 768/413 748/415 755/416
f 755/416 748/415 729/417
f 755/416 729/417 727/418
f 755/416 727/418 749/419
f 729/417 748/415 674/420
f 729/417 674/420 727/418
f 674/420 748/415 692/414
f 727/418 674/420 698/421
f 627/422 674/420 633/423
f 633/423 674/420 692/414
f 633/423 692/414 625/424
f 633/423 625/424 613/425
f 613/425 625/424 709/426
f 625/424 692/414 662/427
f 625/424 662/427 709/426
f 662/427 692/414 699/428
f 699/428 692/414 717/410
f 662/427 699/428 711/429
f 711/429 699/428 717/410
f 662/427 711/429 709/426
f 709/426 711/429 722/430
f 709/426 722/430 706/431
f 711/429 717/410 721/432
f 721/432 717/410 677/409
f 721/432 677/409 682/433
f 721/432 682/433 708/434
f 721/432 708/434 711/429
f 722/430 711/429 712/435
f 712/435 711/429 708/434
f 722/430 712/435 706/431
f 712/435 708/434 687/436
f 687/436 708/434 670/437
f 712/435 687/436 702/438
f 712/435 702/438 706/431
f 706/431 702/438 701/439
f 701/439 702/438 669/440
f 706/431 701/439 695/441
f 695/441 701/439 669/440
f 783/442 775/443 784/444
f 783/442 784/444 807/445
f 784/444 775/443 763/446
f 763/446 775/443 755/447
f 763/446 755/447 749/448
f 763/446 749/448 756/449
f 807/445 784/444 804/450
f 807/445 804/450 821/451
f 784/444 763/446 772/452
f 772/452 763/446 756/449
f 784/444 772/452 788/453
f 784/444 788/453 804/450
f 821/451 804/450 818/454
f 821/451 818/454 839/455
f 818/454 804/450 817/456
f 818/454 817/456 839/455
f 804/450 788/453 809/457
f 804/450 809/457 817/456
f 789/458 788/453 772/452
f 776/459 772/452 756/449
f 772/452 776/459 789/458
f 776/459 756/449 757/460
f 776/459 757/460 765/461
f 776/459 765/461 767/462
f 776/459 767/462 789/458
f 767/462 765/461 744/463
f 767/462 744/463 541/464
f 806/465 809/457 788/453
f 806/465 788/453 789/458
f 809/457 806/465 822/466
f 809/457 822/466 817/456
f 822/466 806/465 816/467
f 816/467 806/465 789/458
f 817/456 822/466 824/372
f 822/466 816/467 823/468
f 822/466 823/468 824/372
f 824/372 823/468 819/373
f 817/456 824/372 846/368
f 817/456 846/368 835/469
f 817/456 835/469 839/455
f 835/469 846/368 845/470
f 835/469 845/470 839/455
f 845/470 846/368 859/471
f 845/470 859/471 839/455
f 859/471 846/368 860/351
f 839/455 859/471 854/472
f 859/471 860/351 847/352
f 854/472 859/471 861/473
f 861/473 859/471 847/352
f 861/473 847/352 853/474
f 853/474 847/352 802/353
f 853/474 802/353 803/328
f 803/328 802/353 792/475
f 803/328 792/475 774/476
f 803/328 774/476 752/325
f 792/475 802/353 787/477
f 792/475 787/477 774/476
f 774/476 787/477 752/325
f 787/477 802/353 737/335
f 787/477 737/335 752/325
f 749/478 727/479 698/480
f 749/478 698/480 736/481
f 749/478 736/481 756/482
f 756/482 736/481 757/483
f 757/483 736/481 735/484
f 757/483 735/484 765/485
f 736/481 698/480 689/486
f 736/481 689/486 735/484
f 689/486 698/480 656/487
f 656/487 698/480 674/488
f 656/487 674/488 627/489
f 689/486 656/487 648/490
f 648/490 656/487 627/489
f 689/486 648/490 685/491
f 689/486 685/491 735/484
f 685/491 648/490 626/492
f 735/484 685/491 678/493
f 678/493 685/491 626/492
f 648/490 627/489 612/494
f 648/490 612/494 626/492
f 612/494 627/489 613/495
f 613/495 627/489 633/496
f 612/494 613/495 697/497
f 697/497 613/495 709/498
f 626/492 612/494 700/499
f 700/499 612/494 697/497
f 697/497 709/498 720/500
f 697/497 720/500 700/499
f 720/500 709/498 706/501
f 720/500 706/501 696/502
f 696/502 706/501 695/503
f 720/500 696/502 714/504
f 720/500 714/504 730/505
f 720/500 730/505 700/499
f 700/499 730/505 710/506
f 700/499 710/506 626/492
f 710/506 730/505 732/507
f 626/492 710/506 628/508
f 628/508 710/506 732/507
f 626/492 628/508 678/493
f 628/508 732/507 615/509
f 678/493 628/508 650/510
f 650/510 628/508 615/509
f 678/493 650/510 684/511
f 615/509 732/507 411/512
f 411/512 732/507 402/513
f 615/509 411/512 426/514
f 411/512 402/513 384/515
f 411/512 384/515 426/514
f 384/515 402/513 367/516
f 615/509 426/514 466/517
f 466/517 426/514 384/515
f 644/518 650/510 615/509
f 644/518 615/509 466/517
f 650/510 644/518 684/511
f 644/518 466/517 666/519
f 644/518 666/519 684/511
f 684/511 666/519 715/520
f 715/520 666/519 466/517
f 731/521 678/493 684/511
f 678/493 731/521 735/484
f 731/521 684/511 728/522
f 728/522 684/511 715/520
f 735/484 731/521 753/523
f 753/523 731/521 728/522
f 753/523 728/522 715/520
f 735/484 753/523 765/485
f 765/485 753/523 744/524
f 744/524 753/523 715/520
f 744/524 715/520 541/525
f 541/525 715/520 466/517
f 541/525 466/517 27/526
f 541/525 27/526 364/527
f 364/527 27/526 34/528
f 34/528 27/526 173/529
f 27/526 466/517 19/530
f 173/529 27/526 168/531
f 19/530 466/517 384/515
f 173/529 168/531 185/532
f 173/529 185/532 177/533
f 168/531 27/526 179/534
f 179/534 27/526 19/530
f 168/531 179/534 178/535
f 168/531 178/535 174/536
f 179/534 19/530 210/537
f 185/532 168/531 184/538
f 185/532 184/538 177/533
f 184/538 168/531 174/536
f 177/533 184/538 167/539
f 167/539 184/538 174/536
f 167/539 174/536 150/540
f 167/539 150/540 151/541
f 167/539 151/541 141/542
f 167/539 141/542 147/543
f 177/533 167/539 155/544
f 167/539 147/543 175/545
f 167/539 175/545 155/544
f 155/544 175/545 156/546
f 216/547 210/537 19/530
f 210/537 216/547 218/548
f 218/548 216/547 229/549
f 229/549 216/547 235/550
f 216/547 19/530 50/551
f 216/547 50/551 235/550
f 235/550 50/551 247/552
f 50/551 19/530 384/515
f 247/552 50/551 253/553
f 253/553 50/551 86/554
f 86/554 50/551 384/515
f 253/553 86/554 285/555
f 86/554 384/515 37/556
f 37/556 384/515 367/516
f 37/556 367/516 46/557
f 86/554 37/556 109/558
f 86/554 109/558 285/555
f 109/558 37/556 46/557
f 285/555 109/558 160/559
f 160/559 109/558 46/557
f 814/560 823/468 816/467
f 814/560 816/467 789/458
f 823/468 814/560 810/561
f 823/468 810/561 819/373
f 814/560 789/458 799/562
f 814/560 799/562 810/561
f 819/373 810/561 675/376
f 675/376 810/561 799/562
f 799/562 789/458 786/563
f 786/563 789/458 767/462
f 799/562 786/563 782/564
f 782/564 786/563 767/462
f 799/562 782/564 603/565
f 603/565 782/564 767/462
f 799/562 603/565 675/376
f 603/565 767/462 541/464
f 675/376 603/565 584/566
f 584/566 603/565 541/464
f 584/566 541/464 364/567
f 675/376 584/566 652/377
f 584/566 364/567 23/568
f 584/566 23/568 652/377
f 23/568 364/567 34/569
f 652/377 23/568 80/570
f 23/568 34/569 138/571
f 652/377 80/570 59/572
f 652/377 59/572 101/378
f 80/570 23/568 96/573
f 96/573 23/568 138/571
f 80/570 96/573 95/574
f 138/571 34/569 139/575
f 139/575 34/569 173/576
f 96/573 138/571 118/577
f 139/575 173/576 125/578
f 125/578 173/576 177/579
f 138/571 139/575 135/580
f 135/580 139/575 125/578
f 138/571 135/580 118/577
f 125/578 177/579 134/581
f 125/578 134/581 135/580
f 118/577 135/580 129/582
f 129/582 135/580 134/581
f 115/583 96/573 118/577
f 96/573 115/583 95/574
f 115/583 118/577 129/582
f 134/581 177/579 122/584
f 134/581 122/584 129/582
f 122/584 177/579 155/585
f 95/574 115/583 87/586
f 95/574 87/586 80/570
f 115/583 129/582 92/587
f 115/583 92/587 87/586
f 92/587 129/582 94/588
f 94/588 129/582 122/584
f 122/584 155/585 128/589
f 128/589 155/585 156/590
f 94/588 122/584 106/591
f 122/584 128/589 123/592
f 122/584 123/592 106/591
f 123/592 128/589 124/593
f 124/593 128/589 156/590
f 106/591 123/592 117/594
f 123/592 124/593 116/595
f 123/592 116/595 117/594
f 124/593 156/590 180/596
f 180/596 156/590 175/597
f 116/595 124/593 114/598
f 114/598 124/593 180/596
f 117/594 116/595 110/599
f 110/599 116/595 114/598
f 117/594 110/599 106/591
f 110/599 114/598 97/600
f 97/600 114/598 180/596
f 106/591 110/599 84/601
f 110/599 97/600 88/602
f 110/599 88/602 84/601
f 106/591 84/601 91/603
f 106/591 91/603 94/588
f 84/601 88/602 76/604
f 84/601 76/604 91/603
f 94/588 91/603 70/605
f 94/588 70/605 92/587
f 91/603 76/604 67/606
f 91/603 67/606 70/605
f 76/604 88/602 62/607
f 76/604 62/607 67/606
f 62/607 88/602 79/608
f 79/608 88/602 97/600
f 92/587 70/605 77/609
f 92/587 77/609 87/586
f 79/608 97/600 78/610
f 78/610 97/600 180/596
f 62/607 79/608 63/611
f 63/611 79/608 78/610
f 87/586 77/609 66/612
f 87/586 66/612 80/570
f 80/570 66/612 59/572
f 66/612 77/609 65/613
f 65/613 77/609 70/605
f 59/572 66/612 90/614
f 90/614 66/612 65/613
f 59/572 90/614 101/378
f 65/613 70/605 56/615
f 56/615 70/605 67/606
f 90/614 65/613 99/616
f 101/378 90/614 111/617
f 111/617 90/614 99/616
f 101/378 111/617 104/379
f 104/379 111/617 103/618
f 103/618 111/617 107/619
f 107/619 111/617 99/616
f 103/618 107/619 102/620
f 102/620 107/619 82/621
f 107/619 99/616 93/622
f 107/619 93/622 82/621
f 93/622 99/616 65/613
f 93/622 65/613 56/615
f 82/621 93/622 85/623
f 54/624 56/615 67/606
f 56/615 54/624 93/622
f 54/624 67/606 62/607
f 54/624 62/607 63/611
f 93/622 54/624 55/625
f 55/625 54/624 63/611
f 85/623 93/622 100/626
f 100/626 93/622 55/625
f 85/623 100/626 89/627
f 89/627 100/626 108/628
f 108/628 100/626 127/629
f 55/625 63/611 98/630
f 55/625 98/630 100/626
f 98/630 63/611 78/610
f 127/629 100/626 119/631
f 119/631 100/626 98/630
f 127/629 119/631 163/632
f 98/630 78/610 131/633
f 98/630 131/633 119/631
f 119/631 131/633 163/632
f 131/633 78/610 180/596
f 163/632 131/633 181/634
f 181/634 131/633 180/596
f 163/632 181/634 217/635
f 181/634 180/596 228/636
f 181/634 228/636 217/635
f 677/637 583/638 682/639
f 682/639 583/638 477/640
f 477/640 583/638 459/641
f 682/639 477/640 467/642
f 682/639 467/642 647/643
f 682/639 647/643 708/644
f 708/644 647/643 670/645
f 647/643 467/642 468/646
f 647/643 468/646 670/645
f 467/642 477/640 424/647
f 467/642 424/647 468/646
f 424/647 477/640 439/648
f 439/648 477/640 459/641
f 424/647 439/648 393/649
f 393/649 439/648 459/641
f 468/646 424/647 420/650
f 502/651 670/645 468/646
f 502/651 468/646 420/650
f 670/645 502/651 561/652
f 670/645 561/652 588/653
f 670/645 588/653 687/654
f 561/652 502/651 572/655
f 561/652 572/655 588/653
f 572/655 502/651 503/656
f 588/653 572/655 533/657
f 533/657 572/655 503/656
f 503/656 502/651 501/658
f 503/656 501/658 533/657
f 533/657 501/658 588/653
f 501/658 502/651 420/650
f 588/653 501/658 587/659
f 588/653 587/659 687/654
f 587/659 501/658 420/650
f 687/654 587/659 659/660
f 687/654 659/660 702/661
f 702/661 659/660 669/662
f 669/662 659/660 587/659
f 669/662 587/659 529/663
f 669/662 529/663 551/664
f 551/664 529/663 528/665
f 528/665 529/663 498/666
f 529/663 587/659 419/667
f 529/663 419/667 498/666
f 419/667 587/659 420/650
f 498/666 419/667 478/668
f 478/668 419/667 361/669
f 361/669 419/667 3/670
f 419/667 420/650 378/671
f 419/667 378/671 3/670
f 378/671 420/650 382/672
f 382/672 420/650 424/647
f 3/670 378/671 9/673
f 3/670 9/673 361/669
f 382/672 424/647 393/649
f 378/671 382/672 363/674
f 363/674 382/672 393/649
f 378/671 363/674 9/673
f 363/674 393/649 373/675
f 363/674 373/675 9/673
f 373/675 393/649 386/676
f 386/676 393/649 459/641
f 9/673 373/675 5/677
f 5/677 373/675 386/676
f 8/678 361/669 9/673
f 361/669 8/678 10/679
f 10/679 8/678 16/680
f 8/678 9/673 6/681
f 8/678 6/681 16/680
f 6/681 9/673 5/677
f 16/680 6/681 13/682
f 6/681 5/677 370/683
f 6/681 370/683 13/682
f 370/683 5/677 386/676
f 13/682 370/683 392/684
f 392/684 370/683 400/685
f 370/683 386/676 430/686
f 370/683 430/686 400/685
f 392/684 400/685 394/687
f 392/684 394/687 29/688
f 29/688 394/687 11/689
f 394/687 400/685 365/690
f 365/690 400/685 430/686
f 11/689 394/687 406/691
f 406/691 394/687 365/690
f 11/689 406/691 417/692
f 11/689 417/692 52/693
f 406/691 365/690 377/694
f 52/693 417/692 431/695
f 417/692 406/691 375/696
f 417/692 375/696 431/695
f 406/691 377/694 388/697
f 406/691 388/697 375/696
f 377/694 365/690 362/698
f 388/697 377/694 408/699
f 408/699 377/694 362/698
f 362/698 365/690 385/700
f 385/700 365/690 430/686
f 362/698 385/700 391/701
f 362/698 391/701 408/699
f 385/700 430/686 423/702
f 385/700 423/702 391/701
f 388/697 408/699 401/703
f 388/697 401/703 395/704
f 395/704 401/703 408/699
f 388/697 395/704 375/696
f 408/699 391/701 381/705
f 408/699 381/705 395/704
f 381/705 391/701 412/706
f 412/706 391/701 423/702
f 395/704 381/705 399/707
f 399/707 381/705 412/706
f 375/696 395/704 390/708
f 395/704 399/707 455/709
f 395/704 455/709 390/708
f 397/710 423/702 430/686
f 397/710 430/686 428/711
f 397/710 428/711 423/702
f 428/711 430/686 386/676
f 423/702 428/711 383/712
f 423/702 383/712 412/706
f 428/711 386/676 436/713
f 428/711 436/713 383/712
f 436/713 386/676 459/641
f 436/713 459/641 535/714
f 535/714 459/641 583/638
f 535/714 583/638 604/715
f 604/715 583/638 671/716
f 436/713 535/714 461/717
f 383/712 436/713 429/718
f 429/718 436/713 461/717
f 383/712 429/718 414/719
f 383/712 414/719 412/706
f 429/718 461/717 432/720
f 429/718 432/720 414/719
f 461/717 535/714 566/721
f 566/721 535/714 604/715
f 432/720 461/717 474/722
f 474/722 461/717 566/721
f 414/719 432/720 489/723
f 414/719 489/723 412/706
f 489/723 432/720 442/724
f 442/724 432/720 474/722
f 412/706 489/723 434/725
f 412/706 434/725 399/707
f 489/723 442/724 475/726
f 475/726 442/724 474/722
f 489/723 475/726 434/725
f 399/707 434/725 455/709
f 434/725 475/726 410/727
f 434/725 410/727 455/709
f 475/726 474/722 507/728
f 507/728 474/722 560/729
f 560/729 474/722 566/721
f 475/726 507/728 450/730
f 560/729 566/721 571/731
f 507/728 560/729 495/732
f 507/728 495/732 450/730
f 495/732 560/729 571/731
f 475/726 450/730 447/733
f 475/726 447/733 410/727
f 447/733 450/730 458/734
f 447/733 458/734 410/727
f 458/734 450/730 495/732
f 571/731 566/721 604/715
f 410/727 458/734 416/735
f 458/734 495/732 487/736
f 458/734 487/736 416/735
f 487/736 495/732 534/737
f 534/737 495/732 571/731
f 487/736 534/737 505/738
f 487/736 505/738 416/735
f 410/727 416/735 441/739
f 410/727 441/739 455/709
f 416/735 505/738 500/740
f 441/739 416/735 437/741
f 437/741 416/735 500/740
f 441/739 437/741 404/742
f 441/739 404/742 455/709
f 437/741 500/740 425/743
f 437/741 425/743 404/742
f 455/709 404/742 421/744
f 455/709 421/744 390/708
f 390/708 421/744 407/745
f 407/745 421/744 404/742
f 390/708 407/745 375/696
f 404/742 425/743 389/746
f 404/742 389/746 407/745
f 389/746 425/743 415/747
f 375/696 407/745 418/748
f 415/747 425/743 472/749
f 389/746 415/747 422/750
f 422/750 415/747 472/749
f 407/745 389/746 443/751
f 443/751 389/746 422/750
f 407/745 443/751 427/752
f 407/745 427/752 418/748
f 418/748 427/752 443/751
f 431/695 375/696 418/748
f 418/748 443/751 396/753
f 396/753 443/751 422/750
f 418/748 396/753 431/695
f 396/753 422/750 440/754
f 440/754 422/750 483/755
f 483/755 422/750 472/749
f 396/753 440/754 409/756
f 463/757 472/749 425/743
f 463/757 425/743 500/740
f 472/749 463/757 457/758
f 457/758 463/757 500/740
f 472/749 457/758 469/759
f 472/749 469/759 483/755
f 396/753 409/756 405/760
f 396/753 405/760 431/695
f 405/760 409/756 451/761
f 431/695 405/760 464/762
f 464/762 405/760 451/761
f 445/763 409/756 440/754
f 445/763 440/754 483/755
f 409/756 445/763 451/761
f 481/764 483/755 469/759
f 471/765 469/759 457/758
f 469/759 471/765 481/764
f 483/755 481/764 448/766
f 483/755 448/766 445/763
f 451/761 445/763 462/767
f 448/766 481/764 509/768
f 445/763 448/766 444/769
f 444/769 448/766 509/768
f 445/763 444/769 452/770
f 445/763 452/770 462/767
f 451/761 462/767 449/771
f 449/771 462/767 452/770
f 451/761 449/771 413/772
f 449/771 452/770 435/773
f 449/771 435/773 413/772
f 413/772 435/773 480/774
f 435/773 452/770 476/775
f 476/775 452/770 497/776
f 497/776 452/770 444/769
f 451/761 413/772 464/762
f 464/762 413/772 473/777
f 497/776 444/769 493/778
f 497/776 493/778 506/779
f 493/778 444/769 509/768
f 506/779 493/778 499/780
f 499/780 493/778 509/768
f 499/780 509/768 526/781
f 499/780 526/781 553/782
f 553/782 526/781 565/783
f 526/781 509/768 552/784
f 526/781 552/784 565/783
f 552/784 509/768 540/785
f 540/785 509/768 481/764
f 540/785 481/764 471/765
f 552/784 540/785 527/786
f 527/786 540/785 471/765
f 552/784 527/786 542/787
f 542/787 527/786 471/765
f 617/788 565/783 552/784
f 617/788 552/784 542/787
f 542/787 471/765 490/789
f 490/789 471/765 457/758
f 490/789 457/758 500/740
f 542/787 490/789 531/790
f 542/787 531/790 617/788
f 490/789 500/740 510/791
f 490/789 510/791 531/790
f 510/791 500/740 505/738
f 510/791 505/738 534/737
f 531/790 510/791 586/792
f 586/792 510/791 534/737
f 531/790 586/792 617/788
f 586/792 534/737 571/731
f 586/792 571/731 599/793
f 586/792 599/793 617/788
f 599/793 571/731 604/715
f 617/788 599/793 635/794
f 617/788 635/794 565/783
f 565/783 635/794 649/795
f 635/794 599/793 673/796
f 673/796 599/793 604/715
f 635/794 673/796 690/797
f 673/796 604/715 671/716
f 690/797 673/796 746/798
f 746/798 673/796 671/716
f 695/799 669/800 654/801
f 654/801 669/800 551/802
f 695/799 654/801 658/803
f 695/799 658/803 696/804
f 654/801 551/802 525/805
f 525/805 551/802 528/806
f 658/803 654/801 515/807
f 515/807 654/801 525/805
f 525/805 528/806 491/808
f 491/808 528/806 498/809
f 491/808 498/809 478/810
f 491/808 478/810 525/805
f 525/805 478/810 515/807
f 624/811 696/804 658/803
f 624/811 658/803 515/807
f 696/804 624/811 634/812
f 515/807 478/810 372/813
f 372/813 478/810 374/814
f 374/814 478/810 361/815
f 515/807 372/813 379/816
f 374/814 361/815 360/817
f 360/817 361/815 10/818
f 372/813 374/814 368/819
f 372/813 368/819 379/816
f 374/814 360/817 366/820
f 374/814 366/820 368/819
f 360/817 10/818 35/821
f 360/817 35/821 366/820
f 35/821 10/818 53/822
f 387/823 515/807 379/816
f 515/807 387/823 624/811
f 369/824 379/816 368/819
f 379/816 369/824 387/823
f 624/811 387/823 592/825
f 624/811 592/825 634/812
f 387/823 369/824 398/826
f 387/823 398/826 592/825
f 398/826 369/824 367/827
f 592/825 398/826 631/828
f 592/825 631/828 634/812
f 398/826 367/827 402/829
f 398/826 402/829 631/828
f 367/827 369/824 17/830
f 17/830 369/824 368/819
f 367/827 17/830 46/831
f 631/828 402/829 663/832
f 631/828 663/832 634/812
f 663/832 402/829 732/833
f 634/812 663/832 713/834
f 713/834 663/832 732/833
f 634/812 713/834 719/835
f 719/835 713/834 732/833
f 634/812 719/835 696/804
f 719/835 732/833 730/836
f 696/804 719/835 714/837
f 714/837 719/835 730/836
f 40/838 46/831 17/830
f 46/831 40/838 160/839
f 31/840 17/830 368/819
f 17/830 31/840 40/838
f 31/840 368/819 366/820
f 31/840 366/820 33/841
f 33/841 366/820 35/821
f 31/840 33/841 42/842
f 31/840 42/842 40/838
f 42/842 33/841 38/843
f 38/843 33/841 35/821
f 42/842 38/843 105/844
f 105/844 38/843 35/821
f 40/838 42/842 113/845
f 113/845 42/842 105/844
f 105/844 35/821 121/846
f 121/846 35/821 197/847
f 105/844 121/846 209/848
f 105/844 209/848 113/845
f 209/848 121/846 197/847
f 197/847 35/821 53/822
f 197/847 53/822 251/849
f 251/849 53/822 263/850
f 263/850 53/822 316/851
f 251/849 263/850 301/852
f 301/852 263/850 316/851
f 251/849 301/852 197/847
f 301/852 316/851 348/853
f 197/847 301/852 346/854
f 346/854 301/852 348/853
f 197/847 346/854 209/848
f 346/854 348/853 356/855
f 356/855 348/853 355/856
f 209/848 346/854 338/857
f 338/857 346/854 356/855
f 356/855 355/856 350/858
f 356/855 350/858 352/859
f 338/857 356/855 334/860
f 334/860 356/855 352/859
f 352/859 350/858 345/861
f 352/859 345/861 334/860
f 345/861 350/858 353/862
f 353/862 350/858 359/863
f 334/860 345/861 333/864
f 333/864 345/861 353/862
f 353/862 359/863 358/865
f 334/860 333/864 324/866
f 358/865 359/863 357/867
f 357/867 359/863 354/868
f 353/862 358/865 347/869
f 358/865 357/867 351/870
f 358/865 351/870 347/869
f 357/867 354/868 342/871
f 342/871 354/868 312/872
f 353/862 347/869 341/873
f 353/862 341/873 333/864
f 341/873 347/869 325/874
f 325/874 347/869 351/870
f 333/864 341/873 307/875
f 307/875 341/873 325/874
f 333/864 307/875 324/866
f 342/871 312/872 299/876
f 299/876 312/872 244/877
f 343/878 357/867 342/871
f 357/867 343/878 351/870
f 343/878 342/871 337/879
f 337/879 342/871 299/876
f 351/870 343/878 336/880
f 343/878 337/879 339/881
f 343/878 339/881 336/880
f 339/881 337/879 317/882
f 317/882 337/879 299/876
f 339/881 317/882 326/883
f 339/881 326/883 336/880
f 317/882 299/876 259/884
f 144/885 299/876 244/877
f 144/885 244/877 133/886
f 144/885 133/886 52/887
f 299/876 144/885 166/888
f 166/888 144/885 52/887
f 299/876 166/888 259/884
f 166/888 52/887 142/889
f 166/888 142/889 259/884
f 289/890 317/882 259/884
f 317/882 289/890 326/883
f 259/884 142/889 262/891
f 259/884 262/891 289/890
f 262/891 142/889 120/892
f 120/892 142/889 44/893
f 120/892 44/893 28/894
f 120/892 28/894 136/895
f 326/883 289/890 296/896
f 296/896 289/890 262/891
f 262/891 120/892 266/897
f 262/891 266/897 296/896
f 266/897 120/892 136/895
f 171/898 261/899 136/895
f 136/895 261/899 266/897
f 266/897 261/899 291/900
f 266/897 291/900 271/901
f 271/901 291/900 280/902
f 296/896 266/897 286/903
f 286/903 266/897 271/901
f 271/901 280/902 257/904
f 296/896 286/903 306/905
f 296/896 306/905 326/883
f 286/903 271/901 278/906
f 286/903 278/906 306/905
f 271/901 257/904 250/907
f 271/901 250/907 278/906
f 250/907 257/904 237/908
f 250/907 237/908 254/909
f 254/909 237/908 225/910
f 322/911 326/883 306/905
f 326/883 322/911 336/880
f 322/911 306/905 295/912
f 295/912 306/905 278/906
f 336/880 322/911 321/913
f 321/913 322/911 295/912
f 321/913 295/912 308/914
f 308/914 295/912 278/906
f 308/914 278/906 273/915
f 308/914 273/915 321/913
f 273/915 278/906 250/907
f 273/915 250/907 254/909
f 321/913 273/915 313/916
f 321/913 313/916 336/880
f 273/915 254/909 267/917
f 313/916 273/915 300/918
f 300/918 273/915 267/917
f 336/880 313/916 340/919
f 340/919 313/916 300/918
f 336/880 340/919 351/870
f 351/870 340/919 325/874
f 340/919 300/918 309/920
f 340/919 309/920 325/874
f 309/920 300/918 267/917
f 325/874 309/920 307/875
f 309/920 267/917 282/921
f 309/920 282/921 307/875
f 282/921 267/917 284/922
f 282/921 284/922 307/875
f 284/922 267/917 254/909
f 307/875 284/922 331/923
f 307/875 331/923 324/866
f 324/866 331/923 334/860
f 284/922 254/909 258/924
f 258/924 254/909 217/925
f 258/924 217/925 228/926
f 284/922 258/924 297/927
f 284/922 297/927 331/923
f 258/924 228/926 220/928
f 220/928 228/926 180/929
f 220/928 180/929 175/930
f 331/923 297/927 329/931
f 331/923 329/931 334/860
f 297/927 258/924 268/932
f 268/932 258/924 220/928
f 329/931 297/927 310/933
f 310/933 297/927 268/932
f 334/860 329/931 335/934
f 334/860 335/934 338/857
f 329/931 310/933 293/935
f 329/931 293/935 335/934
f 310/933 268/932 269/936
f 268/932 220/928 241/937
f 268/932 241/937 269/936
f 338/857 335/934 323/938
f 338/857 323/938 209/848
f 323/938 335/934 302/939
f 302/939 335/934 293/935
f 323/938 302/939 287/940
f 323/938 287/940 209/848
f 302/939 293/935 294/941
f 302/939 294/941 287/940
f 209/848 287/940 276/942
f 276/942 287/940 294/941
f 209/848 276/942 213/943
f 209/848 213/943 200/944
f 209/848 200/944 113/845
f 200/944 213/943 204/945
f 200/944 204/945 113/845
f 204/945 213/943 276/942
f 113/845 204/945 40/838
f 276/942 294/941 292/946
f 40/838 204/945 190/947
f 40/838 190/947 160/839
f 204/945 276/942 288/948
f 204/945 288/948 190/947
f 276/942 292/946 314/949
f 276/942 314/949 288/948
f 292/946 294/941 279/950
f 292/946 279/950 314/949
f 190/947 288/948 283/951
f 190/947 283/951 160/839
f 288/948 314/949 332/952
f 288/948 332/952 283/951
f 160/839 283/951 290/953
f 160/839 290/953 285/954
f 290/953 283/951 330/955
f 290/953 330/955 285/954
f 330/955 283/951 327/956
f 327/956 283/951 332/952
f 285/954 330/955 304/957
f 285/954 304/957 253/958
f 330/955 327/956 320/959
f 330/955 320/959 304/957
f 253/958 304/957 260/960
f 253/958 260/960 247/961
f 304/957 320/959 298/962
f 304/957 298/962 260/960
f 320/959 327/956 315/963
f 320/959 315/963 298/962
f 315/963 327/956 332/952
f 247/961 260/960 252/964
f 247/961 252/964 235/965
f 260/960 298/962 305/966
f 305/966 298/962 315/963
f 252/964 260/960 255/967
f 252/964 255/967 235/965
f 255/967 260/960 305/966
f 315/963 332/952 311/968
f 315/963 311/968 305/966
f 311/968 332/952 314/949
f 311/968 314/949 279/950
f 311/968 279/950 305/966
f 255/967 305/966 275/969
f 275/969 305/966 279/950
f 240/970 235/965 255/967
f 240/970 255/967 236/971
f 236/971 255/967 275/969
f 235/965 240/970 233/972
f 235/965 233/972 229/973
f 229/973 233/972 218/974
f 233/972 240/970 222/975
f 222/975 240/970 236/971
f 218/974 233/972 219/976
f 219/976 233/972 222/975
f 218/974 219/976 199/977
f 218/974 199/977 210/978
f 219/976 222/975 194/979
f 219/976 194/979 199/977
f 222/975 236/971 238/980
f 238/980 236/971 275/969
f 194/979 222/975 211/981
f 211/981 222/975 238/980
f 194/979 211/981 170/982
f 193/983 210/978 199/977
f 210/978 193/983 179/984
f 179/984 193/983 178/985
f 178/985 193/983 189/986
f 189/986 193/983 199/977
f 178/985 189/986 174/987
f 174/987 189/986 187/988
f 187/988 189/986 199/977
f 174/987 187/988 150/989
f 165/990 199/977 194/979
f 199/977 165/990 187/988
f 187/988 165/990 150/989
f 165/990 194/979 170/982
f 165/990 170/982 150/989
f 150/989 170/982 151/991
f 151/991 170/982 154/992
f 151/991 154/992 141/993
f 154/992 170/982 196/994
f 196/994 170/982 211/981
f 141/993 154/992 146/995
f 141/993 146/995 147/996
f 154/992 196/994 198/997
f 154/992 198/997 146/995
f 196/994 211/981 231/998
f 196/994 231/998 198/997
f 231/998 211/981 238/980
f 147/996 146/995 161/999
f 161/999 146/995 198/997
f 147/996 161/999 157/1000
f 147/996 157/1000 175/930
f 175/930 157/1000 220/928
f 157/1000 161/999 183/1001
f 157/1000 183/1001 220/928
f 183/1001 161/999 198/997
f 220/928 183/1001 241/937
f 241/937 183/1001 206/1002
f 206/1002 183/1001 198/997
f 241/937 206/1002 269/936
f 269/936 206/1002 221/1003
f 206/1002 198/997 214/1004
f 206/1002 214/1004 221/1003
f 214/1004 198/997 231/998
f 269/936 221/1003 234/1005
f 234/1005 221/1003 214/1004
f 214/1004 231/998 232/1006
f 214/1004 232/1006 234/1005
f 232/1006 231/998 238/980
f 234/1005 232/1006 243/1007
f 243/1007 232/1006 238/980
f 269/936 234/1005 277/1008
f 277/1008 234/1005 243/1007
f 277/1008 243/1007 238/980
f 269/936 277/1008 310/933
f 277/1008 238/980 275/969
f 310/933 277/1008 293/935
f 277/1008 275/969 281/1009
f 277/1008 281/1009 293/935
f 281/1009 275/969 279/950
f 293/935 281/1009 294/941
f 294/941 281/1009 279/950
f 355/1010 348/1011 316/1012
f 355/1010 316/1012 328/1013
f 328/1013 316/1012 227/1014
f 355/1010 328/1013 318/1015
f 318/1015 328/1013 227/1014
f 227/1014 316/1012 53/1016
f 355/1010 318/1015 350/1017
f 227/1014 53/1016 16/1018
f 16/1018 53/1016 10/1019
f 227/1014 16/1018 58/1020
f 227/1014 58/1020 318/1015
f 58/1020 16/1018 13/1021
f 350/1017 318/1015 344/1022
f 350/1017 344/1022 359/1023
f 58/1020 13/1021 45/1024
f 45/1024 13/1021 392/1025
f 318/1015 58/1020 188/1026
f 188/1026 58/1020 45/1024
f 45/1024 392/1025 29/1027
f 318/1015 188/1026 303/1028
f 318/1015 303/1028 344/1022
f 188/1026 45/1024 207/1029
f 188/1026 207/1029 303/1028
f 45/1024 29/1027 43/1030
f 45/1024 43/1030 207/1029
f 43/1030 29/1027 60/1031
f 43/1030 60/1031 207/1029
f 60/1031 29/1027 11/1032
f 207/1029 60/1031 230/1033
f 230/1033 60/1031 11/1032
f 319/1034 303/1028 207/1029
f 319/1034 207/1029 230/1033
f 230/1033 11/1032 83/1035
f 83/1035 11/1032 52/1036
f 83/1035 52/1036 152/1037
f 83/1035 152/1037 230/1033
f 152/1037 52/1036 133/1038
f 152/1037 133/1038 244/1039
f 152/1037 244/1039 312/1040
f 152/1037 312/1040 230/1033
f 230/1033 312/1040 319/1034
f 319/1034 312/1040 349/1041
f 319/1034 349/1041 303/1028
f 349/1041 312/1040 354/1042
f 303/1028 349/1041 344/1022
f 349/1041 354/1042 359/1023
f 349/1041 359/1023 344/1022
f 44/1043 142/1044 4/1045
f 4/1045 142/1044 52/693
f 4/1045 52/693 431/695
f 4/1045 431/695 464/762
f 44/1043 4/1045 403/1046
f 403/1046 4/1045 464/762
f 44/1043 403/1046 28/1047
f 403/1046 464/762 473/777
f 403/1046 473/777 28/1047
f 28/1047 473/777 15/1048
f 28/1047 15/1048 136/1049
f 73/1050 49/1051 69/1052
f 89/1053 73/1050 85/1054
f 85/1054 73/1050 82/1055
f 82/1055 73/1050 69/1052
f 82/1055 69/1052 102/1056
f 102/1056 69/1052 103/1057
f 103/1057 69/1052 64/1058
f 103/1057 64/1058 68/1059
f 103/1057 68/1059 104/1060
